M48
; FORMAT={-:-/ absolute / metric / decimal}
; #@! TF.GenerationSoftware,Kicad,Pcbnew,6.0.11+dfsg-1
; #@! TF.FileFunction,Plated,1,2,PTH
FMAT,2
METRIC
; #@! TA.AperFunction,Plated,PTH,ViaDrill
T1C0.300
; #@! TA.AperFunction,Plated,PTH,ComponentDrill
T2C0.850
; #@! TA.AperFunction,Plated,PTH,ComponentDrill
T3C1.200
%
G90
G05
T1
X128.697Y-109.298
X128.762Y-66.037
X128.762Y-70.287
X128.762Y-72.287
X129.012Y-112.787
X129.762Y-102.037
X129.762Y-120.137
X130.762Y-72.037
X130.762Y-103.037
X130.897Y-113.903
X131.093Y-99.207
X131.362Y-68.438
X131.654Y-97.839
X131.762Y-103.037
X132.262Y-109.337
X132.362Y-62.137
X132.762Y-75.537
X133.162Y-69.138
X133.228Y-112.772
X133.262Y-103.037
X133.623Y-99.177
X134.062Y-119.938
X134.21Y-97.899
X134.262Y-80.037
X134.262Y-83.537
X134.762Y-103.037
X135.033Y-113.953
X135.262Y-79.037
X135.262Y-81.037
X135.262Y-83.037
X135.262Y-84.537
X135.692Y-68.237
X135.762Y-109.337
X135.862Y-73.337
X136.172Y-99.127
X136.262Y-103.037
X136.312Y-82.987
X136.662Y-62.137
X136.754Y-97.839
X136.762Y-79.037
X136.762Y-81.037
X137.008Y-85.393
X137.262Y-86.537
X137.463Y-69.237
X137.562Y-112.837
X137.762Y-103.037
X138.189Y-98.958
X138.262Y-79.037
X138.262Y-81.037
X138.262Y-87.537
X138.308Y-84.316
X138.362Y-119.938
X138.852Y-82.947
X138.863Y-97.678
X139.162Y-109.337
X139.262Y-88.537
X139.262Y-103.037
X139.333Y-113.837
X139.412Y-73.287
X139.762Y-79.037
X139.762Y-81.037
X139.762Y-89.537
X139.762Y-91.037
X139.762Y-92.537
X139.762Y-94.037
X139.992Y-68.122
X140.262Y-102.037
X140.562Y-101.237
X140.762Y-103.537
X140.862Y-84.337
X140.963Y-62.137
X141.262Y-79.037
X141.262Y-81.037
X141.403Y-82.897
X141.762Y-96.537
X141.762Y-104.537
X141.797Y-69.303
X141.863Y-112.938
X142.512Y-101.287
X142.662Y-119.938
X142.672Y-73.147
X142.762Y-79.037
X142.762Y-81.037
X142.762Y-105.037
X143.463Y-84.337
X143.662Y-113.637
X143.762Y-96.537
X143.762Y-98.037
X143.762Y-103.537
X143.762Y-105.037
X143.933Y-82.867
X144.128Y-68.172
X144.262Y-79.037
X144.262Y-81.037
X144.262Y-101.037
X144.762Y-99.537
X145.262Y-61.938
X145.262Y-93.037
X145.262Y-96.537
X145.262Y-98.037
X145.262Y-101.037
X145.262Y-103.537
X145.262Y-105.037
X145.762Y-79.037
X146.012Y-69.287
X146.012Y-93.037
X146.262Y-102.537
X146.262Y-105.037
X146.262Y-115.287
X146.262Y-116.037
X146.328Y-73.203
X146.762Y-93.037
X147.012Y-96.787
X147.262Y-78.537
X147.262Y-95.037
X147.262Y-104.537
X147.512Y-91.537
X147.512Y-92.287
X147.512Y-93.037
X147.762Y-85.287
X147.762Y-96.787
X148.262Y-77.537
X148.262Y-103.537
X148.512Y-85.287
X148.762Y-78.537
X148.762Y-86.787
X149.197Y-109.298
X149.262Y-66.037
X149.262Y-66.787
X149.262Y-77.037
X149.262Y-89.037
X149.512Y-87.537
X149.512Y-112.787
X149.714Y-80.037
X149.739Y-78.814
X149.762Y-103.037
X150.262Y-77.037
X150.262Y-86.037
X150.262Y-88.287
X150.262Y-120.137
X150.562Y-82.837
X150.762Y-80.037
X150.762Y-84.537
X150.762Y-89.037
X151.012Y-86.787
X151.262Y-93.837
X151.262Y-101.037
X151.262Y-103.037
X151.397Y-113.903
X151.463Y-82.037
X151.463Y-82.938
X151.593Y-99.207
X151.762Y-77.037
X151.762Y-80.037
X151.762Y-84.037
X151.762Y-85.287
X151.762Y-87.537
X151.862Y-68.438
X151.963Y-93.337
X151.963Y-94.337
X152.07Y-97.774
X152.512Y-86.037
X152.562Y-83.138
X152.762Y-77.037
X152.762Y-101.037
X152.762Y-103.037
X152.762Y-109.337
X152.766Y-81.839
X152.862Y-62.137
X153.512Y-87.037
X153.662Y-69.138
X153.728Y-112.772
X153.762Y-77.537
X154.062Y-85.237
X154.123Y-99.177
X154.262Y-101.037
X154.262Y-103.037
X154.54Y-86.46
X154.562Y-119.938
X154.71Y-97.899
X155.131Y-80.863
X155.533Y-113.953
X155.762Y-101.037
X155.762Y-103.037
X156.192Y-68.237
X156.262Y-109.337
X156.312Y-73.188
X156.662Y-84.397
X156.672Y-99.127
X156.762Y-79.037
X156.762Y-91.037
X156.812Y-82.987
X157.162Y-62.137
X157.254Y-97.839
X157.262Y-101.037
X157.262Y-103.037
X157.963Y-69.237
X158.062Y-112.837
X158.262Y-79.037
X158.762Y-89.537
X158.762Y-91.037
X158.762Y-101.037
X158.762Y-103.037
X158.819Y-84.34
X158.862Y-119.938
X159.213Y-99.087
X159.352Y-82.947
X159.631Y-97.752
X159.662Y-109.337
X159.762Y-73.337
X159.762Y-79.037
X159.762Y-81.037
X159.762Y-89.537
X159.762Y-92.537
X159.833Y-113.837
X160.262Y-103.037
X160.492Y-68.122
X160.762Y-89.537
X160.762Y-92.537
X161.262Y-79.037
X161.262Y-81.037
X161.362Y-84.337
X161.463Y-62.137
X161.762Y-89.537
X161.762Y-92.537
X161.762Y-96.037
X161.762Y-99.537
X161.762Y-103.037
X161.903Y-82.897
X162.297Y-69.303
X162.363Y-112.938
X162.762Y-79.037
X162.762Y-81.037
X163.162Y-119.938
X163.172Y-73.147
X163.262Y-96.037
X163.262Y-99.537
X163.262Y-103.037
X163.512Y-89.537
X163.908Y-84.316
X164.162Y-113.637
X164.262Y-79.037
X164.262Y-81.037
X164.433Y-82.867
X164.512Y-89.537
X164.628Y-68.172
X164.762Y-96.037
X164.762Y-99.537
X164.762Y-103.037
X165.512Y-89.537
X165.762Y-61.938
X165.762Y-79.037
X165.762Y-81.037
X165.762Y-86.537
X166.262Y-96.037
X166.262Y-99.537
X166.262Y-103.037
X166.512Y-69.287
X166.512Y-89.537
X166.562Y-90.938
X166.762Y-84.037
X166.762Y-115.287
X166.762Y-116.037
X166.828Y-73.272
X167.262Y-79.037
X167.572Y-91.033
X167.738Y-87.338
X167.762Y-93.537
X167.762Y-94.537
X167.762Y-96.037
X167.762Y-99.537
X167.762Y-103.037
X168.262Y-87.838
X168.27Y-91.064
X168.762Y-79.037
X168.762Y-82.537
X168.762Y-87.037
X168.762Y-97.287
X168.884Y-88.438
X169.071Y-91.087
X169.262Y-93.537
X169.262Y-96.537
X169.262Y-103.037
X169.697Y-109.298
X169.762Y-66.037
X169.762Y-66.787
X169.762Y-88.837
X169.963Y-91.037
X169.963Y-97.837
X170.012Y-96.037
X170.012Y-112.787
X170.262Y-79.037
X170.262Y-82.537
X170.262Y-87.037
X170.512Y-89.537
X170.762Y-101.037
X170.762Y-103.037
X170.762Y-120.137
X171.512Y-89.537
X171.762Y-79.037
X171.762Y-82.537
X171.762Y-87.037
X171.897Y-113.903
X172.093Y-99.207
X172.262Y-101.037
X172.262Y-103.037
X172.362Y-68.438
X172.512Y-89.537
X172.654Y-97.839
X172.762Y-95.537
X173.262Y-79.037
X173.262Y-82.537
X173.262Y-87.037
X173.262Y-109.337
X173.362Y-62.137
X173.512Y-89.537
X173.762Y-101.037
X173.762Y-103.037
X174.162Y-69.138
X174.228Y-112.772
X174.623Y-99.177
X174.762Y-79.037
X174.762Y-82.537
X174.762Y-87.037
X174.762Y-89.537
X174.762Y-92.537
X175.062Y-119.938
X175.21Y-97.899
X175.262Y-101.037
X175.262Y-103.037
X175.762Y-89.537
X175.762Y-92.537
X176.033Y-113.953
X176.262Y-79.037
X176.262Y-81.037
X176.262Y-87.037
X176.692Y-68.237
X176.762Y-89.537
X176.762Y-92.537
X176.762Y-101.037
X176.762Y-103.037
X176.762Y-109.337
X176.771Y-84.236
X176.862Y-73.287
X177.172Y-99.127
X177.312Y-82.987
X177.662Y-62.137
X177.754Y-97.839
X177.762Y-79.037
X177.762Y-81.037
X178.262Y-89.138
X178.262Y-103.037
X178.463Y-69.237
X178.562Y-112.837
X179.262Y-79.037
X179.262Y-81.037
X179.262Y-89.138
X179.262Y-99.037
X179.271Y-84.236
X179.362Y-119.938
X179.762Y-103.037
X179.852Y-82.947
X179.863Y-97.678
X180.162Y-109.337
X180.262Y-73.337
X180.333Y-113.837
X180.762Y-79.037
X180.762Y-81.037
X180.762Y-87.037
X180.992Y-68.122
X181.235Y-101.062
X181.871Y-84.236
X181.963Y-62.137
X182.262Y-79.037
X182.262Y-81.037
X182.403Y-82.897
X182.6Y-96.875
X182.762Y-95.537
X182.762Y-104.537
X182.797Y-69.303
X182.863Y-112.938
X183.662Y-119.938
X183.672Y-73.248
X183.762Y-79.037
X183.762Y-81.037
X183.762Y-95.537
X183.762Y-105.037
X183.787Y-100.537
X184.262Y-99.537
X184.408Y-84.316
X184.662Y-113.637
X184.762Y-96.037
X184.762Y-97.537
X184.762Y-102.037
X184.762Y-105.037
X184.933Y-82.867
X185.128Y-68.172
X185.262Y-79.037
X185.262Y-81.037
X185.262Y-91.537
X185.262Y-99.537
X185.262Y-100.537
X185.463Y-96.637
X185.762Y-98.037
X185.762Y-101.537
X186.262Y-61.938
X186.262Y-95.537
X186.262Y-97.037
X186.262Y-105.037
X186.762Y-79.037
X186.762Y-91.537
X186.762Y-99.037
X186.762Y-100.037
X187.012Y-69.287
X187.262Y-105.037
X187.262Y-115.287
X187.262Y-116.037
X187.328Y-73.203
X187.762Y-103.037
X188.012Y-96.787
X188.262Y-78.537
X188.262Y-91.537
X188.262Y-95.537
X188.262Y-104.537
X188.762Y-85.287
X188.762Y-87.037
X188.762Y-96.787
X189.262Y-77.537
X189.262Y-103.537
X189.512Y-85.287
X189.762Y-79.037
X190.197Y-109.298
X190.262Y-66.037
X190.262Y-66.787
X190.262Y-77.037
X190.262Y-85.037
X190.262Y-87.037
X190.262Y-91.537
X190.563Y-112.787
X190.762Y-82.537
X190.762Y-103.037
X190.962Y-85.938
X191.262Y-77.037
X191.262Y-81.037
X191.262Y-120.137
X191.662Y-86.438
X191.762Y-82.737
X191.762Y-84.037
X192.262Y-101.037
X192.262Y-103.037
X192.397Y-113.903
X192.593Y-99.207
X192.762Y-77.037
X192.762Y-80.037
X192.762Y-83.037
X192.862Y-68.438
X193.062Y-84.438
X193.062Y-97.737
X193.562Y-85.837
X193.752Y-81.684
X193.762Y-77.037
X193.762Y-101.037
X193.762Y-103.037
X193.762Y-109.337
X193.862Y-62.137
X194.662Y-69.138
X194.728Y-112.772
X194.762Y-77.537
X194.762Y-90.037
X194.762Y-91.537
X194.962Y-85.138
X195.123Y-99.177
X195.262Y-101.037
X195.262Y-103.037
X195.562Y-119.938
X195.662Y-97.837
X196.162Y-80.863
X196.533Y-113.953
X196.762Y-88.037
X196.762Y-101.037
X196.762Y-103.037
X197.062Y-89.638
X197.192Y-68.237
X197.262Y-109.337
X197.362Y-73.287
X197.662Y-84.397
X197.672Y-99.127
X197.812Y-82.987
X197.962Y-89.638
X198.162Y-62.137
X198.254Y-97.839
X198.262Y-79.037
X198.262Y-88.037
X198.262Y-101.037
X198.262Y-103.037
X198.962Y-69.237
X199.062Y-112.837
X199.762Y-79.037
X199.762Y-81.037
X199.762Y-88.037
X199.762Y-101.037
X199.762Y-103.037
X199.771Y-84.236
X199.862Y-119.938
X200.212Y-99.087
X200.262Y-91.337
X200.352Y-82.947
X200.662Y-109.337
X200.762Y-73.337
X200.833Y-113.837
X200.865Y-97.978
X201.262Y-79.037
X201.262Y-81.037
X201.262Y-88.037
X201.262Y-101.037
X201.262Y-103.037
X201.492Y-68.122
X202.262Y-85.938
X202.317Y-84.178
X202.462Y-62.137
X202.762Y-79.037
X202.762Y-81.037
X202.762Y-88.037
X202.762Y-99.037
X202.762Y-100.537
X202.762Y-103.037
X202.903Y-82.897
X203.297Y-69.303
X203.363Y-112.938
X203.762Y-81.037
X203.762Y-88.537
X203.762Y-90.037
X203.762Y-91.537
X203.762Y-93.037
X203.762Y-94.537
X203.762Y-96.037
X203.762Y-97.537
X203.762Y-99.037
X203.762Y-100.537
X204.162Y-119.938
X204.172Y-73.347
X204.262Y-79.037
X204.262Y-103.037
X204.462Y-81.037
X205.162Y-113.637
X205.262Y-87.037
X205.433Y-82.867
X205.628Y-68.172
X205.762Y-79.037
X205.762Y-86.537
X205.762Y-103.037
X206.762Y-61.938
X206.762Y-80.037
X206.762Y-85.537
X206.762Y-87.037
X206.762Y-88.537
X206.762Y-90.037
X206.762Y-91.537
X206.762Y-93.037
X206.762Y-94.537
X206.762Y-96.037
X206.762Y-97.537
X206.762Y-99.037
X206.762Y-100.537
X206.762Y-102.037
X207.762Y-115.287
X207.762Y-116.037
X207.828Y-73.203
T2
X128.373Y-91.737
X130.912Y-91.737
X133.452Y-91.737
X135.993Y-91.737
X141.072Y-91.737
X143.612Y-91.737
X146.153Y-91.737
T3
X130.512Y-54.537
X130.512Y-127.537
X134.012Y-54.537
X134.012Y-127.537
X137.512Y-54.537
X137.512Y-127.537
X141.012Y-54.537
X141.012Y-127.537
X144.512Y-54.537
X144.512Y-127.537
X151.012Y-54.537
X151.012Y-127.537
X154.512Y-54.537
X154.512Y-127.537
X158.012Y-54.537
X158.012Y-127.537
X161.512Y-54.537
X161.512Y-127.537
X165.012Y-54.537
X165.012Y-127.537
X171.512Y-54.537
X171.512Y-127.537
X175.012Y-54.537
X175.012Y-127.537
X178.512Y-54.537
X178.512Y-127.537
X182.012Y-54.537
X182.012Y-127.537
X185.512Y-54.537
X185.512Y-127.537
X192.012Y-54.537
X192.012Y-127.537
X195.512Y-54.537
X195.512Y-127.537
X199.012Y-54.537
X199.012Y-127.537
X202.512Y-54.537
X202.512Y-127.537
X206.012Y-54.537
X206.012Y-127.537
T0
M30
