G04 #@! TF.GenerationSoftware,KiCad,Pcbnew,6.0.10+dfsg-1~bpo11+1*
G04 #@! TF.ProjectId,project,70726f6a-6563-4742-9e6b-696361645f70,rev?*
G04 #@! TF.SameCoordinates,Original*
G04 #@! TF.FileFunction,Soldermask,Top*
G04 #@! TF.FilePolarity,Negative*
%FSLAX46Y46*%
G04 Gerber Fmt 4.6, Leading zero omitted, Abs format (unit mm)*
%MOMM*%
%LPD*%
G01*
G04 APERTURE LIST*
G04 #@! TA.AperFunction,Profile*
%ADD10C,0.100000*%
G04 #@! TD*
%ADD11R,0.700000X1.000000*%
%ADD12R,1.100000X1.100000*%
%ADD13R,0.500000X0.500000*%
%ADD14O,1.800000X3.600000*%
%ADD15C,1.552000*%
%ADD16R,0.800000X1.300000*%
%ADD17R,1.850000X1.850000*%
%ADD18C,1.850000*%
%ADD19R,0.900000X1.300000*%
G04 APERTURE END LIST*
D10*
X125512500Y-133037500D02*
G75*
G03*
X126512500Y-134037500I1000000J0D01*
G01*
X211012500Y-49037500D02*
X211012500Y-133037500D01*
X210012500Y-134037500D02*
X126512500Y-134037500D01*
X126512500Y-48037500D02*
X210012500Y-48037500D01*
X210012500Y-134037500D02*
G75*
G03*
X211012500Y-133037500I0J1000000D01*
G01*
X211012500Y-49037500D02*
G75*
G03*
X210012500Y-48037500I-1000000J0D01*
G01*
X126512500Y-48037500D02*
G75*
G03*
X125512500Y-49037500I0J-1000000D01*
G01*
X125512500Y-133037500D02*
X125512500Y-49037500D01*
G36*
G01*
X172612500Y-73587500D02*
X172612500Y-74487500D01*
G75*
G02*
X172362500Y-74737500I-250000J0D01*
G01*
X171662500Y-74737500D01*
G75*
G02*
X171412500Y-74487500I0J250000D01*
G01*
X171412500Y-73587500D01*
G75*
G02*
X171662500Y-73337500I250000J0D01*
G01*
X172362500Y-73337500D01*
G75*
G02*
X172612500Y-73587500I0J-250000D01*
G01*
G37*
G36*
G01*
X170612500Y-73587500D02*
X170612500Y-74487500D01*
G75*
G02*
X170362500Y-74737500I-250000J0D01*
G01*
X169662500Y-74737500D01*
G75*
G02*
X169412500Y-74487500I0J250000D01*
G01*
X169412500Y-73587500D01*
G75*
G02*
X169662500Y-73337500I250000J0D01*
G01*
X170362500Y-73337500D01*
G75*
G02*
X170612500Y-73587500I0J-250000D01*
G01*
G37*
D11*
X207462500Y-75837500D03*
X205562500Y-75837500D03*
X206512500Y-78237500D03*
G36*
G01*
X192480000Y-121312500D02*
X191580000Y-121312500D01*
G75*
G02*
X191330000Y-121062500I0J250000D01*
G01*
X191330000Y-120362500D01*
G75*
G02*
X191580000Y-120112500I250000J0D01*
G01*
X192480000Y-120112500D01*
G75*
G02*
X192730000Y-120362500I0J-250000D01*
G01*
X192730000Y-121062500D01*
G75*
G02*
X192480000Y-121312500I-250000J0D01*
G01*
G37*
G36*
G01*
X192480000Y-119312500D02*
X191580000Y-119312500D01*
G75*
G02*
X191330000Y-119062500I0J250000D01*
G01*
X191330000Y-118362500D01*
G75*
G02*
X191580000Y-118112500I250000J0D01*
G01*
X192480000Y-118112500D01*
G75*
G02*
X192730000Y-118362500I0J-250000D01*
G01*
X192730000Y-119062500D01*
G75*
G02*
X192480000Y-119312500I-250000J0D01*
G01*
G37*
G36*
G01*
X201362500Y-90837500D02*
X201362500Y-91737500D01*
G75*
G02*
X201112500Y-91987500I-250000J0D01*
G01*
X200412500Y-91987500D01*
G75*
G02*
X200162500Y-91737500I0J250000D01*
G01*
X200162500Y-90837500D01*
G75*
G02*
X200412500Y-90587500I250000J0D01*
G01*
X201112500Y-90587500D01*
G75*
G02*
X201362500Y-90837500I0J-250000D01*
G01*
G37*
G36*
G01*
X199362500Y-90837500D02*
X199362500Y-91737500D01*
G75*
G02*
X199112500Y-91987500I-250000J0D01*
G01*
X198412500Y-91987500D01*
G75*
G02*
X198162500Y-91737500I0J250000D01*
G01*
X198162500Y-90837500D01*
G75*
G02*
X198412500Y-90587500I250000J0D01*
G01*
X199112500Y-90587500D01*
G75*
G02*
X199362500Y-90837500I0J-250000D01*
G01*
G37*
D12*
X197762500Y-61937500D03*
X197762500Y-59137500D03*
D13*
X194430000Y-114712500D03*
X196630000Y-114712500D03*
D12*
X177262500Y-61937500D03*
X177262500Y-59137500D03*
D11*
X197462500Y-75837500D03*
X195562500Y-75837500D03*
X196512500Y-78237500D03*
G36*
G01*
X192062500Y-63437500D02*
X192962500Y-63437500D01*
G75*
G02*
X193212500Y-63687500I0J-250000D01*
G01*
X193212500Y-64387500D01*
G75*
G02*
X192962500Y-64637500I-250000J0D01*
G01*
X192062500Y-64637500D01*
G75*
G02*
X191812500Y-64387500I0J250000D01*
G01*
X191812500Y-63687500D01*
G75*
G02*
X192062500Y-63437500I250000J0D01*
G01*
G37*
G36*
G01*
X192062500Y-65437500D02*
X192962500Y-65437500D01*
G75*
G02*
X193212500Y-65687500I0J-250000D01*
G01*
X193212500Y-66387500D01*
G75*
G02*
X192962500Y-66637500I-250000J0D01*
G01*
X192062500Y-66637500D01*
G75*
G02*
X191812500Y-66387500I0J250000D01*
G01*
X191812500Y-65687500D01*
G75*
G02*
X192062500Y-65437500I250000J0D01*
G01*
G37*
G36*
G01*
X198112500Y-73587500D02*
X198112500Y-74487500D01*
G75*
G02*
X197862500Y-74737500I-250000J0D01*
G01*
X197162500Y-74737500D01*
G75*
G02*
X196912500Y-74487500I0J250000D01*
G01*
X196912500Y-73587500D01*
G75*
G02*
X197162500Y-73337500I250000J0D01*
G01*
X197862500Y-73337500D01*
G75*
G02*
X198112500Y-73587500I0J-250000D01*
G01*
G37*
G36*
G01*
X196112500Y-73587500D02*
X196112500Y-74487500D01*
G75*
G02*
X195862500Y-74737500I-250000J0D01*
G01*
X195162500Y-74737500D01*
G75*
G02*
X194912500Y-74487500I0J250000D01*
G01*
X194912500Y-73587500D01*
G75*
G02*
X195162500Y-73337500I250000J0D01*
G01*
X195862500Y-73337500D01*
G75*
G02*
X196112500Y-73587500I0J-250000D01*
G01*
G37*
G36*
G01*
X130980000Y-121280000D02*
X130080000Y-121280000D01*
G75*
G02*
X129830000Y-121030000I0J250000D01*
G01*
X129830000Y-120330000D01*
G75*
G02*
X130080000Y-120080000I250000J0D01*
G01*
X130980000Y-120080000D01*
G75*
G02*
X131230000Y-120330000I0J-250000D01*
G01*
X131230000Y-121030000D01*
G75*
G02*
X130980000Y-121280000I-250000J0D01*
G01*
G37*
G36*
G01*
X130980000Y-119280000D02*
X130080000Y-119280000D01*
G75*
G02*
X129830000Y-119030000I0J250000D01*
G01*
X129830000Y-118330000D01*
G75*
G02*
X130080000Y-118080000I250000J0D01*
G01*
X130980000Y-118080000D01*
G75*
G02*
X131230000Y-118330000I0J-250000D01*
G01*
X131230000Y-119030000D01*
G75*
G02*
X130980000Y-119280000I-250000J0D01*
G01*
G37*
G36*
G01*
X190062500Y-65437500D02*
X190962500Y-65437500D01*
G75*
G02*
X191212500Y-65687500I0J-250000D01*
G01*
X191212500Y-66387500D01*
G75*
G02*
X190962500Y-66637500I-250000J0D01*
G01*
X190062500Y-66637500D01*
G75*
G02*
X189812500Y-66387500I0J250000D01*
G01*
X189812500Y-65687500D01*
G75*
G02*
X190062500Y-65437500I250000J0D01*
G01*
G37*
G36*
G01*
X190062500Y-67437500D02*
X190962500Y-67437500D01*
G75*
G02*
X191212500Y-67687500I0J-250000D01*
G01*
X191212500Y-68387500D01*
G75*
G02*
X190962500Y-68637500I-250000J0D01*
G01*
X190062500Y-68637500D01*
G75*
G02*
X189812500Y-68387500I0J250000D01*
G01*
X189812500Y-67687500D01*
G75*
G02*
X190062500Y-67437500I250000J0D01*
G01*
G37*
G36*
G01*
X136112500Y-59087500D02*
X136112500Y-59987500D01*
G75*
G02*
X135862500Y-60237500I-250000J0D01*
G01*
X135162500Y-60237500D01*
G75*
G02*
X134912500Y-59987500I0J250000D01*
G01*
X134912500Y-59087500D01*
G75*
G02*
X135162500Y-58837500I250000J0D01*
G01*
X135862500Y-58837500D01*
G75*
G02*
X136112500Y-59087500I0J-250000D01*
G01*
G37*
G36*
G01*
X134112500Y-59087500D02*
X134112500Y-59987500D01*
G75*
G02*
X133862500Y-60237500I-250000J0D01*
G01*
X133162500Y-60237500D01*
G75*
G02*
X132912500Y-59987500I0J250000D01*
G01*
X132912500Y-59087500D01*
G75*
G02*
X133162500Y-58837500I250000J0D01*
G01*
X133862500Y-58837500D01*
G75*
G02*
X134112500Y-59087500I0J-250000D01*
G01*
G37*
G36*
G01*
X203980000Y-123312500D02*
X203080000Y-123312500D01*
G75*
G02*
X202830000Y-123062500I0J250000D01*
G01*
X202830000Y-122362500D01*
G75*
G02*
X203080000Y-122112500I250000J0D01*
G01*
X203980000Y-122112500D01*
G75*
G02*
X204230000Y-122362500I0J-250000D01*
G01*
X204230000Y-123062500D01*
G75*
G02*
X203980000Y-123312500I-250000J0D01*
G01*
G37*
G36*
G01*
X203980000Y-121312500D02*
X203080000Y-121312500D01*
G75*
G02*
X202830000Y-121062500I0J250000D01*
G01*
X202830000Y-120362500D01*
G75*
G02*
X203080000Y-120112500I250000J0D01*
G01*
X203980000Y-120112500D01*
G75*
G02*
X204230000Y-120362500I0J-250000D01*
G01*
X204230000Y-121062500D01*
G75*
G02*
X203980000Y-121312500I-250000J0D01*
G01*
G37*
G36*
G01*
X176887500Y-88812500D02*
X176887500Y-89762500D01*
G75*
G02*
X176637500Y-90012500I-250000J0D01*
G01*
X175962500Y-90012500D01*
G75*
G02*
X175712500Y-89762500I0J250000D01*
G01*
X175712500Y-88812500D01*
G75*
G02*
X175962500Y-88562500I250000J0D01*
G01*
X176637500Y-88562500D01*
G75*
G02*
X176887500Y-88812500I0J-250000D01*
G01*
G37*
G36*
G01*
X174812500Y-88812500D02*
X174812500Y-89762500D01*
G75*
G02*
X174562500Y-90012500I-250000J0D01*
G01*
X173887500Y-90012500D01*
G75*
G02*
X173637500Y-89762500I0J250000D01*
G01*
X173637500Y-88812500D01*
G75*
G02*
X173887500Y-88562500I250000J0D01*
G01*
X174562500Y-88562500D01*
G75*
G02*
X174812500Y-88812500I0J-250000D01*
G01*
G37*
G36*
G01*
X162980000Y-119312500D02*
X162080000Y-119312500D01*
G75*
G02*
X161830000Y-119062500I0J250000D01*
G01*
X161830000Y-118362500D01*
G75*
G02*
X162080000Y-118112500I250000J0D01*
G01*
X162980000Y-118112500D01*
G75*
G02*
X163230000Y-118362500I0J-250000D01*
G01*
X163230000Y-119062500D01*
G75*
G02*
X162980000Y-119312500I-250000J0D01*
G01*
G37*
G36*
G01*
X162980000Y-117312500D02*
X162080000Y-117312500D01*
G75*
G02*
X161830000Y-117062500I0J250000D01*
G01*
X161830000Y-116362500D01*
G75*
G02*
X162080000Y-116112500I250000J0D01*
G01*
X162980000Y-116112500D01*
G75*
G02*
X163230000Y-116362500I0J-250000D01*
G01*
X163230000Y-117062500D01*
G75*
G02*
X162980000Y-117312500I-250000J0D01*
G01*
G37*
G36*
G01*
X160480000Y-121312500D02*
X159580000Y-121312500D01*
G75*
G02*
X159330000Y-121062500I0J250000D01*
G01*
X159330000Y-120362500D01*
G75*
G02*
X159580000Y-120112500I250000J0D01*
G01*
X160480000Y-120112500D01*
G75*
G02*
X160730000Y-120362500I0J-250000D01*
G01*
X160730000Y-121062500D01*
G75*
G02*
X160480000Y-121312500I-250000J0D01*
G01*
G37*
G36*
G01*
X160480000Y-119312500D02*
X159580000Y-119312500D01*
G75*
G02*
X159330000Y-119062500I0J250000D01*
G01*
X159330000Y-118362500D01*
G75*
G02*
X159580000Y-118112500I250000J0D01*
G01*
X160480000Y-118112500D01*
G75*
G02*
X160730000Y-118362500I0J-250000D01*
G01*
X160730000Y-119062500D01*
G75*
G02*
X160480000Y-119312500I-250000J0D01*
G01*
G37*
G36*
G01*
X131237500Y-103662500D02*
X130287500Y-103662500D01*
G75*
G02*
X130037500Y-103412500I0J250000D01*
G01*
X130037500Y-102737500D01*
G75*
G02*
X130287500Y-102487500I250000J0D01*
G01*
X131237500Y-102487500D01*
G75*
G02*
X131487500Y-102737500I0J-250000D01*
G01*
X131487500Y-103412500D01*
G75*
G02*
X131237500Y-103662500I-250000J0D01*
G01*
G37*
G36*
G01*
X131237500Y-101587500D02*
X130287500Y-101587500D01*
G75*
G02*
X130037500Y-101337500I0J250000D01*
G01*
X130037500Y-100662500D01*
G75*
G02*
X130287500Y-100412500I250000J0D01*
G01*
X131237500Y-100412500D01*
G75*
G02*
X131487500Y-100662500I0J-250000D01*
G01*
X131487500Y-101337500D01*
G75*
G02*
X131237500Y-101587500I-250000J0D01*
G01*
G37*
G36*
G01*
X144007500Y-91487500D02*
X143707500Y-91487500D01*
G75*
G02*
X143557500Y-91337500I0J150000D01*
G01*
X143557500Y-89687500D01*
G75*
G02*
X143707500Y-89537500I150000J0D01*
G01*
X144007500Y-89537500D01*
G75*
G02*
X144157500Y-89687500I0J-150000D01*
G01*
X144157500Y-91337500D01*
G75*
G02*
X144007500Y-91487500I-150000J0D01*
G01*
G37*
G36*
G01*
X145277500Y-91487500D02*
X144977500Y-91487500D01*
G75*
G02*
X144827500Y-91337500I0J150000D01*
G01*
X144827500Y-89687500D01*
G75*
G02*
X144977500Y-89537500I150000J0D01*
G01*
X145277500Y-89537500D01*
G75*
G02*
X145427500Y-89687500I0J-150000D01*
G01*
X145427500Y-91337500D01*
G75*
G02*
X145277500Y-91487500I-150000J0D01*
G01*
G37*
G36*
G01*
X146547500Y-91487500D02*
X146247500Y-91487500D01*
G75*
G02*
X146097500Y-91337500I0J150000D01*
G01*
X146097500Y-89687500D01*
G75*
G02*
X146247500Y-89537500I150000J0D01*
G01*
X146547500Y-89537500D01*
G75*
G02*
X146697500Y-89687500I0J-150000D01*
G01*
X146697500Y-91337500D01*
G75*
G02*
X146547500Y-91487500I-150000J0D01*
G01*
G37*
G36*
G01*
X147817500Y-91487500D02*
X147517500Y-91487500D01*
G75*
G02*
X147367500Y-91337500I0J150000D01*
G01*
X147367500Y-89687500D01*
G75*
G02*
X147517500Y-89537500I150000J0D01*
G01*
X147817500Y-89537500D01*
G75*
G02*
X147967500Y-89687500I0J-150000D01*
G01*
X147967500Y-91337500D01*
G75*
G02*
X147817500Y-91487500I-150000J0D01*
G01*
G37*
G36*
G01*
X147817500Y-86537500D02*
X147517500Y-86537500D01*
G75*
G02*
X147367500Y-86387500I0J150000D01*
G01*
X147367500Y-84737500D01*
G75*
G02*
X147517500Y-84587500I150000J0D01*
G01*
X147817500Y-84587500D01*
G75*
G02*
X147967500Y-84737500I0J-150000D01*
G01*
X147967500Y-86387500D01*
G75*
G02*
X147817500Y-86537500I-150000J0D01*
G01*
G37*
G36*
G01*
X146547500Y-86537500D02*
X146247500Y-86537500D01*
G75*
G02*
X146097500Y-86387500I0J150000D01*
G01*
X146097500Y-84737500D01*
G75*
G02*
X146247500Y-84587500I150000J0D01*
G01*
X146547500Y-84587500D01*
G75*
G02*
X146697500Y-84737500I0J-150000D01*
G01*
X146697500Y-86387500D01*
G75*
G02*
X146547500Y-86537500I-150000J0D01*
G01*
G37*
G36*
G01*
X145277500Y-86537500D02*
X144977500Y-86537500D01*
G75*
G02*
X144827500Y-86387500I0J150000D01*
G01*
X144827500Y-84737500D01*
G75*
G02*
X144977500Y-84587500I150000J0D01*
G01*
X145277500Y-84587500D01*
G75*
G02*
X145427500Y-84737500I0J-150000D01*
G01*
X145427500Y-86387500D01*
G75*
G02*
X145277500Y-86537500I-150000J0D01*
G01*
G37*
G36*
G01*
X144007500Y-86537500D02*
X143707500Y-86537500D01*
G75*
G02*
X143557500Y-86387500I0J150000D01*
G01*
X143557500Y-84737500D01*
G75*
G02*
X143707500Y-84587500I150000J0D01*
G01*
X144007500Y-84587500D01*
G75*
G02*
X144157500Y-84737500I0J-150000D01*
G01*
X144157500Y-86387500D01*
G75*
G02*
X144007500Y-86537500I-150000J0D01*
G01*
G37*
G36*
G01*
X169562500Y-65437500D02*
X170462500Y-65437500D01*
G75*
G02*
X170712500Y-65687500I0J-250000D01*
G01*
X170712500Y-66387500D01*
G75*
G02*
X170462500Y-66637500I-250000J0D01*
G01*
X169562500Y-66637500D01*
G75*
G02*
X169312500Y-66387500I0J250000D01*
G01*
X169312500Y-65687500D01*
G75*
G02*
X169562500Y-65437500I250000J0D01*
G01*
G37*
G36*
G01*
X169562500Y-67437500D02*
X170462500Y-67437500D01*
G75*
G02*
X170712500Y-67687500I0J-250000D01*
G01*
X170712500Y-68387500D01*
G75*
G02*
X170462500Y-68637500I-250000J0D01*
G01*
X169562500Y-68637500D01*
G75*
G02*
X169312500Y-68387500I0J250000D01*
G01*
X169312500Y-67687500D01*
G75*
G02*
X169562500Y-67437500I250000J0D01*
G01*
G37*
G36*
G01*
X194980000Y-123312500D02*
X194080000Y-123312500D01*
G75*
G02*
X193830000Y-123062500I0J250000D01*
G01*
X193830000Y-122362500D01*
G75*
G02*
X194080000Y-122112500I250000J0D01*
G01*
X194980000Y-122112500D01*
G75*
G02*
X195230000Y-122362500I0J-250000D01*
G01*
X195230000Y-123062500D01*
G75*
G02*
X194980000Y-123312500I-250000J0D01*
G01*
G37*
G36*
G01*
X194980000Y-121312500D02*
X194080000Y-121312500D01*
G75*
G02*
X193830000Y-121062500I0J250000D01*
G01*
X193830000Y-120362500D01*
G75*
G02*
X194080000Y-120112500I250000J0D01*
G01*
X194980000Y-120112500D01*
G75*
G02*
X195230000Y-120362500I0J-250000D01*
G01*
X195230000Y-121062500D01*
G75*
G02*
X194980000Y-121312500I-250000J0D01*
G01*
G37*
G36*
G01*
X181562500Y-63437500D02*
X182462500Y-63437500D01*
G75*
G02*
X182712500Y-63687500I0J-250000D01*
G01*
X182712500Y-64387500D01*
G75*
G02*
X182462500Y-64637500I-250000J0D01*
G01*
X181562500Y-64637500D01*
G75*
G02*
X181312500Y-64387500I0J250000D01*
G01*
X181312500Y-63687500D01*
G75*
G02*
X181562500Y-63437500I250000J0D01*
G01*
G37*
G36*
G01*
X181562500Y-65437500D02*
X182462500Y-65437500D01*
G75*
G02*
X182712500Y-65687500I0J-250000D01*
G01*
X182712500Y-66387500D01*
G75*
G02*
X182462500Y-66637500I-250000J0D01*
G01*
X181562500Y-66637500D01*
G75*
G02*
X181312500Y-66387500I0J250000D01*
G01*
X181312500Y-65687500D01*
G75*
G02*
X181562500Y-65437500I250000J0D01*
G01*
G37*
G36*
G01*
X155612500Y-59087500D02*
X155612500Y-59987500D01*
G75*
G02*
X155362500Y-60237500I-250000J0D01*
G01*
X154662500Y-60237500D01*
G75*
G02*
X154412500Y-59987500I0J250000D01*
G01*
X154412500Y-59087500D01*
G75*
G02*
X154662500Y-58837500I250000J0D01*
G01*
X155362500Y-58837500D01*
G75*
G02*
X155612500Y-59087500I0J-250000D01*
G01*
G37*
G36*
G01*
X153612500Y-59087500D02*
X153612500Y-59987500D01*
G75*
G02*
X153362500Y-60237500I-250000J0D01*
G01*
X152662500Y-60237500D01*
G75*
G02*
X152412500Y-59987500I0J250000D01*
G01*
X152412500Y-59087500D01*
G75*
G02*
X152662500Y-58837500I250000J0D01*
G01*
X153362500Y-58837500D01*
G75*
G02*
X153612500Y-59087500I0J-250000D01*
G01*
G37*
D13*
X128430000Y-114680000D03*
X130630000Y-114680000D03*
G36*
G01*
X135112500Y-77087500D02*
X135112500Y-77987500D01*
G75*
G02*
X134862500Y-78237500I-250000J0D01*
G01*
X134162500Y-78237500D01*
G75*
G02*
X133912500Y-77987500I0J250000D01*
G01*
X133912500Y-77087500D01*
G75*
G02*
X134162500Y-76837500I250000J0D01*
G01*
X134862500Y-76837500D01*
G75*
G02*
X135112500Y-77087500I0J-250000D01*
G01*
G37*
G36*
G01*
X133112500Y-77087500D02*
X133112500Y-77987500D01*
G75*
G02*
X132862500Y-78237500I-250000J0D01*
G01*
X132162500Y-78237500D01*
G75*
G02*
X131912500Y-77987500I0J250000D01*
G01*
X131912500Y-77087500D01*
G75*
G02*
X132162500Y-76837500I250000J0D01*
G01*
X132862500Y-76837500D01*
G75*
G02*
X133112500Y-77087500I0J-250000D01*
G01*
G37*
G36*
G01*
X136905000Y-113155000D02*
X136905000Y-112205000D01*
G75*
G02*
X137155000Y-111955000I250000J0D01*
G01*
X137830000Y-111955000D01*
G75*
G02*
X138080000Y-112205000I0J-250000D01*
G01*
X138080000Y-113155000D01*
G75*
G02*
X137830000Y-113405000I-250000J0D01*
G01*
X137155000Y-113405000D01*
G75*
G02*
X136905000Y-113155000I0J250000D01*
G01*
G37*
G36*
G01*
X138980000Y-113155000D02*
X138980000Y-112205000D01*
G75*
G02*
X139230000Y-111955000I250000J0D01*
G01*
X139905000Y-111955000D01*
G75*
G02*
X140155000Y-112205000I0J-250000D01*
G01*
X140155000Y-113155000D01*
G75*
G02*
X139905000Y-113405000I-250000J0D01*
G01*
X139230000Y-113405000D01*
G75*
G02*
X138980000Y-113155000I0J250000D01*
G01*
G37*
G36*
G01*
X176862500Y-90837500D02*
X176862500Y-91737500D01*
G75*
G02*
X176612500Y-91987500I-250000J0D01*
G01*
X175912500Y-91987500D01*
G75*
G02*
X175662500Y-91737500I0J250000D01*
G01*
X175662500Y-90837500D01*
G75*
G02*
X175912500Y-90587500I250000J0D01*
G01*
X176612500Y-90587500D01*
G75*
G02*
X176862500Y-90837500I0J-250000D01*
G01*
G37*
G36*
G01*
X174862500Y-90837500D02*
X174862500Y-91737500D01*
G75*
G02*
X174612500Y-91987500I-250000J0D01*
G01*
X173912500Y-91987500D01*
G75*
G02*
X173662500Y-91737500I0J250000D01*
G01*
X173662500Y-90837500D01*
G75*
G02*
X173912500Y-90587500I250000J0D01*
G01*
X174612500Y-90587500D01*
G75*
G02*
X174862500Y-90837500I0J-250000D01*
G01*
G37*
D11*
X180062500Y-72237500D03*
X181962500Y-72237500D03*
X181012500Y-69837500D03*
D13*
X178430000Y-114712500D03*
X180630000Y-114712500D03*
D11*
X200562500Y-72237500D03*
X202462500Y-72237500D03*
X201512500Y-69837500D03*
D13*
X153430000Y-114712500D03*
X155630000Y-114712500D03*
X162430000Y-114712500D03*
X164630000Y-114712500D03*
G36*
G01*
X184562500Y-65437500D02*
X185462500Y-65437500D01*
G75*
G02*
X185712500Y-65687500I0J-250000D01*
G01*
X185712500Y-66387500D01*
G75*
G02*
X185462500Y-66637500I-250000J0D01*
G01*
X184562500Y-66637500D01*
G75*
G02*
X184312500Y-66387500I0J250000D01*
G01*
X184312500Y-65687500D01*
G75*
G02*
X184562500Y-65437500I250000J0D01*
G01*
G37*
G36*
G01*
X184562500Y-67437500D02*
X185462500Y-67437500D01*
G75*
G02*
X185712500Y-67687500I0J-250000D01*
G01*
X185712500Y-68387500D01*
G75*
G02*
X185462500Y-68637500I-250000J0D01*
G01*
X184562500Y-68637500D01*
G75*
G02*
X184312500Y-68387500I0J250000D01*
G01*
X184312500Y-67687500D01*
G75*
G02*
X184562500Y-67437500I250000J0D01*
G01*
G37*
G36*
G01*
X193350000Y-93550000D02*
X193350000Y-94450000D01*
G75*
G02*
X193100000Y-94700000I-250000J0D01*
G01*
X192400000Y-94700000D01*
G75*
G02*
X192150000Y-94450000I0J250000D01*
G01*
X192150000Y-93550000D01*
G75*
G02*
X192400000Y-93300000I250000J0D01*
G01*
X193100000Y-93300000D01*
G75*
G02*
X193350000Y-93550000I0J-250000D01*
G01*
G37*
G36*
G01*
X191350000Y-93550000D02*
X191350000Y-94450000D01*
G75*
G02*
X191100000Y-94700000I-250000J0D01*
G01*
X190400000Y-94700000D01*
G75*
G02*
X190150000Y-94450000I0J250000D01*
G01*
X190150000Y-93550000D01*
G75*
G02*
X190400000Y-93300000I250000J0D01*
G01*
X191100000Y-93300000D01*
G75*
G02*
X191350000Y-93550000I0J-250000D01*
G01*
G37*
D11*
X175062500Y-72237500D03*
X176962500Y-72237500D03*
X176012500Y-69837500D03*
G36*
G01*
X156412500Y-61987500D02*
X156412500Y-61087500D01*
G75*
G02*
X156662500Y-60837500I250000J0D01*
G01*
X157362500Y-60837500D01*
G75*
G02*
X157612500Y-61087500I0J-250000D01*
G01*
X157612500Y-61987500D01*
G75*
G02*
X157362500Y-62237500I-250000J0D01*
G01*
X156662500Y-62237500D01*
G75*
G02*
X156412500Y-61987500I0J250000D01*
G01*
G37*
G36*
G01*
X158412500Y-61987500D02*
X158412500Y-61087500D01*
G75*
G02*
X158662500Y-60837500I250000J0D01*
G01*
X159362500Y-60837500D01*
G75*
G02*
X159612500Y-61087500I0J-250000D01*
G01*
X159612500Y-61987500D01*
G75*
G02*
X159362500Y-62237500I-250000J0D01*
G01*
X158662500Y-62237500D01*
G75*
G02*
X158412500Y-61987500I0J250000D01*
G01*
G37*
G36*
G01*
X186412500Y-126020000D02*
X186412500Y-129120000D01*
G75*
G02*
X186162500Y-129370000I-250000J0D01*
G01*
X184862500Y-129370000D01*
G75*
G02*
X184612500Y-129120000I0J250000D01*
G01*
X184612500Y-126020000D01*
G75*
G02*
X184862500Y-125770000I250000J0D01*
G01*
X186162500Y-125770000D01*
G75*
G02*
X186412500Y-126020000I0J-250000D01*
G01*
G37*
D14*
X182012500Y-127570000D03*
X178512500Y-127570000D03*
X175012500Y-127570000D03*
X171512500Y-127570000D03*
G36*
G01*
X143550000Y-80050000D02*
X143550000Y-80350000D01*
G75*
G02*
X143400000Y-80500000I-150000J0D01*
G01*
X142375000Y-80500000D01*
G75*
G02*
X142225000Y-80350000I0J150000D01*
G01*
X142225000Y-80050000D01*
G75*
G02*
X142375000Y-79900000I150000J0D01*
G01*
X143400000Y-79900000D01*
G75*
G02*
X143550000Y-80050000I0J-150000D01*
G01*
G37*
G36*
G01*
X143550000Y-79100000D02*
X143550000Y-79400000D01*
G75*
G02*
X143400000Y-79550000I-150000J0D01*
G01*
X142375000Y-79550000D01*
G75*
G02*
X142225000Y-79400000I0J150000D01*
G01*
X142225000Y-79100000D01*
G75*
G02*
X142375000Y-78950000I150000J0D01*
G01*
X143400000Y-78950000D01*
G75*
G02*
X143550000Y-79100000I0J-150000D01*
G01*
G37*
G36*
G01*
X143550000Y-78150000D02*
X143550000Y-78450000D01*
G75*
G02*
X143400000Y-78600000I-150000J0D01*
G01*
X142375000Y-78600000D01*
G75*
G02*
X142225000Y-78450000I0J150000D01*
G01*
X142225000Y-78150000D01*
G75*
G02*
X142375000Y-78000000I150000J0D01*
G01*
X143400000Y-78000000D01*
G75*
G02*
X143550000Y-78150000I0J-150000D01*
G01*
G37*
G36*
G01*
X141275000Y-78150000D02*
X141275000Y-78450000D01*
G75*
G02*
X141125000Y-78600000I-150000J0D01*
G01*
X140100000Y-78600000D01*
G75*
G02*
X139950000Y-78450000I0J150000D01*
G01*
X139950000Y-78150000D01*
G75*
G02*
X140100000Y-78000000I150000J0D01*
G01*
X141125000Y-78000000D01*
G75*
G02*
X141275000Y-78150000I0J-150000D01*
G01*
G37*
G36*
G01*
X141275000Y-79100000D02*
X141275000Y-79400000D01*
G75*
G02*
X141125000Y-79550000I-150000J0D01*
G01*
X140100000Y-79550000D01*
G75*
G02*
X139950000Y-79400000I0J150000D01*
G01*
X139950000Y-79100000D01*
G75*
G02*
X140100000Y-78950000I150000J0D01*
G01*
X141125000Y-78950000D01*
G75*
G02*
X141275000Y-79100000I0J-150000D01*
G01*
G37*
G36*
G01*
X141275000Y-80050000D02*
X141275000Y-80350000D01*
G75*
G02*
X141125000Y-80500000I-150000J0D01*
G01*
X140100000Y-80500000D01*
G75*
G02*
X139950000Y-80350000I0J150000D01*
G01*
X139950000Y-80050000D01*
G75*
G02*
X140100000Y-79900000I150000J0D01*
G01*
X141125000Y-79900000D01*
G75*
G02*
X141275000Y-80050000I0J-150000D01*
G01*
G37*
G36*
G01*
X192850000Y-99750000D02*
X192850000Y-97750000D01*
G75*
G02*
X193100000Y-97500000I250000J0D01*
G01*
X197000000Y-97500000D01*
G75*
G02*
X197250000Y-97750000I0J-250000D01*
G01*
X197250000Y-99750000D01*
G75*
G02*
X197000000Y-100000000I-250000J0D01*
G01*
X193100000Y-100000000D01*
G75*
G02*
X192850000Y-99750000I0J250000D01*
G01*
G37*
G36*
G01*
X201250000Y-99750000D02*
X201250000Y-97750000D01*
G75*
G02*
X201500000Y-97500000I250000J0D01*
G01*
X205400000Y-97500000D01*
G75*
G02*
X205650000Y-97750000I0J-250000D01*
G01*
X205650000Y-99750000D01*
G75*
G02*
X205400000Y-100000000I-250000J0D01*
G01*
X201500000Y-100000000D01*
G75*
G02*
X201250000Y-99750000I0J250000D01*
G01*
G37*
G36*
G01*
X140062500Y-71937500D02*
X140962500Y-71937500D01*
G75*
G02*
X141212500Y-72187500I0J-250000D01*
G01*
X141212500Y-72887500D01*
G75*
G02*
X140962500Y-73137500I-250000J0D01*
G01*
X140062500Y-73137500D01*
G75*
G02*
X139812500Y-72887500I0J250000D01*
G01*
X139812500Y-72187500D01*
G75*
G02*
X140062500Y-71937500I250000J0D01*
G01*
G37*
G36*
G01*
X140062500Y-73937500D02*
X140962500Y-73937500D01*
G75*
G02*
X141212500Y-74187500I0J-250000D01*
G01*
X141212500Y-74887500D01*
G75*
G02*
X140962500Y-75137500I-250000J0D01*
G01*
X140062500Y-75137500D01*
G75*
G02*
X139812500Y-74887500I0J250000D01*
G01*
X139812500Y-74187500D01*
G75*
G02*
X140062500Y-73937500I250000J0D01*
G01*
G37*
G36*
G01*
X128862500Y-91537500D02*
X128862500Y-89537500D01*
G75*
G02*
X129112500Y-89287500I250000J0D01*
G01*
X133012500Y-89287500D01*
G75*
G02*
X133262500Y-89537500I0J-250000D01*
G01*
X133262500Y-91537500D01*
G75*
G02*
X133012500Y-91787500I-250000J0D01*
G01*
X129112500Y-91787500D01*
G75*
G02*
X128862500Y-91537500I0J250000D01*
G01*
G37*
G36*
G01*
X137262500Y-91537500D02*
X137262500Y-89537500D01*
G75*
G02*
X137512500Y-89287500I250000J0D01*
G01*
X141412500Y-89287500D01*
G75*
G02*
X141662500Y-89537500I0J-250000D01*
G01*
X141662500Y-91537500D01*
G75*
G02*
X141412500Y-91787500I-250000J0D01*
G01*
X137512500Y-91787500D01*
G75*
G02*
X137262500Y-91537500I0J250000D01*
G01*
G37*
D13*
X132930000Y-114680000D03*
X135130000Y-114680000D03*
G36*
G01*
X133480000Y-123280000D02*
X132580000Y-123280000D01*
G75*
G02*
X132330000Y-123030000I0J250000D01*
G01*
X132330000Y-122330000D01*
G75*
G02*
X132580000Y-122080000I250000J0D01*
G01*
X133480000Y-122080000D01*
G75*
G02*
X133730000Y-122330000I0J-250000D01*
G01*
X133730000Y-123030000D01*
G75*
G02*
X133480000Y-123280000I-250000J0D01*
G01*
G37*
G36*
G01*
X133480000Y-121280000D02*
X132580000Y-121280000D01*
G75*
G02*
X132330000Y-121030000I0J250000D01*
G01*
X132330000Y-120330000D01*
G75*
G02*
X132580000Y-120080000I250000J0D01*
G01*
X133480000Y-120080000D01*
G75*
G02*
X133730000Y-120330000I0J-250000D01*
G01*
X133730000Y-121030000D01*
G75*
G02*
X133480000Y-121280000I-250000J0D01*
G01*
G37*
G36*
G01*
X155980000Y-121312500D02*
X155080000Y-121312500D01*
G75*
G02*
X154830000Y-121062500I0J250000D01*
G01*
X154830000Y-120362500D01*
G75*
G02*
X155080000Y-120112500I250000J0D01*
G01*
X155980000Y-120112500D01*
G75*
G02*
X156230000Y-120362500I0J-250000D01*
G01*
X156230000Y-121062500D01*
G75*
G02*
X155980000Y-121312500I-250000J0D01*
G01*
G37*
G36*
G01*
X155980000Y-119312500D02*
X155080000Y-119312500D01*
G75*
G02*
X154830000Y-119062500I0J250000D01*
G01*
X154830000Y-118362500D01*
G75*
G02*
X155080000Y-118112500I250000J0D01*
G01*
X155980000Y-118112500D01*
G75*
G02*
X156230000Y-118362500I0J-250000D01*
G01*
X156230000Y-119062500D01*
G75*
G02*
X155980000Y-119312500I-250000J0D01*
G01*
G37*
D15*
X145762500Y-123537500D03*
G36*
G01*
X133480000Y-119280000D02*
X132580000Y-119280000D01*
G75*
G02*
X132330000Y-119030000I0J250000D01*
G01*
X132330000Y-118330000D01*
G75*
G02*
X132580000Y-118080000I250000J0D01*
G01*
X133480000Y-118080000D01*
G75*
G02*
X133730000Y-118330000I0J-250000D01*
G01*
X133730000Y-119030000D01*
G75*
G02*
X133480000Y-119280000I-250000J0D01*
G01*
G37*
G36*
G01*
X133480000Y-117280000D02*
X132580000Y-117280000D01*
G75*
G02*
X132330000Y-117030000I0J250000D01*
G01*
X132330000Y-116330000D01*
G75*
G02*
X132580000Y-116080000I250000J0D01*
G01*
X133480000Y-116080000D01*
G75*
G02*
X133730000Y-116330000I0J-250000D01*
G01*
X133730000Y-117030000D01*
G75*
G02*
X133480000Y-117280000I-250000J0D01*
G01*
G37*
G36*
G01*
X202162500Y-91737500D02*
X202162500Y-90837500D01*
G75*
G02*
X202412500Y-90587500I250000J0D01*
G01*
X203112500Y-90587500D01*
G75*
G02*
X203362500Y-90837500I0J-250000D01*
G01*
X203362500Y-91737500D01*
G75*
G02*
X203112500Y-91987500I-250000J0D01*
G01*
X202412500Y-91987500D01*
G75*
G02*
X202162500Y-91737500I0J250000D01*
G01*
G37*
G36*
G01*
X204162500Y-91737500D02*
X204162500Y-90837500D01*
G75*
G02*
X204412500Y-90587500I250000J0D01*
G01*
X205112500Y-90587500D01*
G75*
G02*
X205362500Y-90837500I0J-250000D01*
G01*
X205362500Y-91737500D01*
G75*
G02*
X205112500Y-91987500I-250000J0D01*
G01*
X204412500Y-91987500D01*
G75*
G02*
X204162500Y-91737500I0J250000D01*
G01*
G37*
G36*
G01*
X172887500Y-88812500D02*
X172887500Y-89762500D01*
G75*
G02*
X172637500Y-90012500I-250000J0D01*
G01*
X171962500Y-90012500D01*
G75*
G02*
X171712500Y-89762500I0J250000D01*
G01*
X171712500Y-88812500D01*
G75*
G02*
X171962500Y-88562500I250000J0D01*
G01*
X172637500Y-88562500D01*
G75*
G02*
X172887500Y-88812500I0J-250000D01*
G01*
G37*
G36*
G01*
X170812500Y-88812500D02*
X170812500Y-89762500D01*
G75*
G02*
X170562500Y-90012500I-250000J0D01*
G01*
X169887500Y-90012500D01*
G75*
G02*
X169637500Y-89762500I0J250000D01*
G01*
X169637500Y-88812500D01*
G75*
G02*
X169887500Y-88562500I250000J0D01*
G01*
X170562500Y-88562500D01*
G75*
G02*
X170812500Y-88812500I0J-250000D01*
G01*
G37*
G36*
G01*
X132405000Y-113155000D02*
X132405000Y-112205000D01*
G75*
G02*
X132655000Y-111955000I250000J0D01*
G01*
X133330000Y-111955000D01*
G75*
G02*
X133580000Y-112205000I0J-250000D01*
G01*
X133580000Y-113155000D01*
G75*
G02*
X133330000Y-113405000I-250000J0D01*
G01*
X132655000Y-113405000D01*
G75*
G02*
X132405000Y-113155000I0J250000D01*
G01*
G37*
G36*
G01*
X134480000Y-113155000D02*
X134480000Y-112205000D01*
G75*
G02*
X134730000Y-111955000I250000J0D01*
G01*
X135405000Y-111955000D01*
G75*
G02*
X135655000Y-112205000I0J-250000D01*
G01*
X135655000Y-113155000D01*
G75*
G02*
X135405000Y-113405000I-250000J0D01*
G01*
X134730000Y-113405000D01*
G75*
G02*
X134480000Y-113155000I0J250000D01*
G01*
G37*
D11*
X195562500Y-72237500D03*
X197462500Y-72237500D03*
X196512500Y-69837500D03*
D16*
X163962500Y-63887500D03*
X162682500Y-63887500D03*
X161422500Y-63887500D03*
X160152500Y-63887500D03*
X158872500Y-63887500D03*
X157602500Y-63887500D03*
X156342500Y-63887500D03*
X155062500Y-63887500D03*
X155062500Y-70187500D03*
X156342500Y-70187500D03*
X157602500Y-70187500D03*
X158872500Y-70187500D03*
X160152500Y-70187500D03*
X161422500Y-70187500D03*
X162682500Y-70187500D03*
X163962500Y-70187500D03*
G36*
G01*
X207062500Y-63437500D02*
X207962500Y-63437500D01*
G75*
G02*
X208212500Y-63687500I0J-250000D01*
G01*
X208212500Y-64387500D01*
G75*
G02*
X207962500Y-64637500I-250000J0D01*
G01*
X207062500Y-64637500D01*
G75*
G02*
X206812500Y-64387500I0J250000D01*
G01*
X206812500Y-63687500D01*
G75*
G02*
X207062500Y-63437500I250000J0D01*
G01*
G37*
G36*
G01*
X207062500Y-65437500D02*
X207962500Y-65437500D01*
G75*
G02*
X208212500Y-65687500I0J-250000D01*
G01*
X208212500Y-66387500D01*
G75*
G02*
X207962500Y-66637500I-250000J0D01*
G01*
X207062500Y-66637500D01*
G75*
G02*
X206812500Y-66387500I0J250000D01*
G01*
X206812500Y-65687500D01*
G75*
G02*
X207062500Y-65437500I250000J0D01*
G01*
G37*
G36*
G01*
X196980000Y-121312500D02*
X196080000Y-121312500D01*
G75*
G02*
X195830000Y-121062500I0J250000D01*
G01*
X195830000Y-120362500D01*
G75*
G02*
X196080000Y-120112500I250000J0D01*
G01*
X196980000Y-120112500D01*
G75*
G02*
X197230000Y-120362500I0J-250000D01*
G01*
X197230000Y-121062500D01*
G75*
G02*
X196980000Y-121312500I-250000J0D01*
G01*
G37*
G36*
G01*
X196980000Y-119312500D02*
X196080000Y-119312500D01*
G75*
G02*
X195830000Y-119062500I0J250000D01*
G01*
X195830000Y-118362500D01*
G75*
G02*
X196080000Y-118112500I250000J0D01*
G01*
X196980000Y-118112500D01*
G75*
G02*
X197230000Y-118362500I0J-250000D01*
G01*
X197230000Y-119062500D01*
G75*
G02*
X196980000Y-119312500I-250000J0D01*
G01*
G37*
G36*
G01*
X174480000Y-119312500D02*
X173580000Y-119312500D01*
G75*
G02*
X173330000Y-119062500I0J250000D01*
G01*
X173330000Y-118362500D01*
G75*
G02*
X173580000Y-118112500I250000J0D01*
G01*
X174480000Y-118112500D01*
G75*
G02*
X174730000Y-118362500I0J-250000D01*
G01*
X174730000Y-119062500D01*
G75*
G02*
X174480000Y-119312500I-250000J0D01*
G01*
G37*
G36*
G01*
X174480000Y-117312500D02*
X173580000Y-117312500D01*
G75*
G02*
X173330000Y-117062500I0J250000D01*
G01*
X173330000Y-116362500D01*
G75*
G02*
X173580000Y-116112500I250000J0D01*
G01*
X174480000Y-116112500D01*
G75*
G02*
X174730000Y-116362500I0J-250000D01*
G01*
X174730000Y-117062500D01*
G75*
G02*
X174480000Y-117312500I-250000J0D01*
G01*
G37*
D11*
X205562500Y-72237500D03*
X207462500Y-72237500D03*
X206512500Y-69837500D03*
G36*
G01*
X180887500Y-88812500D02*
X180887500Y-89762500D01*
G75*
G02*
X180637500Y-90012500I-250000J0D01*
G01*
X179962500Y-90012500D01*
G75*
G02*
X179712500Y-89762500I0J250000D01*
G01*
X179712500Y-88812500D01*
G75*
G02*
X179962500Y-88562500I250000J0D01*
G01*
X180637500Y-88562500D01*
G75*
G02*
X180887500Y-88812500I0J-250000D01*
G01*
G37*
G36*
G01*
X178812500Y-88812500D02*
X178812500Y-89762500D01*
G75*
G02*
X178562500Y-90012500I-250000J0D01*
G01*
X177887500Y-90012500D01*
G75*
G02*
X177637500Y-89762500I0J250000D01*
G01*
X177637500Y-88812500D01*
G75*
G02*
X177887500Y-88562500I250000J0D01*
G01*
X178562500Y-88562500D01*
G75*
G02*
X178812500Y-88812500I0J-250000D01*
G01*
G37*
G36*
G01*
X190150001Y-97625000D02*
X191849999Y-97625000D01*
G75*
G02*
X192100000Y-97875001I0J-250001D01*
G01*
X192100000Y-98799999D01*
G75*
G02*
X191849999Y-99050000I-250001J0D01*
G01*
X190150001Y-99050000D01*
G75*
G02*
X189900000Y-98799999I0J250001D01*
G01*
X189900000Y-97875001D01*
G75*
G02*
X190150001Y-97625000I250001J0D01*
G01*
G37*
G36*
G01*
X190150001Y-99950000D02*
X191849999Y-99950000D01*
G75*
G02*
X192100000Y-100200001I0J-250001D01*
G01*
X192100000Y-101124999D01*
G75*
G02*
X191849999Y-101375000I-250001J0D01*
G01*
X190150001Y-101375000D01*
G75*
G02*
X189900000Y-101124999I0J250001D01*
G01*
X189900000Y-100200001D01*
G75*
G02*
X190150001Y-99950000I250001J0D01*
G01*
G37*
G36*
G01*
X169562500Y-61437500D02*
X170462500Y-61437500D01*
G75*
G02*
X170712500Y-61687500I0J-250000D01*
G01*
X170712500Y-62387500D01*
G75*
G02*
X170462500Y-62637500I-250000J0D01*
G01*
X169562500Y-62637500D01*
G75*
G02*
X169312500Y-62387500I0J250000D01*
G01*
X169312500Y-61687500D01*
G75*
G02*
X169562500Y-61437500I250000J0D01*
G01*
G37*
G36*
G01*
X169562500Y-63437500D02*
X170462500Y-63437500D01*
G75*
G02*
X170712500Y-63687500I0J-250000D01*
G01*
X170712500Y-64387500D01*
G75*
G02*
X170462500Y-64637500I-250000J0D01*
G01*
X169562500Y-64637500D01*
G75*
G02*
X169312500Y-64387500I0J250000D01*
G01*
X169312500Y-63687500D01*
G75*
G02*
X169562500Y-63437500I250000J0D01*
G01*
G37*
D12*
X207762500Y-61937500D03*
X207762500Y-59137500D03*
G36*
G01*
X148405000Y-113187500D02*
X148405000Y-112237500D01*
G75*
G02*
X148655000Y-111987500I250000J0D01*
G01*
X149330000Y-111987500D01*
G75*
G02*
X149580000Y-112237500I0J-250000D01*
G01*
X149580000Y-113187500D01*
G75*
G02*
X149330000Y-113437500I-250000J0D01*
G01*
X148655000Y-113437500D01*
G75*
G02*
X148405000Y-113187500I0J250000D01*
G01*
G37*
G36*
G01*
X150480000Y-113187500D02*
X150480000Y-112237500D01*
G75*
G02*
X150730000Y-111987500I250000J0D01*
G01*
X151405000Y-111987500D01*
G75*
G02*
X151655000Y-112237500I0J-250000D01*
G01*
X151655000Y-113187500D01*
G75*
G02*
X151405000Y-113437500I-250000J0D01*
G01*
X150730000Y-113437500D01*
G75*
G02*
X150480000Y-113187500I0J250000D01*
G01*
G37*
G36*
G01*
X152412500Y-61987500D02*
X152412500Y-61087500D01*
G75*
G02*
X152662500Y-60837500I250000J0D01*
G01*
X153362500Y-60837500D01*
G75*
G02*
X153612500Y-61087500I0J-250000D01*
G01*
X153612500Y-61987500D01*
G75*
G02*
X153362500Y-62237500I-250000J0D01*
G01*
X152662500Y-62237500D01*
G75*
G02*
X152412500Y-61987500I0J250000D01*
G01*
G37*
G36*
G01*
X154412500Y-61987500D02*
X154412500Y-61087500D01*
G75*
G02*
X154662500Y-60837500I250000J0D01*
G01*
X155362500Y-60837500D01*
G75*
G02*
X155612500Y-61087500I0J-250000D01*
G01*
X155612500Y-61987500D01*
G75*
G02*
X155362500Y-62237500I-250000J0D01*
G01*
X154662500Y-62237500D01*
G75*
G02*
X154412500Y-61987500I0J250000D01*
G01*
G37*
G36*
G01*
X193112500Y-73587500D02*
X193112500Y-74487500D01*
G75*
G02*
X192862500Y-74737500I-250000J0D01*
G01*
X192162500Y-74737500D01*
G75*
G02*
X191912500Y-74487500I0J250000D01*
G01*
X191912500Y-73587500D01*
G75*
G02*
X192162500Y-73337500I250000J0D01*
G01*
X192862500Y-73337500D01*
G75*
G02*
X193112500Y-73587500I0J-250000D01*
G01*
G37*
G36*
G01*
X191112500Y-73587500D02*
X191112500Y-74487500D01*
G75*
G02*
X190862500Y-74737500I-250000J0D01*
G01*
X190162500Y-74737500D01*
G75*
G02*
X189912500Y-74487500I0J250000D01*
G01*
X189912500Y-73587500D01*
G75*
G02*
X190162500Y-73337500I250000J0D01*
G01*
X190862500Y-73337500D01*
G75*
G02*
X191112500Y-73587500I0J-250000D01*
G01*
G37*
G36*
G01*
X177905000Y-113187500D02*
X177905000Y-112237500D01*
G75*
G02*
X178155000Y-111987500I250000J0D01*
G01*
X178830000Y-111987500D01*
G75*
G02*
X179080000Y-112237500I0J-250000D01*
G01*
X179080000Y-113187500D01*
G75*
G02*
X178830000Y-113437500I-250000J0D01*
G01*
X178155000Y-113437500D01*
G75*
G02*
X177905000Y-113187500I0J250000D01*
G01*
G37*
G36*
G01*
X179980000Y-113187500D02*
X179980000Y-112237500D01*
G75*
G02*
X180230000Y-111987500I250000J0D01*
G01*
X180905000Y-111987500D01*
G75*
G02*
X181155000Y-112237500I0J-250000D01*
G01*
X181155000Y-113187500D01*
G75*
G02*
X180905000Y-113437500I-250000J0D01*
G01*
X180230000Y-113437500D01*
G75*
G02*
X179980000Y-113187500I0J250000D01*
G01*
G37*
D13*
X148930000Y-114712500D03*
X151130000Y-114712500D03*
D16*
X140462500Y-63887500D03*
X139182500Y-63887500D03*
X137922500Y-63887500D03*
X136652500Y-63887500D03*
X135372500Y-63887500D03*
X134102500Y-63887500D03*
X132842500Y-63887500D03*
X131562500Y-63887500D03*
X131562500Y-70187500D03*
X132842500Y-70187500D03*
X134102500Y-70187500D03*
X135372500Y-70187500D03*
X136652500Y-70187500D03*
X137922500Y-70187500D03*
X139182500Y-70187500D03*
X140462500Y-70187500D03*
G36*
G01*
X135112500Y-74087500D02*
X135112500Y-74987500D01*
G75*
G02*
X134862500Y-75237500I-250000J0D01*
G01*
X134162500Y-75237500D01*
G75*
G02*
X133912500Y-74987500I0J250000D01*
G01*
X133912500Y-74087500D01*
G75*
G02*
X134162500Y-73837500I250000J0D01*
G01*
X134862500Y-73837500D01*
G75*
G02*
X135112500Y-74087500I0J-250000D01*
G01*
G37*
G36*
G01*
X133112500Y-74087500D02*
X133112500Y-74987500D01*
G75*
G02*
X132862500Y-75237500I-250000J0D01*
G01*
X132162500Y-75237500D01*
G75*
G02*
X131912500Y-74987500I0J250000D01*
G01*
X131912500Y-74087500D01*
G75*
G02*
X132162500Y-73837500I250000J0D01*
G01*
X132862500Y-73837500D01*
G75*
G02*
X133112500Y-74087500I0J-250000D01*
G01*
G37*
G36*
G01*
X154562500Y-71937500D02*
X155462500Y-71937500D01*
G75*
G02*
X155712500Y-72187500I0J-250000D01*
G01*
X155712500Y-72887500D01*
G75*
G02*
X155462500Y-73137500I-250000J0D01*
G01*
X154562500Y-73137500D01*
G75*
G02*
X154312500Y-72887500I0J250000D01*
G01*
X154312500Y-72187500D01*
G75*
G02*
X154562500Y-71937500I250000J0D01*
G01*
G37*
G36*
G01*
X154562500Y-73937500D02*
X155462500Y-73937500D01*
G75*
G02*
X155712500Y-74187500I0J-250000D01*
G01*
X155712500Y-74887500D01*
G75*
G02*
X155462500Y-75137500I-250000J0D01*
G01*
X154562500Y-75137500D01*
G75*
G02*
X154312500Y-74887500I0J250000D01*
G01*
X154312500Y-74187500D01*
G75*
G02*
X154562500Y-73937500I250000J0D01*
G01*
G37*
G36*
G01*
X198405000Y-113187500D02*
X198405000Y-112237500D01*
G75*
G02*
X198655000Y-111987500I250000J0D01*
G01*
X199330000Y-111987500D01*
G75*
G02*
X199580000Y-112237500I0J-250000D01*
G01*
X199580000Y-113187500D01*
G75*
G02*
X199330000Y-113437500I-250000J0D01*
G01*
X198655000Y-113437500D01*
G75*
G02*
X198405000Y-113187500I0J250000D01*
G01*
G37*
G36*
G01*
X200480000Y-113187500D02*
X200480000Y-112237500D01*
G75*
G02*
X200730000Y-111987500I250000J0D01*
G01*
X201405000Y-111987500D01*
G75*
G02*
X201655000Y-112237500I0J-250000D01*
G01*
X201655000Y-113187500D01*
G75*
G02*
X201405000Y-113437500I-250000J0D01*
G01*
X200730000Y-113437500D01*
G75*
G02*
X200480000Y-113187500I0J250000D01*
G01*
G37*
G36*
G01*
X205062500Y-61437500D02*
X205962500Y-61437500D01*
G75*
G02*
X206212500Y-61687500I0J-250000D01*
G01*
X206212500Y-62387500D01*
G75*
G02*
X205962500Y-62637500I-250000J0D01*
G01*
X205062500Y-62637500D01*
G75*
G02*
X204812500Y-62387500I0J250000D01*
G01*
X204812500Y-61687500D01*
G75*
G02*
X205062500Y-61437500I250000J0D01*
G01*
G37*
G36*
G01*
X205062500Y-63437500D02*
X205962500Y-63437500D01*
G75*
G02*
X206212500Y-63687500I0J-250000D01*
G01*
X206212500Y-64387500D01*
G75*
G02*
X205962500Y-64637500I-250000J0D01*
G01*
X205062500Y-64637500D01*
G75*
G02*
X204812500Y-64387500I0J250000D01*
G01*
X204812500Y-63687500D01*
G75*
G02*
X205062500Y-63437500I250000J0D01*
G01*
G37*
G36*
G01*
X193905000Y-113187500D02*
X193905000Y-112237500D01*
G75*
G02*
X194155000Y-111987500I250000J0D01*
G01*
X194830000Y-111987500D01*
G75*
G02*
X195080000Y-112237500I0J-250000D01*
G01*
X195080000Y-113187500D01*
G75*
G02*
X194830000Y-113437500I-250000J0D01*
G01*
X194155000Y-113437500D01*
G75*
G02*
X193905000Y-113187500I0J250000D01*
G01*
G37*
G36*
G01*
X195980000Y-113187500D02*
X195980000Y-112237500D01*
G75*
G02*
X196230000Y-111987500I250000J0D01*
G01*
X196905000Y-111987500D01*
G75*
G02*
X197155000Y-112237500I0J-250000D01*
G01*
X197155000Y-113187500D01*
G75*
G02*
X196905000Y-113437500I-250000J0D01*
G01*
X196230000Y-113437500D01*
G75*
G02*
X195980000Y-113187500I0J250000D01*
G01*
G37*
G36*
G01*
X177662500Y-91737500D02*
X177662500Y-90837500D01*
G75*
G02*
X177912500Y-90587500I250000J0D01*
G01*
X178612500Y-90587500D01*
G75*
G02*
X178862500Y-90837500I0J-250000D01*
G01*
X178862500Y-91737500D01*
G75*
G02*
X178612500Y-91987500I-250000J0D01*
G01*
X177912500Y-91987500D01*
G75*
G02*
X177662500Y-91737500I0J250000D01*
G01*
G37*
G36*
G01*
X179662500Y-91737500D02*
X179662500Y-90837500D01*
G75*
G02*
X179912500Y-90587500I250000J0D01*
G01*
X180612500Y-90587500D01*
G75*
G02*
X180862500Y-90837500I0J-250000D01*
G01*
X180862500Y-91737500D01*
G75*
G02*
X180612500Y-91987500I-250000J0D01*
G01*
X179912500Y-91987500D01*
G75*
G02*
X179662500Y-91737500I0J250000D01*
G01*
G37*
G36*
G01*
X165912500Y-126020000D02*
X165912500Y-129120000D01*
G75*
G02*
X165662500Y-129370000I-250000J0D01*
G01*
X164362500Y-129370000D01*
G75*
G02*
X164112500Y-129120000I0J250000D01*
G01*
X164112500Y-126020000D01*
G75*
G02*
X164362500Y-125770000I250000J0D01*
G01*
X165662500Y-125770000D01*
G75*
G02*
X165912500Y-126020000I0J-250000D01*
G01*
G37*
D14*
X161512500Y-127570000D03*
X158012500Y-127570000D03*
X154512500Y-127570000D03*
X151012500Y-127570000D03*
G36*
G01*
X132537500Y-108775000D02*
X132337500Y-108775000D01*
G75*
G02*
X132237500Y-108675000I0J100000D01*
G01*
X132237500Y-107400000D01*
G75*
G02*
X132337500Y-107300000I100000J0D01*
G01*
X132537500Y-107300000D01*
G75*
G02*
X132637500Y-107400000I0J-100000D01*
G01*
X132637500Y-108675000D01*
G75*
G02*
X132537500Y-108775000I-100000J0D01*
G01*
G37*
G36*
G01*
X133187500Y-108775000D02*
X132987500Y-108775000D01*
G75*
G02*
X132887500Y-108675000I0J100000D01*
G01*
X132887500Y-107400000D01*
G75*
G02*
X132987500Y-107300000I100000J0D01*
G01*
X133187500Y-107300000D01*
G75*
G02*
X133287500Y-107400000I0J-100000D01*
G01*
X133287500Y-108675000D01*
G75*
G02*
X133187500Y-108775000I-100000J0D01*
G01*
G37*
G36*
G01*
X133837500Y-108775000D02*
X133637500Y-108775000D01*
G75*
G02*
X133537500Y-108675000I0J100000D01*
G01*
X133537500Y-107400000D01*
G75*
G02*
X133637500Y-107300000I100000J0D01*
G01*
X133837500Y-107300000D01*
G75*
G02*
X133937500Y-107400000I0J-100000D01*
G01*
X133937500Y-108675000D01*
G75*
G02*
X133837500Y-108775000I-100000J0D01*
G01*
G37*
G36*
G01*
X134487500Y-108775000D02*
X134287500Y-108775000D01*
G75*
G02*
X134187500Y-108675000I0J100000D01*
G01*
X134187500Y-107400000D01*
G75*
G02*
X134287500Y-107300000I100000J0D01*
G01*
X134487500Y-107300000D01*
G75*
G02*
X134587500Y-107400000I0J-100000D01*
G01*
X134587500Y-108675000D01*
G75*
G02*
X134487500Y-108775000I-100000J0D01*
G01*
G37*
G36*
G01*
X135137500Y-108775000D02*
X134937500Y-108775000D01*
G75*
G02*
X134837500Y-108675000I0J100000D01*
G01*
X134837500Y-107400000D01*
G75*
G02*
X134937500Y-107300000I100000J0D01*
G01*
X135137500Y-107300000D01*
G75*
G02*
X135237500Y-107400000I0J-100000D01*
G01*
X135237500Y-108675000D01*
G75*
G02*
X135137500Y-108775000I-100000J0D01*
G01*
G37*
G36*
G01*
X135787500Y-108775000D02*
X135587500Y-108775000D01*
G75*
G02*
X135487500Y-108675000I0J100000D01*
G01*
X135487500Y-107400000D01*
G75*
G02*
X135587500Y-107300000I100000J0D01*
G01*
X135787500Y-107300000D01*
G75*
G02*
X135887500Y-107400000I0J-100000D01*
G01*
X135887500Y-108675000D01*
G75*
G02*
X135787500Y-108775000I-100000J0D01*
G01*
G37*
G36*
G01*
X136437500Y-108775000D02*
X136237500Y-108775000D01*
G75*
G02*
X136137500Y-108675000I0J100000D01*
G01*
X136137500Y-107400000D01*
G75*
G02*
X136237500Y-107300000I100000J0D01*
G01*
X136437500Y-107300000D01*
G75*
G02*
X136537500Y-107400000I0J-100000D01*
G01*
X136537500Y-108675000D01*
G75*
G02*
X136437500Y-108775000I-100000J0D01*
G01*
G37*
G36*
G01*
X137087500Y-108775000D02*
X136887500Y-108775000D01*
G75*
G02*
X136787500Y-108675000I0J100000D01*
G01*
X136787500Y-107400000D01*
G75*
G02*
X136887500Y-107300000I100000J0D01*
G01*
X137087500Y-107300000D01*
G75*
G02*
X137187500Y-107400000I0J-100000D01*
G01*
X137187500Y-108675000D01*
G75*
G02*
X137087500Y-108775000I-100000J0D01*
G01*
G37*
G36*
G01*
X137737500Y-108775000D02*
X137537500Y-108775000D01*
G75*
G02*
X137437500Y-108675000I0J100000D01*
G01*
X137437500Y-107400000D01*
G75*
G02*
X137537500Y-107300000I100000J0D01*
G01*
X137737500Y-107300000D01*
G75*
G02*
X137837500Y-107400000I0J-100000D01*
G01*
X137837500Y-108675000D01*
G75*
G02*
X137737500Y-108775000I-100000J0D01*
G01*
G37*
G36*
G01*
X138387500Y-108775000D02*
X138187500Y-108775000D01*
G75*
G02*
X138087500Y-108675000I0J100000D01*
G01*
X138087500Y-107400000D01*
G75*
G02*
X138187500Y-107300000I100000J0D01*
G01*
X138387500Y-107300000D01*
G75*
G02*
X138487500Y-107400000I0J-100000D01*
G01*
X138487500Y-108675000D01*
G75*
G02*
X138387500Y-108775000I-100000J0D01*
G01*
G37*
G36*
G01*
X139037500Y-108775000D02*
X138837500Y-108775000D01*
G75*
G02*
X138737500Y-108675000I0J100000D01*
G01*
X138737500Y-107400000D01*
G75*
G02*
X138837500Y-107300000I100000J0D01*
G01*
X139037500Y-107300000D01*
G75*
G02*
X139137500Y-107400000I0J-100000D01*
G01*
X139137500Y-108675000D01*
G75*
G02*
X139037500Y-108775000I-100000J0D01*
G01*
G37*
G36*
G01*
X139687500Y-108775000D02*
X139487500Y-108775000D01*
G75*
G02*
X139387500Y-108675000I0J100000D01*
G01*
X139387500Y-107400000D01*
G75*
G02*
X139487500Y-107300000I100000J0D01*
G01*
X139687500Y-107300000D01*
G75*
G02*
X139787500Y-107400000I0J-100000D01*
G01*
X139787500Y-108675000D01*
G75*
G02*
X139687500Y-108775000I-100000J0D01*
G01*
G37*
G36*
G01*
X139687500Y-103050000D02*
X139487500Y-103050000D01*
G75*
G02*
X139387500Y-102950000I0J100000D01*
G01*
X139387500Y-101675000D01*
G75*
G02*
X139487500Y-101575000I100000J0D01*
G01*
X139687500Y-101575000D01*
G75*
G02*
X139787500Y-101675000I0J-100000D01*
G01*
X139787500Y-102950000D01*
G75*
G02*
X139687500Y-103050000I-100000J0D01*
G01*
G37*
G36*
G01*
X139037500Y-103050000D02*
X138837500Y-103050000D01*
G75*
G02*
X138737500Y-102950000I0J100000D01*
G01*
X138737500Y-101675000D01*
G75*
G02*
X138837500Y-101575000I100000J0D01*
G01*
X139037500Y-101575000D01*
G75*
G02*
X139137500Y-101675000I0J-100000D01*
G01*
X139137500Y-102950000D01*
G75*
G02*
X139037500Y-103050000I-100000J0D01*
G01*
G37*
G36*
G01*
X138387500Y-103050000D02*
X138187500Y-103050000D01*
G75*
G02*
X138087500Y-102950000I0J100000D01*
G01*
X138087500Y-101675000D01*
G75*
G02*
X138187500Y-101575000I100000J0D01*
G01*
X138387500Y-101575000D01*
G75*
G02*
X138487500Y-101675000I0J-100000D01*
G01*
X138487500Y-102950000D01*
G75*
G02*
X138387500Y-103050000I-100000J0D01*
G01*
G37*
G36*
G01*
X137737500Y-103050000D02*
X137537500Y-103050000D01*
G75*
G02*
X137437500Y-102950000I0J100000D01*
G01*
X137437500Y-101675000D01*
G75*
G02*
X137537500Y-101575000I100000J0D01*
G01*
X137737500Y-101575000D01*
G75*
G02*
X137837500Y-101675000I0J-100000D01*
G01*
X137837500Y-102950000D01*
G75*
G02*
X137737500Y-103050000I-100000J0D01*
G01*
G37*
G36*
G01*
X137087500Y-103050000D02*
X136887500Y-103050000D01*
G75*
G02*
X136787500Y-102950000I0J100000D01*
G01*
X136787500Y-101675000D01*
G75*
G02*
X136887500Y-101575000I100000J0D01*
G01*
X137087500Y-101575000D01*
G75*
G02*
X137187500Y-101675000I0J-100000D01*
G01*
X137187500Y-102950000D01*
G75*
G02*
X137087500Y-103050000I-100000J0D01*
G01*
G37*
G36*
G01*
X136437500Y-103050000D02*
X136237500Y-103050000D01*
G75*
G02*
X136137500Y-102950000I0J100000D01*
G01*
X136137500Y-101675000D01*
G75*
G02*
X136237500Y-101575000I100000J0D01*
G01*
X136437500Y-101575000D01*
G75*
G02*
X136537500Y-101675000I0J-100000D01*
G01*
X136537500Y-102950000D01*
G75*
G02*
X136437500Y-103050000I-100000J0D01*
G01*
G37*
G36*
G01*
X135787500Y-103050000D02*
X135587500Y-103050000D01*
G75*
G02*
X135487500Y-102950000I0J100000D01*
G01*
X135487500Y-101675000D01*
G75*
G02*
X135587500Y-101575000I100000J0D01*
G01*
X135787500Y-101575000D01*
G75*
G02*
X135887500Y-101675000I0J-100000D01*
G01*
X135887500Y-102950000D01*
G75*
G02*
X135787500Y-103050000I-100000J0D01*
G01*
G37*
G36*
G01*
X135137500Y-103050000D02*
X134937500Y-103050000D01*
G75*
G02*
X134837500Y-102950000I0J100000D01*
G01*
X134837500Y-101675000D01*
G75*
G02*
X134937500Y-101575000I100000J0D01*
G01*
X135137500Y-101575000D01*
G75*
G02*
X135237500Y-101675000I0J-100000D01*
G01*
X135237500Y-102950000D01*
G75*
G02*
X135137500Y-103050000I-100000J0D01*
G01*
G37*
G36*
G01*
X134487500Y-103050000D02*
X134287500Y-103050000D01*
G75*
G02*
X134187500Y-102950000I0J100000D01*
G01*
X134187500Y-101675000D01*
G75*
G02*
X134287500Y-101575000I100000J0D01*
G01*
X134487500Y-101575000D01*
G75*
G02*
X134587500Y-101675000I0J-100000D01*
G01*
X134587500Y-102950000D01*
G75*
G02*
X134487500Y-103050000I-100000J0D01*
G01*
G37*
G36*
G01*
X133837500Y-103050000D02*
X133637500Y-103050000D01*
G75*
G02*
X133537500Y-102950000I0J100000D01*
G01*
X133537500Y-101675000D01*
G75*
G02*
X133637500Y-101575000I100000J0D01*
G01*
X133837500Y-101575000D01*
G75*
G02*
X133937500Y-101675000I0J-100000D01*
G01*
X133937500Y-102950000D01*
G75*
G02*
X133837500Y-103050000I-100000J0D01*
G01*
G37*
G36*
G01*
X133187500Y-103050000D02*
X132987500Y-103050000D01*
G75*
G02*
X132887500Y-102950000I0J100000D01*
G01*
X132887500Y-101675000D01*
G75*
G02*
X132987500Y-101575000I100000J0D01*
G01*
X133187500Y-101575000D01*
G75*
G02*
X133287500Y-101675000I0J-100000D01*
G01*
X133287500Y-102950000D01*
G75*
G02*
X133187500Y-103050000I-100000J0D01*
G01*
G37*
G36*
G01*
X132537500Y-103050000D02*
X132337500Y-103050000D01*
G75*
G02*
X132237500Y-102950000I0J100000D01*
G01*
X132237500Y-101675000D01*
G75*
G02*
X132337500Y-101575000I100000J0D01*
G01*
X132537500Y-101575000D01*
G75*
G02*
X132637500Y-101675000I0J-100000D01*
G01*
X132637500Y-102950000D01*
G75*
G02*
X132537500Y-103050000I-100000J0D01*
G01*
G37*
G36*
G01*
X182405000Y-113187500D02*
X182405000Y-112237500D01*
G75*
G02*
X182655000Y-111987500I250000J0D01*
G01*
X183330000Y-111987500D01*
G75*
G02*
X183580000Y-112237500I0J-250000D01*
G01*
X183580000Y-113187500D01*
G75*
G02*
X183330000Y-113437500I-250000J0D01*
G01*
X182655000Y-113437500D01*
G75*
G02*
X182405000Y-113187500I0J250000D01*
G01*
G37*
G36*
G01*
X184480000Y-113187500D02*
X184480000Y-112237500D01*
G75*
G02*
X184730000Y-111987500I250000J0D01*
G01*
X185405000Y-111987500D01*
G75*
G02*
X185655000Y-112237500I0J-250000D01*
G01*
X185655000Y-113187500D01*
G75*
G02*
X185405000Y-113437500I-250000J0D01*
G01*
X184730000Y-113437500D01*
G75*
G02*
X184480000Y-113187500I0J250000D01*
G01*
G37*
G36*
G01*
X160412500Y-77737500D02*
X160412500Y-76837500D01*
G75*
G02*
X160662500Y-76587500I250000J0D01*
G01*
X161362500Y-76587500D01*
G75*
G02*
X161612500Y-76837500I0J-250000D01*
G01*
X161612500Y-77737500D01*
G75*
G02*
X161362500Y-77987500I-250000J0D01*
G01*
X160662500Y-77987500D01*
G75*
G02*
X160412500Y-77737500I0J250000D01*
G01*
G37*
G36*
G01*
X162412500Y-77737500D02*
X162412500Y-76837500D01*
G75*
G02*
X162662500Y-76587500I250000J0D01*
G01*
X163362500Y-76587500D01*
G75*
G02*
X163612500Y-76837500I0J-250000D01*
G01*
X163612500Y-77737500D01*
G75*
G02*
X163362500Y-77987500I-250000J0D01*
G01*
X162662500Y-77987500D01*
G75*
G02*
X162412500Y-77737500I0J250000D01*
G01*
G37*
G36*
G01*
X176480000Y-121312500D02*
X175580000Y-121312500D01*
G75*
G02*
X175330000Y-121062500I0J250000D01*
G01*
X175330000Y-120362500D01*
G75*
G02*
X175580000Y-120112500I250000J0D01*
G01*
X176480000Y-120112500D01*
G75*
G02*
X176730000Y-120362500I0J-250000D01*
G01*
X176730000Y-121062500D01*
G75*
G02*
X176480000Y-121312500I-250000J0D01*
G01*
G37*
G36*
G01*
X176480000Y-119312500D02*
X175580000Y-119312500D01*
G75*
G02*
X175330000Y-119062500I0J250000D01*
G01*
X175330000Y-118362500D01*
G75*
G02*
X175580000Y-118112500I250000J0D01*
G01*
X176480000Y-118112500D01*
G75*
G02*
X176730000Y-118362500I0J-250000D01*
G01*
X176730000Y-119062500D01*
G75*
G02*
X176480000Y-119312500I-250000J0D01*
G01*
G37*
G36*
G01*
X173405000Y-113187500D02*
X173405000Y-112237500D01*
G75*
G02*
X173655000Y-111987500I250000J0D01*
G01*
X174330000Y-111987500D01*
G75*
G02*
X174580000Y-112237500I0J-250000D01*
G01*
X174580000Y-113187500D01*
G75*
G02*
X174330000Y-113437500I-250000J0D01*
G01*
X173655000Y-113437500D01*
G75*
G02*
X173405000Y-113187500I0J250000D01*
G01*
G37*
G36*
G01*
X175480000Y-113187500D02*
X175480000Y-112237500D01*
G75*
G02*
X175730000Y-111987500I250000J0D01*
G01*
X176405000Y-111987500D01*
G75*
G02*
X176655000Y-112237500I0J-250000D01*
G01*
X176655000Y-113187500D01*
G75*
G02*
X176405000Y-113437500I-250000J0D01*
G01*
X175730000Y-113437500D01*
G75*
G02*
X175480000Y-113187500I0J250000D01*
G01*
G37*
G36*
G01*
X141062931Y-107224327D02*
X141699327Y-106587931D01*
G75*
G02*
X142052881Y-106587931I176777J-176777D01*
G01*
X142512501Y-107047551D01*
G75*
G02*
X142512501Y-107401105I-176777J-176777D01*
G01*
X141876105Y-108037501D01*
G75*
G02*
X141522551Y-108037501I-176777J176777D01*
G01*
X141062931Y-107577881D01*
G75*
G02*
X141062931Y-107224327I176777J176777D01*
G01*
G37*
G36*
G01*
X142512499Y-108673895D02*
X143148895Y-108037499D01*
G75*
G02*
X143502449Y-108037499I176777J-176777D01*
G01*
X143962069Y-108497119D01*
G75*
G02*
X143962069Y-108850673I-176777J-176777D01*
G01*
X143325673Y-109487069D01*
G75*
G02*
X142972119Y-109487069I-176777J176777D01*
G01*
X142512499Y-109027449D01*
G75*
G02*
X142512499Y-108673895I176777J176777D01*
G01*
G37*
G36*
G01*
X167612500Y-61087500D02*
X167612500Y-61987500D01*
G75*
G02*
X167362500Y-62237500I-250000J0D01*
G01*
X166662500Y-62237500D01*
G75*
G02*
X166412500Y-61987500I0J250000D01*
G01*
X166412500Y-61087500D01*
G75*
G02*
X166662500Y-60837500I250000J0D01*
G01*
X167362500Y-60837500D01*
G75*
G02*
X167612500Y-61087500I0J-250000D01*
G01*
G37*
G36*
G01*
X165612500Y-61087500D02*
X165612500Y-61987500D01*
G75*
G02*
X165362500Y-62237500I-250000J0D01*
G01*
X164662500Y-62237500D01*
G75*
G02*
X164412500Y-61987500I0J250000D01*
G01*
X164412500Y-61087500D01*
G75*
G02*
X164662500Y-60837500I250000J0D01*
G01*
X165362500Y-60837500D01*
G75*
G02*
X165612500Y-61087500I0J-250000D01*
G01*
G37*
D11*
X171962500Y-75837500D03*
X170062500Y-75837500D03*
X171012500Y-78237500D03*
X202462500Y-75837500D03*
X200562500Y-75837500D03*
X201512500Y-78237500D03*
G36*
G01*
X126137500Y-100012500D02*
X126137500Y-99062500D01*
G75*
G02*
X126387500Y-98812500I250000J0D01*
G01*
X127062500Y-98812500D01*
G75*
G02*
X127312500Y-99062500I0J-250000D01*
G01*
X127312500Y-100012500D01*
G75*
G02*
X127062500Y-100262500I-250000J0D01*
G01*
X126387500Y-100262500D01*
G75*
G02*
X126137500Y-100012500I0J250000D01*
G01*
G37*
G36*
G01*
X128212500Y-100012500D02*
X128212500Y-99062500D01*
G75*
G02*
X128462500Y-98812500I250000J0D01*
G01*
X129137500Y-98812500D01*
G75*
G02*
X129387500Y-99062500I0J-250000D01*
G01*
X129387500Y-100012500D01*
G75*
G02*
X129137500Y-100262500I-250000J0D01*
G01*
X128462500Y-100262500D01*
G75*
G02*
X128212500Y-100012500I0J250000D01*
G01*
G37*
G36*
G01*
X131212500Y-99637500D02*
X130312500Y-99637500D01*
G75*
G02*
X130062500Y-99387500I0J250000D01*
G01*
X130062500Y-98737500D01*
G75*
G02*
X130312500Y-98487500I250000J0D01*
G01*
X131212500Y-98487500D01*
G75*
G02*
X131462500Y-98737500I0J-250000D01*
G01*
X131462500Y-99387500D01*
G75*
G02*
X131212500Y-99637500I-250000J0D01*
G01*
G37*
G36*
G01*
X131212500Y-97587500D02*
X130312500Y-97587500D01*
G75*
G02*
X130062500Y-97337500I0J250000D01*
G01*
X130062500Y-96687500D01*
G75*
G02*
X130312500Y-96437500I250000J0D01*
G01*
X131212500Y-96437500D01*
G75*
G02*
X131462500Y-96687500I0J-250000D01*
G01*
X131462500Y-97337500D01*
G75*
G02*
X131212500Y-97587500I-250000J0D01*
G01*
G37*
G36*
G01*
X129612500Y-56087500D02*
X129612500Y-52987500D01*
G75*
G02*
X129862500Y-52737500I250000J0D01*
G01*
X131162500Y-52737500D01*
G75*
G02*
X131412500Y-52987500I0J-250000D01*
G01*
X131412500Y-56087500D01*
G75*
G02*
X131162500Y-56337500I-250000J0D01*
G01*
X129862500Y-56337500D01*
G75*
G02*
X129612500Y-56087500I0J250000D01*
G01*
G37*
D14*
X134012500Y-54537500D03*
X137512500Y-54537500D03*
X141012500Y-54537500D03*
X144512500Y-54537500D03*
D11*
X190562500Y-72237500D03*
X192462500Y-72237500D03*
X191512500Y-69837500D03*
G36*
G01*
X126162500Y-95987500D02*
X126162500Y-95087500D01*
G75*
G02*
X126412500Y-94837500I250000J0D01*
G01*
X127112500Y-94837500D01*
G75*
G02*
X127362500Y-95087500I0J-250000D01*
G01*
X127362500Y-95987500D01*
G75*
G02*
X127112500Y-96237500I-250000J0D01*
G01*
X126412500Y-96237500D01*
G75*
G02*
X126162500Y-95987500I0J250000D01*
G01*
G37*
G36*
G01*
X128162500Y-95987500D02*
X128162500Y-95087500D01*
G75*
G02*
X128412500Y-94837500I250000J0D01*
G01*
X129112500Y-94837500D01*
G75*
G02*
X129362500Y-95087500I0J-250000D01*
G01*
X129362500Y-95987500D01*
G75*
G02*
X129112500Y-96237500I-250000J0D01*
G01*
X128412500Y-96237500D01*
G75*
G02*
X128162500Y-95987500I0J250000D01*
G01*
G37*
D12*
X187262500Y-61937500D03*
X187262500Y-59137500D03*
G36*
G01*
X151480000Y-121312500D02*
X150580000Y-121312500D01*
G75*
G02*
X150330000Y-121062500I0J250000D01*
G01*
X150330000Y-120362500D01*
G75*
G02*
X150580000Y-120112500I250000J0D01*
G01*
X151480000Y-120112500D01*
G75*
G02*
X151730000Y-120362500I0J-250000D01*
G01*
X151730000Y-121062500D01*
G75*
G02*
X151480000Y-121312500I-250000J0D01*
G01*
G37*
G36*
G01*
X151480000Y-119312500D02*
X150580000Y-119312500D01*
G75*
G02*
X150330000Y-119062500I0J250000D01*
G01*
X150330000Y-118362500D01*
G75*
G02*
X150580000Y-118112500I250000J0D01*
G01*
X151480000Y-118112500D01*
G75*
G02*
X151730000Y-118362500I0J-250000D01*
G01*
X151730000Y-119062500D01*
G75*
G02*
X151480000Y-119312500I-250000J0D01*
G01*
G37*
G36*
G01*
X140112500Y-59087500D02*
X140112500Y-59987500D01*
G75*
G02*
X139862500Y-60237500I-250000J0D01*
G01*
X139162500Y-60237500D01*
G75*
G02*
X138912500Y-59987500I0J250000D01*
G01*
X138912500Y-59087500D01*
G75*
G02*
X139162500Y-58837500I250000J0D01*
G01*
X139862500Y-58837500D01*
G75*
G02*
X140112500Y-59087500I0J-250000D01*
G01*
G37*
G36*
G01*
X138112500Y-59087500D02*
X138112500Y-59987500D01*
G75*
G02*
X137862500Y-60237500I-250000J0D01*
G01*
X137162500Y-60237500D01*
G75*
G02*
X136912500Y-59987500I0J250000D01*
G01*
X136912500Y-59087500D01*
G75*
G02*
X137162500Y-58837500I250000J0D01*
G01*
X137862500Y-58837500D01*
G75*
G02*
X138112500Y-59087500I0J-250000D01*
G01*
G37*
D13*
X157930000Y-114712500D03*
X160130000Y-114712500D03*
G36*
G01*
X169980000Y-123312500D02*
X169080000Y-123312500D01*
G75*
G02*
X168830000Y-123062500I0J250000D01*
G01*
X168830000Y-122362500D01*
G75*
G02*
X169080000Y-122112500I250000J0D01*
G01*
X169980000Y-122112500D01*
G75*
G02*
X170230000Y-122362500I0J-250000D01*
G01*
X170230000Y-123062500D01*
G75*
G02*
X169980000Y-123312500I-250000J0D01*
G01*
G37*
G36*
G01*
X169980000Y-121312500D02*
X169080000Y-121312500D01*
G75*
G02*
X168830000Y-121062500I0J250000D01*
G01*
X168830000Y-120362500D01*
G75*
G02*
X169080000Y-120112500I250000J0D01*
G01*
X169980000Y-120112500D01*
G75*
G02*
X170230000Y-120362500I0J-250000D01*
G01*
X170230000Y-121062500D01*
G75*
G02*
X169980000Y-121312500I-250000J0D01*
G01*
G37*
G36*
G01*
X195062500Y-61437500D02*
X195962500Y-61437500D01*
G75*
G02*
X196212500Y-61687500I0J-250000D01*
G01*
X196212500Y-62387500D01*
G75*
G02*
X195962500Y-62637500I-250000J0D01*
G01*
X195062500Y-62637500D01*
G75*
G02*
X194812500Y-62387500I0J250000D01*
G01*
X194812500Y-61687500D01*
G75*
G02*
X195062500Y-61437500I250000J0D01*
G01*
G37*
G36*
G01*
X195062500Y-63437500D02*
X195962500Y-63437500D01*
G75*
G02*
X196212500Y-63687500I0J-250000D01*
G01*
X196212500Y-64387500D01*
G75*
G02*
X195962500Y-64637500I-250000J0D01*
G01*
X195062500Y-64637500D01*
G75*
G02*
X194812500Y-64387500I0J250000D01*
G01*
X194812500Y-63687500D01*
G75*
G02*
X195062500Y-63437500I250000J0D01*
G01*
G37*
G36*
G01*
X177612500Y-73587500D02*
X177612500Y-74487500D01*
G75*
G02*
X177362500Y-74737500I-250000J0D01*
G01*
X176662500Y-74737500D01*
G75*
G02*
X176412500Y-74487500I0J250000D01*
G01*
X176412500Y-73587500D01*
G75*
G02*
X176662500Y-73337500I250000J0D01*
G01*
X177362500Y-73337500D01*
G75*
G02*
X177612500Y-73587500I0J-250000D01*
G01*
G37*
G36*
G01*
X175612500Y-73587500D02*
X175612500Y-74487500D01*
G75*
G02*
X175362500Y-74737500I-250000J0D01*
G01*
X174662500Y-74737500D01*
G75*
G02*
X174412500Y-74487500I0J250000D01*
G01*
X174412500Y-73587500D01*
G75*
G02*
X174662500Y-73337500I250000J0D01*
G01*
X175362500Y-73337500D01*
G75*
G02*
X175612500Y-73587500I0J-250000D01*
G01*
G37*
G36*
G01*
X142987500Y-73162500D02*
X142037500Y-73162500D01*
G75*
G02*
X141787500Y-72912500I0J250000D01*
G01*
X141787500Y-72237500D01*
G75*
G02*
X142037500Y-71987500I250000J0D01*
G01*
X142987500Y-71987500D01*
G75*
G02*
X143237500Y-72237500I0J-250000D01*
G01*
X143237500Y-72912500D01*
G75*
G02*
X142987500Y-73162500I-250000J0D01*
G01*
G37*
G36*
G01*
X142987500Y-71087500D02*
X142037500Y-71087500D01*
G75*
G02*
X141787500Y-70837500I0J250000D01*
G01*
X141787500Y-70162500D01*
G75*
G02*
X142037500Y-69912500I250000J0D01*
G01*
X142987500Y-69912500D01*
G75*
G02*
X143237500Y-70162500I0J-250000D01*
G01*
X143237500Y-70837500D01*
G75*
G02*
X142987500Y-71087500I-250000J0D01*
G01*
G37*
G36*
G01*
X183480000Y-119312500D02*
X182580000Y-119312500D01*
G75*
G02*
X182330000Y-119062500I0J250000D01*
G01*
X182330000Y-118362500D01*
G75*
G02*
X182580000Y-118112500I250000J0D01*
G01*
X183480000Y-118112500D01*
G75*
G02*
X183730000Y-118362500I0J-250000D01*
G01*
X183730000Y-119062500D01*
G75*
G02*
X183480000Y-119312500I-250000J0D01*
G01*
G37*
G36*
G01*
X183480000Y-117312500D02*
X182580000Y-117312500D01*
G75*
G02*
X182330000Y-117062500I0J250000D01*
G01*
X182330000Y-116362500D01*
G75*
G02*
X182580000Y-116112500I250000J0D01*
G01*
X183480000Y-116112500D01*
G75*
G02*
X183730000Y-116362500I0J-250000D01*
G01*
X183730000Y-117062500D01*
G75*
G02*
X183480000Y-117312500I-250000J0D01*
G01*
G37*
D11*
X186962500Y-75837500D03*
X185062500Y-75837500D03*
X186012500Y-78237500D03*
D13*
X137430000Y-114680000D03*
X139630000Y-114680000D03*
G36*
G01*
X164980000Y-121312500D02*
X164080000Y-121312500D01*
G75*
G02*
X163830000Y-121062500I0J250000D01*
G01*
X163830000Y-120362500D01*
G75*
G02*
X164080000Y-120112500I250000J0D01*
G01*
X164980000Y-120112500D01*
G75*
G02*
X165230000Y-120362500I0J-250000D01*
G01*
X165230000Y-121062500D01*
G75*
G02*
X164980000Y-121312500I-250000J0D01*
G01*
G37*
G36*
G01*
X164980000Y-119312500D02*
X164080000Y-119312500D01*
G75*
G02*
X163830000Y-119062500I0J250000D01*
G01*
X163830000Y-118362500D01*
G75*
G02*
X164080000Y-118112500I250000J0D01*
G01*
X164980000Y-118112500D01*
G75*
G02*
X165230000Y-118362500I0J-250000D01*
G01*
X165230000Y-119062500D01*
G75*
G02*
X164980000Y-119312500I-250000J0D01*
G01*
G37*
G36*
G01*
X163612500Y-59087500D02*
X163612500Y-59987500D01*
G75*
G02*
X163362500Y-60237500I-250000J0D01*
G01*
X162662500Y-60237500D01*
G75*
G02*
X162412500Y-59987500I0J250000D01*
G01*
X162412500Y-59087500D01*
G75*
G02*
X162662500Y-58837500I250000J0D01*
G01*
X163362500Y-58837500D01*
G75*
G02*
X163612500Y-59087500I0J-250000D01*
G01*
G37*
G36*
G01*
X161612500Y-59087500D02*
X161612500Y-59987500D01*
G75*
G02*
X161362500Y-60237500I-250000J0D01*
G01*
X160662500Y-60237500D01*
G75*
G02*
X160412500Y-59987500I0J250000D01*
G01*
X160412500Y-59087500D01*
G75*
G02*
X160662500Y-58837500I250000J0D01*
G01*
X161362500Y-58837500D01*
G75*
G02*
X161612500Y-59087500I0J-250000D01*
G01*
G37*
G36*
G01*
X172725000Y-103875000D02*
X171775000Y-103875000D01*
G75*
G02*
X171525000Y-103625000I0J250000D01*
G01*
X171525000Y-102950000D01*
G75*
G02*
X171775000Y-102700000I250000J0D01*
G01*
X172725000Y-102700000D01*
G75*
G02*
X172975000Y-102950000I0J-250000D01*
G01*
X172975000Y-103625000D01*
G75*
G02*
X172725000Y-103875000I-250000J0D01*
G01*
G37*
G36*
G01*
X172725000Y-101800000D02*
X171775000Y-101800000D01*
G75*
G02*
X171525000Y-101550000I0J250000D01*
G01*
X171525000Y-100875000D01*
G75*
G02*
X171775000Y-100625000I250000J0D01*
G01*
X172725000Y-100625000D01*
G75*
G02*
X172975000Y-100875000I0J-250000D01*
G01*
X172975000Y-101550000D01*
G75*
G02*
X172725000Y-101800000I-250000J0D01*
G01*
G37*
G36*
G01*
X153487500Y-73162500D02*
X152537500Y-73162500D01*
G75*
G02*
X152287500Y-72912500I0J250000D01*
G01*
X152287500Y-72237500D01*
G75*
G02*
X152537500Y-71987500I250000J0D01*
G01*
X153487500Y-71987500D01*
G75*
G02*
X153737500Y-72237500I0J-250000D01*
G01*
X153737500Y-72912500D01*
G75*
G02*
X153487500Y-73162500I-250000J0D01*
G01*
G37*
G36*
G01*
X153487500Y-71087500D02*
X152537500Y-71087500D01*
G75*
G02*
X152287500Y-70837500I0J250000D01*
G01*
X152287500Y-70162500D01*
G75*
G02*
X152537500Y-69912500I250000J0D01*
G01*
X153487500Y-69912500D01*
G75*
G02*
X153737500Y-70162500I0J-250000D01*
G01*
X153737500Y-70837500D01*
G75*
G02*
X153487500Y-71087500I-250000J0D01*
G01*
G37*
G36*
G01*
X144480000Y-121280000D02*
X143580000Y-121280000D01*
G75*
G02*
X143330000Y-121030000I0J250000D01*
G01*
X143330000Y-120330000D01*
G75*
G02*
X143580000Y-120080000I250000J0D01*
G01*
X144480000Y-120080000D01*
G75*
G02*
X144730000Y-120330000I0J-250000D01*
G01*
X144730000Y-121030000D01*
G75*
G02*
X144480000Y-121280000I-250000J0D01*
G01*
G37*
G36*
G01*
X144480000Y-119280000D02*
X143580000Y-119280000D01*
G75*
G02*
X143330000Y-119030000I0J250000D01*
G01*
X143330000Y-118330000D01*
G75*
G02*
X143580000Y-118080000I250000J0D01*
G01*
X144480000Y-118080000D01*
G75*
G02*
X144730000Y-118330000I0J-250000D01*
G01*
X144730000Y-119030000D01*
G75*
G02*
X144480000Y-119280000I-250000J0D01*
G01*
G37*
G36*
G01*
X199480000Y-123312500D02*
X198580000Y-123312500D01*
G75*
G02*
X198330000Y-123062500I0J250000D01*
G01*
X198330000Y-122362500D01*
G75*
G02*
X198580000Y-122112500I250000J0D01*
G01*
X199480000Y-122112500D01*
G75*
G02*
X199730000Y-122362500I0J-250000D01*
G01*
X199730000Y-123062500D01*
G75*
G02*
X199480000Y-123312500I-250000J0D01*
G01*
G37*
G36*
G01*
X199480000Y-121312500D02*
X198580000Y-121312500D01*
G75*
G02*
X198330000Y-121062500I0J250000D01*
G01*
X198330000Y-120362500D01*
G75*
G02*
X198580000Y-120112500I250000J0D01*
G01*
X199480000Y-120112500D01*
G75*
G02*
X199730000Y-120362500I0J-250000D01*
G01*
X199730000Y-121062500D01*
G75*
G02*
X199480000Y-121312500I-250000J0D01*
G01*
G37*
G36*
G01*
X190062500Y-61437500D02*
X190962500Y-61437500D01*
G75*
G02*
X191212500Y-61687500I0J-250000D01*
G01*
X191212500Y-62387500D01*
G75*
G02*
X190962500Y-62637500I-250000J0D01*
G01*
X190062500Y-62637500D01*
G75*
G02*
X189812500Y-62387500I0J250000D01*
G01*
X189812500Y-61687500D01*
G75*
G02*
X190062500Y-61437500I250000J0D01*
G01*
G37*
G36*
G01*
X190062500Y-63437500D02*
X190962500Y-63437500D01*
G75*
G02*
X191212500Y-63687500I0J-250000D01*
G01*
X191212500Y-64387500D01*
G75*
G02*
X190962500Y-64637500I-250000J0D01*
G01*
X190062500Y-64637500D01*
G75*
G02*
X189812500Y-64387500I0J250000D01*
G01*
X189812500Y-63687500D01*
G75*
G02*
X190062500Y-63437500I250000J0D01*
G01*
G37*
G36*
G01*
X185912500Y-87862500D02*
X185912500Y-87662500D01*
G75*
G02*
X186012500Y-87562500I100000J0D01*
G01*
X187287500Y-87562500D01*
G75*
G02*
X187387500Y-87662500I0J-100000D01*
G01*
X187387500Y-87862500D01*
G75*
G02*
X187287500Y-87962500I-100000J0D01*
G01*
X186012500Y-87962500D01*
G75*
G02*
X185912500Y-87862500I0J100000D01*
G01*
G37*
G36*
G01*
X185912500Y-88512500D02*
X185912500Y-88312500D01*
G75*
G02*
X186012500Y-88212500I100000J0D01*
G01*
X187287500Y-88212500D01*
G75*
G02*
X187387500Y-88312500I0J-100000D01*
G01*
X187387500Y-88512500D01*
G75*
G02*
X187287500Y-88612500I-100000J0D01*
G01*
X186012500Y-88612500D01*
G75*
G02*
X185912500Y-88512500I0J100000D01*
G01*
G37*
G36*
G01*
X185912500Y-89162500D02*
X185912500Y-88962500D01*
G75*
G02*
X186012500Y-88862500I100000J0D01*
G01*
X187287500Y-88862500D01*
G75*
G02*
X187387500Y-88962500I0J-100000D01*
G01*
X187387500Y-89162500D01*
G75*
G02*
X187287500Y-89262500I-100000J0D01*
G01*
X186012500Y-89262500D01*
G75*
G02*
X185912500Y-89162500I0J100000D01*
G01*
G37*
G36*
G01*
X185912500Y-89812500D02*
X185912500Y-89612500D01*
G75*
G02*
X186012500Y-89512500I100000J0D01*
G01*
X187287500Y-89512500D01*
G75*
G02*
X187387500Y-89612500I0J-100000D01*
G01*
X187387500Y-89812500D01*
G75*
G02*
X187287500Y-89912500I-100000J0D01*
G01*
X186012500Y-89912500D01*
G75*
G02*
X185912500Y-89812500I0J100000D01*
G01*
G37*
G36*
G01*
X185912500Y-90462500D02*
X185912500Y-90262500D01*
G75*
G02*
X186012500Y-90162500I100000J0D01*
G01*
X187287500Y-90162500D01*
G75*
G02*
X187387500Y-90262500I0J-100000D01*
G01*
X187387500Y-90462500D01*
G75*
G02*
X187287500Y-90562500I-100000J0D01*
G01*
X186012500Y-90562500D01*
G75*
G02*
X185912500Y-90462500I0J100000D01*
G01*
G37*
G36*
G01*
X185912500Y-91112500D02*
X185912500Y-90912500D01*
G75*
G02*
X186012500Y-90812500I100000J0D01*
G01*
X187287500Y-90812500D01*
G75*
G02*
X187387500Y-90912500I0J-100000D01*
G01*
X187387500Y-91112500D01*
G75*
G02*
X187287500Y-91212500I-100000J0D01*
G01*
X186012500Y-91212500D01*
G75*
G02*
X185912500Y-91112500I0J100000D01*
G01*
G37*
G36*
G01*
X185912500Y-91762500D02*
X185912500Y-91562500D01*
G75*
G02*
X186012500Y-91462500I100000J0D01*
G01*
X187287500Y-91462500D01*
G75*
G02*
X187387500Y-91562500I0J-100000D01*
G01*
X187387500Y-91762500D01*
G75*
G02*
X187287500Y-91862500I-100000J0D01*
G01*
X186012500Y-91862500D01*
G75*
G02*
X185912500Y-91762500I0J100000D01*
G01*
G37*
G36*
G01*
X185912500Y-92412500D02*
X185912500Y-92212500D01*
G75*
G02*
X186012500Y-92112500I100000J0D01*
G01*
X187287500Y-92112500D01*
G75*
G02*
X187387500Y-92212500I0J-100000D01*
G01*
X187387500Y-92412500D01*
G75*
G02*
X187287500Y-92512500I-100000J0D01*
G01*
X186012500Y-92512500D01*
G75*
G02*
X185912500Y-92412500I0J100000D01*
G01*
G37*
G36*
G01*
X191637500Y-92412500D02*
X191637500Y-92212500D01*
G75*
G02*
X191737500Y-92112500I100000J0D01*
G01*
X193012500Y-92112500D01*
G75*
G02*
X193112500Y-92212500I0J-100000D01*
G01*
X193112500Y-92412500D01*
G75*
G02*
X193012500Y-92512500I-100000J0D01*
G01*
X191737500Y-92512500D01*
G75*
G02*
X191637500Y-92412500I0J100000D01*
G01*
G37*
G36*
G01*
X191637500Y-91762500D02*
X191637500Y-91562500D01*
G75*
G02*
X191737500Y-91462500I100000J0D01*
G01*
X193012500Y-91462500D01*
G75*
G02*
X193112500Y-91562500I0J-100000D01*
G01*
X193112500Y-91762500D01*
G75*
G02*
X193012500Y-91862500I-100000J0D01*
G01*
X191737500Y-91862500D01*
G75*
G02*
X191637500Y-91762500I0J100000D01*
G01*
G37*
G36*
G01*
X191637500Y-91112500D02*
X191637500Y-90912500D01*
G75*
G02*
X191737500Y-90812500I100000J0D01*
G01*
X193012500Y-90812500D01*
G75*
G02*
X193112500Y-90912500I0J-100000D01*
G01*
X193112500Y-91112500D01*
G75*
G02*
X193012500Y-91212500I-100000J0D01*
G01*
X191737500Y-91212500D01*
G75*
G02*
X191637500Y-91112500I0J100000D01*
G01*
G37*
G36*
G01*
X191637500Y-90462500D02*
X191637500Y-90262500D01*
G75*
G02*
X191737500Y-90162500I100000J0D01*
G01*
X193012500Y-90162500D01*
G75*
G02*
X193112500Y-90262500I0J-100000D01*
G01*
X193112500Y-90462500D01*
G75*
G02*
X193012500Y-90562500I-100000J0D01*
G01*
X191737500Y-90562500D01*
G75*
G02*
X191637500Y-90462500I0J100000D01*
G01*
G37*
G36*
G01*
X191637500Y-89812500D02*
X191637500Y-89612500D01*
G75*
G02*
X191737500Y-89512500I100000J0D01*
G01*
X193012500Y-89512500D01*
G75*
G02*
X193112500Y-89612500I0J-100000D01*
G01*
X193112500Y-89812500D01*
G75*
G02*
X193012500Y-89912500I-100000J0D01*
G01*
X191737500Y-89912500D01*
G75*
G02*
X191637500Y-89812500I0J100000D01*
G01*
G37*
G36*
G01*
X191637500Y-89162500D02*
X191637500Y-88962500D01*
G75*
G02*
X191737500Y-88862500I100000J0D01*
G01*
X193012500Y-88862500D01*
G75*
G02*
X193112500Y-88962500I0J-100000D01*
G01*
X193112500Y-89162500D01*
G75*
G02*
X193012500Y-89262500I-100000J0D01*
G01*
X191737500Y-89262500D01*
G75*
G02*
X191637500Y-89162500I0J100000D01*
G01*
G37*
G36*
G01*
X191637500Y-88512500D02*
X191637500Y-88312500D01*
G75*
G02*
X191737500Y-88212500I100000J0D01*
G01*
X193012500Y-88212500D01*
G75*
G02*
X193112500Y-88312500I0J-100000D01*
G01*
X193112500Y-88512500D01*
G75*
G02*
X193012500Y-88612500I-100000J0D01*
G01*
X191737500Y-88612500D01*
G75*
G02*
X191637500Y-88512500I0J100000D01*
G01*
G37*
G36*
G01*
X191637500Y-87862500D02*
X191637500Y-87662500D01*
G75*
G02*
X191737500Y-87562500I100000J0D01*
G01*
X193012500Y-87562500D01*
G75*
G02*
X193112500Y-87662500I0J-100000D01*
G01*
X193112500Y-87862500D01*
G75*
G02*
X193012500Y-87962500I-100000J0D01*
G01*
X191737500Y-87962500D01*
G75*
G02*
X191637500Y-87862500I0J100000D01*
G01*
G37*
G36*
G01*
X189900000Y-103450000D02*
X189900000Y-102550000D01*
G75*
G02*
X190150000Y-102300000I250000J0D01*
G01*
X190850000Y-102300000D01*
G75*
G02*
X191100000Y-102550000I0J-250000D01*
G01*
X191100000Y-103450000D01*
G75*
G02*
X190850000Y-103700000I-250000J0D01*
G01*
X190150000Y-103700000D01*
G75*
G02*
X189900000Y-103450000I0J250000D01*
G01*
G37*
G36*
G01*
X191900000Y-103450000D02*
X191900000Y-102550000D01*
G75*
G02*
X192150000Y-102300000I250000J0D01*
G01*
X192850000Y-102300000D01*
G75*
G02*
X193100000Y-102550000I0J-250000D01*
G01*
X193100000Y-103450000D01*
G75*
G02*
X192850000Y-103700000I-250000J0D01*
G01*
X192150000Y-103700000D01*
G75*
G02*
X191900000Y-103450000I0J250000D01*
G01*
G37*
G36*
G01*
X205062500Y-65437500D02*
X205962500Y-65437500D01*
G75*
G02*
X206212500Y-65687500I0J-250000D01*
G01*
X206212500Y-66387500D01*
G75*
G02*
X205962500Y-66637500I-250000J0D01*
G01*
X205062500Y-66637500D01*
G75*
G02*
X204812500Y-66387500I0J250000D01*
G01*
X204812500Y-65687500D01*
G75*
G02*
X205062500Y-65437500I250000J0D01*
G01*
G37*
G36*
G01*
X205062500Y-67437500D02*
X205962500Y-67437500D01*
G75*
G02*
X206212500Y-67687500I0J-250000D01*
G01*
X206212500Y-68387500D01*
G75*
G02*
X205962500Y-68637500I-250000J0D01*
G01*
X205062500Y-68637500D01*
G75*
G02*
X204812500Y-68387500I0J250000D01*
G01*
X204812500Y-67687500D01*
G75*
G02*
X205062500Y-67437500I250000J0D01*
G01*
G37*
G36*
G01*
X137980000Y-119280000D02*
X137080000Y-119280000D01*
G75*
G02*
X136830000Y-119030000I0J250000D01*
G01*
X136830000Y-118330000D01*
G75*
G02*
X137080000Y-118080000I250000J0D01*
G01*
X137980000Y-118080000D01*
G75*
G02*
X138230000Y-118330000I0J-250000D01*
G01*
X138230000Y-119030000D01*
G75*
G02*
X137980000Y-119280000I-250000J0D01*
G01*
G37*
G36*
G01*
X137980000Y-117280000D02*
X137080000Y-117280000D01*
G75*
G02*
X136830000Y-117030000I0J250000D01*
G01*
X136830000Y-116330000D01*
G75*
G02*
X137080000Y-116080000I250000J0D01*
G01*
X137980000Y-116080000D01*
G75*
G02*
X138230000Y-116330000I0J-250000D01*
G01*
X138230000Y-117030000D01*
G75*
G02*
X137980000Y-117280000I-250000J0D01*
G01*
G37*
G36*
G01*
X150112500Y-56087500D02*
X150112500Y-52987500D01*
G75*
G02*
X150362500Y-52737500I250000J0D01*
G01*
X151662500Y-52737500D01*
G75*
G02*
X151912500Y-52987500I0J-250000D01*
G01*
X151912500Y-56087500D01*
G75*
G02*
X151662500Y-56337500I-250000J0D01*
G01*
X150362500Y-56337500D01*
G75*
G02*
X150112500Y-56087500I0J250000D01*
G01*
G37*
D14*
X154512500Y-54537500D03*
X158012500Y-54537500D03*
X161512500Y-54537500D03*
X165012500Y-54537500D03*
G36*
G01*
X135137500Y-72062500D02*
X135137500Y-73012500D01*
G75*
G02*
X134887500Y-73262500I-250000J0D01*
G01*
X134212500Y-73262500D01*
G75*
G02*
X133962500Y-73012500I0J250000D01*
G01*
X133962500Y-72062500D01*
G75*
G02*
X134212500Y-71812500I250000J0D01*
G01*
X134887500Y-71812500D01*
G75*
G02*
X135137500Y-72062500I0J-250000D01*
G01*
G37*
G36*
G01*
X133062500Y-72062500D02*
X133062500Y-73012500D01*
G75*
G02*
X132812500Y-73262500I-250000J0D01*
G01*
X132137500Y-73262500D01*
G75*
G02*
X131887500Y-73012500I0J250000D01*
G01*
X131887500Y-72062500D01*
G75*
G02*
X132137500Y-71812500I250000J0D01*
G01*
X132812500Y-71812500D01*
G75*
G02*
X133062500Y-72062500I0J-250000D01*
G01*
G37*
G36*
G01*
X186562500Y-63437500D02*
X187462500Y-63437500D01*
G75*
G02*
X187712500Y-63687500I0J-250000D01*
G01*
X187712500Y-64387500D01*
G75*
G02*
X187462500Y-64637500I-250000J0D01*
G01*
X186562500Y-64637500D01*
G75*
G02*
X186312500Y-64387500I0J250000D01*
G01*
X186312500Y-63687500D01*
G75*
G02*
X186562500Y-63437500I250000J0D01*
G01*
G37*
G36*
G01*
X186562500Y-65437500D02*
X187462500Y-65437500D01*
G75*
G02*
X187712500Y-65687500I0J-250000D01*
G01*
X187712500Y-66387500D01*
G75*
G02*
X187462500Y-66637500I-250000J0D01*
G01*
X186562500Y-66637500D01*
G75*
G02*
X186312500Y-66387500I0J250000D01*
G01*
X186312500Y-65687500D01*
G75*
G02*
X186562500Y-65437500I250000J0D01*
G01*
G37*
G36*
G01*
X169980000Y-119312500D02*
X169080000Y-119312500D01*
G75*
G02*
X168830000Y-119062500I0J250000D01*
G01*
X168830000Y-118362500D01*
G75*
G02*
X169080000Y-118112500I250000J0D01*
G01*
X169980000Y-118112500D01*
G75*
G02*
X170230000Y-118362500I0J-250000D01*
G01*
X170230000Y-119062500D01*
G75*
G02*
X169980000Y-119312500I-250000J0D01*
G01*
G37*
G36*
G01*
X169980000Y-117312500D02*
X169080000Y-117312500D01*
G75*
G02*
X168830000Y-117062500I0J250000D01*
G01*
X168830000Y-116362500D01*
G75*
G02*
X169080000Y-116112500I250000J0D01*
G01*
X169980000Y-116112500D01*
G75*
G02*
X170230000Y-116362500I0J-250000D01*
G01*
X170230000Y-117062500D01*
G75*
G02*
X169980000Y-117312500I-250000J0D01*
G01*
G37*
G36*
X188275000Y-95750000D02*
G01*
X187775000Y-96500000D01*
X186775000Y-96500000D01*
X186775000Y-95000000D01*
X187775000Y-95000000D01*
X188275000Y-95750000D01*
G37*
G36*
X189225000Y-96500000D02*
G01*
X188075000Y-96500000D01*
X188575000Y-95750000D01*
X188075000Y-95000000D01*
X189225000Y-95000000D01*
X189225000Y-96500000D01*
G37*
D13*
X182930000Y-114712500D03*
X185130000Y-114712500D03*
X189930000Y-114712500D03*
X192130000Y-114712500D03*
G36*
G01*
X184562500Y-61437500D02*
X185462500Y-61437500D01*
G75*
G02*
X185712500Y-61687500I0J-250000D01*
G01*
X185712500Y-62387500D01*
G75*
G02*
X185462500Y-62637500I-250000J0D01*
G01*
X184562500Y-62637500D01*
G75*
G02*
X184312500Y-62387500I0J250000D01*
G01*
X184312500Y-61687500D01*
G75*
G02*
X184562500Y-61437500I250000J0D01*
G01*
G37*
G36*
G01*
X184562500Y-63437500D02*
X185462500Y-63437500D01*
G75*
G02*
X185712500Y-63687500I0J-250000D01*
G01*
X185712500Y-64387500D01*
G75*
G02*
X185462500Y-64637500I-250000J0D01*
G01*
X184562500Y-64637500D01*
G75*
G02*
X184312500Y-64387500I0J250000D01*
G01*
X184312500Y-63687500D01*
G75*
G02*
X184562500Y-63437500I250000J0D01*
G01*
G37*
G36*
G01*
X199480000Y-119312500D02*
X198580000Y-119312500D01*
G75*
G02*
X198330000Y-119062500I0J250000D01*
G01*
X198330000Y-118362500D01*
G75*
G02*
X198580000Y-118112500I250000J0D01*
G01*
X199480000Y-118112500D01*
G75*
G02*
X199730000Y-118362500I0J-250000D01*
G01*
X199730000Y-119062500D01*
G75*
G02*
X199480000Y-119312500I-250000J0D01*
G01*
G37*
G36*
G01*
X199480000Y-117312500D02*
X198580000Y-117312500D01*
G75*
G02*
X198330000Y-117062500I0J250000D01*
G01*
X198330000Y-116362500D01*
G75*
G02*
X198580000Y-116112500I250000J0D01*
G01*
X199480000Y-116112500D01*
G75*
G02*
X199730000Y-116362500I0J-250000D01*
G01*
X199730000Y-117062500D01*
G75*
G02*
X199480000Y-117312500I-250000J0D01*
G01*
G37*
G36*
G01*
X171980000Y-121312500D02*
X171080000Y-121312500D01*
G75*
G02*
X170830000Y-121062500I0J250000D01*
G01*
X170830000Y-120362500D01*
G75*
G02*
X171080000Y-120112500I250000J0D01*
G01*
X171980000Y-120112500D01*
G75*
G02*
X172230000Y-120362500I0J-250000D01*
G01*
X172230000Y-121062500D01*
G75*
G02*
X171980000Y-121312500I-250000J0D01*
G01*
G37*
G36*
G01*
X171980000Y-119312500D02*
X171080000Y-119312500D01*
G75*
G02*
X170830000Y-119062500I0J250000D01*
G01*
X170830000Y-118362500D01*
G75*
G02*
X171080000Y-118112500I250000J0D01*
G01*
X171980000Y-118112500D01*
G75*
G02*
X172230000Y-118362500I0J-250000D01*
G01*
X172230000Y-119062500D01*
G75*
G02*
X171980000Y-119312500I-250000J0D01*
G01*
G37*
G36*
G01*
X205980000Y-121312500D02*
X205080000Y-121312500D01*
G75*
G02*
X204830000Y-121062500I0J250000D01*
G01*
X204830000Y-120362500D01*
G75*
G02*
X205080000Y-120112500I250000J0D01*
G01*
X205980000Y-120112500D01*
G75*
G02*
X206230000Y-120362500I0J-250000D01*
G01*
X206230000Y-121062500D01*
G75*
G02*
X205980000Y-121312500I-250000J0D01*
G01*
G37*
G36*
G01*
X205980000Y-119312500D02*
X205080000Y-119312500D01*
G75*
G02*
X204830000Y-119062500I0J250000D01*
G01*
X204830000Y-118362500D01*
G75*
G02*
X205080000Y-118112500I250000J0D01*
G01*
X205980000Y-118112500D01*
G75*
G02*
X206230000Y-118362500I0J-250000D01*
G01*
X206230000Y-119062500D01*
G75*
G02*
X205980000Y-119312500I-250000J0D01*
G01*
G37*
G36*
G01*
X188849999Y-101375000D02*
X187150001Y-101375000D01*
G75*
G02*
X186900000Y-101124999I0J250001D01*
G01*
X186900000Y-100200001D01*
G75*
G02*
X187150001Y-99950000I250001J0D01*
G01*
X188849999Y-99950000D01*
G75*
G02*
X189100000Y-100200001I0J-250001D01*
G01*
X189100000Y-101124999D01*
G75*
G02*
X188849999Y-101375000I-250001J0D01*
G01*
G37*
G36*
G01*
X188849999Y-99050000D02*
X187150001Y-99050000D01*
G75*
G02*
X186900000Y-98799999I0J250001D01*
G01*
X186900000Y-97875001D01*
G75*
G02*
X187150001Y-97625000I250001J0D01*
G01*
X188849999Y-97625000D01*
G75*
G02*
X189100000Y-97875001I0J-250001D01*
G01*
X189100000Y-98799999D01*
G75*
G02*
X188849999Y-99050000I-250001J0D01*
G01*
G37*
G36*
G01*
X176562500Y-63437500D02*
X177462500Y-63437500D01*
G75*
G02*
X177712500Y-63687500I0J-250000D01*
G01*
X177712500Y-64387500D01*
G75*
G02*
X177462500Y-64637500I-250000J0D01*
G01*
X176562500Y-64637500D01*
G75*
G02*
X176312500Y-64387500I0J250000D01*
G01*
X176312500Y-63687500D01*
G75*
G02*
X176562500Y-63437500I250000J0D01*
G01*
G37*
G36*
G01*
X176562500Y-65437500D02*
X177462500Y-65437500D01*
G75*
G02*
X177712500Y-65687500I0J-250000D01*
G01*
X177712500Y-66387500D01*
G75*
G02*
X177462500Y-66637500I-250000J0D01*
G01*
X176562500Y-66637500D01*
G75*
G02*
X176312500Y-66387500I0J250000D01*
G01*
X176312500Y-65687500D01*
G75*
G02*
X176562500Y-65437500I250000J0D01*
G01*
G37*
D12*
X172262500Y-61937500D03*
X172262500Y-59137500D03*
D15*
X148262500Y-61037500D03*
G36*
G01*
X143562931Y-106974327D02*
X144199327Y-106337931D01*
G75*
G02*
X144552881Y-106337931I176777J-176777D01*
G01*
X145047855Y-106832905D01*
G75*
G02*
X145047855Y-107186459I-176777J-176777D01*
G01*
X144411459Y-107822855D01*
G75*
G02*
X144057905Y-107822855I-176777J176777D01*
G01*
X143562931Y-107327881D01*
G75*
G02*
X143562931Y-106974327I176777J176777D01*
G01*
G37*
G36*
G01*
X144977145Y-108388541D02*
X145613541Y-107752145D01*
G75*
G02*
X145967095Y-107752145I176777J-176777D01*
G01*
X146462069Y-108247119D01*
G75*
G02*
X146462069Y-108600673I-176777J-176777D01*
G01*
X145825673Y-109237069D01*
G75*
G02*
X145472119Y-109237069I-176777J176777D01*
G01*
X144977145Y-108742095D01*
G75*
G02*
X144977145Y-108388541I176777J176777D01*
G01*
G37*
G36*
G01*
X142480000Y-119280000D02*
X141580000Y-119280000D01*
G75*
G02*
X141330000Y-119030000I0J250000D01*
G01*
X141330000Y-118330000D01*
G75*
G02*
X141580000Y-118080000I250000J0D01*
G01*
X142480000Y-118080000D01*
G75*
G02*
X142730000Y-118330000I0J-250000D01*
G01*
X142730000Y-119030000D01*
G75*
G02*
X142480000Y-119280000I-250000J0D01*
G01*
G37*
G36*
G01*
X142480000Y-117280000D02*
X141580000Y-117280000D01*
G75*
G02*
X141330000Y-117030000I0J250000D01*
G01*
X141330000Y-116330000D01*
G75*
G02*
X141580000Y-116080000I250000J0D01*
G01*
X142480000Y-116080000D01*
G75*
G02*
X142730000Y-116330000I0J-250000D01*
G01*
X142730000Y-117030000D01*
G75*
G02*
X142480000Y-117280000I-250000J0D01*
G01*
G37*
G36*
G01*
X206912500Y-126020000D02*
X206912500Y-129120000D01*
G75*
G02*
X206662500Y-129370000I-250000J0D01*
G01*
X205362500Y-129370000D01*
G75*
G02*
X205112500Y-129120000I0J250000D01*
G01*
X205112500Y-126020000D01*
G75*
G02*
X205362500Y-125770000I250000J0D01*
G01*
X206662500Y-125770000D01*
G75*
G02*
X206912500Y-126020000I0J-250000D01*
G01*
G37*
D14*
X202512500Y-127570000D03*
X199012500Y-127570000D03*
X195512500Y-127570000D03*
X192012500Y-127570000D03*
G36*
G01*
X132112500Y-59087500D02*
X132112500Y-59987500D01*
G75*
G02*
X131862500Y-60237500I-250000J0D01*
G01*
X131162500Y-60237500D01*
G75*
G02*
X130912500Y-59987500I0J250000D01*
G01*
X130912500Y-59087500D01*
G75*
G02*
X131162500Y-58837500I250000J0D01*
G01*
X131862500Y-58837500D01*
G75*
G02*
X132112500Y-59087500I0J-250000D01*
G01*
G37*
G36*
G01*
X130112500Y-59087500D02*
X130112500Y-59987500D01*
G75*
G02*
X129862500Y-60237500I-250000J0D01*
G01*
X129162500Y-60237500D01*
G75*
G02*
X128912500Y-59987500I0J250000D01*
G01*
X128912500Y-59087500D01*
G75*
G02*
X129162500Y-58837500I250000J0D01*
G01*
X129862500Y-58837500D01*
G75*
G02*
X130112500Y-59087500I0J-250000D01*
G01*
G37*
D17*
X167890000Y-100150000D03*
D18*
X165350000Y-100150000D03*
X162810000Y-100150000D03*
X157730000Y-100150000D03*
X155190000Y-100150000D03*
X152650000Y-100150000D03*
X150110000Y-100150000D03*
G36*
G01*
X201480000Y-121312500D02*
X200580000Y-121312500D01*
G75*
G02*
X200330000Y-121062500I0J250000D01*
G01*
X200330000Y-120362500D01*
G75*
G02*
X200580000Y-120112500I250000J0D01*
G01*
X201480000Y-120112500D01*
G75*
G02*
X201730000Y-120362500I0J-250000D01*
G01*
X201730000Y-121062500D01*
G75*
G02*
X201480000Y-121312500I-250000J0D01*
G01*
G37*
G36*
G01*
X201480000Y-119312500D02*
X200580000Y-119312500D01*
G75*
G02*
X200330000Y-119062500I0J250000D01*
G01*
X200330000Y-118362500D01*
G75*
G02*
X200580000Y-118112500I250000J0D01*
G01*
X201480000Y-118112500D01*
G75*
G02*
X201730000Y-118362500I0J-250000D01*
G01*
X201730000Y-119062500D01*
G75*
G02*
X201480000Y-119312500I-250000J0D01*
G01*
G37*
G36*
G01*
X153980000Y-119312500D02*
X153080000Y-119312500D01*
G75*
G02*
X152830000Y-119062500I0J250000D01*
G01*
X152830000Y-118362500D01*
G75*
G02*
X153080000Y-118112500I250000J0D01*
G01*
X153980000Y-118112500D01*
G75*
G02*
X154230000Y-118362500I0J-250000D01*
G01*
X154230000Y-119062500D01*
G75*
G02*
X153980000Y-119312500I-250000J0D01*
G01*
G37*
G36*
G01*
X153980000Y-117312500D02*
X153080000Y-117312500D01*
G75*
G02*
X152830000Y-117062500I0J250000D01*
G01*
X152830000Y-116362500D01*
G75*
G02*
X153080000Y-116112500I250000J0D01*
G01*
X153980000Y-116112500D01*
G75*
G02*
X154230000Y-116362500I0J-250000D01*
G01*
X154230000Y-117062500D01*
G75*
G02*
X153980000Y-117312500I-250000J0D01*
G01*
G37*
G36*
G01*
X158480000Y-119312500D02*
X157580000Y-119312500D01*
G75*
G02*
X157330000Y-119062500I0J250000D01*
G01*
X157330000Y-118362500D01*
G75*
G02*
X157580000Y-118112500I250000J0D01*
G01*
X158480000Y-118112500D01*
G75*
G02*
X158730000Y-118362500I0J-250000D01*
G01*
X158730000Y-119062500D01*
G75*
G02*
X158480000Y-119312500I-250000J0D01*
G01*
G37*
G36*
G01*
X158480000Y-117312500D02*
X157580000Y-117312500D01*
G75*
G02*
X157330000Y-117062500I0J250000D01*
G01*
X157330000Y-116362500D01*
G75*
G02*
X157580000Y-116112500I250000J0D01*
G01*
X158480000Y-116112500D01*
G75*
G02*
X158730000Y-116362500I0J-250000D01*
G01*
X158730000Y-117062500D01*
G75*
G02*
X158480000Y-117312500I-250000J0D01*
G01*
G37*
G36*
G01*
X158480000Y-123312500D02*
X157580000Y-123312500D01*
G75*
G02*
X157330000Y-123062500I0J250000D01*
G01*
X157330000Y-122362500D01*
G75*
G02*
X157580000Y-122112500I250000J0D01*
G01*
X158480000Y-122112500D01*
G75*
G02*
X158730000Y-122362500I0J-250000D01*
G01*
X158730000Y-123062500D01*
G75*
G02*
X158480000Y-123312500I-250000J0D01*
G01*
G37*
G36*
G01*
X158480000Y-121312500D02*
X157580000Y-121312500D01*
G75*
G02*
X157330000Y-121062500I0J250000D01*
G01*
X157330000Y-120362500D01*
G75*
G02*
X157580000Y-120112500I250000J0D01*
G01*
X158480000Y-120112500D01*
G75*
G02*
X158730000Y-120362500I0J-250000D01*
G01*
X158730000Y-121062500D01*
G75*
G02*
X158480000Y-121312500I-250000J0D01*
G01*
G37*
G36*
G01*
X153722004Y-82429111D02*
X152908831Y-83242284D01*
G75*
G02*
X152767409Y-83242284I-70711J70711D01*
G01*
X152625988Y-83100863D01*
G75*
G02*
X152625988Y-82959441I70711J70711D01*
G01*
X153439161Y-82146268D01*
G75*
G02*
X153580583Y-82146268I70711J-70711D01*
G01*
X153722004Y-82287689D01*
G75*
G02*
X153722004Y-82429111I-70711J-70711D01*
G01*
G37*
G36*
G01*
X155595837Y-81262385D02*
X154782664Y-82075558D01*
G75*
G02*
X154641242Y-82075558I-70711J70711D01*
G01*
X154499821Y-81934137D01*
G75*
G02*
X154499821Y-81792715I70711J70711D01*
G01*
X155312994Y-80979542D01*
G75*
G02*
X155454416Y-80979542I70711J-70711D01*
G01*
X155595837Y-81120963D01*
G75*
G02*
X155595837Y-81262385I-70711J-70711D01*
G01*
G37*
G36*
G01*
X154429111Y-83136218D02*
X153615938Y-83949391D01*
G75*
G02*
X153474516Y-83949391I-70711J70711D01*
G01*
X153333095Y-83807970D01*
G75*
G02*
X153333095Y-83666548I70711J70711D01*
G01*
X154146268Y-82853375D01*
G75*
G02*
X154287690Y-82853375I70711J-70711D01*
G01*
X154429111Y-82994796D01*
G75*
G02*
X154429111Y-83136218I-70711J-70711D01*
G01*
G37*
G36*
G01*
X156302944Y-81969491D02*
X155489771Y-82782664D01*
G75*
G02*
X155348349Y-82782664I-70711J70711D01*
G01*
X155206928Y-82641243D01*
G75*
G02*
X155206928Y-82499821I70711J70711D01*
G01*
X156020101Y-81686648D01*
G75*
G02*
X156161523Y-81686648I70711J-70711D01*
G01*
X156302944Y-81828069D01*
G75*
G02*
X156302944Y-81969491I-70711J-70711D01*
G01*
G37*
G36*
G01*
X155136218Y-83843324D02*
X154323045Y-84656497D01*
G75*
G02*
X154181623Y-84656497I-70711J70711D01*
G01*
X154040202Y-84515076D01*
G75*
G02*
X154040202Y-84373654I70711J70711D01*
G01*
X154853375Y-83560481D01*
G75*
G02*
X154994797Y-83560481I70711J-70711D01*
G01*
X155136218Y-83701902D01*
G75*
G02*
X155136218Y-83843324I-70711J-70711D01*
G01*
G37*
G36*
G01*
X157010051Y-82676598D02*
X156196878Y-83489771D01*
G75*
G02*
X156055456Y-83489771I-70711J70711D01*
G01*
X155914035Y-83348350D01*
G75*
G02*
X155914035Y-83206928I70711J70711D01*
G01*
X156727208Y-82393755D01*
G75*
G02*
X156868630Y-82393755I70711J-70711D01*
G01*
X157010051Y-82535176D01*
G75*
G02*
X157010051Y-82676598I-70711J-70711D01*
G01*
G37*
G36*
G01*
X155843325Y-84550431D02*
X155030152Y-85363604D01*
G75*
G02*
X154888730Y-85363604I-70711J70711D01*
G01*
X154747309Y-85222183D01*
G75*
G02*
X154747309Y-85080761I70711J70711D01*
G01*
X155560482Y-84267588D01*
G75*
G02*
X155701904Y-84267588I70711J-70711D01*
G01*
X155843325Y-84409009D01*
G75*
G02*
X155843325Y-84550431I-70711J-70711D01*
G01*
G37*
G36*
G01*
X157717158Y-83383705D02*
X156903985Y-84196878D01*
G75*
G02*
X156762563Y-84196878I-70711J70711D01*
G01*
X156621142Y-84055457D01*
G75*
G02*
X156621142Y-83914035I70711J70711D01*
G01*
X157434315Y-83100862D01*
G75*
G02*
X157575737Y-83100862I70711J-70711D01*
G01*
X157717158Y-83242283D01*
G75*
G02*
X157717158Y-83383705I-70711J-70711D01*
G01*
G37*
G36*
G01*
X156550431Y-85257538D02*
X155737258Y-86070711D01*
G75*
G02*
X155595836Y-86070711I-70711J70711D01*
G01*
X155454415Y-85929290D01*
G75*
G02*
X155454415Y-85787868I70711J70711D01*
G01*
X156267588Y-84974695D01*
G75*
G02*
X156409010Y-84974695I70711J-70711D01*
G01*
X156550431Y-85116116D01*
G75*
G02*
X156550431Y-85257538I-70711J-70711D01*
G01*
G37*
G36*
G01*
X158424264Y-84090812D02*
X157611091Y-84903985D01*
G75*
G02*
X157469669Y-84903985I-70711J70711D01*
G01*
X157328248Y-84762564D01*
G75*
G02*
X157328248Y-84621142I70711J70711D01*
G01*
X158141421Y-83807969D01*
G75*
G02*
X158282843Y-83807969I70711J-70711D01*
G01*
X158424264Y-83949390D01*
G75*
G02*
X158424264Y-84090812I-70711J-70711D01*
G01*
G37*
G36*
G01*
X157257538Y-85964645D02*
X156444365Y-86777818D01*
G75*
G02*
X156302943Y-86777818I-70711J70711D01*
G01*
X156161522Y-86636397D01*
G75*
G02*
X156161522Y-86494975I70711J70711D01*
G01*
X156974695Y-85681802D01*
G75*
G02*
X157116117Y-85681802I70711J-70711D01*
G01*
X157257538Y-85823223D01*
G75*
G02*
X157257538Y-85964645I-70711J-70711D01*
G01*
G37*
G36*
G01*
X159131371Y-84797919D02*
X158318198Y-85611092D01*
G75*
G02*
X158176776Y-85611092I-70711J70711D01*
G01*
X158035355Y-85469671D01*
G75*
G02*
X158035355Y-85328249I70711J70711D01*
G01*
X158848528Y-84515076D01*
G75*
G02*
X158989950Y-84515076I70711J-70711D01*
G01*
X159131371Y-84656497D01*
G75*
G02*
X159131371Y-84797919I-70711J-70711D01*
G01*
G37*
G36*
G01*
X157964645Y-86671751D02*
X157151472Y-87484924D01*
G75*
G02*
X157010050Y-87484924I-70711J70711D01*
G01*
X156868629Y-87343503D01*
G75*
G02*
X156868629Y-87202081I70711J70711D01*
G01*
X157681802Y-86388908D01*
G75*
G02*
X157823224Y-86388908I70711J-70711D01*
G01*
X157964645Y-86530329D01*
G75*
G02*
X157964645Y-86671751I-70711J-70711D01*
G01*
G37*
G36*
G01*
X159838478Y-85505025D02*
X159025305Y-86318198D01*
G75*
G02*
X158883883Y-86318198I-70711J70711D01*
G01*
X158742462Y-86176777D01*
G75*
G02*
X158742462Y-86035355I70711J70711D01*
G01*
X159555635Y-85222182D01*
G75*
G02*
X159697057Y-85222182I70711J-70711D01*
G01*
X159838478Y-85363603D01*
G75*
G02*
X159838478Y-85505025I-70711J-70711D01*
G01*
G37*
G36*
G01*
X158671752Y-87378858D02*
X157858579Y-88192031D01*
G75*
G02*
X157717157Y-88192031I-70711J70711D01*
G01*
X157575736Y-88050610D01*
G75*
G02*
X157575736Y-87909188I70711J70711D01*
G01*
X158388909Y-87096015D01*
G75*
G02*
X158530331Y-87096015I70711J-70711D01*
G01*
X158671752Y-87237436D01*
G75*
G02*
X158671752Y-87378858I-70711J-70711D01*
G01*
G37*
G36*
G01*
X160545585Y-86212132D02*
X159732412Y-87025305D01*
G75*
G02*
X159590990Y-87025305I-70711J70711D01*
G01*
X159449569Y-86883884D01*
G75*
G02*
X159449569Y-86742462I70711J70711D01*
G01*
X160262742Y-85929289D01*
G75*
G02*
X160404164Y-85929289I70711J-70711D01*
G01*
X160545585Y-86070710D01*
G75*
G02*
X160545585Y-86212132I-70711J-70711D01*
G01*
G37*
G36*
G01*
X159378858Y-88085965D02*
X158565685Y-88899138D01*
G75*
G02*
X158424263Y-88899138I-70711J70711D01*
G01*
X158282842Y-88757717D01*
G75*
G02*
X158282842Y-88616295I70711J70711D01*
G01*
X159096015Y-87803122D01*
G75*
G02*
X159237437Y-87803122I70711J-70711D01*
G01*
X159378858Y-87944543D01*
G75*
G02*
X159378858Y-88085965I-70711J-70711D01*
G01*
G37*
G36*
G01*
X161252691Y-86919239D02*
X160439518Y-87732412D01*
G75*
G02*
X160298096Y-87732412I-70711J70711D01*
G01*
X160156675Y-87590991D01*
G75*
G02*
X160156675Y-87449569I70711J70711D01*
G01*
X160969848Y-86636396D01*
G75*
G02*
X161111270Y-86636396I70711J-70711D01*
G01*
X161252691Y-86777817D01*
G75*
G02*
X161252691Y-86919239I-70711J-70711D01*
G01*
G37*
G36*
G01*
X160085965Y-88793072D02*
X159272792Y-89606245D01*
G75*
G02*
X159131370Y-89606245I-70711J70711D01*
G01*
X158989949Y-89464824D01*
G75*
G02*
X158989949Y-89323402I70711J70711D01*
G01*
X159803122Y-88510229D01*
G75*
G02*
X159944544Y-88510229I70711J-70711D01*
G01*
X160085965Y-88651650D01*
G75*
G02*
X160085965Y-88793072I-70711J-70711D01*
G01*
G37*
G36*
G01*
X161959798Y-87626346D02*
X161146625Y-88439519D01*
G75*
G02*
X161005203Y-88439519I-70711J70711D01*
G01*
X160863782Y-88298098D01*
G75*
G02*
X160863782Y-88156676I70711J70711D01*
G01*
X161676955Y-87343503D01*
G75*
G02*
X161818377Y-87343503I70711J-70711D01*
G01*
X161959798Y-87484924D01*
G75*
G02*
X161959798Y-87626346I-70711J-70711D01*
G01*
G37*
G36*
G01*
X160793072Y-89500179D02*
X159979899Y-90313352D01*
G75*
G02*
X159838477Y-90313352I-70711J70711D01*
G01*
X159697056Y-90171931D01*
G75*
G02*
X159697056Y-90030509I70711J70711D01*
G01*
X160510229Y-89217336D01*
G75*
G02*
X160651651Y-89217336I70711J-70711D01*
G01*
X160793072Y-89358757D01*
G75*
G02*
X160793072Y-89500179I-70711J-70711D01*
G01*
G37*
G36*
G01*
X162666905Y-88333452D02*
X161853732Y-89146625D01*
G75*
G02*
X161712310Y-89146625I-70711J70711D01*
G01*
X161570889Y-89005204D01*
G75*
G02*
X161570889Y-88863782I70711J70711D01*
G01*
X162384062Y-88050609D01*
G75*
G02*
X162525484Y-88050609I70711J-70711D01*
G01*
X162666905Y-88192030D01*
G75*
G02*
X162666905Y-88333452I-70711J-70711D01*
G01*
G37*
G36*
G01*
X161500179Y-90207285D02*
X160687006Y-91020458D01*
G75*
G02*
X160545584Y-91020458I-70711J70711D01*
G01*
X160404163Y-90879037D01*
G75*
G02*
X160404163Y-90737615I70711J70711D01*
G01*
X161217336Y-89924442D01*
G75*
G02*
X161358758Y-89924442I70711J-70711D01*
G01*
X161500179Y-90065863D01*
G75*
G02*
X161500179Y-90207285I-70711J-70711D01*
G01*
G37*
G36*
G01*
X163374012Y-89040559D02*
X162560839Y-89853732D01*
G75*
G02*
X162419417Y-89853732I-70711J70711D01*
G01*
X162277996Y-89712311D01*
G75*
G02*
X162277996Y-89570889I70711J70711D01*
G01*
X163091169Y-88757716D01*
G75*
G02*
X163232591Y-88757716I70711J-70711D01*
G01*
X163374012Y-88899137D01*
G75*
G02*
X163374012Y-89040559I-70711J-70711D01*
G01*
G37*
G36*
G01*
X154294761Y-80937116D02*
X152937116Y-82294761D01*
G75*
G02*
X152597704Y-82294761I-169706J169706D01*
G01*
X151240059Y-80937116D01*
G75*
G02*
X151240059Y-80597704I169706J169706D01*
G01*
X152597704Y-79240059D01*
G75*
G02*
X152937116Y-79240059I169706J-169706D01*
G01*
X154294761Y-80597704D01*
G75*
G02*
X154294761Y-80937116I-169706J-169706D01*
G01*
G37*
G36*
G01*
X164759941Y-91402296D02*
X163402296Y-92759941D01*
G75*
G02*
X163062884Y-92759941I-169706J169706D01*
G01*
X161705239Y-91402296D01*
G75*
G02*
X161705239Y-91062884I169706J169706D01*
G01*
X163062884Y-89705239D01*
G75*
G02*
X163402296Y-89705239I169706J-169706D01*
G01*
X164759941Y-91062884D01*
G75*
G02*
X164759941Y-91402296I-169706J-169706D01*
G01*
G37*
G36*
G01*
X184737500Y-89662500D02*
X183787500Y-89662500D01*
G75*
G02*
X183537500Y-89412500I0J250000D01*
G01*
X183537500Y-88737500D01*
G75*
G02*
X183787500Y-88487500I250000J0D01*
G01*
X184737500Y-88487500D01*
G75*
G02*
X184987500Y-88737500I0J-250000D01*
G01*
X184987500Y-89412500D01*
G75*
G02*
X184737500Y-89662500I-250000J0D01*
G01*
G37*
G36*
G01*
X184737500Y-87587500D02*
X183787500Y-87587500D01*
G75*
G02*
X183537500Y-87337500I0J250000D01*
G01*
X183537500Y-86662500D01*
G75*
G02*
X183787500Y-86412500I250000J0D01*
G01*
X184737500Y-86412500D01*
G75*
G02*
X184987500Y-86662500I0J-250000D01*
G01*
X184987500Y-87337500D01*
G75*
G02*
X184737500Y-87587500I-250000J0D01*
G01*
G37*
G36*
G01*
X203980000Y-119312500D02*
X203080000Y-119312500D01*
G75*
G02*
X202830000Y-119062500I0J250000D01*
G01*
X202830000Y-118362500D01*
G75*
G02*
X203080000Y-118112500I250000J0D01*
G01*
X203980000Y-118112500D01*
G75*
G02*
X204230000Y-118362500I0J-250000D01*
G01*
X204230000Y-119062500D01*
G75*
G02*
X203980000Y-119312500I-250000J0D01*
G01*
G37*
G36*
G01*
X203980000Y-117312500D02*
X203080000Y-117312500D01*
G75*
G02*
X202830000Y-117062500I0J250000D01*
G01*
X202830000Y-116362500D01*
G75*
G02*
X203080000Y-116112500I250000J0D01*
G01*
X203980000Y-116112500D01*
G75*
G02*
X204230000Y-116362500I0J-250000D01*
G01*
X204230000Y-117062500D01*
G75*
G02*
X203980000Y-117312500I-250000J0D01*
G01*
G37*
G36*
G01*
X145275000Y-95375000D02*
X146225000Y-95375000D01*
G75*
G02*
X146475000Y-95625000I0J-250000D01*
G01*
X146475000Y-96300000D01*
G75*
G02*
X146225000Y-96550000I-250000J0D01*
G01*
X145275000Y-96550000D01*
G75*
G02*
X145025000Y-96300000I0J250000D01*
G01*
X145025000Y-95625000D01*
G75*
G02*
X145275000Y-95375000I250000J0D01*
G01*
G37*
G36*
G01*
X145275000Y-97450000D02*
X146225000Y-97450000D01*
G75*
G02*
X146475000Y-97700000I0J-250000D01*
G01*
X146475000Y-98375000D01*
G75*
G02*
X146225000Y-98625000I-250000J0D01*
G01*
X145275000Y-98625000D01*
G75*
G02*
X145025000Y-98375000I0J250000D01*
G01*
X145025000Y-97700000D01*
G75*
G02*
X145275000Y-97450000I250000J0D01*
G01*
G37*
G36*
X127012500Y-89237500D02*
G01*
X127762500Y-89737500D01*
X127762500Y-90737500D01*
X126262500Y-90737500D01*
X126262500Y-89737500D01*
X127012500Y-89237500D01*
G37*
G36*
X127762500Y-88287500D02*
G01*
X127762500Y-89437500D01*
X127012500Y-88937500D01*
X126262500Y-89437500D01*
X126262500Y-88287500D01*
X127762500Y-88287500D01*
G37*
G36*
G01*
X186150000Y-97750000D02*
X186150000Y-99750000D01*
G75*
G02*
X185900000Y-100000000I-250000J0D01*
G01*
X182000000Y-100000000D01*
G75*
G02*
X181750000Y-99750000I0J250000D01*
G01*
X181750000Y-97750000D01*
G75*
G02*
X182000000Y-97500000I250000J0D01*
G01*
X185900000Y-97500000D01*
G75*
G02*
X186150000Y-97750000I0J-250000D01*
G01*
G37*
G36*
G01*
X177750000Y-97750000D02*
X177750000Y-99750000D01*
G75*
G02*
X177500000Y-100000000I-250000J0D01*
G01*
X173600000Y-100000000D01*
G75*
G02*
X173350000Y-99750000I0J250000D01*
G01*
X173350000Y-97750000D01*
G75*
G02*
X173600000Y-97500000I250000J0D01*
G01*
X177500000Y-97500000D01*
G75*
G02*
X177750000Y-97750000I0J-250000D01*
G01*
G37*
G36*
G01*
X183480000Y-123312500D02*
X182580000Y-123312500D01*
G75*
G02*
X182330000Y-123062500I0J250000D01*
G01*
X182330000Y-122362500D01*
G75*
G02*
X182580000Y-122112500I250000J0D01*
G01*
X183480000Y-122112500D01*
G75*
G02*
X183730000Y-122362500I0J-250000D01*
G01*
X183730000Y-123062500D01*
G75*
G02*
X183480000Y-123312500I-250000J0D01*
G01*
G37*
G36*
G01*
X183480000Y-121312500D02*
X182580000Y-121312500D01*
G75*
G02*
X182330000Y-121062500I0J250000D01*
G01*
X182330000Y-120362500D01*
G75*
G02*
X182580000Y-120112500I250000J0D01*
G01*
X183480000Y-120112500D01*
G75*
G02*
X183730000Y-120362500I0J-250000D01*
G01*
X183730000Y-121062500D01*
G75*
G02*
X183480000Y-121312500I-250000J0D01*
G01*
G37*
G36*
G01*
X160412500Y-61987500D02*
X160412500Y-61087500D01*
G75*
G02*
X160662500Y-60837500I250000J0D01*
G01*
X161362500Y-60837500D01*
G75*
G02*
X161612500Y-61087500I0J-250000D01*
G01*
X161612500Y-61987500D01*
G75*
G02*
X161362500Y-62237500I-250000J0D01*
G01*
X160662500Y-62237500D01*
G75*
G02*
X160412500Y-61987500I0J250000D01*
G01*
G37*
G36*
G01*
X162412500Y-61987500D02*
X162412500Y-61087500D01*
G75*
G02*
X162662500Y-60837500I250000J0D01*
G01*
X163362500Y-60837500D01*
G75*
G02*
X163612500Y-61087500I0J-250000D01*
G01*
X163612500Y-61987500D01*
G75*
G02*
X163362500Y-62237500I-250000J0D01*
G01*
X162662500Y-62237500D01*
G75*
G02*
X162412500Y-61987500I0J250000D01*
G01*
G37*
G36*
G01*
X149480000Y-123312500D02*
X148580000Y-123312500D01*
G75*
G02*
X148330000Y-123062500I0J250000D01*
G01*
X148330000Y-122362500D01*
G75*
G02*
X148580000Y-122112500I250000J0D01*
G01*
X149480000Y-122112500D01*
G75*
G02*
X149730000Y-122362500I0J-250000D01*
G01*
X149730000Y-123062500D01*
G75*
G02*
X149480000Y-123312500I-250000J0D01*
G01*
G37*
G36*
G01*
X149480000Y-121312500D02*
X148580000Y-121312500D01*
G75*
G02*
X148330000Y-121062500I0J250000D01*
G01*
X148330000Y-120362500D01*
G75*
G02*
X148580000Y-120112500I250000J0D01*
G01*
X149480000Y-120112500D01*
G75*
G02*
X149730000Y-120362500I0J-250000D01*
G01*
X149730000Y-121062500D01*
G75*
G02*
X149480000Y-121312500I-250000J0D01*
G01*
G37*
G36*
G01*
X153980000Y-123312500D02*
X153080000Y-123312500D01*
G75*
G02*
X152830000Y-123062500I0J250000D01*
G01*
X152830000Y-122362500D01*
G75*
G02*
X153080000Y-122112500I250000J0D01*
G01*
X153980000Y-122112500D01*
G75*
G02*
X154230000Y-122362500I0J-250000D01*
G01*
X154230000Y-123062500D01*
G75*
G02*
X153980000Y-123312500I-250000J0D01*
G01*
G37*
G36*
G01*
X153980000Y-121312500D02*
X153080000Y-121312500D01*
G75*
G02*
X152830000Y-121062500I0J250000D01*
G01*
X152830000Y-120362500D01*
G75*
G02*
X153080000Y-120112500I250000J0D01*
G01*
X153980000Y-120112500D01*
G75*
G02*
X154230000Y-120362500I0J-250000D01*
G01*
X154230000Y-121062500D01*
G75*
G02*
X153980000Y-121312500I-250000J0D01*
G01*
G37*
D15*
X193262500Y-81037500D03*
D11*
X181962500Y-75837500D03*
X180062500Y-75837500D03*
X181012500Y-78237500D03*
G36*
G01*
X163725000Y-78800000D02*
X163725000Y-79700000D01*
G75*
G02*
X163475000Y-79950000I-250000J0D01*
G01*
X162775000Y-79950000D01*
G75*
G02*
X162525000Y-79700000I0J250000D01*
G01*
X162525000Y-78800000D01*
G75*
G02*
X162775000Y-78550000I250000J0D01*
G01*
X163475000Y-78550000D01*
G75*
G02*
X163725000Y-78800000I0J-250000D01*
G01*
G37*
G36*
G01*
X161725000Y-78800000D02*
X161725000Y-79700000D01*
G75*
G02*
X161475000Y-79950000I-250000J0D01*
G01*
X160775000Y-79950000D01*
G75*
G02*
X160525000Y-79700000I0J250000D01*
G01*
X160525000Y-78800000D01*
G75*
G02*
X160775000Y-78550000I250000J0D01*
G01*
X161475000Y-78550000D01*
G75*
G02*
X161725000Y-78800000I0J-250000D01*
G01*
G37*
D13*
X141930000Y-114680000D03*
X144130000Y-114680000D03*
G36*
G01*
X197062500Y-63437500D02*
X197962500Y-63437500D01*
G75*
G02*
X198212500Y-63687500I0J-250000D01*
G01*
X198212500Y-64387500D01*
G75*
G02*
X197962500Y-64637500I-250000J0D01*
G01*
X197062500Y-64637500D01*
G75*
G02*
X196812500Y-64387500I0J250000D01*
G01*
X196812500Y-63687500D01*
G75*
G02*
X197062500Y-63437500I250000J0D01*
G01*
G37*
G36*
G01*
X197062500Y-65437500D02*
X197962500Y-65437500D01*
G75*
G02*
X198212500Y-65687500I0J-250000D01*
G01*
X198212500Y-66387500D01*
G75*
G02*
X197962500Y-66637500I-250000J0D01*
G01*
X197062500Y-66637500D01*
G75*
G02*
X196812500Y-66387500I0J250000D01*
G01*
X196812500Y-65687500D01*
G75*
G02*
X197062500Y-65437500I250000J0D01*
G01*
G37*
D11*
X185062500Y-72237500D03*
X186962500Y-72237500D03*
X186012500Y-69837500D03*
G36*
G01*
X159887500Y-76812500D02*
X159887500Y-77762500D01*
G75*
G02*
X159637500Y-78012500I-250000J0D01*
G01*
X158962500Y-78012500D01*
G75*
G02*
X158712500Y-77762500I0J250000D01*
G01*
X158712500Y-76812500D01*
G75*
G02*
X158962500Y-76562500I250000J0D01*
G01*
X159637500Y-76562500D01*
G75*
G02*
X159887500Y-76812500I0J-250000D01*
G01*
G37*
G36*
G01*
X157812500Y-76812500D02*
X157812500Y-77762500D01*
G75*
G02*
X157562500Y-78012500I-250000J0D01*
G01*
X156887500Y-78012500D01*
G75*
G02*
X156637500Y-77762500I0J250000D01*
G01*
X156637500Y-76812500D01*
G75*
G02*
X156887500Y-76562500I250000J0D01*
G01*
X157562500Y-76562500D01*
G75*
G02*
X157812500Y-76812500I0J-250000D01*
G01*
G37*
G36*
G01*
X185480000Y-121312500D02*
X184580000Y-121312500D01*
G75*
G02*
X184330000Y-121062500I0J250000D01*
G01*
X184330000Y-120362500D01*
G75*
G02*
X184580000Y-120112500I250000J0D01*
G01*
X185480000Y-120112500D01*
G75*
G02*
X185730000Y-120362500I0J-250000D01*
G01*
X185730000Y-121062500D01*
G75*
G02*
X185480000Y-121312500I-250000J0D01*
G01*
G37*
G36*
G01*
X185480000Y-119312500D02*
X184580000Y-119312500D01*
G75*
G02*
X184330000Y-119062500I0J250000D01*
G01*
X184330000Y-118362500D01*
G75*
G02*
X184580000Y-118112500I250000J0D01*
G01*
X185480000Y-118112500D01*
G75*
G02*
X185730000Y-118362500I0J-250000D01*
G01*
X185730000Y-119062500D01*
G75*
G02*
X185480000Y-119312500I-250000J0D01*
G01*
G37*
G36*
G01*
X163850000Y-80800000D02*
X163850000Y-81700000D01*
G75*
G02*
X163600000Y-81950000I-250000J0D01*
G01*
X162950000Y-81950000D01*
G75*
G02*
X162700000Y-81700000I0J250000D01*
G01*
X162700000Y-80800000D01*
G75*
G02*
X162950000Y-80550000I250000J0D01*
G01*
X163600000Y-80550000D01*
G75*
G02*
X163850000Y-80800000I0J-250000D01*
G01*
G37*
G36*
G01*
X161800000Y-80800000D02*
X161800000Y-81700000D01*
G75*
G02*
X161550000Y-81950000I-250000J0D01*
G01*
X160900000Y-81950000D01*
G75*
G02*
X160650000Y-81700000I0J250000D01*
G01*
X160650000Y-80800000D01*
G75*
G02*
X160900000Y-80550000I250000J0D01*
G01*
X161550000Y-80550000D01*
G75*
G02*
X161800000Y-80800000I0J-250000D01*
G01*
G37*
G36*
G01*
X135480000Y-121280000D02*
X134580000Y-121280000D01*
G75*
G02*
X134330000Y-121030000I0J250000D01*
G01*
X134330000Y-120330000D01*
G75*
G02*
X134580000Y-120080000I250000J0D01*
G01*
X135480000Y-120080000D01*
G75*
G02*
X135730000Y-120330000I0J-250000D01*
G01*
X135730000Y-121030000D01*
G75*
G02*
X135480000Y-121280000I-250000J0D01*
G01*
G37*
G36*
G01*
X135480000Y-119280000D02*
X134580000Y-119280000D01*
G75*
G02*
X134330000Y-119030000I0J250000D01*
G01*
X134330000Y-118330000D01*
G75*
G02*
X134580000Y-118080000I250000J0D01*
G01*
X135480000Y-118080000D01*
G75*
G02*
X135730000Y-118330000I0J-250000D01*
G01*
X135730000Y-119030000D01*
G75*
G02*
X135480000Y-119280000I-250000J0D01*
G01*
G37*
G36*
G01*
X191112500Y-56087500D02*
X191112500Y-52987500D01*
G75*
G02*
X191362500Y-52737500I250000J0D01*
G01*
X192662500Y-52737500D01*
G75*
G02*
X192912500Y-52987500I0J-250000D01*
G01*
X192912500Y-56087500D01*
G75*
G02*
X192662500Y-56337500I-250000J0D01*
G01*
X191362500Y-56337500D01*
G75*
G02*
X191112500Y-56087500I0J250000D01*
G01*
G37*
D14*
X195512500Y-54537500D03*
X199012500Y-54537500D03*
X202512500Y-54537500D03*
X206012500Y-54537500D03*
G36*
G01*
X174562500Y-61437500D02*
X175462500Y-61437500D01*
G75*
G02*
X175712500Y-61687500I0J-250000D01*
G01*
X175712500Y-62387500D01*
G75*
G02*
X175462500Y-62637500I-250000J0D01*
G01*
X174562500Y-62637500D01*
G75*
G02*
X174312500Y-62387500I0J250000D01*
G01*
X174312500Y-61687500D01*
G75*
G02*
X174562500Y-61437500I250000J0D01*
G01*
G37*
G36*
G01*
X174562500Y-63437500D02*
X175462500Y-63437500D01*
G75*
G02*
X175712500Y-63687500I0J-250000D01*
G01*
X175712500Y-64387500D01*
G75*
G02*
X175462500Y-64637500I-250000J0D01*
G01*
X174562500Y-64637500D01*
G75*
G02*
X174312500Y-64387500I0J250000D01*
G01*
X174312500Y-63687500D01*
G75*
G02*
X174562500Y-63437500I250000J0D01*
G01*
G37*
D12*
X182262500Y-61937500D03*
X182262500Y-59137500D03*
D19*
X130262500Y-106887500D03*
G36*
X127896000Y-110837500D02*
G01*
X127896000Y-107712500D01*
X128312500Y-107712500D01*
X128312500Y-106237500D01*
X129212500Y-106237500D01*
X129212500Y-107712500D01*
X129629000Y-107712500D01*
X129629000Y-110837500D01*
X127896000Y-110837500D01*
G37*
X127262500Y-106887500D03*
G36*
G01*
X198137500Y-89762500D02*
X198137500Y-88812500D01*
G75*
G02*
X198387500Y-88562500I250000J0D01*
G01*
X199062500Y-88562500D01*
G75*
G02*
X199312500Y-88812500I0J-250000D01*
G01*
X199312500Y-89762500D01*
G75*
G02*
X199062500Y-90012500I-250000J0D01*
G01*
X198387500Y-90012500D01*
G75*
G02*
X198137500Y-89762500I0J250000D01*
G01*
G37*
G36*
G01*
X200212500Y-89762500D02*
X200212500Y-88812500D01*
G75*
G02*
X200462500Y-88562500I250000J0D01*
G01*
X201137500Y-88562500D01*
G75*
G02*
X201387500Y-88812500I0J-250000D01*
G01*
X201387500Y-89762500D01*
G75*
G02*
X201137500Y-90012500I-250000J0D01*
G01*
X200462500Y-90012500D01*
G75*
G02*
X200212500Y-89762500I0J250000D01*
G01*
G37*
G36*
G01*
X159612500Y-59087500D02*
X159612500Y-59987500D01*
G75*
G02*
X159362500Y-60237500I-250000J0D01*
G01*
X158662500Y-60237500D01*
G75*
G02*
X158412500Y-59987500I0J250000D01*
G01*
X158412500Y-59087500D01*
G75*
G02*
X158662500Y-58837500I250000J0D01*
G01*
X159362500Y-58837500D01*
G75*
G02*
X159612500Y-59087500I0J-250000D01*
G01*
G37*
G36*
G01*
X157612500Y-59087500D02*
X157612500Y-59987500D01*
G75*
G02*
X157362500Y-60237500I-250000J0D01*
G01*
X156662500Y-60237500D01*
G75*
G02*
X156412500Y-59987500I0J250000D01*
G01*
X156412500Y-59087500D01*
G75*
G02*
X156662500Y-58837500I250000J0D01*
G01*
X157362500Y-58837500D01*
G75*
G02*
X157612500Y-59087500I0J-250000D01*
G01*
G37*
G36*
G01*
X193125000Y-85775000D02*
X193125000Y-86725000D01*
G75*
G02*
X192875000Y-86975000I-250000J0D01*
G01*
X192200000Y-86975000D01*
G75*
G02*
X191950000Y-86725000I0J250000D01*
G01*
X191950000Y-85775000D01*
G75*
G02*
X192200000Y-85525000I250000J0D01*
G01*
X192875000Y-85525000D01*
G75*
G02*
X193125000Y-85775000I0J-250000D01*
G01*
G37*
G36*
G01*
X191050000Y-85775000D02*
X191050000Y-86725000D01*
G75*
G02*
X190800000Y-86975000I-250000J0D01*
G01*
X190125000Y-86975000D01*
G75*
G02*
X189875000Y-86725000I0J250000D01*
G01*
X189875000Y-85775000D01*
G75*
G02*
X190125000Y-85525000I250000J0D01*
G01*
X190800000Y-85525000D01*
G75*
G02*
X191050000Y-85775000I0J-250000D01*
G01*
G37*
G36*
G01*
X144125000Y-77975000D02*
X144125000Y-77025000D01*
G75*
G02*
X144375000Y-76775000I250000J0D01*
G01*
X145050000Y-76775000D01*
G75*
G02*
X145300000Y-77025000I0J-250000D01*
G01*
X145300000Y-77975000D01*
G75*
G02*
X145050000Y-78225000I-250000J0D01*
G01*
X144375000Y-78225000D01*
G75*
G02*
X144125000Y-77975000I0J250000D01*
G01*
G37*
G36*
G01*
X146200000Y-77975000D02*
X146200000Y-77025000D01*
G75*
G02*
X146450000Y-76775000I250000J0D01*
G01*
X147125000Y-76775000D01*
G75*
G02*
X147375000Y-77025000I0J-250000D01*
G01*
X147375000Y-77975000D01*
G75*
G02*
X147125000Y-78225000I-250000J0D01*
G01*
X146450000Y-78225000D01*
G75*
G02*
X146200000Y-77975000I0J250000D01*
G01*
G37*
G36*
G01*
X128980000Y-119280000D02*
X128080000Y-119280000D01*
G75*
G02*
X127830000Y-119030000I0J250000D01*
G01*
X127830000Y-118330000D01*
G75*
G02*
X128080000Y-118080000I250000J0D01*
G01*
X128980000Y-118080000D01*
G75*
G02*
X129230000Y-118330000I0J-250000D01*
G01*
X129230000Y-119030000D01*
G75*
G02*
X128980000Y-119280000I-250000J0D01*
G01*
G37*
G36*
G01*
X128980000Y-117280000D02*
X128080000Y-117280000D01*
G75*
G02*
X127830000Y-117030000I0J250000D01*
G01*
X127830000Y-116330000D01*
G75*
G02*
X128080000Y-116080000I250000J0D01*
G01*
X128980000Y-116080000D01*
G75*
G02*
X129230000Y-116330000I0J-250000D01*
G01*
X129230000Y-117030000D01*
G75*
G02*
X128980000Y-117280000I-250000J0D01*
G01*
G37*
D13*
X169430000Y-114712500D03*
X171630000Y-114712500D03*
G36*
G01*
X139980000Y-121280000D02*
X139080000Y-121280000D01*
G75*
G02*
X138830000Y-121030000I0J250000D01*
G01*
X138830000Y-120330000D01*
G75*
G02*
X139080000Y-120080000I250000J0D01*
G01*
X139980000Y-120080000D01*
G75*
G02*
X140230000Y-120330000I0J-250000D01*
G01*
X140230000Y-121030000D01*
G75*
G02*
X139980000Y-121280000I-250000J0D01*
G01*
G37*
G36*
G01*
X139980000Y-119280000D02*
X139080000Y-119280000D01*
G75*
G02*
X138830000Y-119030000I0J250000D01*
G01*
X138830000Y-118330000D01*
G75*
G02*
X139080000Y-118080000I250000J0D01*
G01*
X139980000Y-118080000D01*
G75*
G02*
X140230000Y-118330000I0J-250000D01*
G01*
X140230000Y-119030000D01*
G75*
G02*
X139980000Y-119280000I-250000J0D01*
G01*
G37*
G36*
G01*
X171562500Y-63437500D02*
X172462500Y-63437500D01*
G75*
G02*
X172712500Y-63687500I0J-250000D01*
G01*
X172712500Y-64387500D01*
G75*
G02*
X172462500Y-64637500I-250000J0D01*
G01*
X171562500Y-64637500D01*
G75*
G02*
X171312500Y-64387500I0J250000D01*
G01*
X171312500Y-63687500D01*
G75*
G02*
X171562500Y-63437500I250000J0D01*
G01*
G37*
G36*
G01*
X171562500Y-65437500D02*
X172462500Y-65437500D01*
G75*
G02*
X172712500Y-65687500I0J-250000D01*
G01*
X172712500Y-66387500D01*
G75*
G02*
X172462500Y-66637500I-250000J0D01*
G01*
X171562500Y-66637500D01*
G75*
G02*
X171312500Y-66387500I0J250000D01*
G01*
X171312500Y-65687500D01*
G75*
G02*
X171562500Y-65437500I250000J0D01*
G01*
G37*
D12*
X192762500Y-61937500D03*
X192762500Y-59137500D03*
G36*
G01*
X142480000Y-123280000D02*
X141580000Y-123280000D01*
G75*
G02*
X141330000Y-123030000I0J250000D01*
G01*
X141330000Y-122330000D01*
G75*
G02*
X141580000Y-122080000I250000J0D01*
G01*
X142480000Y-122080000D01*
G75*
G02*
X142730000Y-122330000I0J-250000D01*
G01*
X142730000Y-123030000D01*
G75*
G02*
X142480000Y-123280000I-250000J0D01*
G01*
G37*
G36*
G01*
X142480000Y-121280000D02*
X141580000Y-121280000D01*
G75*
G02*
X141330000Y-121030000I0J250000D01*
G01*
X141330000Y-120330000D01*
G75*
G02*
X141580000Y-120080000I250000J0D01*
G01*
X142480000Y-120080000D01*
G75*
G02*
X142730000Y-120330000I0J-250000D01*
G01*
X142730000Y-121030000D01*
G75*
G02*
X142480000Y-121280000I-250000J0D01*
G01*
G37*
G36*
G01*
X181812500Y-88687500D02*
X182712500Y-88687500D01*
G75*
G02*
X182962500Y-88937500I0J-250000D01*
G01*
X182962500Y-89637500D01*
G75*
G02*
X182712500Y-89887500I-250000J0D01*
G01*
X181812500Y-89887500D01*
G75*
G02*
X181562500Y-89637500I0J250000D01*
G01*
X181562500Y-88937500D01*
G75*
G02*
X181812500Y-88687500I250000J0D01*
G01*
G37*
G36*
G01*
X181812500Y-90687500D02*
X182712500Y-90687500D01*
G75*
G02*
X182962500Y-90937500I0J-250000D01*
G01*
X182962500Y-91637500D01*
G75*
G02*
X182712500Y-91887500I-250000J0D01*
G01*
X181812500Y-91887500D01*
G75*
G02*
X181562500Y-91637500I0J250000D01*
G01*
X181562500Y-90937500D01*
G75*
G02*
X181812500Y-90687500I250000J0D01*
G01*
G37*
G36*
G01*
X190480000Y-119312500D02*
X189580000Y-119312500D01*
G75*
G02*
X189330000Y-119062500I0J250000D01*
G01*
X189330000Y-118362500D01*
G75*
G02*
X189580000Y-118112500I250000J0D01*
G01*
X190480000Y-118112500D01*
G75*
G02*
X190730000Y-118362500I0J-250000D01*
G01*
X190730000Y-119062500D01*
G75*
G02*
X190480000Y-119312500I-250000J0D01*
G01*
G37*
G36*
G01*
X190480000Y-117312500D02*
X189580000Y-117312500D01*
G75*
G02*
X189330000Y-117062500I0J250000D01*
G01*
X189330000Y-116362500D01*
G75*
G02*
X189580000Y-116112500I250000J0D01*
G01*
X190480000Y-116112500D01*
G75*
G02*
X190730000Y-116362500I0J-250000D01*
G01*
X190730000Y-117062500D01*
G75*
G02*
X190480000Y-117312500I-250000J0D01*
G01*
G37*
X202762500Y-61937500D03*
X202762500Y-59137500D03*
G36*
G01*
X127905000Y-113155000D02*
X127905000Y-112205000D01*
G75*
G02*
X128155000Y-111955000I250000J0D01*
G01*
X128830000Y-111955000D01*
G75*
G02*
X129080000Y-112205000I0J-250000D01*
G01*
X129080000Y-113155000D01*
G75*
G02*
X128830000Y-113405000I-250000J0D01*
G01*
X128155000Y-113405000D01*
G75*
G02*
X127905000Y-113155000I0J250000D01*
G01*
G37*
G36*
G01*
X129980000Y-113155000D02*
X129980000Y-112205000D01*
G75*
G02*
X130230000Y-111955000I250000J0D01*
G01*
X130905000Y-111955000D01*
G75*
G02*
X131155000Y-112205000I0J-250000D01*
G01*
X131155000Y-113155000D01*
G75*
G02*
X130905000Y-113405000I-250000J0D01*
G01*
X130230000Y-113405000D01*
G75*
G02*
X129980000Y-113155000I0J250000D01*
G01*
G37*
G36*
G01*
X190480000Y-123312500D02*
X189580000Y-123312500D01*
G75*
G02*
X189330000Y-123062500I0J250000D01*
G01*
X189330000Y-122362500D01*
G75*
G02*
X189580000Y-122112500I250000J0D01*
G01*
X190480000Y-122112500D01*
G75*
G02*
X190730000Y-122362500I0J-250000D01*
G01*
X190730000Y-123062500D01*
G75*
G02*
X190480000Y-123312500I-250000J0D01*
G01*
G37*
G36*
G01*
X190480000Y-121312500D02*
X189580000Y-121312500D01*
G75*
G02*
X189330000Y-121062500I0J250000D01*
G01*
X189330000Y-120362500D01*
G75*
G02*
X189580000Y-120112500I250000J0D01*
G01*
X190480000Y-120112500D01*
G75*
G02*
X190730000Y-120362500I0J-250000D01*
G01*
X190730000Y-121062500D01*
G75*
G02*
X190480000Y-121312500I-250000J0D01*
G01*
G37*
G36*
G01*
X144112500Y-61087500D02*
X144112500Y-61987500D01*
G75*
G02*
X143862500Y-62237500I-250000J0D01*
G01*
X143162500Y-62237500D01*
G75*
G02*
X142912500Y-61987500I0J250000D01*
G01*
X142912500Y-61087500D01*
G75*
G02*
X143162500Y-60837500I250000J0D01*
G01*
X143862500Y-60837500D01*
G75*
G02*
X144112500Y-61087500I0J-250000D01*
G01*
G37*
G36*
G01*
X142112500Y-61087500D02*
X142112500Y-61987500D01*
G75*
G02*
X141862500Y-62237500I-250000J0D01*
G01*
X141162500Y-62237500D01*
G75*
G02*
X140912500Y-61987500I0J250000D01*
G01*
X140912500Y-61087500D01*
G75*
G02*
X141162500Y-60837500I250000J0D01*
G01*
X141862500Y-60837500D01*
G75*
G02*
X142112500Y-61087500I0J-250000D01*
G01*
G37*
G36*
G01*
X178980000Y-119312500D02*
X178080000Y-119312500D01*
G75*
G02*
X177830000Y-119062500I0J250000D01*
G01*
X177830000Y-118362500D01*
G75*
G02*
X178080000Y-118112500I250000J0D01*
G01*
X178980000Y-118112500D01*
G75*
G02*
X179230000Y-118362500I0J-250000D01*
G01*
X179230000Y-119062500D01*
G75*
G02*
X178980000Y-119312500I-250000J0D01*
G01*
G37*
G36*
G01*
X178980000Y-117312500D02*
X178080000Y-117312500D01*
G75*
G02*
X177830000Y-117062500I0J250000D01*
G01*
X177830000Y-116362500D01*
G75*
G02*
X178080000Y-116112500I250000J0D01*
G01*
X178980000Y-116112500D01*
G75*
G02*
X179230000Y-116362500I0J-250000D01*
G01*
X179230000Y-117062500D01*
G75*
G02*
X178980000Y-117312500I-250000J0D01*
G01*
G37*
G36*
G01*
X195237500Y-89662500D02*
X194287500Y-89662500D01*
G75*
G02*
X194037500Y-89412500I0J250000D01*
G01*
X194037500Y-88737500D01*
G75*
G02*
X194287500Y-88487500I250000J0D01*
G01*
X195237500Y-88487500D01*
G75*
G02*
X195487500Y-88737500I0J-250000D01*
G01*
X195487500Y-89412500D01*
G75*
G02*
X195237500Y-89662500I-250000J0D01*
G01*
G37*
G36*
G01*
X195237500Y-87587500D02*
X194287500Y-87587500D01*
G75*
G02*
X194037500Y-87337500I0J250000D01*
G01*
X194037500Y-86662500D01*
G75*
G02*
X194287500Y-86412500I250000J0D01*
G01*
X195237500Y-86412500D01*
G75*
G02*
X195487500Y-86662500I0J-250000D01*
G01*
X195487500Y-87337500D01*
G75*
G02*
X195237500Y-87587500I-250000J0D01*
G01*
G37*
G36*
G01*
X164412500Y-59987500D02*
X164412500Y-59087500D01*
G75*
G02*
X164662500Y-58837500I250000J0D01*
G01*
X165362500Y-58837500D01*
G75*
G02*
X165612500Y-59087500I0J-250000D01*
G01*
X165612500Y-59987500D01*
G75*
G02*
X165362500Y-60237500I-250000J0D01*
G01*
X164662500Y-60237500D01*
G75*
G02*
X164412500Y-59987500I0J250000D01*
G01*
G37*
G36*
G01*
X166412500Y-59987500D02*
X166412500Y-59087500D01*
G75*
G02*
X166662500Y-58837500I250000J0D01*
G01*
X167362500Y-58837500D01*
G75*
G02*
X167612500Y-59087500I0J-250000D01*
G01*
X167612500Y-59987500D01*
G75*
G02*
X167362500Y-60237500I-250000J0D01*
G01*
X166662500Y-60237500D01*
G75*
G02*
X166412500Y-59987500I0J250000D01*
G01*
G37*
G36*
G01*
X187612500Y-73587500D02*
X187612500Y-74487500D01*
G75*
G02*
X187362500Y-74737500I-250000J0D01*
G01*
X186662500Y-74737500D01*
G75*
G02*
X186412500Y-74487500I0J250000D01*
G01*
X186412500Y-73587500D01*
G75*
G02*
X186662500Y-73337500I250000J0D01*
G01*
X187362500Y-73337500D01*
G75*
G02*
X187612500Y-73587500I0J-250000D01*
G01*
G37*
G36*
G01*
X185612500Y-73587500D02*
X185612500Y-74487500D01*
G75*
G02*
X185362500Y-74737500I-250000J0D01*
G01*
X184662500Y-74737500D01*
G75*
G02*
X184412500Y-74487500I0J250000D01*
G01*
X184412500Y-73587500D01*
G75*
G02*
X184662500Y-73337500I250000J0D01*
G01*
X185362500Y-73337500D01*
G75*
G02*
X185612500Y-73587500I0J-250000D01*
G01*
G37*
D16*
X182212500Y-80637500D03*
X180932500Y-80637500D03*
X179672500Y-80637500D03*
X178402500Y-80637500D03*
X177122500Y-80637500D03*
X175852500Y-80637500D03*
X174592500Y-80637500D03*
X173312500Y-80637500D03*
X173312500Y-86937500D03*
X174592500Y-86937500D03*
X175852500Y-86937500D03*
X177122500Y-86937500D03*
X178402500Y-86937500D03*
X179672500Y-86937500D03*
X180932500Y-86937500D03*
X182212500Y-86937500D03*
G36*
G01*
X135912500Y-74987500D02*
X135912500Y-74087500D01*
G75*
G02*
X136162500Y-73837500I250000J0D01*
G01*
X136862500Y-73837500D01*
G75*
G02*
X137112500Y-74087500I0J-250000D01*
G01*
X137112500Y-74987500D01*
G75*
G02*
X136862500Y-75237500I-250000J0D01*
G01*
X136162500Y-75237500D01*
G75*
G02*
X135912500Y-74987500I0J250000D01*
G01*
G37*
G36*
G01*
X137912500Y-74987500D02*
X137912500Y-74087500D01*
G75*
G02*
X138162500Y-73837500I250000J0D01*
G01*
X138862500Y-73837500D01*
G75*
G02*
X139112500Y-74087500I0J-250000D01*
G01*
X139112500Y-74987500D01*
G75*
G02*
X138862500Y-75237500I-250000J0D01*
G01*
X138162500Y-75237500D01*
G75*
G02*
X137912500Y-74987500I0J250000D01*
G01*
G37*
G36*
G01*
X128912500Y-61987500D02*
X128912500Y-61087500D01*
G75*
G02*
X129162500Y-60837500I250000J0D01*
G01*
X129862500Y-60837500D01*
G75*
G02*
X130112500Y-61087500I0J-250000D01*
G01*
X130112500Y-61987500D01*
G75*
G02*
X129862500Y-62237500I-250000J0D01*
G01*
X129162500Y-62237500D01*
G75*
G02*
X128912500Y-61987500I0J250000D01*
G01*
G37*
G36*
G01*
X130912500Y-61987500D02*
X130912500Y-61087500D01*
G75*
G02*
X131162500Y-60837500I250000J0D01*
G01*
X131862500Y-60837500D01*
G75*
G02*
X132112500Y-61087500I0J-250000D01*
G01*
X132112500Y-61987500D01*
G75*
G02*
X131862500Y-62237500I-250000J0D01*
G01*
X131162500Y-62237500D01*
G75*
G02*
X130912500Y-61987500I0J250000D01*
G01*
G37*
G36*
G01*
X189125000Y-85775000D02*
X189125000Y-86725000D01*
G75*
G02*
X188875000Y-86975000I-250000J0D01*
G01*
X188200000Y-86975000D01*
G75*
G02*
X187950000Y-86725000I0J250000D01*
G01*
X187950000Y-85775000D01*
G75*
G02*
X188200000Y-85525000I250000J0D01*
G01*
X188875000Y-85525000D01*
G75*
G02*
X189125000Y-85775000I0J-250000D01*
G01*
G37*
G36*
G01*
X187050000Y-85775000D02*
X187050000Y-86725000D01*
G75*
G02*
X186800000Y-86975000I-250000J0D01*
G01*
X186125000Y-86975000D01*
G75*
G02*
X185875000Y-86725000I0J250000D01*
G01*
X185875000Y-85775000D01*
G75*
G02*
X186125000Y-85525000I250000J0D01*
G01*
X186800000Y-85525000D01*
G75*
G02*
X187050000Y-85775000I0J-250000D01*
G01*
G37*
G36*
G01*
X152905000Y-113187500D02*
X152905000Y-112237500D01*
G75*
G02*
X153155000Y-111987500I250000J0D01*
G01*
X153830000Y-111987500D01*
G75*
G02*
X154080000Y-112237500I0J-250000D01*
G01*
X154080000Y-113187500D01*
G75*
G02*
X153830000Y-113437500I-250000J0D01*
G01*
X153155000Y-113437500D01*
G75*
G02*
X152905000Y-113187500I0J250000D01*
G01*
G37*
G36*
G01*
X154980000Y-113187500D02*
X154980000Y-112237500D01*
G75*
G02*
X155230000Y-111987500I250000J0D01*
G01*
X155905000Y-111987500D01*
G75*
G02*
X156155000Y-112237500I0J-250000D01*
G01*
X156155000Y-113187500D01*
G75*
G02*
X155905000Y-113437500I-250000J0D01*
G01*
X155230000Y-113437500D01*
G75*
G02*
X154980000Y-113187500I0J250000D01*
G01*
G37*
G36*
G01*
X126162500Y-97987500D02*
X126162500Y-97087500D01*
G75*
G02*
X126412500Y-96837500I250000J0D01*
G01*
X127112500Y-96837500D01*
G75*
G02*
X127362500Y-97087500I0J-250000D01*
G01*
X127362500Y-97987500D01*
G75*
G02*
X127112500Y-98237500I-250000J0D01*
G01*
X126412500Y-98237500D01*
G75*
G02*
X126162500Y-97987500I0J250000D01*
G01*
G37*
G36*
G01*
X128162500Y-97987500D02*
X128162500Y-97087500D01*
G75*
G02*
X128412500Y-96837500I250000J0D01*
G01*
X129112500Y-96837500D01*
G75*
G02*
X129362500Y-97087500I0J-250000D01*
G01*
X129362500Y-97987500D01*
G75*
G02*
X129112500Y-98237500I-250000J0D01*
G01*
X128412500Y-98237500D01*
G75*
G02*
X128162500Y-97987500I0J250000D01*
G01*
G37*
G36*
G01*
X178980000Y-123312500D02*
X178080000Y-123312500D01*
G75*
G02*
X177830000Y-123062500I0J250000D01*
G01*
X177830000Y-122362500D01*
G75*
G02*
X178080000Y-122112500I250000J0D01*
G01*
X178980000Y-122112500D01*
G75*
G02*
X179230000Y-122362500I0J-250000D01*
G01*
X179230000Y-123062500D01*
G75*
G02*
X178980000Y-123312500I-250000J0D01*
G01*
G37*
G36*
G01*
X178980000Y-121312500D02*
X178080000Y-121312500D01*
G75*
G02*
X177830000Y-121062500I0J250000D01*
G01*
X177830000Y-120362500D01*
G75*
G02*
X178080000Y-120112500I250000J0D01*
G01*
X178980000Y-120112500D01*
G75*
G02*
X179230000Y-120362500I0J-250000D01*
G01*
X179230000Y-121062500D01*
G75*
G02*
X178980000Y-121312500I-250000J0D01*
G01*
G37*
G36*
G01*
X182612500Y-73587500D02*
X182612500Y-74487500D01*
G75*
G02*
X182362500Y-74737500I-250000J0D01*
G01*
X181662500Y-74737500D01*
G75*
G02*
X181412500Y-74487500I0J250000D01*
G01*
X181412500Y-73587500D01*
G75*
G02*
X181662500Y-73337500I250000J0D01*
G01*
X182362500Y-73337500D01*
G75*
G02*
X182612500Y-73587500I0J-250000D01*
G01*
G37*
G36*
G01*
X180612500Y-73587500D02*
X180612500Y-74487500D01*
G75*
G02*
X180362500Y-74737500I-250000J0D01*
G01*
X179662500Y-74737500D01*
G75*
G02*
X179412500Y-74487500I0J250000D01*
G01*
X179412500Y-73587500D01*
G75*
G02*
X179662500Y-73337500I250000J0D01*
G01*
X180362500Y-73337500D01*
G75*
G02*
X180612500Y-73587500I0J-250000D01*
G01*
G37*
G36*
G01*
X146725000Y-83625000D02*
X145775000Y-83625000D01*
G75*
G02*
X145525000Y-83375000I0J250000D01*
G01*
X145525000Y-82700000D01*
G75*
G02*
X145775000Y-82450000I250000J0D01*
G01*
X146725000Y-82450000D01*
G75*
G02*
X146975000Y-82700000I0J-250000D01*
G01*
X146975000Y-83375000D01*
G75*
G02*
X146725000Y-83625000I-250000J0D01*
G01*
G37*
G36*
G01*
X146725000Y-81550000D02*
X145775000Y-81550000D01*
G75*
G02*
X145525000Y-81300000I0J250000D01*
G01*
X145525000Y-80625000D01*
G75*
G02*
X145775000Y-80375000I250000J0D01*
G01*
X146725000Y-80375000D01*
G75*
G02*
X146975000Y-80625000I0J-250000D01*
G01*
X146975000Y-81300000D01*
G75*
G02*
X146725000Y-81550000I-250000J0D01*
G01*
G37*
X205712500Y-80637500D03*
X204432500Y-80637500D03*
X203172500Y-80637500D03*
X201902500Y-80637500D03*
X200622500Y-80637500D03*
X199352500Y-80637500D03*
X198092500Y-80637500D03*
X196812500Y-80637500D03*
X196812500Y-86937500D03*
X198092500Y-86937500D03*
X199352500Y-86937500D03*
X200622500Y-86937500D03*
X201902500Y-86937500D03*
X203172500Y-86937500D03*
X204432500Y-86937500D03*
X205712500Y-86937500D03*
G36*
G01*
X145412500Y-125987500D02*
X145412500Y-129087500D01*
G75*
G02*
X145162500Y-129337500I-250000J0D01*
G01*
X143862500Y-129337500D01*
G75*
G02*
X143612500Y-129087500I0J250000D01*
G01*
X143612500Y-125987500D01*
G75*
G02*
X143862500Y-125737500I250000J0D01*
G01*
X145162500Y-125737500D01*
G75*
G02*
X145412500Y-125987500I0J-250000D01*
G01*
G37*
D14*
X141012500Y-127537500D03*
X137512500Y-127537500D03*
X134012500Y-127537500D03*
X130512500Y-127537500D03*
D13*
X173930000Y-114712500D03*
X176130000Y-114712500D03*
G36*
G01*
X136912500Y-61987500D02*
X136912500Y-61087500D01*
G75*
G02*
X137162500Y-60837500I250000J0D01*
G01*
X137862500Y-60837500D01*
G75*
G02*
X138112500Y-61087500I0J-250000D01*
G01*
X138112500Y-61987500D01*
G75*
G02*
X137862500Y-62237500I-250000J0D01*
G01*
X137162500Y-62237500D01*
G75*
G02*
X136912500Y-61987500I0J250000D01*
G01*
G37*
G36*
G01*
X138912500Y-61987500D02*
X138912500Y-61087500D01*
G75*
G02*
X139162500Y-60837500I250000J0D01*
G01*
X139862500Y-60837500D01*
G75*
G02*
X140112500Y-61087500I0J-250000D01*
G01*
X140112500Y-61987500D01*
G75*
G02*
X139862500Y-62237500I-250000J0D01*
G01*
X139162500Y-62237500D01*
G75*
G02*
X138912500Y-61987500I0J250000D01*
G01*
G37*
G36*
G01*
X140912500Y-59987500D02*
X140912500Y-59087500D01*
G75*
G02*
X141162500Y-58837500I250000J0D01*
G01*
X141862500Y-58837500D01*
G75*
G02*
X142112500Y-59087500I0J-250000D01*
G01*
X142112500Y-59987500D01*
G75*
G02*
X141862500Y-60237500I-250000J0D01*
G01*
X141162500Y-60237500D01*
G75*
G02*
X140912500Y-59987500I0J250000D01*
G01*
G37*
G36*
G01*
X142912500Y-59987500D02*
X142912500Y-59087500D01*
G75*
G02*
X143162500Y-58837500I250000J0D01*
G01*
X143862500Y-58837500D01*
G75*
G02*
X144112500Y-59087500I0J-250000D01*
G01*
X144112500Y-59987500D01*
G75*
G02*
X143862500Y-60237500I-250000J0D01*
G01*
X143162500Y-60237500D01*
G75*
G02*
X142912500Y-59987500I0J250000D01*
G01*
G37*
G36*
G01*
X194980000Y-119312500D02*
X194080000Y-119312500D01*
G75*
G02*
X193830000Y-119062500I0J250000D01*
G01*
X193830000Y-118362500D01*
G75*
G02*
X194080000Y-118112500I250000J0D01*
G01*
X194980000Y-118112500D01*
G75*
G02*
X195230000Y-118362500I0J-250000D01*
G01*
X195230000Y-119062500D01*
G75*
G02*
X194980000Y-119312500I-250000J0D01*
G01*
G37*
G36*
G01*
X194980000Y-117312500D02*
X194080000Y-117312500D01*
G75*
G02*
X193830000Y-117062500I0J250000D01*
G01*
X193830000Y-116362500D01*
G75*
G02*
X194080000Y-116112500I250000J0D01*
G01*
X194980000Y-116112500D01*
G75*
G02*
X195230000Y-116362500I0J-250000D01*
G01*
X195230000Y-117062500D01*
G75*
G02*
X194980000Y-117312500I-250000J0D01*
G01*
G37*
G36*
G01*
X203112500Y-73587500D02*
X203112500Y-74487500D01*
G75*
G02*
X202862500Y-74737500I-250000J0D01*
G01*
X202162500Y-74737500D01*
G75*
G02*
X201912500Y-74487500I0J250000D01*
G01*
X201912500Y-73587500D01*
G75*
G02*
X202162500Y-73337500I250000J0D01*
G01*
X202862500Y-73337500D01*
G75*
G02*
X203112500Y-73587500I0J-250000D01*
G01*
G37*
G36*
G01*
X201112500Y-73587500D02*
X201112500Y-74487500D01*
G75*
G02*
X200862500Y-74737500I-250000J0D01*
G01*
X200162500Y-74737500D01*
G75*
G02*
X199912500Y-74487500I0J250000D01*
G01*
X199912500Y-73587500D01*
G75*
G02*
X200162500Y-73337500I250000J0D01*
G01*
X200862500Y-73337500D01*
G75*
G02*
X201112500Y-73587500I0J-250000D01*
G01*
G37*
G36*
G01*
X135887500Y-78012500D02*
X135887500Y-77062500D01*
G75*
G02*
X136137500Y-76812500I250000J0D01*
G01*
X136812500Y-76812500D01*
G75*
G02*
X137062500Y-77062500I0J-250000D01*
G01*
X137062500Y-78012500D01*
G75*
G02*
X136812500Y-78262500I-250000J0D01*
G01*
X136137500Y-78262500D01*
G75*
G02*
X135887500Y-78012500I0J250000D01*
G01*
G37*
G36*
G01*
X137962500Y-78012500D02*
X137962500Y-77062500D01*
G75*
G02*
X138212500Y-76812500I250000J0D01*
G01*
X138887500Y-76812500D01*
G75*
G02*
X139137500Y-77062500I0J-250000D01*
G01*
X139137500Y-78012500D01*
G75*
G02*
X138887500Y-78262500I-250000J0D01*
G01*
X138212500Y-78262500D01*
G75*
G02*
X137962500Y-78012500I0J250000D01*
G01*
G37*
G36*
G01*
X141405000Y-113155000D02*
X141405000Y-112205000D01*
G75*
G02*
X141655000Y-111955000I250000J0D01*
G01*
X142330000Y-111955000D01*
G75*
G02*
X142580000Y-112205000I0J-250000D01*
G01*
X142580000Y-113155000D01*
G75*
G02*
X142330000Y-113405000I-250000J0D01*
G01*
X141655000Y-113405000D01*
G75*
G02*
X141405000Y-113155000I0J250000D01*
G01*
G37*
G36*
G01*
X143480000Y-113155000D02*
X143480000Y-112205000D01*
G75*
G02*
X143730000Y-111955000I250000J0D01*
G01*
X144405000Y-111955000D01*
G75*
G02*
X144655000Y-112205000I0J-250000D01*
G01*
X144655000Y-113155000D01*
G75*
G02*
X144405000Y-113405000I-250000J0D01*
G01*
X143730000Y-113405000D01*
G75*
G02*
X143480000Y-113155000I0J250000D01*
G01*
G37*
G36*
G01*
X162980000Y-123312500D02*
X162080000Y-123312500D01*
G75*
G02*
X161830000Y-123062500I0J250000D01*
G01*
X161830000Y-122362500D01*
G75*
G02*
X162080000Y-122112500I250000J0D01*
G01*
X162980000Y-122112500D01*
G75*
G02*
X163230000Y-122362500I0J-250000D01*
G01*
X163230000Y-123062500D01*
G75*
G02*
X162980000Y-123312500I-250000J0D01*
G01*
G37*
G36*
G01*
X162980000Y-121312500D02*
X162080000Y-121312500D01*
G75*
G02*
X161830000Y-121062500I0J250000D01*
G01*
X161830000Y-120362500D01*
G75*
G02*
X162080000Y-120112500I250000J0D01*
G01*
X162980000Y-120112500D01*
G75*
G02*
X163230000Y-120362500I0J-250000D01*
G01*
X163230000Y-121062500D01*
G75*
G02*
X162980000Y-121312500I-250000J0D01*
G01*
G37*
G36*
G01*
X196312500Y-88687500D02*
X197212500Y-88687500D01*
G75*
G02*
X197462500Y-88937500I0J-250000D01*
G01*
X197462500Y-89637500D01*
G75*
G02*
X197212500Y-89887500I-250000J0D01*
G01*
X196312500Y-89887500D01*
G75*
G02*
X196062500Y-89637500I0J250000D01*
G01*
X196062500Y-88937500D01*
G75*
G02*
X196312500Y-88687500I250000J0D01*
G01*
G37*
G36*
G01*
X196312500Y-90687500D02*
X197212500Y-90687500D01*
G75*
G02*
X197462500Y-90937500I0J-250000D01*
G01*
X197462500Y-91637500D01*
G75*
G02*
X197212500Y-91887500I-250000J0D01*
G01*
X196312500Y-91887500D01*
G75*
G02*
X196062500Y-91637500I0J250000D01*
G01*
X196062500Y-90937500D01*
G75*
G02*
X196312500Y-90687500I250000J0D01*
G01*
G37*
G36*
G01*
X202905000Y-113187500D02*
X202905000Y-112237500D01*
G75*
G02*
X203155000Y-111987500I250000J0D01*
G01*
X203830000Y-111987500D01*
G75*
G02*
X204080000Y-112237500I0J-250000D01*
G01*
X204080000Y-113187500D01*
G75*
G02*
X203830000Y-113437500I-250000J0D01*
G01*
X203155000Y-113437500D01*
G75*
G02*
X202905000Y-113187500I0J250000D01*
G01*
G37*
G36*
G01*
X204980000Y-113187500D02*
X204980000Y-112237500D01*
G75*
G02*
X205230000Y-111987500I250000J0D01*
G01*
X205905000Y-111987500D01*
G75*
G02*
X206155000Y-112237500I0J-250000D01*
G01*
X206155000Y-113187500D01*
G75*
G02*
X205905000Y-113437500I-250000J0D01*
G01*
X205230000Y-113437500D01*
G75*
G02*
X204980000Y-113187500I0J250000D01*
G01*
G37*
G36*
G01*
X156387500Y-73012500D02*
X156387500Y-72062500D01*
G75*
G02*
X156637500Y-71812500I250000J0D01*
G01*
X157312500Y-71812500D01*
G75*
G02*
X157562500Y-72062500I0J-250000D01*
G01*
X157562500Y-73012500D01*
G75*
G02*
X157312500Y-73262500I-250000J0D01*
G01*
X156637500Y-73262500D01*
G75*
G02*
X156387500Y-73012500I0J250000D01*
G01*
G37*
G36*
G01*
X158462500Y-73012500D02*
X158462500Y-72062500D01*
G75*
G02*
X158712500Y-71812500I250000J0D01*
G01*
X159387500Y-71812500D01*
G75*
G02*
X159637500Y-72062500I0J-250000D01*
G01*
X159637500Y-73012500D01*
G75*
G02*
X159387500Y-73262500I-250000J0D01*
G01*
X158712500Y-73262500D01*
G75*
G02*
X158462500Y-73012500I0J250000D01*
G01*
G37*
G36*
G01*
X140812931Y-104224327D02*
X141449327Y-103587931D01*
G75*
G02*
X141802881Y-103587931I176777J-176777D01*
G01*
X142297855Y-104082905D01*
G75*
G02*
X142297855Y-104436459I-176777J-176777D01*
G01*
X141661459Y-105072855D01*
G75*
G02*
X141307905Y-105072855I-176777J176777D01*
G01*
X140812931Y-104577881D01*
G75*
G02*
X140812931Y-104224327I176777J176777D01*
G01*
G37*
G36*
G01*
X142227145Y-105638541D02*
X142863541Y-105002145D01*
G75*
G02*
X143217095Y-105002145I176777J-176777D01*
G01*
X143712069Y-105497119D01*
G75*
G02*
X143712069Y-105850673I-176777J-176777D01*
G01*
X143075673Y-106487069D01*
G75*
G02*
X142722119Y-106487069I-176777J176777D01*
G01*
X142227145Y-105992095D01*
G75*
G02*
X142227145Y-105638541I176777J176777D01*
G01*
G37*
G36*
G01*
X157405000Y-113187500D02*
X157405000Y-112237500D01*
G75*
G02*
X157655000Y-111987500I250000J0D01*
G01*
X158330000Y-111987500D01*
G75*
G02*
X158580000Y-112237500I0J-250000D01*
G01*
X158580000Y-113187500D01*
G75*
G02*
X158330000Y-113437500I-250000J0D01*
G01*
X157655000Y-113437500D01*
G75*
G02*
X157405000Y-113187500I0J250000D01*
G01*
G37*
G36*
G01*
X159480000Y-113187500D02*
X159480000Y-112237500D01*
G75*
G02*
X159730000Y-111987500I250000J0D01*
G01*
X160405000Y-111987500D01*
G75*
G02*
X160655000Y-112237500I0J-250000D01*
G01*
X160655000Y-113187500D01*
G75*
G02*
X160405000Y-113437500I-250000J0D01*
G01*
X159730000Y-113437500D01*
G75*
G02*
X159480000Y-113187500I0J250000D01*
G01*
G37*
G36*
G01*
X132912500Y-61987500D02*
X132912500Y-61087500D01*
G75*
G02*
X133162500Y-60837500I250000J0D01*
G01*
X133862500Y-60837500D01*
G75*
G02*
X134112500Y-61087500I0J-250000D01*
G01*
X134112500Y-61987500D01*
G75*
G02*
X133862500Y-62237500I-250000J0D01*
G01*
X133162500Y-62237500D01*
G75*
G02*
X132912500Y-61987500I0J250000D01*
G01*
G37*
G36*
G01*
X134912500Y-61987500D02*
X134912500Y-61087500D01*
G75*
G02*
X135162500Y-60837500I250000J0D01*
G01*
X135862500Y-60837500D01*
G75*
G02*
X136112500Y-61087500I0J-250000D01*
G01*
X136112500Y-61987500D01*
G75*
G02*
X135862500Y-62237500I-250000J0D01*
G01*
X135162500Y-62237500D01*
G75*
G02*
X134912500Y-61987500I0J250000D01*
G01*
G37*
G36*
G01*
X161905000Y-113187500D02*
X161905000Y-112237500D01*
G75*
G02*
X162155000Y-111987500I250000J0D01*
G01*
X162830000Y-111987500D01*
G75*
G02*
X163080000Y-112237500I0J-250000D01*
G01*
X163080000Y-113187500D01*
G75*
G02*
X162830000Y-113437500I-250000J0D01*
G01*
X162155000Y-113437500D01*
G75*
G02*
X161905000Y-113187500I0J250000D01*
G01*
G37*
G36*
G01*
X163980000Y-113187500D02*
X163980000Y-112237500D01*
G75*
G02*
X164230000Y-111987500I250000J0D01*
G01*
X164905000Y-111987500D01*
G75*
G02*
X165155000Y-112237500I0J-250000D01*
G01*
X165155000Y-113187500D01*
G75*
G02*
X164905000Y-113437500I-250000J0D01*
G01*
X164230000Y-113437500D01*
G75*
G02*
X163980000Y-113187500I0J250000D01*
G01*
G37*
G36*
X128512500Y-102012500D02*
G01*
X129262500Y-102512500D01*
X129262500Y-103512500D01*
X127762500Y-103512500D01*
X127762500Y-102512500D01*
X128512500Y-102012500D01*
G37*
G36*
X129262500Y-101062500D02*
G01*
X129262500Y-102212500D01*
X128512500Y-101712500D01*
X127762500Y-102212500D01*
X127762500Y-101062500D01*
X129262500Y-101062500D01*
G37*
G36*
G01*
X170612500Y-56087500D02*
X170612500Y-52987500D01*
G75*
G02*
X170862500Y-52737500I250000J0D01*
G01*
X172162500Y-52737500D01*
G75*
G02*
X172412500Y-52987500I0J-250000D01*
G01*
X172412500Y-56087500D01*
G75*
G02*
X172162500Y-56337500I-250000J0D01*
G01*
X170862500Y-56337500D01*
G75*
G02*
X170612500Y-56087500I0J250000D01*
G01*
G37*
D14*
X175012500Y-54537500D03*
X178512500Y-54537500D03*
X182012500Y-54537500D03*
X185512500Y-54537500D03*
G36*
G01*
X179562500Y-61437500D02*
X180462500Y-61437500D01*
G75*
G02*
X180712500Y-61687500I0J-250000D01*
G01*
X180712500Y-62387500D01*
G75*
G02*
X180462500Y-62637500I-250000J0D01*
G01*
X179562500Y-62637500D01*
G75*
G02*
X179312500Y-62387500I0J250000D01*
G01*
X179312500Y-61687500D01*
G75*
G02*
X179562500Y-61437500I250000J0D01*
G01*
G37*
G36*
G01*
X179562500Y-63437500D02*
X180462500Y-63437500D01*
G75*
G02*
X180712500Y-63687500I0J-250000D01*
G01*
X180712500Y-64387500D01*
G75*
G02*
X180462500Y-64637500I-250000J0D01*
G01*
X179562500Y-64637500D01*
G75*
G02*
X179312500Y-64387500I0J250000D01*
G01*
X179312500Y-63687500D01*
G75*
G02*
X179562500Y-63437500I250000J0D01*
G01*
G37*
G36*
G01*
X189405000Y-113187500D02*
X189405000Y-112237500D01*
G75*
G02*
X189655000Y-111987500I250000J0D01*
G01*
X190330000Y-111987500D01*
G75*
G02*
X190580000Y-112237500I0J-250000D01*
G01*
X190580000Y-113187500D01*
G75*
G02*
X190330000Y-113437500I-250000J0D01*
G01*
X189655000Y-113437500D01*
G75*
G02*
X189405000Y-113187500I0J250000D01*
G01*
G37*
G36*
G01*
X191480000Y-113187500D02*
X191480000Y-112237500D01*
G75*
G02*
X191730000Y-111987500I250000J0D01*
G01*
X192405000Y-111987500D01*
G75*
G02*
X192655000Y-112237500I0J-250000D01*
G01*
X192655000Y-113187500D01*
G75*
G02*
X192405000Y-113437500I-250000J0D01*
G01*
X191730000Y-113437500D01*
G75*
G02*
X191480000Y-113187500I0J250000D01*
G01*
G37*
G36*
G01*
X200062500Y-65437500D02*
X200962500Y-65437500D01*
G75*
G02*
X201212500Y-65687500I0J-250000D01*
G01*
X201212500Y-66387500D01*
G75*
G02*
X200962500Y-66637500I-250000J0D01*
G01*
X200062500Y-66637500D01*
G75*
G02*
X199812500Y-66387500I0J250000D01*
G01*
X199812500Y-65687500D01*
G75*
G02*
X200062500Y-65437500I250000J0D01*
G01*
G37*
G36*
G01*
X200062500Y-67437500D02*
X200962500Y-67437500D01*
G75*
G02*
X201212500Y-67687500I0J-250000D01*
G01*
X201212500Y-68387500D01*
G75*
G02*
X200962500Y-68637500I-250000J0D01*
G01*
X200062500Y-68637500D01*
G75*
G02*
X199812500Y-68387500I0J250000D01*
G01*
X199812500Y-67687500D01*
G75*
G02*
X200062500Y-67437500I250000J0D01*
G01*
G37*
G36*
G01*
X174562500Y-65437500D02*
X175462500Y-65437500D01*
G75*
G02*
X175712500Y-65687500I0J-250000D01*
G01*
X175712500Y-66387500D01*
G75*
G02*
X175462500Y-66637500I-250000J0D01*
G01*
X174562500Y-66637500D01*
G75*
G02*
X174312500Y-66387500I0J250000D01*
G01*
X174312500Y-65687500D01*
G75*
G02*
X174562500Y-65437500I250000J0D01*
G01*
G37*
G36*
G01*
X174562500Y-67437500D02*
X175462500Y-67437500D01*
G75*
G02*
X175712500Y-67687500I0J-250000D01*
G01*
X175712500Y-68387500D01*
G75*
G02*
X175462500Y-68637500I-250000J0D01*
G01*
X174562500Y-68637500D01*
G75*
G02*
X174312500Y-68387500I0J250000D01*
G01*
X174312500Y-67687500D01*
G75*
G02*
X174562500Y-67437500I250000J0D01*
G01*
G37*
G36*
G01*
X149480000Y-119312500D02*
X148580000Y-119312500D01*
G75*
G02*
X148330000Y-119062500I0J250000D01*
G01*
X148330000Y-118362500D01*
G75*
G02*
X148580000Y-118112500I250000J0D01*
G01*
X149480000Y-118112500D01*
G75*
G02*
X149730000Y-118362500I0J-250000D01*
G01*
X149730000Y-119062500D01*
G75*
G02*
X149480000Y-119312500I-250000J0D01*
G01*
G37*
G36*
G01*
X149480000Y-117312500D02*
X148580000Y-117312500D01*
G75*
G02*
X148330000Y-117062500I0J250000D01*
G01*
X148330000Y-116362500D01*
G75*
G02*
X148580000Y-116112500I250000J0D01*
G01*
X149480000Y-116112500D01*
G75*
G02*
X149730000Y-116362500I0J-250000D01*
G01*
X149730000Y-117062500D01*
G75*
G02*
X149480000Y-117312500I-250000J0D01*
G01*
G37*
G36*
G01*
X151362500Y-75712500D02*
X151362500Y-75912500D01*
G75*
G02*
X151262500Y-76012500I-100000J0D01*
G01*
X149987500Y-76012500D01*
G75*
G02*
X149887500Y-75912500I0J100000D01*
G01*
X149887500Y-75712500D01*
G75*
G02*
X149987500Y-75612500I100000J0D01*
G01*
X151262500Y-75612500D01*
G75*
G02*
X151362500Y-75712500I0J-100000D01*
G01*
G37*
G36*
G01*
X151362500Y-75062500D02*
X151362500Y-75262500D01*
G75*
G02*
X151262500Y-75362500I-100000J0D01*
G01*
X149987500Y-75362500D01*
G75*
G02*
X149887500Y-75262500I0J100000D01*
G01*
X149887500Y-75062500D01*
G75*
G02*
X149987500Y-74962500I100000J0D01*
G01*
X151262500Y-74962500D01*
G75*
G02*
X151362500Y-75062500I0J-100000D01*
G01*
G37*
G36*
G01*
X151362500Y-74412500D02*
X151362500Y-74612500D01*
G75*
G02*
X151262500Y-74712500I-100000J0D01*
G01*
X149987500Y-74712500D01*
G75*
G02*
X149887500Y-74612500I0J100000D01*
G01*
X149887500Y-74412500D01*
G75*
G02*
X149987500Y-74312500I100000J0D01*
G01*
X151262500Y-74312500D01*
G75*
G02*
X151362500Y-74412500I0J-100000D01*
G01*
G37*
G36*
G01*
X151362500Y-73762500D02*
X151362500Y-73962500D01*
G75*
G02*
X151262500Y-74062500I-100000J0D01*
G01*
X149987500Y-74062500D01*
G75*
G02*
X149887500Y-73962500I0J100000D01*
G01*
X149887500Y-73762500D01*
G75*
G02*
X149987500Y-73662500I100000J0D01*
G01*
X151262500Y-73662500D01*
G75*
G02*
X151362500Y-73762500I0J-100000D01*
G01*
G37*
G36*
G01*
X151362500Y-73112500D02*
X151362500Y-73312500D01*
G75*
G02*
X151262500Y-73412500I-100000J0D01*
G01*
X149987500Y-73412500D01*
G75*
G02*
X149887500Y-73312500I0J100000D01*
G01*
X149887500Y-73112500D01*
G75*
G02*
X149987500Y-73012500I100000J0D01*
G01*
X151262500Y-73012500D01*
G75*
G02*
X151362500Y-73112500I0J-100000D01*
G01*
G37*
G36*
G01*
X151362500Y-72462500D02*
X151362500Y-72662500D01*
G75*
G02*
X151262500Y-72762500I-100000J0D01*
G01*
X149987500Y-72762500D01*
G75*
G02*
X149887500Y-72662500I0J100000D01*
G01*
X149887500Y-72462500D01*
G75*
G02*
X149987500Y-72362500I100000J0D01*
G01*
X151262500Y-72362500D01*
G75*
G02*
X151362500Y-72462500I0J-100000D01*
G01*
G37*
G36*
G01*
X151362500Y-71812500D02*
X151362500Y-72012500D01*
G75*
G02*
X151262500Y-72112500I-100000J0D01*
G01*
X149987500Y-72112500D01*
G75*
G02*
X149887500Y-72012500I0J100000D01*
G01*
X149887500Y-71812500D01*
G75*
G02*
X149987500Y-71712500I100000J0D01*
G01*
X151262500Y-71712500D01*
G75*
G02*
X151362500Y-71812500I0J-100000D01*
G01*
G37*
G36*
G01*
X151362500Y-71162500D02*
X151362500Y-71362500D01*
G75*
G02*
X151262500Y-71462500I-100000J0D01*
G01*
X149987500Y-71462500D01*
G75*
G02*
X149887500Y-71362500I0J100000D01*
G01*
X149887500Y-71162500D01*
G75*
G02*
X149987500Y-71062500I100000J0D01*
G01*
X151262500Y-71062500D01*
G75*
G02*
X151362500Y-71162500I0J-100000D01*
G01*
G37*
G36*
G01*
X145637500Y-71162500D02*
X145637500Y-71362500D01*
G75*
G02*
X145537500Y-71462500I-100000J0D01*
G01*
X144262500Y-71462500D01*
G75*
G02*
X144162500Y-71362500I0J100000D01*
G01*
X144162500Y-71162500D01*
G75*
G02*
X144262500Y-71062500I100000J0D01*
G01*
X145537500Y-71062500D01*
G75*
G02*
X145637500Y-71162500I0J-100000D01*
G01*
G37*
G36*
G01*
X145637500Y-71812500D02*
X145637500Y-72012500D01*
G75*
G02*
X145537500Y-72112500I-100000J0D01*
G01*
X144262500Y-72112500D01*
G75*
G02*
X144162500Y-72012500I0J100000D01*
G01*
X144162500Y-71812500D01*
G75*
G02*
X144262500Y-71712500I100000J0D01*
G01*
X145537500Y-71712500D01*
G75*
G02*
X145637500Y-71812500I0J-100000D01*
G01*
G37*
G36*
G01*
X145637500Y-72462500D02*
X145637500Y-72662500D01*
G75*
G02*
X145537500Y-72762500I-100000J0D01*
G01*
X144262500Y-72762500D01*
G75*
G02*
X144162500Y-72662500I0J100000D01*
G01*
X144162500Y-72462500D01*
G75*
G02*
X144262500Y-72362500I100000J0D01*
G01*
X145537500Y-72362500D01*
G75*
G02*
X145637500Y-72462500I0J-100000D01*
G01*
G37*
G36*
G01*
X145637500Y-73112500D02*
X145637500Y-73312500D01*
G75*
G02*
X145537500Y-73412500I-100000J0D01*
G01*
X144262500Y-73412500D01*
G75*
G02*
X144162500Y-73312500I0J100000D01*
G01*
X144162500Y-73112500D01*
G75*
G02*
X144262500Y-73012500I100000J0D01*
G01*
X145537500Y-73012500D01*
G75*
G02*
X145637500Y-73112500I0J-100000D01*
G01*
G37*
G36*
G01*
X145637500Y-73762500D02*
X145637500Y-73962500D01*
G75*
G02*
X145537500Y-74062500I-100000J0D01*
G01*
X144262500Y-74062500D01*
G75*
G02*
X144162500Y-73962500I0J100000D01*
G01*
X144162500Y-73762500D01*
G75*
G02*
X144262500Y-73662500I100000J0D01*
G01*
X145537500Y-73662500D01*
G75*
G02*
X145637500Y-73762500I0J-100000D01*
G01*
G37*
G36*
G01*
X145637500Y-74412500D02*
X145637500Y-74612500D01*
G75*
G02*
X145537500Y-74712500I-100000J0D01*
G01*
X144262500Y-74712500D01*
G75*
G02*
X144162500Y-74612500I0J100000D01*
G01*
X144162500Y-74412500D01*
G75*
G02*
X144262500Y-74312500I100000J0D01*
G01*
X145537500Y-74312500D01*
G75*
G02*
X145637500Y-74412500I0J-100000D01*
G01*
G37*
G36*
G01*
X145637500Y-75062500D02*
X145637500Y-75262500D01*
G75*
G02*
X145537500Y-75362500I-100000J0D01*
G01*
X144262500Y-75362500D01*
G75*
G02*
X144162500Y-75262500I0J100000D01*
G01*
X144162500Y-75062500D01*
G75*
G02*
X144262500Y-74962500I100000J0D01*
G01*
X145537500Y-74962500D01*
G75*
G02*
X145637500Y-75062500I0J-100000D01*
G01*
G37*
G36*
G01*
X145637500Y-75712500D02*
X145637500Y-75912500D01*
G75*
G02*
X145537500Y-76012500I-100000J0D01*
G01*
X144262500Y-76012500D01*
G75*
G02*
X144162500Y-75912500I0J100000D01*
G01*
X144162500Y-75712500D01*
G75*
G02*
X144262500Y-75612500I100000J0D01*
G01*
X145537500Y-75612500D01*
G75*
G02*
X145637500Y-75712500I0J-100000D01*
G01*
G37*
D11*
X192462500Y-75837500D03*
X190562500Y-75837500D03*
X191512500Y-78237500D03*
G36*
G01*
X137980000Y-123280000D02*
X137080000Y-123280000D01*
G75*
G02*
X136830000Y-123030000I0J250000D01*
G01*
X136830000Y-122330000D01*
G75*
G02*
X137080000Y-122080000I250000J0D01*
G01*
X137980000Y-122080000D01*
G75*
G02*
X138230000Y-122330000I0J-250000D01*
G01*
X138230000Y-123030000D01*
G75*
G02*
X137980000Y-123280000I-250000J0D01*
G01*
G37*
G36*
G01*
X137980000Y-121280000D02*
X137080000Y-121280000D01*
G75*
G02*
X136830000Y-121030000I0J250000D01*
G01*
X136830000Y-120330000D01*
G75*
G02*
X137080000Y-120080000I250000J0D01*
G01*
X137980000Y-120080000D01*
G75*
G02*
X138230000Y-120330000I0J-250000D01*
G01*
X138230000Y-121030000D01*
G75*
G02*
X137980000Y-121280000I-250000J0D01*
G01*
G37*
G36*
G01*
X208112500Y-73587500D02*
X208112500Y-74487500D01*
G75*
G02*
X207862500Y-74737500I-250000J0D01*
G01*
X207162500Y-74737500D01*
G75*
G02*
X206912500Y-74487500I0J250000D01*
G01*
X206912500Y-73587500D01*
G75*
G02*
X207162500Y-73337500I250000J0D01*
G01*
X207862500Y-73337500D01*
G75*
G02*
X208112500Y-73587500I0J-250000D01*
G01*
G37*
G36*
G01*
X206112500Y-73587500D02*
X206112500Y-74487500D01*
G75*
G02*
X205862500Y-74737500I-250000J0D01*
G01*
X205162500Y-74737500D01*
G75*
G02*
X204912500Y-74487500I0J250000D01*
G01*
X204912500Y-73587500D01*
G75*
G02*
X205162500Y-73337500I250000J0D01*
G01*
X205862500Y-73337500D01*
G75*
G02*
X206112500Y-73587500I0J-250000D01*
G01*
G37*
G36*
G01*
X200062500Y-61437500D02*
X200962500Y-61437500D01*
G75*
G02*
X201212500Y-61687500I0J-250000D01*
G01*
X201212500Y-62387500D01*
G75*
G02*
X200962500Y-62637500I-250000J0D01*
G01*
X200062500Y-62637500D01*
G75*
G02*
X199812500Y-62387500I0J250000D01*
G01*
X199812500Y-61687500D01*
G75*
G02*
X200062500Y-61437500I250000J0D01*
G01*
G37*
G36*
G01*
X200062500Y-63437500D02*
X200962500Y-63437500D01*
G75*
G02*
X201212500Y-63687500I0J-250000D01*
G01*
X201212500Y-64387500D01*
G75*
G02*
X200962500Y-64637500I-250000J0D01*
G01*
X200062500Y-64637500D01*
G75*
G02*
X199812500Y-64387500I0J250000D01*
G01*
X199812500Y-63687500D01*
G75*
G02*
X200062500Y-63437500I250000J0D01*
G01*
G37*
G36*
G01*
X174480000Y-123312500D02*
X173580000Y-123312500D01*
G75*
G02*
X173330000Y-123062500I0J250000D01*
G01*
X173330000Y-122362500D01*
G75*
G02*
X173580000Y-122112500I250000J0D01*
G01*
X174480000Y-122112500D01*
G75*
G02*
X174730000Y-122362500I0J-250000D01*
G01*
X174730000Y-123062500D01*
G75*
G02*
X174480000Y-123312500I-250000J0D01*
G01*
G37*
G36*
G01*
X174480000Y-121312500D02*
X173580000Y-121312500D01*
G75*
G02*
X173330000Y-121062500I0J250000D01*
G01*
X173330000Y-120362500D01*
G75*
G02*
X173580000Y-120112500I250000J0D01*
G01*
X174480000Y-120112500D01*
G75*
G02*
X174730000Y-120362500I0J-250000D01*
G01*
X174730000Y-121062500D01*
G75*
G02*
X174480000Y-121312500I-250000J0D01*
G01*
G37*
G36*
G01*
X168905000Y-113187500D02*
X168905000Y-112237500D01*
G75*
G02*
X169155000Y-111987500I250000J0D01*
G01*
X169830000Y-111987500D01*
G75*
G02*
X170080000Y-112237500I0J-250000D01*
G01*
X170080000Y-113187500D01*
G75*
G02*
X169830000Y-113437500I-250000J0D01*
G01*
X169155000Y-113437500D01*
G75*
G02*
X168905000Y-113187500I0J250000D01*
G01*
G37*
G36*
G01*
X170980000Y-113187500D02*
X170980000Y-112237500D01*
G75*
G02*
X171230000Y-111987500I250000J0D01*
G01*
X171905000Y-111987500D01*
G75*
G02*
X172155000Y-112237500I0J-250000D01*
G01*
X172155000Y-113187500D01*
G75*
G02*
X171905000Y-113437500I-250000J0D01*
G01*
X171230000Y-113437500D01*
G75*
G02*
X170980000Y-113187500I0J250000D01*
G01*
G37*
G36*
G01*
X139137500Y-72062500D02*
X139137500Y-73012500D01*
G75*
G02*
X138887500Y-73262500I-250000J0D01*
G01*
X138212500Y-73262500D01*
G75*
G02*
X137962500Y-73012500I0J250000D01*
G01*
X137962500Y-72062500D01*
G75*
G02*
X138212500Y-71812500I250000J0D01*
G01*
X138887500Y-71812500D01*
G75*
G02*
X139137500Y-72062500I0J-250000D01*
G01*
G37*
G36*
G01*
X137062500Y-72062500D02*
X137062500Y-73012500D01*
G75*
G02*
X136812500Y-73262500I-250000J0D01*
G01*
X136137500Y-73262500D01*
G75*
G02*
X135887500Y-73012500I0J250000D01*
G01*
X135887500Y-72062500D01*
G75*
G02*
X136137500Y-71812500I250000J0D01*
G01*
X136812500Y-71812500D01*
G75*
G02*
X137062500Y-72062500I0J-250000D01*
G01*
G37*
G36*
G01*
X159612500Y-74087500D02*
X159612500Y-74987500D01*
G75*
G02*
X159362500Y-75237500I-250000J0D01*
G01*
X158662500Y-75237500D01*
G75*
G02*
X158412500Y-74987500I0J250000D01*
G01*
X158412500Y-74087500D01*
G75*
G02*
X158662500Y-73837500I250000J0D01*
G01*
X159362500Y-73837500D01*
G75*
G02*
X159612500Y-74087500I0J-250000D01*
G01*
G37*
G36*
G01*
X157612500Y-74087500D02*
X157612500Y-74987500D01*
G75*
G02*
X157362500Y-75237500I-250000J0D01*
G01*
X156662500Y-75237500D01*
G75*
G02*
X156412500Y-74987500I0J250000D01*
G01*
X156412500Y-74087500D01*
G75*
G02*
X156662500Y-73837500I250000J0D01*
G01*
X157362500Y-73837500D01*
G75*
G02*
X157612500Y-74087500I0J-250000D01*
G01*
G37*
D13*
X203430000Y-114712500D03*
X205630000Y-114712500D03*
G36*
G01*
X160387500Y-73012500D02*
X160387500Y-72062500D01*
G75*
G02*
X160637500Y-71812500I250000J0D01*
G01*
X161312500Y-71812500D01*
G75*
G02*
X161562500Y-72062500I0J-250000D01*
G01*
X161562500Y-73012500D01*
G75*
G02*
X161312500Y-73262500I-250000J0D01*
G01*
X160637500Y-73262500D01*
G75*
G02*
X160387500Y-73012500I0J250000D01*
G01*
G37*
G36*
G01*
X162462500Y-73012500D02*
X162462500Y-72062500D01*
G75*
G02*
X162712500Y-71812500I250000J0D01*
G01*
X163387500Y-71812500D01*
G75*
G02*
X163637500Y-72062500I0J-250000D01*
G01*
X163637500Y-73012500D01*
G75*
G02*
X163387500Y-73262500I-250000J0D01*
G01*
X162712500Y-73262500D01*
G75*
G02*
X162462500Y-73012500I0J250000D01*
G01*
G37*
X198930000Y-114712500D03*
X201130000Y-114712500D03*
G36*
G01*
X179562500Y-65437500D02*
X180462500Y-65437500D01*
G75*
G02*
X180712500Y-65687500I0J-250000D01*
G01*
X180712500Y-66387500D01*
G75*
G02*
X180462500Y-66637500I-250000J0D01*
G01*
X179562500Y-66637500D01*
G75*
G02*
X179312500Y-66387500I0J250000D01*
G01*
X179312500Y-65687500D01*
G75*
G02*
X179562500Y-65437500I250000J0D01*
G01*
G37*
G36*
G01*
X179562500Y-67437500D02*
X180462500Y-67437500D01*
G75*
G02*
X180712500Y-67687500I0J-250000D01*
G01*
X180712500Y-68387500D01*
G75*
G02*
X180462500Y-68637500I-250000J0D01*
G01*
X179562500Y-68637500D01*
G75*
G02*
X179312500Y-68387500I0J250000D01*
G01*
X179312500Y-67687500D01*
G75*
G02*
X179562500Y-67437500I250000J0D01*
G01*
G37*
G36*
G01*
X160412500Y-74987500D02*
X160412500Y-74087500D01*
G75*
G02*
X160662500Y-73837500I250000J0D01*
G01*
X161362500Y-73837500D01*
G75*
G02*
X161612500Y-74087500I0J-250000D01*
G01*
X161612500Y-74987500D01*
G75*
G02*
X161362500Y-75237500I-250000J0D01*
G01*
X160662500Y-75237500D01*
G75*
G02*
X160412500Y-74987500I0J250000D01*
G01*
G37*
G36*
G01*
X162412500Y-74987500D02*
X162412500Y-74087500D01*
G75*
G02*
X162662500Y-73837500I250000J0D01*
G01*
X163362500Y-73837500D01*
G75*
G02*
X163612500Y-74087500I0J-250000D01*
G01*
X163612500Y-74987500D01*
G75*
G02*
X163362500Y-75237500I-250000J0D01*
G01*
X162662500Y-75237500D01*
G75*
G02*
X162412500Y-74987500I0J250000D01*
G01*
G37*
G36*
G01*
X130637500Y-104462500D02*
X130637500Y-105412500D01*
G75*
G02*
X130387500Y-105662500I-250000J0D01*
G01*
X129712500Y-105662500D01*
G75*
G02*
X129462500Y-105412500I0J250000D01*
G01*
X129462500Y-104462500D01*
G75*
G02*
X129712500Y-104212500I250000J0D01*
G01*
X130387500Y-104212500D01*
G75*
G02*
X130637500Y-104462500I0J-250000D01*
G01*
G37*
G36*
G01*
X128562500Y-104462500D02*
X128562500Y-105412500D01*
G75*
G02*
X128312500Y-105662500I-250000J0D01*
G01*
X127637500Y-105662500D01*
G75*
G02*
X127387500Y-105412500I0J250000D01*
G01*
X127387500Y-104462500D01*
G75*
G02*
X127637500Y-104212500I250000J0D01*
G01*
X128312500Y-104212500D01*
G75*
G02*
X128562500Y-104462500I0J-250000D01*
G01*
G37*
G36*
G01*
X202062500Y-63437500D02*
X202962500Y-63437500D01*
G75*
G02*
X203212500Y-63687500I0J-250000D01*
G01*
X203212500Y-64387500D01*
G75*
G02*
X202962500Y-64637500I-250000J0D01*
G01*
X202062500Y-64637500D01*
G75*
G02*
X201812500Y-64387500I0J250000D01*
G01*
X201812500Y-63687500D01*
G75*
G02*
X202062500Y-63437500I250000J0D01*
G01*
G37*
G36*
G01*
X202062500Y-65437500D02*
X202962500Y-65437500D01*
G75*
G02*
X203212500Y-65687500I0J-250000D01*
G01*
X203212500Y-66387500D01*
G75*
G02*
X202962500Y-66637500I-250000J0D01*
G01*
X202062500Y-66637500D01*
G75*
G02*
X201812500Y-66387500I0J250000D01*
G01*
X201812500Y-65687500D01*
G75*
G02*
X202062500Y-65437500I250000J0D01*
G01*
G37*
D11*
X176962500Y-75837500D03*
X175062500Y-75837500D03*
X176012500Y-78237500D03*
G36*
G01*
X185900000Y-103450000D02*
X185900000Y-102550000D01*
G75*
G02*
X186150000Y-102300000I250000J0D01*
G01*
X186800000Y-102300000D01*
G75*
G02*
X187050000Y-102550000I0J-250000D01*
G01*
X187050000Y-103450000D01*
G75*
G02*
X186800000Y-103700000I-250000J0D01*
G01*
X186150000Y-103700000D01*
G75*
G02*
X185900000Y-103450000I0J250000D01*
G01*
G37*
G36*
G01*
X187950000Y-103450000D02*
X187950000Y-102550000D01*
G75*
G02*
X188200000Y-102300000I250000J0D01*
G01*
X188850000Y-102300000D01*
G75*
G02*
X189100000Y-102550000I0J-250000D01*
G01*
X189100000Y-103450000D01*
G75*
G02*
X188850000Y-103700000I-250000J0D01*
G01*
X188200000Y-103700000D01*
G75*
G02*
X187950000Y-103450000I0J250000D01*
G01*
G37*
G36*
G01*
X128980000Y-123280000D02*
X128080000Y-123280000D01*
G75*
G02*
X127830000Y-123030000I0J250000D01*
G01*
X127830000Y-122330000D01*
G75*
G02*
X128080000Y-122080000I250000J0D01*
G01*
X128980000Y-122080000D01*
G75*
G02*
X129230000Y-122330000I0J-250000D01*
G01*
X129230000Y-123030000D01*
G75*
G02*
X128980000Y-123280000I-250000J0D01*
G01*
G37*
G36*
G01*
X128980000Y-121280000D02*
X128080000Y-121280000D01*
G75*
G02*
X127830000Y-121030000I0J250000D01*
G01*
X127830000Y-120330000D01*
G75*
G02*
X128080000Y-120080000I250000J0D01*
G01*
X128980000Y-120080000D01*
G75*
G02*
X129230000Y-120330000I0J-250000D01*
G01*
X129230000Y-121030000D01*
G75*
G02*
X128980000Y-121280000I-250000J0D01*
G01*
G37*
X170062500Y-72237500D03*
X171962500Y-72237500D03*
X171012500Y-69837500D03*
G36*
G01*
X205387500Y-88812500D02*
X205387500Y-89762500D01*
G75*
G02*
X205137500Y-90012500I-250000J0D01*
G01*
X204462500Y-90012500D01*
G75*
G02*
X204212500Y-89762500I0J250000D01*
G01*
X204212500Y-88812500D01*
G75*
G02*
X204462500Y-88562500I250000J0D01*
G01*
X205137500Y-88562500D01*
G75*
G02*
X205387500Y-88812500I0J-250000D01*
G01*
G37*
G36*
G01*
X203312500Y-88812500D02*
X203312500Y-89762500D01*
G75*
G02*
X203062500Y-90012500I-250000J0D01*
G01*
X202387500Y-90012500D01*
G75*
G02*
X202137500Y-89762500I0J250000D01*
G01*
X202137500Y-88812500D01*
G75*
G02*
X202387500Y-88562500I250000J0D01*
G01*
X203062500Y-88562500D01*
G75*
G02*
X203312500Y-88812500I0J-250000D01*
G01*
G37*
G36*
G01*
X172862500Y-90837500D02*
X172862500Y-91737500D01*
G75*
G02*
X172612500Y-91987500I-250000J0D01*
G01*
X171912500Y-91987500D01*
G75*
G02*
X171662500Y-91737500I0J250000D01*
G01*
X171662500Y-90837500D01*
G75*
G02*
X171912500Y-90587500I250000J0D01*
G01*
X172612500Y-90587500D01*
G75*
G02*
X172862500Y-90837500I0J-250000D01*
G01*
G37*
G36*
G01*
X170862500Y-90837500D02*
X170862500Y-91737500D01*
G75*
G02*
X170612500Y-91987500I-250000J0D01*
G01*
X169912500Y-91987500D01*
G75*
G02*
X169662500Y-91737500I0J250000D01*
G01*
X169662500Y-90837500D01*
G75*
G02*
X169912500Y-90587500I250000J0D01*
G01*
X170612500Y-90587500D01*
G75*
G02*
X170862500Y-90837500I0J-250000D01*
G01*
G37*
G36*
G01*
X180980000Y-121312500D02*
X180080000Y-121312500D01*
G75*
G02*
X179830000Y-121062500I0J250000D01*
G01*
X179830000Y-120362500D01*
G75*
G02*
X180080000Y-120112500I250000J0D01*
G01*
X180980000Y-120112500D01*
G75*
G02*
X181230000Y-120362500I0J-250000D01*
G01*
X181230000Y-121062500D01*
G75*
G02*
X180980000Y-121312500I-250000J0D01*
G01*
G37*
G36*
G01*
X180980000Y-119312500D02*
X180080000Y-119312500D01*
G75*
G02*
X179830000Y-119062500I0J250000D01*
G01*
X179830000Y-118362500D01*
G75*
G02*
X180080000Y-118112500I250000J0D01*
G01*
X180980000Y-118112500D01*
G75*
G02*
X181230000Y-118362500I0J-250000D01*
G01*
X181230000Y-119062500D01*
G75*
G02*
X180980000Y-119312500I-250000J0D01*
G01*
G37*
G36*
G01*
X195062500Y-65437500D02*
X195962500Y-65437500D01*
G75*
G02*
X196212500Y-65687500I0J-250000D01*
G01*
X196212500Y-66387500D01*
G75*
G02*
X195962500Y-66637500I-250000J0D01*
G01*
X195062500Y-66637500D01*
G75*
G02*
X194812500Y-66387500I0J250000D01*
G01*
X194812500Y-65687500D01*
G75*
G02*
X195062500Y-65437500I250000J0D01*
G01*
G37*
G36*
G01*
X195062500Y-67437500D02*
X195962500Y-67437500D01*
G75*
G02*
X196212500Y-67687500I0J-250000D01*
G01*
X196212500Y-68387500D01*
G75*
G02*
X195962500Y-68637500I-250000J0D01*
G01*
X195062500Y-68637500D01*
G75*
G02*
X194812500Y-68387500I0J250000D01*
G01*
X194812500Y-67687500D01*
G75*
G02*
X195062500Y-67437500I250000J0D01*
G01*
G37*
M02*
