G04 #@! TF.GenerationSoftware,KiCad,Pcbnew,6.0.11+dfsg-1*
G04 #@! TF.ProjectId,project,70726f6a-6563-4742-9e6b-696361645f70,rev?*
G04 #@! TF.SameCoordinates,Original*
G04 #@! TF.FileFunction,Soldermask,Bot*
G04 #@! TF.FilePolarity,Negative*
%FSLAX46Y46*%
G04 Gerber Fmt 4.6, Leading zero omitted, Abs format (unit mm)*
%MOMM*%
%LPD*%
G01*
G04 APERTURE LIST*
G04 #@! TA.AperFunction,Profile*
%ADD10C,0.100000*%
G04 #@! TD*
%ADD11C,1.552000*%
%ADD12R,1.850000X1.850000*%
%ADD13C,1.850000*%
%ADD14O,1.800000X3.600000*%
G04 APERTURE END LIST*
D10*
X125512500Y-133037500D02*
G75*
G03*
X126512500Y-134037500I1000000J0D01*
G01*
X211012500Y-49037500D02*
X211012500Y-133037500D01*
X210012500Y-134037500D02*
X126512500Y-134037500D01*
X126512500Y-48037500D02*
X210012500Y-48037500D01*
X210012500Y-134037500D02*
G75*
G03*
X211012500Y-133037500I0J1000000D01*
G01*
X211012500Y-49037500D02*
G75*
G03*
X210012500Y-48037500I-1000000J0D01*
G01*
X126512500Y-48037500D02*
G75*
G03*
X125512500Y-49037500I0J-1000000D01*
G01*
X125512500Y-133037500D02*
X125512500Y-49037500D01*
D11*
X128262500Y-130037500D03*
D12*
X146152500Y-91737500D03*
D13*
X143612500Y-91737500D03*
X141072500Y-91737500D03*
X135992500Y-91737500D03*
X133452500Y-91737500D03*
X130912500Y-91737500D03*
X128372500Y-91737500D03*
D11*
X207262500Y-107037500D03*
X208262500Y-52037500D03*
G36*
G01*
X150112500Y-56087500D02*
X150112500Y-52987500D01*
G75*
G02*
X150362500Y-52737500I250000J0D01*
G01*
X151662500Y-52737500D01*
G75*
G02*
X151912500Y-52987500I0J-250000D01*
G01*
X151912500Y-56087500D01*
G75*
G02*
X151662500Y-56337500I-250000J0D01*
G01*
X150362500Y-56337500D01*
G75*
G02*
X150112500Y-56087500I0J250000D01*
G01*
G37*
D14*
X154512500Y-54537500D03*
X158012500Y-54537500D03*
X161512500Y-54537500D03*
X165012500Y-54537500D03*
G36*
G01*
X145412500Y-125987500D02*
X145412500Y-129087500D01*
G75*
G02*
X145162500Y-129337500I-250000J0D01*
G01*
X143862500Y-129337500D01*
G75*
G02*
X143612500Y-129087500I0J250000D01*
G01*
X143612500Y-125987500D01*
G75*
G02*
X143862500Y-125737500I250000J0D01*
G01*
X145162500Y-125737500D01*
G75*
G02*
X145412500Y-125987500I0J-250000D01*
G01*
G37*
X141012500Y-127537500D03*
X137512500Y-127537500D03*
X134012500Y-127537500D03*
X130512500Y-127537500D03*
G36*
G01*
X191112500Y-56087500D02*
X191112500Y-52987500D01*
G75*
G02*
X191362500Y-52737500I250000J0D01*
G01*
X192662500Y-52737500D01*
G75*
G02*
X192912500Y-52987500I0J-250000D01*
G01*
X192912500Y-56087500D01*
G75*
G02*
X192662500Y-56337500I-250000J0D01*
G01*
X191362500Y-56337500D01*
G75*
G02*
X191112500Y-56087500I0J250000D01*
G01*
G37*
X195512500Y-54537500D03*
X199012500Y-54537500D03*
X202512500Y-54537500D03*
X206012500Y-54537500D03*
G36*
G01*
X129612500Y-56087500D02*
X129612500Y-52987500D01*
G75*
G02*
X129862500Y-52737500I250000J0D01*
G01*
X131162500Y-52737500D01*
G75*
G02*
X131412500Y-52987500I0J-250000D01*
G01*
X131412500Y-56087500D01*
G75*
G02*
X131162500Y-56337500I-250000J0D01*
G01*
X129862500Y-56337500D01*
G75*
G02*
X129612500Y-56087500I0J250000D01*
G01*
G37*
X134012500Y-54537500D03*
X137512500Y-54537500D03*
X141012500Y-54537500D03*
X144512500Y-54537500D03*
G36*
G01*
X206912500Y-125987500D02*
X206912500Y-129087500D01*
G75*
G02*
X206662500Y-129337500I-250000J0D01*
G01*
X205362500Y-129337500D01*
G75*
G02*
X205112500Y-129087500I0J250000D01*
G01*
X205112500Y-125987500D01*
G75*
G02*
X205362500Y-125737500I250000J0D01*
G01*
X206662500Y-125737500D01*
G75*
G02*
X206912500Y-125987500I0J-250000D01*
G01*
G37*
X202512500Y-127537500D03*
X199012500Y-127537500D03*
X195512500Y-127537500D03*
X192012500Y-127537500D03*
G36*
G01*
X170612500Y-56087500D02*
X170612500Y-52987500D01*
G75*
G02*
X170862500Y-52737500I250000J0D01*
G01*
X172162500Y-52737500D01*
G75*
G02*
X172412500Y-52987500I0J-250000D01*
G01*
X172412500Y-56087500D01*
G75*
G02*
X172162500Y-56337500I-250000J0D01*
G01*
X170862500Y-56337500D01*
G75*
G02*
X170612500Y-56087500I0J250000D01*
G01*
G37*
X175012500Y-54537500D03*
X178512500Y-54537500D03*
X182012500Y-54537500D03*
X185512500Y-54537500D03*
G36*
G01*
X165912500Y-125987500D02*
X165912500Y-129087500D01*
G75*
G02*
X165662500Y-129337500I-250000J0D01*
G01*
X164362500Y-129337500D01*
G75*
G02*
X164112500Y-129087500I0J250000D01*
G01*
X164112500Y-125987500D01*
G75*
G02*
X164362500Y-125737500I250000J0D01*
G01*
X165662500Y-125737500D01*
G75*
G02*
X165912500Y-125987500I0J-250000D01*
G01*
G37*
X161512500Y-127537500D03*
X158012500Y-127537500D03*
X154512500Y-127537500D03*
X151012500Y-127537500D03*
G36*
G01*
X186412500Y-125987500D02*
X186412500Y-129087500D01*
G75*
G02*
X186162500Y-129337500I-250000J0D01*
G01*
X184862500Y-129337500D01*
G75*
G02*
X184612500Y-129087500I0J250000D01*
G01*
X184612500Y-125987500D01*
G75*
G02*
X184862500Y-125737500I250000J0D01*
G01*
X186162500Y-125737500D01*
G75*
G02*
X186412500Y-125987500I0J-250000D01*
G01*
G37*
X182012500Y-127537500D03*
X178512500Y-127537500D03*
X175012500Y-127537500D03*
X171512500Y-127537500D03*
M02*
