G04 #@! TF.GenerationSoftware,KiCad,Pcbnew,6.0.10+dfsg-1~bpo11+1*
G04 #@! TF.ProjectId,project,70726f6a-6563-4742-9e6b-696361645f70,rev?*
G04 #@! TF.SameCoordinates,Original*
G04 #@! TF.FileFunction,Copper,L2,Bot*
G04 #@! TF.FilePolarity,Positive*
%FSLAX46Y46*%
G04 Gerber Fmt 4.6, Leading zero omitted, Abs format (unit mm)*
%MOMM*%
%LPD*%
G01*
G04 APERTURE LIST*
G04 #@! TA.AperFunction,Profile*
%ADD10C,0.100000*%
G04 #@! TD*
G04 #@! TA.AperFunction,ComponentPad*
%ADD11R,1.850000X1.850000*%
G04 #@! TD*
G04 #@! TA.AperFunction,ComponentPad*
%ADD12C,1.850000*%
G04 #@! TD*
G04 #@! TA.AperFunction,ComponentPad*
%ADD13O,1.800000X3.600000*%
G04 #@! TD*
G04 #@! TA.AperFunction,ViaPad*
%ADD14C,0.500000*%
G04 #@! TD*
G04 #@! TA.AperFunction,Conductor*
%ADD15C,0.300000*%
G04 #@! TD*
G04 #@! TA.AperFunction,Conductor*
%ADD16C,0.500000*%
G04 #@! TD*
G04 #@! TA.AperFunction,Conductor*
%ADD17C,1.000000*%
G04 #@! TD*
G04 #@! TA.AperFunction,Conductor*
%ADD18C,2.000000*%
G04 #@! TD*
G04 #@! TA.AperFunction,Conductor*
%ADD19C,1.500000*%
G04 #@! TD*
G04 APERTURE END LIST*
D10*
X125512500Y-133037500D02*
G75*
G03*
X126512500Y-134037500I1000000J0D01*
G01*
X211012500Y-49037500D02*
X211012500Y-133037500D01*
X210012500Y-134037500D02*
X126512500Y-134037500D01*
X126512500Y-48037500D02*
X210012500Y-48037500D01*
X210012500Y-134037500D02*
G75*
G03*
X211012500Y-133037500I0J1000000D01*
G01*
X211012500Y-49037500D02*
G75*
G03*
X210012500Y-48037500I-1000000J0D01*
G01*
X126512500Y-48037500D02*
G75*
G03*
X125512500Y-49037500I0J-1000000D01*
G01*
X125512500Y-133037500D02*
X125512500Y-49037500D01*
D11*
X146152500Y-91737500D03*
D12*
X143612500Y-91737500D03*
X141072500Y-91737500D03*
X135992500Y-91737500D03*
X133452500Y-91737500D03*
X130912500Y-91737500D03*
X128372500Y-91737500D03*
G04 #@! TA.AperFunction,ComponentPad*
G36*
G01*
X150112500Y-56087500D02*
X150112500Y-52987500D01*
G75*
G02*
X150362500Y-52737500I250000J0D01*
G01*
X151662500Y-52737500D01*
G75*
G02*
X151912500Y-52987500I0J-250000D01*
G01*
X151912500Y-56087500D01*
G75*
G02*
X151662500Y-56337500I-250000J0D01*
G01*
X150362500Y-56337500D01*
G75*
G02*
X150112500Y-56087500I0J250000D01*
G01*
G37*
G04 #@! TD.AperFunction*
D13*
X154512500Y-54537500D03*
X158012500Y-54537500D03*
X161512500Y-54537500D03*
X165012500Y-54537500D03*
G04 #@! TA.AperFunction,ComponentPad*
G36*
G01*
X145412500Y-125987500D02*
X145412500Y-129087500D01*
G75*
G02*
X145162500Y-129337500I-250000J0D01*
G01*
X143862500Y-129337500D01*
G75*
G02*
X143612500Y-129087500I0J250000D01*
G01*
X143612500Y-125987500D01*
G75*
G02*
X143862500Y-125737500I250000J0D01*
G01*
X145162500Y-125737500D01*
G75*
G02*
X145412500Y-125987500I0J-250000D01*
G01*
G37*
G04 #@! TD.AperFunction*
X141012500Y-127537500D03*
X137512500Y-127537500D03*
X134012500Y-127537500D03*
X130512500Y-127537500D03*
G04 #@! TA.AperFunction,ComponentPad*
G36*
G01*
X191112500Y-56087500D02*
X191112500Y-52987500D01*
G75*
G02*
X191362500Y-52737500I250000J0D01*
G01*
X192662500Y-52737500D01*
G75*
G02*
X192912500Y-52987500I0J-250000D01*
G01*
X192912500Y-56087500D01*
G75*
G02*
X192662500Y-56337500I-250000J0D01*
G01*
X191362500Y-56337500D01*
G75*
G02*
X191112500Y-56087500I0J250000D01*
G01*
G37*
G04 #@! TD.AperFunction*
X195512500Y-54537500D03*
X199012500Y-54537500D03*
X202512500Y-54537500D03*
X206012500Y-54537500D03*
G04 #@! TA.AperFunction,ComponentPad*
G36*
G01*
X129612500Y-56087500D02*
X129612500Y-52987500D01*
G75*
G02*
X129862500Y-52737500I250000J0D01*
G01*
X131162500Y-52737500D01*
G75*
G02*
X131412500Y-52987500I0J-250000D01*
G01*
X131412500Y-56087500D01*
G75*
G02*
X131162500Y-56337500I-250000J0D01*
G01*
X129862500Y-56337500D01*
G75*
G02*
X129612500Y-56087500I0J250000D01*
G01*
G37*
G04 #@! TD.AperFunction*
X134012500Y-54537500D03*
X137512500Y-54537500D03*
X141012500Y-54537500D03*
X144512500Y-54537500D03*
G04 #@! TA.AperFunction,ComponentPad*
G36*
G01*
X206912500Y-125987500D02*
X206912500Y-129087500D01*
G75*
G02*
X206662500Y-129337500I-250000J0D01*
G01*
X205362500Y-129337500D01*
G75*
G02*
X205112500Y-129087500I0J250000D01*
G01*
X205112500Y-125987500D01*
G75*
G02*
X205362500Y-125737500I250000J0D01*
G01*
X206662500Y-125737500D01*
G75*
G02*
X206912500Y-125987500I0J-250000D01*
G01*
G37*
G04 #@! TD.AperFunction*
X202512500Y-127537500D03*
X199012500Y-127537500D03*
X195512500Y-127537500D03*
X192012500Y-127537500D03*
G04 #@! TA.AperFunction,ComponentPad*
G36*
G01*
X170612500Y-56087500D02*
X170612500Y-52987500D01*
G75*
G02*
X170862500Y-52737500I250000J0D01*
G01*
X172162500Y-52737500D01*
G75*
G02*
X172412500Y-52987500I0J-250000D01*
G01*
X172412500Y-56087500D01*
G75*
G02*
X172162500Y-56337500I-250000J0D01*
G01*
X170862500Y-56337500D01*
G75*
G02*
X170612500Y-56087500I0J250000D01*
G01*
G37*
G04 #@! TD.AperFunction*
X175012500Y-54537500D03*
X178512500Y-54537500D03*
X182012500Y-54537500D03*
X185512500Y-54537500D03*
G04 #@! TA.AperFunction,ComponentPad*
G36*
G01*
X165912500Y-125987500D02*
X165912500Y-129087500D01*
G75*
G02*
X165662500Y-129337500I-250000J0D01*
G01*
X164362500Y-129337500D01*
G75*
G02*
X164112500Y-129087500I0J250000D01*
G01*
X164112500Y-125987500D01*
G75*
G02*
X164362500Y-125737500I250000J0D01*
G01*
X165662500Y-125737500D01*
G75*
G02*
X165912500Y-125987500I0J-250000D01*
G01*
G37*
G04 #@! TD.AperFunction*
X161512500Y-127537500D03*
X158012500Y-127537500D03*
X154512500Y-127537500D03*
X151012500Y-127537500D03*
G04 #@! TA.AperFunction,ComponentPad*
G36*
G01*
X186412500Y-125987500D02*
X186412500Y-129087500D01*
G75*
G02*
X186162500Y-129337500I-250000J0D01*
G01*
X184862500Y-129337500D01*
G75*
G02*
X184612500Y-129087500I0J250000D01*
G01*
X184612500Y-125987500D01*
G75*
G02*
X184862500Y-125737500I250000J0D01*
G01*
X186162500Y-125737500D01*
G75*
G02*
X186412500Y-125987500I0J-250000D01*
G01*
G37*
G04 #@! TD.AperFunction*
X182012500Y-127537500D03*
X178512500Y-127537500D03*
X175012500Y-127537500D03*
X171512500Y-127537500D03*
D14*
X186762500Y-100037500D03*
X171512500Y-90537500D03*
X148262500Y-77537500D03*
X190262500Y-77037500D03*
X194762500Y-90037500D03*
X170012500Y-96037500D03*
X203762500Y-93037500D03*
X182262500Y-81037500D03*
X172512500Y-90537500D03*
X185262500Y-100537500D03*
X193062500Y-84437500D03*
X196762500Y-88037500D03*
X185762500Y-98037500D03*
X179852500Y-82947500D03*
X171012500Y-88787500D03*
X179262500Y-87037500D03*
X202762500Y-100537500D03*
X149162500Y-92537500D03*
X145262500Y-103537500D03*
X206762500Y-100537500D03*
X202762500Y-88037500D03*
X167262500Y-89287500D03*
X151762500Y-85287500D03*
X133622500Y-99177500D03*
X206762500Y-94537500D03*
X184762500Y-97537500D03*
X190762500Y-103037500D03*
X136172500Y-99127500D03*
X145262500Y-101037500D03*
X182762500Y-104537500D03*
X165762500Y-79037500D03*
X149162500Y-91137500D03*
X154122500Y-99177500D03*
X200212500Y-99087500D03*
X165762500Y-89287500D03*
X188012500Y-96787500D03*
X177172500Y-99127500D03*
X176512500Y-90537500D03*
X138189188Y-98957736D03*
X142762500Y-105037500D03*
X167762500Y-103037500D03*
X170262500Y-82537500D03*
X168762500Y-79037500D03*
X206762500Y-102037500D03*
X193762500Y-101037500D03*
X201262500Y-88037500D03*
X166512500Y-89287500D03*
X203762500Y-88537500D03*
X167762500Y-94537500D03*
X206762500Y-97537500D03*
X136312500Y-82987500D03*
X162762500Y-79037500D03*
X164762500Y-94537500D03*
X189762500Y-79037500D03*
X191762500Y-84037500D03*
X188262500Y-104537500D03*
X158762500Y-103037500D03*
X145262500Y-98037500D03*
X205762500Y-103037500D03*
X170012500Y-88787500D03*
X184762500Y-105037500D03*
X163262500Y-99537500D03*
X164432500Y-82867500D03*
X200352500Y-82947500D03*
X143762500Y-103537500D03*
X206762500Y-80037500D03*
X189262500Y-77537500D03*
X139262500Y-88537500D03*
X152762500Y-103037500D03*
X197812500Y-82987500D03*
X167262500Y-86787500D03*
X147512500Y-92287500D03*
X199762500Y-103037500D03*
X185262500Y-79037500D03*
X150862500Y-92537500D03*
X150262500Y-77037500D03*
X167762500Y-99537500D03*
X145262500Y-93037500D03*
X196762500Y-103037500D03*
X203762500Y-94537500D03*
X174762500Y-79037500D03*
X133262500Y-103037500D03*
X192762500Y-80037500D03*
X206762500Y-96037500D03*
X169262500Y-103037500D03*
X158262500Y-79037500D03*
X202902500Y-82897500D03*
X135262500Y-83037500D03*
X193751586Y-81683938D03*
X161262500Y-81037500D03*
X185762500Y-101537500D03*
X206762500Y-91537500D03*
X176262500Y-87787500D03*
X130762500Y-103037500D03*
X151762500Y-87537500D03*
X203762500Y-100537500D03*
X206762500Y-93037500D03*
X142762500Y-79037500D03*
X164262500Y-81037500D03*
X179262500Y-81037500D03*
X172262500Y-103037500D03*
X186262500Y-105037500D03*
X146012500Y-93037500D03*
X140762500Y-103537500D03*
X189262500Y-103537500D03*
X174622500Y-99177500D03*
X156962500Y-91137500D03*
X203762500Y-91537500D03*
X135262500Y-84537500D03*
X136762500Y-79037500D03*
X151012500Y-86787500D03*
X144262500Y-79037500D03*
X193762500Y-77037500D03*
X152762500Y-101037500D03*
X172012500Y-88787500D03*
X129762500Y-102037500D03*
X175262500Y-103037500D03*
X147262500Y-95037500D03*
X135262500Y-81037500D03*
X169012500Y-88787500D03*
X142512500Y-101287500D03*
X199762500Y-88037500D03*
X188262500Y-95537500D03*
X155762500Y-103037500D03*
X153762500Y-77537500D03*
X170512500Y-90537500D03*
X173262500Y-82537500D03*
X178262500Y-103037500D03*
X196762500Y-101037500D03*
X141762500Y-96537500D03*
X176762500Y-101037500D03*
X144762500Y-99537500D03*
X205432500Y-82867500D03*
X185562500Y-89137500D03*
X190262500Y-87037500D03*
X140562500Y-101237500D03*
X152766198Y-81838733D03*
X131092500Y-99207500D03*
X187262500Y-105037500D03*
X186762500Y-99037500D03*
X170762500Y-103037500D03*
X175262500Y-101037500D03*
X145262500Y-96537500D03*
X186262500Y-95537500D03*
X169512500Y-90537500D03*
X147512500Y-91537500D03*
X183787000Y-100537500D03*
X147762500Y-96787500D03*
X161762500Y-103037500D03*
X179262500Y-79037500D03*
X182402500Y-82897500D03*
X151262500Y-101037500D03*
X193562500Y-85837500D03*
X171762500Y-79037500D03*
X147012500Y-96787500D03*
X201262500Y-81037500D03*
X164262500Y-79037500D03*
X161762500Y-94537500D03*
X170262500Y-79037500D03*
X135262500Y-79037500D03*
X158562500Y-92537500D03*
X151762500Y-84037500D03*
X139762500Y-92537500D03*
X138262500Y-79037500D03*
X185262500Y-81037500D03*
X143932500Y-82867500D03*
X150862500Y-91137500D03*
X178512500Y-90537500D03*
X192262500Y-101037500D03*
X156672500Y-99127500D03*
X173262500Y-93537500D03*
X141402500Y-82897500D03*
X199762500Y-101037500D03*
X148762500Y-86787500D03*
X174762500Y-86787500D03*
X155762500Y-101037500D03*
X174762500Y-82537500D03*
X150762500Y-84537500D03*
X134762500Y-103037500D03*
X168762500Y-86787500D03*
X206762500Y-88537500D03*
X191662500Y-86437500D03*
X183762500Y-79037500D03*
X179262500Y-99037500D03*
X191262500Y-81037500D03*
X186262500Y-97037500D03*
X189062500Y-86637500D03*
X201262500Y-101037500D03*
X138262500Y-87537500D03*
X168762500Y-85037500D03*
X198262500Y-79037500D03*
X181262500Y-89287500D03*
X168762500Y-97287500D03*
X164762500Y-103037500D03*
X151462500Y-82037500D03*
X136262500Y-103037500D03*
X163262500Y-103037500D03*
X179012500Y-88787500D03*
X152762500Y-77037500D03*
X204262500Y-103037500D03*
X182762500Y-89287500D03*
X204262500Y-79037500D03*
X134262500Y-80037500D03*
X156812500Y-82987500D03*
X195262500Y-103037500D03*
X152512500Y-86037500D03*
X184932500Y-82867500D03*
X197062500Y-89637500D03*
X161262500Y-79037500D03*
X188262500Y-78537500D03*
X206762500Y-85537500D03*
X198262500Y-103037500D03*
X145262500Y-105037500D03*
X179512500Y-90537500D03*
X176262500Y-81037500D03*
X148762500Y-78537500D03*
X176262500Y-79037500D03*
X159212500Y-99087500D03*
X183962500Y-89137500D03*
X150562500Y-82837500D03*
X152562500Y-83137500D03*
X177762500Y-79037500D03*
X139762500Y-81037500D03*
X177312500Y-82987500D03*
X198262500Y-88037500D03*
X166262500Y-103037500D03*
X187762500Y-103037500D03*
X151592500Y-99207500D03*
X150262500Y-88287500D03*
X184762500Y-102037500D03*
X168762500Y-82537500D03*
X137262500Y-86537500D03*
X148262500Y-103537500D03*
X177762500Y-81037500D03*
X170762500Y-101037500D03*
X191262500Y-77037500D03*
X192592500Y-99207500D03*
X150762500Y-80037500D03*
X144262500Y-81037500D03*
X166262500Y-99537500D03*
X178012500Y-88787500D03*
X158762500Y-95537500D03*
X200262500Y-91337500D03*
X146262500Y-102537500D03*
X202762500Y-103037500D03*
X190262500Y-85037500D03*
X166262500Y-86787500D03*
X186762500Y-79037500D03*
X199762500Y-79037500D03*
X179762500Y-103037500D03*
X134262500Y-83537500D03*
X158762500Y-101037500D03*
X154262500Y-103037500D03*
X138852500Y-82947500D03*
X189512500Y-85287500D03*
X192262500Y-103037500D03*
X172262500Y-101037500D03*
X195122500Y-99177500D03*
X206762500Y-99037500D03*
X202762500Y-99037500D03*
X139762500Y-79037500D03*
X173262500Y-86787500D03*
X142762500Y-81037500D03*
X184762500Y-96037500D03*
X184262500Y-99537500D03*
X139762500Y-89537500D03*
X145762500Y-79037500D03*
X156962500Y-92537500D03*
X156762500Y-79037500D03*
X206762500Y-87037500D03*
X177012500Y-88787500D03*
X170262500Y-86787500D03*
X177512500Y-90537500D03*
X143762500Y-96537500D03*
X201262500Y-103037500D03*
X137762500Y-103037500D03*
X151262500Y-103037500D03*
X141262500Y-79037500D03*
X148512500Y-85287500D03*
X170262500Y-85037500D03*
X146262500Y-105037500D03*
X202762500Y-79037500D03*
X162962500Y-89137500D03*
X183762500Y-105037500D03*
X164762500Y-99537500D03*
X149512500Y-87537500D03*
X188762500Y-96787500D03*
X202762500Y-81037500D03*
X146762500Y-93037500D03*
X138262500Y-81037500D03*
X203762500Y-96037500D03*
X201262500Y-79037500D03*
X190262500Y-91537500D03*
X154262500Y-101037500D03*
X139762500Y-91037500D03*
X203762500Y-97537500D03*
X153512500Y-87037500D03*
X172092500Y-99207500D03*
X173762500Y-103037500D03*
X147512500Y-93037500D03*
X164562500Y-89137500D03*
X194762500Y-91537500D03*
X192762500Y-83037500D03*
X167262500Y-79037500D03*
X197962500Y-89637500D03*
X198262500Y-101037500D03*
X161762500Y-99537500D03*
X173762500Y-101037500D03*
X149262500Y-77037500D03*
X162762500Y-81037500D03*
X192762500Y-77037500D03*
X157262500Y-101037500D03*
X141262500Y-81037500D03*
X161902500Y-82897500D03*
X205762500Y-79037500D03*
X139262500Y-103037500D03*
X199762500Y-81037500D03*
X173262500Y-79037500D03*
X143762500Y-105037500D03*
X157262500Y-103037500D03*
X183762500Y-81037500D03*
X147762500Y-85287500D03*
X150262500Y-86037500D03*
X168012500Y-89287500D03*
X180762500Y-81037500D03*
X180762500Y-87037500D03*
X147262500Y-78537500D03*
X147262500Y-104537500D03*
X147512500Y-90787500D03*
X151762500Y-80037500D03*
X195262500Y-101037500D03*
X160262500Y-103037500D03*
X131762500Y-103037500D03*
X188762500Y-85287500D03*
X175762500Y-93537500D03*
X180012500Y-88787500D03*
X182262500Y-79037500D03*
X159352500Y-82947500D03*
X203762500Y-99037500D03*
X143762500Y-98037500D03*
X136762500Y-81037500D03*
X206762500Y-90037500D03*
X139762500Y-94037500D03*
X180762500Y-79037500D03*
X165762500Y-81037500D03*
X182762500Y-95537500D03*
X193762500Y-103037500D03*
X159762500Y-81037500D03*
X194762500Y-77537500D03*
X159762500Y-79037500D03*
X149762500Y-103037500D03*
X203762500Y-90037500D03*
X190762500Y-82537500D03*
X141762500Y-104537500D03*
X151762500Y-77037500D03*
X197672500Y-99127500D03*
X176762500Y-103037500D03*
X171762500Y-82537500D03*
X158562500Y-91137500D03*
X182012500Y-89287500D03*
X156662000Y-84396653D03*
X161362500Y-84337500D03*
X193062500Y-97737500D03*
X144262500Y-101037500D03*
X138863000Y-97678347D03*
X131653586Y-97839297D03*
X151462500Y-82937500D03*
X169262500Y-96537500D03*
X185262500Y-99537500D03*
X140862500Y-84337500D03*
X136753586Y-97839297D03*
X199771414Y-84235703D03*
X181235211Y-101062000D03*
X175209614Y-97898799D03*
X177753586Y-97839297D03*
X196162500Y-80863000D03*
X179271414Y-84235703D03*
X172653586Y-97839297D03*
X200864655Y-97977910D03*
X158818839Y-84340035D03*
X143462500Y-84337500D03*
X134209614Y-97898799D03*
X154709614Y-97898799D03*
X176771414Y-84235703D03*
X137008235Y-85393471D03*
X155131152Y-80863000D03*
X202262500Y-85937500D03*
X191762500Y-82737500D03*
X197662000Y-84396653D03*
X166762500Y-84037500D03*
X181871414Y-84235703D03*
X195662500Y-97837500D03*
X179863000Y-97678347D03*
X184407996Y-84315878D03*
X159631495Y-97751555D03*
X140262500Y-102037500D03*
X198253586Y-97839297D03*
X157253586Y-97839297D03*
X202316574Y-84177641D03*
X163907996Y-84315878D03*
X152069914Y-97774346D03*
X169962500Y-97837500D03*
X138307996Y-84315878D03*
X192397168Y-113902832D03*
X200833000Y-113837500D03*
X187012500Y-69287500D03*
X174227832Y-112772168D03*
X166512500Y-69287500D03*
X184662500Y-113637500D03*
X180333000Y-113837500D03*
X133162000Y-69137500D03*
X155533000Y-113952832D03*
X182863000Y-112937500D03*
X170012500Y-112787500D03*
X153727832Y-112772168D03*
X158062500Y-112837500D03*
X203297168Y-69302832D03*
X135033000Y-113952832D03*
X201492000Y-68122168D03*
X180992000Y-68122168D03*
X162363000Y-112937500D03*
X130897168Y-113902832D03*
X171897168Y-113902832D03*
X178462500Y-69237500D03*
X205627832Y-68172168D03*
X205162500Y-113637500D03*
X146012500Y-69287500D03*
X144127832Y-68172168D03*
X160492000Y-68122168D03*
X132762500Y-75537500D03*
X141863000Y-112937500D03*
X203363000Y-112937500D03*
X182797168Y-69302832D03*
X197192000Y-68237500D03*
X164627832Y-68172168D03*
X141797168Y-69302832D03*
X149512500Y-112787500D03*
X178562500Y-112837500D03*
X162297168Y-69302832D03*
X151397168Y-113902832D03*
X137562500Y-112837500D03*
X151862500Y-68437500D03*
X129012500Y-112787500D03*
X137462500Y-69237500D03*
X174162000Y-69137500D03*
X172362500Y-68437500D03*
X131362500Y-68437500D03*
X198962500Y-69237500D03*
X192862500Y-68437500D03*
X159833000Y-113837500D03*
X153662000Y-69137500D03*
X139992000Y-68122168D03*
X199062500Y-112837500D03*
X176692000Y-68237500D03*
X133227832Y-112772168D03*
X157962500Y-69237500D03*
X196533000Y-113952832D03*
X176033000Y-113952832D03*
X194727832Y-112772168D03*
X185127832Y-68172168D03*
X194662000Y-69137500D03*
X164162500Y-113637500D03*
X135692000Y-68237500D03*
X130762500Y-72037500D03*
X139333000Y-113837500D03*
X156192000Y-68237500D03*
X190563000Y-112787500D03*
X143662500Y-113637500D03*
X146262500Y-115287500D03*
X187262500Y-116037500D03*
X190262500Y-66787500D03*
X187262500Y-115287500D03*
X128762500Y-66037500D03*
X169762500Y-66787500D03*
X190262500Y-66037500D03*
X128762500Y-72287500D03*
X149262500Y-66037500D03*
X166762500Y-116037500D03*
X146262500Y-116037500D03*
X169762500Y-66037500D03*
X166762500Y-115287500D03*
X149262500Y-66787500D03*
X128762500Y-70287500D03*
X207762500Y-115287500D03*
X207762500Y-116037500D03*
X175062500Y-119937500D03*
X173262500Y-109337000D03*
X179362500Y-119937500D03*
X176762500Y-109337000D03*
X180162500Y-109337500D03*
X183662500Y-119937500D03*
X193762500Y-109337000D03*
X195562500Y-119937500D03*
X197262500Y-109337000D03*
X199862500Y-119937500D03*
X200662500Y-109337500D03*
X204162500Y-119937500D03*
X149713971Y-80037000D03*
X205762500Y-86537500D03*
X149738589Y-78813589D03*
X174512500Y-90787500D03*
X174262500Y-87787500D03*
X204462003Y-81037500D03*
X203762500Y-81037500D03*
X175287500Y-88312500D03*
X175512500Y-90787500D03*
X205262500Y-87037500D03*
X194962500Y-85137500D03*
X190962500Y-85937500D03*
X173512500Y-90787500D03*
X154062500Y-85237500D03*
X171162500Y-85937500D03*
X154539805Y-86460195D03*
X169697325Y-109298201D03*
X170762500Y-120137500D03*
X191262500Y-120137500D03*
X190197325Y-109298201D03*
X187327675Y-73202675D03*
X186262500Y-61937500D03*
X181962500Y-62137500D03*
X183672500Y-73247500D03*
X180262500Y-73337500D03*
X177662500Y-62137500D03*
X176862500Y-73287500D03*
X173362500Y-62137500D03*
X150262500Y-120137500D03*
X149197325Y-109298201D03*
X154562500Y-119937500D03*
X152762500Y-109337000D03*
X156262500Y-109337000D03*
X158862500Y-119937500D03*
X163162500Y-119937500D03*
X159662500Y-109337500D03*
X207827675Y-73202675D03*
X206762500Y-61937500D03*
X204172500Y-73347500D03*
X202462500Y-62137500D03*
X198162500Y-62137500D03*
X200762500Y-73337500D03*
X193862500Y-62137500D03*
X197362500Y-73287500D03*
X128697325Y-109298201D03*
X129762500Y-120137500D03*
X134062500Y-119937500D03*
X132262500Y-109337000D03*
X138362500Y-119937500D03*
X135762500Y-109337000D03*
X166827675Y-73272325D03*
X165762500Y-61937500D03*
X163172500Y-73147500D03*
X161462500Y-62137500D03*
X159762500Y-73337500D03*
X157162500Y-62137500D03*
X152862500Y-62137500D03*
X156312500Y-73187500D03*
X145262500Y-61937500D03*
X146327675Y-73202675D03*
X140962500Y-62137500D03*
X142672500Y-73147500D03*
X136662500Y-62137500D03*
X139412500Y-73287500D03*
X135862500Y-73337500D03*
X132362500Y-62137500D03*
X142662500Y-119937500D03*
X139162500Y-109337500D03*
X185462500Y-96637500D03*
X182600000Y-96875000D03*
D15*
X166484122Y-84315878D02*
X166762500Y-84037500D01*
X200724245Y-97837500D02*
X200864655Y-97977910D01*
X184407996Y-84315878D02*
X184327821Y-84235703D01*
X138863000Y-100638000D02*
X140262500Y-102037500D01*
X202262500Y-84235703D02*
X197822950Y-84235703D01*
X163907996Y-84315878D02*
X166484122Y-84315878D01*
X138863000Y-97678347D02*
X138863000Y-100638000D01*
X179863000Y-99689789D02*
X179863000Y-97678347D01*
X137008235Y-85393471D02*
X138064206Y-84337500D01*
X152069914Y-97774346D02*
X152134865Y-97839297D01*
X151462500Y-82937500D02*
X150062500Y-84337500D01*
X196162500Y-82897153D02*
X196162500Y-80863000D01*
X184407996Y-84315878D02*
X190184122Y-84315878D01*
X163886374Y-84337500D02*
X156721153Y-84337500D01*
X172653586Y-97839297D02*
X169964297Y-97839297D01*
X138064206Y-84337500D02*
X143462500Y-84337500D01*
X159543753Y-97839297D02*
X159631495Y-97751555D01*
X138702050Y-97839297D02*
X138863000Y-97678347D01*
X156721153Y-84337500D02*
X156662000Y-84396653D01*
X152069914Y-97774346D02*
X147525654Y-97774346D01*
X155131152Y-82865805D02*
X155131152Y-80863000D01*
X169962500Y-97237500D02*
X169262500Y-96537500D01*
X131653586Y-97839297D02*
X138702050Y-97839297D01*
X169962500Y-97837500D02*
X169962500Y-97237500D01*
X202262500Y-85937500D02*
X202262500Y-84235703D01*
X163907996Y-84315878D02*
X163886374Y-84337500D01*
X193062500Y-97737500D02*
X193162500Y-97837500D01*
X197662000Y-84396653D02*
X196162500Y-82897153D01*
X193162500Y-97837500D02*
X200724245Y-97837500D01*
X184327821Y-84235703D02*
X176771414Y-84235703D01*
X150062500Y-84337500D02*
X143462500Y-84337500D01*
X193062500Y-97737500D02*
X187062500Y-97737500D01*
X197822950Y-84235703D02*
X197662000Y-84396653D01*
X147525654Y-97774346D02*
X144262500Y-101037500D01*
X156662000Y-84396653D02*
X155131152Y-82865805D01*
X179702050Y-97839297D02*
X172653586Y-97839297D01*
X181235211Y-101062000D02*
X179863000Y-99689789D01*
X187062500Y-97737500D02*
X185262500Y-99537500D01*
X169964297Y-97839297D02*
X169962500Y-97837500D01*
X152134865Y-97839297D02*
X159543753Y-97839297D01*
X179863000Y-97678347D02*
X179702050Y-97839297D01*
X190184122Y-84315878D02*
X191762500Y-82737500D01*
D16*
X153662000Y-69137500D02*
X155292000Y-69137500D01*
X201733000Y-112937500D02*
X200833000Y-113837500D01*
X149262500Y-73537500D02*
X149512500Y-73787500D01*
X146012500Y-69287500D02*
X149262500Y-69287500D01*
X133227832Y-112772168D02*
X131927832Y-112772168D01*
X153727832Y-112772168D02*
X152427832Y-112772168D01*
D17*
X182012500Y-108287500D02*
X187512500Y-108287500D01*
X186762500Y-75787500D02*
X188762500Y-73787500D01*
X154262500Y-73787500D02*
X156262500Y-75787500D01*
X191012500Y-106287500D02*
X203012500Y-106287500D01*
X146262500Y-108287500D02*
X148012500Y-108287500D01*
X187512500Y-108287500D02*
X189012500Y-108287500D01*
D16*
X187262500Y-108537500D02*
X187512500Y-108287500D01*
X146262500Y-112787500D02*
X146262500Y-108287500D01*
D17*
X147762500Y-73787500D02*
X149512500Y-73787500D01*
D16*
X170012500Y-112787500D02*
X166762500Y-112787500D01*
X160733000Y-112937500D02*
X159833000Y-113837500D01*
D17*
X141012500Y-108287500D02*
X146262500Y-108287500D01*
D16*
X169762500Y-69287500D02*
X169762500Y-75537500D01*
X181233000Y-112937500D02*
X180333000Y-113837500D01*
X163597168Y-69302832D02*
X164727832Y-68172168D01*
X200376668Y-69237500D02*
X201492000Y-68122168D01*
X196292000Y-69137500D02*
X197192000Y-68237500D01*
D17*
X149512500Y-73787500D02*
X154262500Y-73787500D01*
D16*
X179876668Y-69237500D02*
X180992000Y-68122168D01*
D17*
X203012500Y-106287500D02*
X205762500Y-109037500D01*
X195512500Y-73787500D02*
X197512500Y-75787500D01*
X189012500Y-108287500D02*
X191012500Y-106287500D01*
D16*
X137462500Y-69237500D02*
X138876668Y-69237500D01*
D17*
X139012500Y-106287500D02*
X141012500Y-108287500D01*
D16*
X158062500Y-112837500D02*
X156648332Y-112837500D01*
X166762500Y-112787500D02*
X165012500Y-112787500D01*
X162297168Y-69302832D02*
X163597168Y-69302832D01*
X166762500Y-112787500D02*
X166762500Y-106287500D01*
X136148332Y-112837500D02*
X135033000Y-113952832D01*
X187012500Y-69287500D02*
X192012500Y-69287500D01*
X187262500Y-112787500D02*
X187262500Y-108537500D01*
X174162000Y-69137500D02*
X175792000Y-69137500D01*
X140233000Y-112937500D02*
X139333000Y-113837500D01*
D17*
X169512500Y-75787500D02*
X186762500Y-75787500D01*
D16*
X190563000Y-112787500D02*
X187262500Y-112787500D01*
X130762500Y-72037500D02*
X130762500Y-69037500D01*
D17*
X180012500Y-106287500D02*
X182012500Y-108287500D01*
X146012500Y-75537500D02*
X147762500Y-73787500D01*
X130912500Y-91737500D02*
X130862500Y-91737500D01*
D16*
X184097168Y-69302832D02*
X185227832Y-68172168D01*
X178562500Y-112837500D02*
X177148332Y-112837500D01*
D17*
X132762500Y-75537500D02*
X146012500Y-75537500D01*
D16*
X127512500Y-111287500D02*
X127512500Y-106287500D01*
X177148332Y-112837500D02*
X176033000Y-113952832D01*
X137562500Y-112837500D02*
X136148332Y-112837500D01*
X185512500Y-112787500D02*
X184662500Y-113637500D01*
X190262500Y-73787500D02*
X190262500Y-69287500D01*
X146262500Y-112787500D02*
X144512500Y-112787500D01*
X166512500Y-69287500D02*
X169762500Y-69287500D01*
X143097168Y-69302832D02*
X144227832Y-68172168D01*
X203297168Y-69302832D02*
X204597168Y-69302832D01*
X138876668Y-69237500D02*
X139992000Y-68122168D01*
X152427832Y-112772168D02*
X151297168Y-113902832D01*
X141863000Y-112937500D02*
X140233000Y-112937500D01*
X182863000Y-112937500D02*
X181233000Y-112937500D01*
X130762500Y-69037500D02*
X131362500Y-68437500D01*
X165012500Y-112787500D02*
X164162500Y-113637500D01*
X172927832Y-112772168D02*
X171797168Y-113902832D01*
X174227832Y-112772168D02*
X172927832Y-112772168D01*
X205762500Y-113037500D02*
X205162500Y-113637500D01*
X129012500Y-112787500D02*
X127512500Y-111287500D01*
X204597168Y-71872168D02*
X204597168Y-69302832D01*
X134792000Y-69137500D02*
X135692000Y-68237500D01*
X171512500Y-69287500D02*
X172362500Y-68437500D01*
X199062500Y-112837500D02*
X197648332Y-112837500D01*
X178462500Y-69237500D02*
X179876668Y-69237500D01*
X155292000Y-69137500D02*
X156192000Y-68237500D01*
X205762500Y-73037500D02*
X204597168Y-71872168D01*
D17*
X126512500Y-96087500D02*
X126512500Y-105287500D01*
D16*
X159376668Y-69237500D02*
X160492000Y-68122168D01*
X144512500Y-112787500D02*
X143662500Y-113637500D01*
X149512500Y-112787500D02*
X146262500Y-112787500D01*
D17*
X166762500Y-106287500D02*
X180012500Y-106287500D01*
D16*
X194727832Y-112772168D02*
X193427832Y-112772168D01*
X169762500Y-69287500D02*
X171512500Y-69287500D01*
X141797168Y-69302832D02*
X143097168Y-69302832D01*
X205762500Y-75787500D02*
X205762500Y-73037500D01*
X193427832Y-112772168D02*
X192297168Y-113902832D01*
D17*
X188762500Y-73787500D02*
X194012500Y-73787500D01*
X130862500Y-91737500D02*
X126512500Y-96087500D01*
D16*
X151012500Y-69287500D02*
X151862500Y-68437500D01*
D17*
X194012500Y-73787500D02*
X195512500Y-73787500D01*
D16*
X192012500Y-69287500D02*
X192862500Y-68437500D01*
X187262500Y-112787500D02*
X185512500Y-112787500D01*
D17*
X197512500Y-75787500D02*
X205762500Y-75787500D01*
D16*
X157962500Y-69237500D02*
X159376668Y-69237500D01*
X203363000Y-112937500D02*
X201733000Y-112937500D01*
X156648332Y-112837500D02*
X155533000Y-113952832D01*
D17*
X126512500Y-105287500D02*
X127512500Y-106287500D01*
X127512500Y-106287500D02*
X139012500Y-106287500D01*
D16*
X169762500Y-75537500D02*
X169512500Y-75787500D01*
X182797168Y-69302832D02*
X184097168Y-69302832D01*
X162363000Y-112937500D02*
X160733000Y-112937500D01*
X194662000Y-69137500D02*
X196292000Y-69137500D01*
X131927832Y-112772168D02*
X130797168Y-113902832D01*
X204597168Y-69302832D02*
X205727832Y-68172168D01*
D17*
X150012500Y-106287500D02*
X166762500Y-106287500D01*
D16*
X198962500Y-69237500D02*
X200376668Y-69237500D01*
X149262500Y-69287500D02*
X151012500Y-69287500D01*
X175792000Y-69137500D02*
X176692000Y-68237500D01*
X197648332Y-112837500D02*
X196533000Y-113952832D01*
D17*
X148012500Y-108287500D02*
X150012500Y-106287500D01*
D16*
X133162000Y-69137500D02*
X134792000Y-69137500D01*
X149262500Y-69287500D02*
X149262500Y-73537500D01*
D17*
X156262500Y-75787500D02*
X169512500Y-75787500D01*
D16*
X205762500Y-109037500D02*
X205762500Y-113037500D01*
D18*
X188562500Y-132837500D02*
X168462500Y-132837500D01*
X128762500Y-60537500D02*
X126762500Y-58537500D01*
X188762500Y-132637500D02*
X188562500Y-132837500D01*
X207762500Y-116037500D02*
X209762500Y-116037500D01*
X126762500Y-58537500D02*
X126762500Y-49237500D01*
X128762500Y-84537500D02*
X128762500Y-60537500D01*
X146262500Y-121537500D02*
X146262500Y-116037500D01*
X168462500Y-123237500D02*
X168462500Y-132837500D01*
X147762500Y-58537500D02*
X147762500Y-49437500D01*
X209762500Y-116037500D02*
X209762500Y-132837500D01*
D19*
X209762500Y-49237500D02*
X210062500Y-49537500D01*
D18*
X188762500Y-49437500D02*
X188962500Y-49237500D01*
X147762500Y-132837500D02*
X147762500Y-123037500D01*
X166762500Y-116037500D02*
X166762500Y-121537500D01*
X188762500Y-123037500D02*
X188762500Y-132637500D01*
X147762500Y-49437500D02*
X147962500Y-49237500D01*
X149262500Y-66037500D02*
X149262500Y-60037500D01*
X169762500Y-66037500D02*
X169762500Y-60037500D01*
X126762500Y-49237500D02*
X147962500Y-49237500D01*
X187262500Y-121537500D02*
X188762500Y-123037500D01*
X187262500Y-116037500D02*
X187262500Y-121537500D01*
X168462500Y-49237500D02*
X188962500Y-49237500D01*
X190262500Y-66037500D02*
X190262500Y-60037500D01*
X147762500Y-123037500D02*
X146262500Y-121537500D01*
D19*
X210062500Y-115737500D02*
X209762500Y-116037500D01*
D18*
X190262500Y-60037500D02*
X188762500Y-58537500D01*
D19*
X210062500Y-49537500D02*
X210062500Y-115737500D01*
D18*
X168262500Y-49437500D02*
X168462500Y-49237500D01*
X166762500Y-121537500D02*
X168462500Y-123237500D01*
X168262500Y-58537500D02*
X168262500Y-49437500D01*
X149262500Y-60037500D02*
X147762500Y-58537500D01*
X209762500Y-132837500D02*
X188562500Y-132837500D01*
X169762500Y-60037500D02*
X168262500Y-58537500D01*
X147962500Y-49237500D02*
X168462500Y-49237500D01*
X188762500Y-58537500D02*
X188762500Y-49437500D01*
X133452500Y-89227500D02*
X128762500Y-84537500D01*
X168462500Y-132837500D02*
X147762500Y-132837500D01*
X133452500Y-91737500D02*
X133452500Y-89227500D01*
X188962500Y-49237500D02*
X209762500Y-49237500D01*
D16*
X173262500Y-109337000D02*
X173262500Y-109437000D01*
X175062500Y-111237000D02*
X175062500Y-119937500D01*
X173262500Y-109437000D02*
X175062500Y-111237000D01*
X179362500Y-119937500D02*
X179362500Y-111937000D01*
X179362500Y-111937000D02*
X176762500Y-109337000D01*
X183662500Y-119937500D02*
X183662500Y-112605629D01*
X183662500Y-112605629D02*
X180394371Y-109337500D01*
X180394371Y-109337500D02*
X180162500Y-109337500D01*
X193762500Y-109437000D02*
X195562500Y-111237000D01*
X195562500Y-111237000D02*
X195562500Y-119937500D01*
X193762500Y-109337000D02*
X193762500Y-109437000D01*
X199862500Y-111937000D02*
X197262500Y-109337000D01*
X199862500Y-119937500D02*
X199862500Y-111937000D01*
X200894371Y-109337500D02*
X200662500Y-109337500D01*
X204162500Y-119937500D02*
X204162500Y-112605629D01*
X204162500Y-112605629D02*
X200894371Y-109337500D01*
D15*
X174262500Y-87787500D02*
X174512500Y-88037500D01*
X174512500Y-88037500D02*
X174512500Y-90787500D01*
X204462003Y-85237003D02*
X204462003Y-81037500D01*
X149738589Y-78813589D02*
X149738589Y-80012382D01*
X149738589Y-80012382D02*
X149713971Y-80037000D01*
X205762500Y-86537500D02*
X204462003Y-85237003D01*
X203762500Y-85537500D02*
X203762500Y-81037500D01*
X175287500Y-88312500D02*
X175512500Y-88537500D01*
X175512500Y-88537500D02*
X175512500Y-90787500D01*
X205262500Y-87037500D02*
X203762500Y-85537500D01*
X191762500Y-85137500D02*
X194962500Y-85137500D01*
X190962500Y-85937500D02*
X191762500Y-85137500D01*
X173512500Y-88287500D02*
X173512500Y-90787500D01*
X171162500Y-85937500D02*
X173512500Y-88287500D01*
X154062500Y-85982890D02*
X154539805Y-86460195D01*
X154062500Y-85237500D02*
X154062500Y-85982890D01*
D16*
X170762500Y-110363376D02*
X169697325Y-109298201D01*
X170762500Y-120137500D02*
X170762500Y-110363376D01*
X191262500Y-110363376D02*
X190197325Y-109298201D01*
X191262500Y-120137500D02*
X191262500Y-110363376D01*
X187327675Y-73202675D02*
X186262500Y-72137500D01*
X186262500Y-72137500D02*
X186262500Y-61937500D01*
X183672500Y-73147500D02*
X181962500Y-71437500D01*
X183672500Y-73247500D02*
X183672500Y-73147500D01*
X181962500Y-71437500D02*
X181962500Y-62137500D01*
X177662500Y-70737500D02*
X177662500Y-62137500D01*
X180262500Y-73337500D02*
X177662500Y-70737500D01*
X176812500Y-73287500D02*
X173362500Y-69837500D01*
X173362500Y-69837500D02*
X173362500Y-62137500D01*
X176862500Y-73287500D02*
X176812500Y-73287500D01*
X150262500Y-120137500D02*
X150262500Y-110363376D01*
X150262500Y-110363376D02*
X149197325Y-109298201D01*
X152762500Y-109337000D02*
X152762500Y-109437000D01*
X154562500Y-111237000D02*
X154562500Y-119937500D01*
X152762500Y-109437000D02*
X154562500Y-111237000D01*
X158862500Y-111937000D02*
X156262500Y-109337000D01*
X158862500Y-119937500D02*
X158862500Y-111937000D01*
X159894371Y-109337500D02*
X159662500Y-109337500D01*
X163162500Y-119937500D02*
X163162500Y-112605629D01*
X163162500Y-112605629D02*
X159894371Y-109337500D01*
X207827675Y-73202675D02*
X206762500Y-72137500D01*
X206762500Y-72137500D02*
X206762500Y-61937500D01*
X204172500Y-73347500D02*
X202462500Y-71637500D01*
X202462500Y-71637500D02*
X202462500Y-62137500D01*
X198162500Y-70737500D02*
X198162500Y-62137500D01*
X200762500Y-73337500D02*
X198162500Y-70737500D01*
X197362500Y-73287500D02*
X193862500Y-69787500D01*
X193862500Y-69787500D02*
X193862500Y-62137500D01*
X129762500Y-110363376D02*
X128697325Y-109298201D01*
X129762500Y-120137500D02*
X129762500Y-110363376D01*
X132262500Y-109437000D02*
X134062500Y-111237000D01*
X134062500Y-111237000D02*
X134062500Y-119937500D01*
X132262500Y-109337000D02*
X132262500Y-109437000D01*
X138362500Y-111937000D02*
X135762500Y-109337000D01*
X138362500Y-119937500D02*
X138362500Y-111937000D01*
X166827675Y-73272325D02*
X165762500Y-72207150D01*
X165762500Y-72207150D02*
X165762500Y-61937500D01*
X163172500Y-73147500D02*
X161462500Y-71437500D01*
X161462500Y-71437500D02*
X161462500Y-62137500D01*
X157162500Y-70737500D02*
X157162500Y-62137500D01*
X159762500Y-73337500D02*
X157162500Y-70737500D01*
X156312500Y-73187500D02*
X152862500Y-69737500D01*
X152862500Y-69737500D02*
X152862500Y-62137500D01*
X145262500Y-72137500D02*
X145262500Y-61937500D01*
X146327675Y-73202675D02*
X145262500Y-72137500D01*
X142672500Y-73147500D02*
X140962500Y-71437500D01*
X140962500Y-71437500D02*
X140962500Y-62137500D01*
X139412500Y-73287500D02*
X136662500Y-70537500D01*
X136662500Y-70537500D02*
X136662500Y-62137500D01*
X135862500Y-73337500D02*
X132362500Y-69837500D01*
X132362500Y-69837500D02*
X132362500Y-62137500D01*
X139394371Y-109337500D02*
X139162500Y-109337500D01*
X142662500Y-119937500D02*
X142662500Y-112605629D01*
X142662500Y-112605629D02*
X139394371Y-109337500D01*
D15*
X182837500Y-96637500D02*
X182600000Y-96875000D01*
X185462500Y-96637500D02*
X182837500Y-96637500D01*
G04 #@! TA.AperFunction,Conductor*
G36*
X152438192Y-76537770D02*
G01*
X152686883Y-76554070D01*
X152703223Y-76556221D01*
X152943611Y-76604037D01*
X152959532Y-76608303D01*
X153191621Y-76687087D01*
X153206847Y-76693394D01*
X153426665Y-76801796D01*
X153440939Y-76810037D01*
X153644726Y-76946203D01*
X153657802Y-76956236D01*
X153845197Y-77120577D01*
X153851214Y-77126214D01*
X154676714Y-77951714D01*
X154678273Y-77953081D01*
X154870304Y-78121489D01*
X154870310Y-78121493D01*
X154873404Y-78124207D01*
X154876830Y-78126496D01*
X154876835Y-78126500D01*
X155038504Y-78234523D01*
X155090927Y-78269551D01*
X155094626Y-78271375D01*
X155094631Y-78271378D01*
X155229235Y-78337757D01*
X155325560Y-78385259D01*
X155329458Y-78386582D01*
X155329460Y-78386583D01*
X155569379Y-78468025D01*
X155569383Y-78468026D01*
X155573289Y-78469352D01*
X155577333Y-78470156D01*
X155577339Y-78470158D01*
X155825832Y-78519586D01*
X155825835Y-78519586D01*
X155829875Y-78520390D01*
X155833986Y-78520659D01*
X155833990Y-78520660D01*
X156088878Y-78537366D01*
X156088887Y-78537366D01*
X156090927Y-78537500D01*
X186934073Y-78537500D01*
X186936113Y-78537366D01*
X186936122Y-78537366D01*
X187191010Y-78520660D01*
X187191014Y-78520659D01*
X187195125Y-78520390D01*
X187199165Y-78519586D01*
X187199168Y-78519586D01*
X187447661Y-78470158D01*
X187447667Y-78470156D01*
X187451711Y-78469352D01*
X187455617Y-78468026D01*
X187455621Y-78468025D01*
X187695540Y-78386583D01*
X187695542Y-78386582D01*
X187699440Y-78385259D01*
X187795765Y-78337757D01*
X187930369Y-78271378D01*
X187930374Y-78271375D01*
X187934073Y-78269551D01*
X187986496Y-78234523D01*
X188148165Y-78126500D01*
X188148170Y-78126496D01*
X188151596Y-78124207D01*
X188154690Y-78121493D01*
X188154696Y-78121489D01*
X188346727Y-77953081D01*
X188348286Y-77951714D01*
X189173786Y-77126214D01*
X189179803Y-77120577D01*
X189367198Y-76956236D01*
X189380274Y-76946203D01*
X189584061Y-76810037D01*
X189598335Y-76801796D01*
X189818153Y-76693394D01*
X189833379Y-76687087D01*
X190065468Y-76608303D01*
X190081389Y-76604037D01*
X190321777Y-76556221D01*
X190338117Y-76554070D01*
X190586808Y-76537770D01*
X190595049Y-76537500D01*
X193429951Y-76537500D01*
X193438192Y-76537770D01*
X193686883Y-76554070D01*
X193703223Y-76556221D01*
X193943611Y-76604037D01*
X193959532Y-76608303D01*
X194191621Y-76687087D01*
X194206847Y-76693394D01*
X194426665Y-76801796D01*
X194440939Y-76810037D01*
X194644726Y-76946203D01*
X194657802Y-76956236D01*
X194845197Y-77120577D01*
X194851214Y-77126214D01*
X195676714Y-77951714D01*
X195678273Y-77953081D01*
X195870304Y-78121489D01*
X195870310Y-78121493D01*
X195873404Y-78124207D01*
X195876830Y-78126496D01*
X195876835Y-78126500D01*
X196038504Y-78234523D01*
X196090927Y-78269551D01*
X196094626Y-78271375D01*
X196094631Y-78271378D01*
X196229235Y-78337757D01*
X196325560Y-78385259D01*
X196329458Y-78386582D01*
X196329460Y-78386583D01*
X196569379Y-78468025D01*
X196569383Y-78468026D01*
X196573289Y-78469352D01*
X196577333Y-78470156D01*
X196577339Y-78470158D01*
X196825832Y-78519586D01*
X196825835Y-78519586D01*
X196829875Y-78520390D01*
X196833986Y-78520659D01*
X196833990Y-78520660D01*
X197088878Y-78537366D01*
X197088887Y-78537366D01*
X197090927Y-78537500D01*
X205257999Y-78537500D01*
X205266987Y-78537821D01*
X205316371Y-78541353D01*
X205538150Y-78557215D01*
X205555933Y-78559772D01*
X205817158Y-78616598D01*
X205834400Y-78621660D01*
X206084893Y-78715089D01*
X206101238Y-78722554D01*
X206160134Y-78754714D01*
X206335875Y-78850676D01*
X206350998Y-78860395D01*
X206565010Y-79020603D01*
X206578596Y-79032376D01*
X206767624Y-79221404D01*
X206779397Y-79234990D01*
X206939605Y-79449002D01*
X206949324Y-79464125D01*
X207077445Y-79698760D01*
X207084911Y-79715107D01*
X207178339Y-79965597D01*
X207183402Y-79982842D01*
X207240228Y-80244067D01*
X207242785Y-80261850D01*
X207251748Y-80387168D01*
X207262179Y-80533013D01*
X207262500Y-80542001D01*
X207262500Y-101532999D01*
X207262179Y-101541987D01*
X207242786Y-101813145D01*
X207240228Y-101830933D01*
X207193511Y-102045688D01*
X207183403Y-102092154D01*
X207178340Y-102109400D01*
X207084911Y-102359893D01*
X207077445Y-102376240D01*
X206949324Y-102610875D01*
X206939605Y-102625998D01*
X206779397Y-102840010D01*
X206767624Y-102853596D01*
X206578596Y-103042624D01*
X206565010Y-103054397D01*
X206350998Y-103214605D01*
X206335875Y-103224324D01*
X206101240Y-103352445D01*
X206084893Y-103359911D01*
X205834400Y-103453340D01*
X205817158Y-103458402D01*
X205555933Y-103515228D01*
X205538150Y-103517785D01*
X205316371Y-103533647D01*
X205266987Y-103537179D01*
X205257999Y-103537500D01*
X190590927Y-103537500D01*
X190588887Y-103537634D01*
X190588878Y-103537634D01*
X190333990Y-103554340D01*
X190333986Y-103554341D01*
X190329875Y-103554610D01*
X190325835Y-103555414D01*
X190325832Y-103555414D01*
X190077339Y-103604842D01*
X190077333Y-103604844D01*
X190073289Y-103605648D01*
X190069383Y-103606974D01*
X190069379Y-103606975D01*
X189829460Y-103688417D01*
X189825560Y-103689741D01*
X189821867Y-103691562D01*
X189821865Y-103691563D01*
X189594631Y-103803622D01*
X189594626Y-103803625D01*
X189590927Y-103805449D01*
X189587494Y-103807743D01*
X189376835Y-103948500D01*
X189376830Y-103948504D01*
X189373404Y-103950793D01*
X189370310Y-103953507D01*
X189370304Y-103953511D01*
X189226047Y-104080022D01*
X189176714Y-104123286D01*
X188351214Y-104948786D01*
X188345197Y-104954423D01*
X188157802Y-105118764D01*
X188144726Y-105128797D01*
X187940939Y-105264963D01*
X187926665Y-105273204D01*
X187706847Y-105381606D01*
X187691621Y-105387913D01*
X187459532Y-105466697D01*
X187443611Y-105470963D01*
X187203223Y-105518779D01*
X187186883Y-105520930D01*
X186938192Y-105537230D01*
X186929951Y-105537500D01*
X184095049Y-105537500D01*
X184086808Y-105537230D01*
X183838117Y-105520930D01*
X183821777Y-105518779D01*
X183581389Y-105470963D01*
X183565468Y-105466697D01*
X183333379Y-105387913D01*
X183318153Y-105381606D01*
X183098335Y-105273204D01*
X183084061Y-105264963D01*
X182880274Y-105128797D01*
X182867198Y-105118764D01*
X182679803Y-104954423D01*
X182673786Y-104948786D01*
X181848286Y-104123286D01*
X181798953Y-104080022D01*
X181654696Y-103953511D01*
X181654690Y-103953507D01*
X181651596Y-103950793D01*
X181648170Y-103948504D01*
X181648165Y-103948500D01*
X181437506Y-103807743D01*
X181434073Y-103805449D01*
X181430374Y-103803625D01*
X181430369Y-103803622D01*
X181203135Y-103691563D01*
X181203133Y-103691562D01*
X181199440Y-103689741D01*
X181195540Y-103688417D01*
X180955621Y-103606975D01*
X180955617Y-103606974D01*
X180951711Y-103605648D01*
X180947667Y-103604844D01*
X180947661Y-103604842D01*
X180699168Y-103555414D01*
X180699165Y-103555414D01*
X180695125Y-103554610D01*
X180691014Y-103554341D01*
X180691010Y-103554340D01*
X180436122Y-103537634D01*
X180436113Y-103537634D01*
X180434073Y-103537500D01*
X149590927Y-103537500D01*
X149588887Y-103537634D01*
X149588878Y-103537634D01*
X149333990Y-103554340D01*
X149333986Y-103554341D01*
X149329875Y-103554610D01*
X149325835Y-103555414D01*
X149325832Y-103555414D01*
X149077339Y-103604842D01*
X149077333Y-103604844D01*
X149073289Y-103605648D01*
X149069383Y-103606974D01*
X149069379Y-103606975D01*
X148829460Y-103688417D01*
X148825560Y-103689741D01*
X148821867Y-103691562D01*
X148821865Y-103691563D01*
X148594631Y-103803622D01*
X148594626Y-103803625D01*
X148590927Y-103805449D01*
X148587494Y-103807743D01*
X148376835Y-103948500D01*
X148376830Y-103948504D01*
X148373404Y-103950793D01*
X148370310Y-103953507D01*
X148370304Y-103953511D01*
X148226047Y-104080022D01*
X148176714Y-104123286D01*
X147351214Y-104948786D01*
X147345197Y-104954423D01*
X147157802Y-105118764D01*
X147144726Y-105128797D01*
X146940939Y-105264963D01*
X146926665Y-105273204D01*
X146706847Y-105381606D01*
X146691621Y-105387913D01*
X146459532Y-105466697D01*
X146443611Y-105470963D01*
X146203223Y-105518779D01*
X146186883Y-105520930D01*
X145938192Y-105537230D01*
X145929951Y-105537500D01*
X143095049Y-105537500D01*
X143086808Y-105537230D01*
X142838117Y-105520930D01*
X142821777Y-105518779D01*
X142581389Y-105470963D01*
X142565468Y-105466697D01*
X142333379Y-105387913D01*
X142318153Y-105381606D01*
X142098335Y-105273204D01*
X142084061Y-105264963D01*
X141880274Y-105128797D01*
X141867198Y-105118764D01*
X141679803Y-104954423D01*
X141673786Y-104948786D01*
X140848286Y-104123286D01*
X140798953Y-104080022D01*
X140654696Y-103953511D01*
X140654690Y-103953507D01*
X140651596Y-103950793D01*
X140648170Y-103948504D01*
X140648165Y-103948500D01*
X140437506Y-103807743D01*
X140434073Y-103805449D01*
X140430374Y-103803625D01*
X140430369Y-103803622D01*
X140203135Y-103691563D01*
X140203133Y-103691562D01*
X140199440Y-103689741D01*
X140195540Y-103688417D01*
X139955621Y-103606975D01*
X139955617Y-103606974D01*
X139951711Y-103605648D01*
X139947667Y-103604844D01*
X139947661Y-103604842D01*
X139699168Y-103555414D01*
X139699165Y-103555414D01*
X139695125Y-103554610D01*
X139691014Y-103554341D01*
X139691010Y-103554340D01*
X139436122Y-103537634D01*
X139436113Y-103537634D01*
X139434073Y-103537500D01*
X131267001Y-103537500D01*
X131258013Y-103537179D01*
X131208629Y-103533647D01*
X130986850Y-103517785D01*
X130969067Y-103515228D01*
X130707842Y-103458402D01*
X130690600Y-103453340D01*
X130440107Y-103359911D01*
X130423760Y-103352445D01*
X130189125Y-103224324D01*
X130174002Y-103214605D01*
X129959990Y-103054397D01*
X129946404Y-103042624D01*
X129757376Y-102853596D01*
X129745603Y-102840010D01*
X129585395Y-102625998D01*
X129575676Y-102610875D01*
X129447555Y-102376240D01*
X129440089Y-102359893D01*
X129346660Y-102109400D01*
X129341597Y-102092154D01*
X129331489Y-102045688D01*
X129284772Y-101830933D01*
X129282214Y-101813145D01*
X129262821Y-101541987D01*
X129262500Y-101532999D01*
X129262500Y-97870121D01*
X129262770Y-97861880D01*
X129263714Y-97847485D01*
X129264251Y-97839297D01*
X131098336Y-97839297D01*
X131117256Y-97983006D01*
X131172725Y-98116922D01*
X131260965Y-98231918D01*
X131375961Y-98320158D01*
X131509877Y-98375627D01*
X131653586Y-98394547D01*
X131797295Y-98375627D01*
X131931211Y-98320158D01*
X131937765Y-98315129D01*
X131944913Y-98311002D01*
X131945721Y-98312402D01*
X132003067Y-98290234D01*
X132013549Y-98289797D01*
X133772107Y-98289797D01*
X133840228Y-98309799D01*
X133848811Y-98315835D01*
X133931989Y-98379660D01*
X134065905Y-98435129D01*
X134209614Y-98454049D01*
X134353323Y-98435129D01*
X134487239Y-98379660D01*
X134570417Y-98315835D01*
X134636637Y-98290234D01*
X134647121Y-98289797D01*
X136393623Y-98289797D01*
X136461744Y-98309799D01*
X136468947Y-98314864D01*
X136469408Y-98315130D01*
X136475961Y-98320158D01*
X136609877Y-98375627D01*
X136753586Y-98394547D01*
X136897295Y-98375627D01*
X137031211Y-98320158D01*
X137037765Y-98315129D01*
X137044913Y-98311002D01*
X137045721Y-98312402D01*
X137103067Y-98290234D01*
X137113549Y-98289797D01*
X138286500Y-98289797D01*
X138354621Y-98309799D01*
X138401114Y-98363455D01*
X138412500Y-98415797D01*
X138412500Y-100603780D01*
X138411627Y-100618589D01*
X138407636Y-100652310D01*
X138409328Y-100661574D01*
X138409328Y-100661575D01*
X138418172Y-100710001D01*
X138418822Y-100713904D01*
X138424749Y-100753322D01*
X138427551Y-100771962D01*
X138430679Y-100778475D01*
X138431975Y-100785573D01*
X138459025Y-100837647D01*
X138460768Y-100841137D01*
X138486191Y-100894079D01*
X138491077Y-100899365D01*
X138491110Y-100899413D01*
X138494421Y-100905788D01*
X138498725Y-100910828D01*
X138535952Y-100948055D01*
X138539381Y-100951620D01*
X138578146Y-100993556D01*
X138584505Y-100997249D01*
X138590663Y-101002766D01*
X139689416Y-102101519D01*
X139723442Y-102163831D01*
X139724952Y-102172497D01*
X139725092Y-102173018D01*
X139726170Y-102181209D01*
X139781639Y-102315125D01*
X139869879Y-102430121D01*
X139984875Y-102518361D01*
X140118791Y-102573830D01*
X140262500Y-102592750D01*
X140406209Y-102573830D01*
X140540125Y-102518361D01*
X140655121Y-102430121D01*
X140743361Y-102315125D01*
X140798830Y-102181209D01*
X140817750Y-102037500D01*
X140798830Y-101893791D01*
X140743361Y-101759875D01*
X140655121Y-101644879D01*
X140540125Y-101556639D01*
X140406209Y-101501170D01*
X140398019Y-101500092D01*
X140390045Y-101497955D01*
X140390464Y-101496392D01*
X140334242Y-101471522D01*
X140326519Y-101464416D01*
X139899603Y-101037500D01*
X143707250Y-101037500D01*
X143726170Y-101181209D01*
X143781639Y-101315125D01*
X143869879Y-101430121D01*
X143984875Y-101518361D01*
X144118791Y-101573830D01*
X144262500Y-101592750D01*
X144406209Y-101573830D01*
X144540125Y-101518361D01*
X144655121Y-101430121D01*
X144743361Y-101315125D01*
X144798830Y-101181209D01*
X144799908Y-101173019D01*
X144802045Y-101165045D01*
X144803608Y-101165464D01*
X144828478Y-101109242D01*
X144835584Y-101101519D01*
X147675352Y-98261751D01*
X147737664Y-98227725D01*
X147764447Y-98224846D01*
X151709951Y-98224846D01*
X151778072Y-98244848D01*
X151785275Y-98249913D01*
X151785739Y-98250181D01*
X151792289Y-98255207D01*
X151926205Y-98310676D01*
X152069914Y-98329596D01*
X152213623Y-98310676D01*
X152240875Y-98299388D01*
X152289093Y-98289797D01*
X154272107Y-98289797D01*
X154340228Y-98309799D01*
X154348811Y-98315835D01*
X154431989Y-98379660D01*
X154565905Y-98435129D01*
X154709614Y-98454049D01*
X154853323Y-98435129D01*
X154987239Y-98379660D01*
X155070417Y-98315835D01*
X155136637Y-98290234D01*
X155147121Y-98289797D01*
X156893623Y-98289797D01*
X156961744Y-98309799D01*
X156968947Y-98314864D01*
X156969408Y-98315130D01*
X156975961Y-98320158D01*
X157109877Y-98375627D01*
X157253586Y-98394547D01*
X157397295Y-98375627D01*
X157531211Y-98320158D01*
X157537765Y-98315129D01*
X157544913Y-98311002D01*
X157545721Y-98312402D01*
X157603067Y-98290234D01*
X157613549Y-98289797D01*
X159494050Y-98289797D01*
X159510497Y-98290875D01*
X159631495Y-98306805D01*
X159775204Y-98287885D01*
X159909120Y-98232416D01*
X160024116Y-98144176D01*
X160112356Y-98029180D01*
X160167825Y-97895264D01*
X160186745Y-97751555D01*
X160167825Y-97607846D01*
X160112356Y-97473930D01*
X160024116Y-97358934D01*
X159909120Y-97270694D01*
X159775204Y-97215225D01*
X159631495Y-97196305D01*
X159487786Y-97215225D01*
X159353870Y-97270694D01*
X159238874Y-97358934D01*
X159237595Y-97357268D01*
X159185128Y-97385918D01*
X159158345Y-97388797D01*
X157613549Y-97388797D01*
X157545428Y-97368795D01*
X157538225Y-97363730D01*
X157537761Y-97363462D01*
X157531211Y-97358436D01*
X157397295Y-97302967D01*
X157253586Y-97284047D01*
X157109877Y-97302967D01*
X156975961Y-97358436D01*
X156969408Y-97363464D01*
X156962259Y-97367592D01*
X156961451Y-97366192D01*
X156904105Y-97388360D01*
X156893623Y-97388797D01*
X154941948Y-97388797D01*
X154893730Y-97379206D01*
X154883532Y-97374982D01*
X154853323Y-97362469D01*
X154709614Y-97343549D01*
X154565905Y-97362469D01*
X154535696Y-97374982D01*
X154525498Y-97379206D01*
X154477280Y-97388797D01*
X152514522Y-97388797D01*
X152446401Y-97368795D01*
X152437818Y-97362759D01*
X152435123Y-97360691D01*
X152347539Y-97293485D01*
X152213623Y-97238016D01*
X152069914Y-97219096D01*
X151926205Y-97238016D01*
X151792289Y-97293485D01*
X151785736Y-97298513D01*
X151778587Y-97302641D01*
X151777779Y-97301241D01*
X151720433Y-97323409D01*
X151709951Y-97323846D01*
X147559874Y-97323846D01*
X147545065Y-97322973D01*
X147520697Y-97320089D01*
X147511344Y-97318982D01*
X147502080Y-97320674D01*
X147502076Y-97320674D01*
X147453643Y-97329519D01*
X147449742Y-97330168D01*
X147401009Y-97337495D01*
X147401001Y-97337497D01*
X147391692Y-97338897D01*
X147385182Y-97342023D01*
X147378081Y-97343320D01*
X147369726Y-97347660D01*
X147326017Y-97370364D01*
X147322479Y-97372132D01*
X147285899Y-97389698D01*
X147269575Y-97397537D01*
X147264294Y-97402420D01*
X147264242Y-97402455D01*
X147257866Y-97405766D01*
X147252826Y-97410070D01*
X147215586Y-97447310D01*
X147212021Y-97450739D01*
X147170098Y-97489492D01*
X147166405Y-97495851D01*
X147160903Y-97501993D01*
X145664455Y-98998442D01*
X144198481Y-100464416D01*
X144136169Y-100498442D01*
X144127503Y-100499952D01*
X144126982Y-100500092D01*
X144118791Y-100501170D01*
X143984875Y-100556639D01*
X143869879Y-100644879D01*
X143781639Y-100759875D01*
X143726170Y-100893791D01*
X143707250Y-101037500D01*
X139899603Y-101037500D01*
X139350405Y-100488302D01*
X139316379Y-100425990D01*
X139313500Y-100399207D01*
X139313500Y-98038310D01*
X139333502Y-97970189D01*
X139338567Y-97962986D01*
X139338835Y-97962522D01*
X139343861Y-97955972D01*
X139399330Y-97822056D01*
X139418250Y-97678347D01*
X139399330Y-97534638D01*
X139343861Y-97400722D01*
X139255621Y-97285726D01*
X139140625Y-97197486D01*
X139006709Y-97142017D01*
X138863000Y-97123097D01*
X138719291Y-97142017D01*
X138585375Y-97197486D01*
X138470379Y-97285726D01*
X138429114Y-97339503D01*
X138371779Y-97381368D01*
X138329154Y-97388797D01*
X137113549Y-97388797D01*
X137045428Y-97368795D01*
X137038225Y-97363730D01*
X137037761Y-97363462D01*
X137031211Y-97358436D01*
X136897295Y-97302967D01*
X136753586Y-97284047D01*
X136609877Y-97302967D01*
X136475961Y-97358436D01*
X136469408Y-97363464D01*
X136462259Y-97367592D01*
X136461451Y-97366192D01*
X136404105Y-97388360D01*
X136393623Y-97388797D01*
X134441948Y-97388797D01*
X134393730Y-97379206D01*
X134383532Y-97374982D01*
X134353323Y-97362469D01*
X134209614Y-97343549D01*
X134065905Y-97362469D01*
X134035696Y-97374982D01*
X134025498Y-97379206D01*
X133977280Y-97388797D01*
X132013549Y-97388797D01*
X131945428Y-97368795D01*
X131938225Y-97363730D01*
X131937761Y-97363462D01*
X131931211Y-97358436D01*
X131797295Y-97302967D01*
X131653586Y-97284047D01*
X131509877Y-97302967D01*
X131375961Y-97358436D01*
X131260965Y-97446676D01*
X131172725Y-97561672D01*
X131117256Y-97695588D01*
X131098336Y-97839297D01*
X129264251Y-97839297D01*
X129279069Y-97613199D01*
X129281220Y-97596859D01*
X129329033Y-97356481D01*
X129333298Y-97340562D01*
X129399619Y-97145178D01*
X129412079Y-97108470D01*
X129418380Y-97093259D01*
X129526779Y-96873439D01*
X129535019Y-96859167D01*
X129671181Y-96655376D01*
X129681215Y-96642299D01*
X129726358Y-96590822D01*
X129773118Y-96537500D01*
X168707250Y-96537500D01*
X168726170Y-96681209D01*
X168781639Y-96815125D01*
X168869879Y-96930121D01*
X168984875Y-97018361D01*
X169118791Y-97073830D01*
X169126981Y-97074908D01*
X169134955Y-97077045D01*
X169134536Y-97078608D01*
X169190758Y-97103478D01*
X169198481Y-97110584D01*
X169475095Y-97387198D01*
X169509121Y-97449510D01*
X169512000Y-97476293D01*
X169512000Y-97477537D01*
X169491998Y-97545658D01*
X169486933Y-97552861D01*
X169486665Y-97553325D01*
X169481639Y-97559875D01*
X169426170Y-97693791D01*
X169407250Y-97837500D01*
X169426170Y-97981209D01*
X169481639Y-98115125D01*
X169569879Y-98230121D01*
X169684875Y-98318361D01*
X169818791Y-98373830D01*
X169962500Y-98392750D01*
X170106209Y-98373830D01*
X170240125Y-98318361D01*
X170246679Y-98313332D01*
X170253827Y-98309205D01*
X170255057Y-98311335D01*
X170309638Y-98290234D01*
X170320121Y-98289797D01*
X172293623Y-98289797D01*
X172361744Y-98309799D01*
X172368947Y-98314864D01*
X172369408Y-98315130D01*
X172375961Y-98320158D01*
X172509877Y-98375627D01*
X172653586Y-98394547D01*
X172797295Y-98375627D01*
X172931211Y-98320158D01*
X172937765Y-98315129D01*
X172944913Y-98311002D01*
X172945721Y-98312402D01*
X173003067Y-98290234D01*
X173013549Y-98289797D01*
X174772107Y-98289797D01*
X174840228Y-98309799D01*
X174848811Y-98315835D01*
X174931989Y-98379660D01*
X175065905Y-98435129D01*
X175209614Y-98454049D01*
X175353323Y-98435129D01*
X175487239Y-98379660D01*
X175570417Y-98315835D01*
X175636637Y-98290234D01*
X175647121Y-98289797D01*
X177393623Y-98289797D01*
X177461744Y-98309799D01*
X177468947Y-98314864D01*
X177469408Y-98315130D01*
X177475961Y-98320158D01*
X177609877Y-98375627D01*
X177753586Y-98394547D01*
X177897295Y-98375627D01*
X178031211Y-98320158D01*
X178037765Y-98315129D01*
X178044913Y-98311002D01*
X178045721Y-98312402D01*
X178103067Y-98290234D01*
X178113549Y-98289797D01*
X179286500Y-98289797D01*
X179354621Y-98309799D01*
X179401114Y-98363455D01*
X179412500Y-98415797D01*
X179412500Y-99655569D01*
X179411627Y-99670378D01*
X179407636Y-99704099D01*
X179409328Y-99713363D01*
X179409328Y-99713364D01*
X179418172Y-99761790D01*
X179418822Y-99765693D01*
X179427551Y-99823751D01*
X179430679Y-99830264D01*
X179431975Y-99837362D01*
X179459025Y-99889436D01*
X179460768Y-99892926D01*
X179486191Y-99945868D01*
X179491077Y-99951154D01*
X179491110Y-99951202D01*
X179494421Y-99957577D01*
X179498725Y-99962617D01*
X179535952Y-99999844D01*
X179539381Y-100003409D01*
X179578146Y-100045345D01*
X179584505Y-100049038D01*
X179590663Y-100054555D01*
X180662127Y-101126019D01*
X180696153Y-101188331D01*
X180697663Y-101196997D01*
X180697803Y-101197518D01*
X180698881Y-101205709D01*
X180754350Y-101339625D01*
X180842590Y-101454621D01*
X180957586Y-101542861D01*
X181091502Y-101598330D01*
X181235211Y-101617250D01*
X181378920Y-101598330D01*
X181512836Y-101542861D01*
X181627832Y-101454621D01*
X181716072Y-101339625D01*
X181771541Y-101205709D01*
X181790461Y-101062000D01*
X181771541Y-100918291D01*
X181716072Y-100784375D01*
X181627832Y-100669379D01*
X181512836Y-100581139D01*
X181378920Y-100525670D01*
X181370730Y-100524592D01*
X181362756Y-100522455D01*
X181363175Y-100520892D01*
X181306953Y-100496022D01*
X181299230Y-100488916D01*
X180350405Y-99540091D01*
X180348990Y-99537500D01*
X184707250Y-99537500D01*
X184726170Y-99681209D01*
X184781639Y-99815125D01*
X184869879Y-99930121D01*
X184984875Y-100018361D01*
X185118791Y-100073830D01*
X185262500Y-100092750D01*
X185406209Y-100073830D01*
X185540125Y-100018361D01*
X185655121Y-99930121D01*
X185743361Y-99815125D01*
X185798830Y-99681209D01*
X185799908Y-99673019D01*
X185802045Y-99665045D01*
X185803608Y-99665464D01*
X185828478Y-99609242D01*
X185835584Y-99601519D01*
X187212198Y-98224905D01*
X187274510Y-98190879D01*
X187301293Y-98188000D01*
X192702537Y-98188000D01*
X192770658Y-98208002D01*
X192777861Y-98213067D01*
X192778325Y-98213335D01*
X192784875Y-98218361D01*
X192918791Y-98273830D01*
X193062500Y-98292750D01*
X193070688Y-98291672D01*
X193090391Y-98289078D01*
X193106838Y-98288000D01*
X193150516Y-98288000D01*
X193155462Y-98288097D01*
X193212494Y-98290338D01*
X193219600Y-98288454D01*
X193227844Y-98288000D01*
X195302537Y-98288000D01*
X195370658Y-98308002D01*
X195377861Y-98313067D01*
X195378325Y-98313335D01*
X195384875Y-98318361D01*
X195518791Y-98373830D01*
X195662500Y-98392750D01*
X195806209Y-98373830D01*
X195940125Y-98318361D01*
X195946679Y-98313332D01*
X195953827Y-98309205D01*
X195954635Y-98310605D01*
X196011981Y-98288437D01*
X196022463Y-98288000D01*
X197891281Y-98288000D01*
X197959402Y-98308002D01*
X197967979Y-98314033D01*
X197975961Y-98320158D01*
X198109877Y-98375627D01*
X198253586Y-98394547D01*
X198397295Y-98375627D01*
X198531211Y-98320158D01*
X198539190Y-98314036D01*
X198540609Y-98313487D01*
X198544913Y-98311002D01*
X198545301Y-98311673D01*
X198605409Y-98288437D01*
X198615891Y-98288000D01*
X200346569Y-98288000D01*
X200414690Y-98308002D01*
X200446531Y-98337296D01*
X200467004Y-98363977D01*
X200467008Y-98363981D01*
X200472034Y-98370531D01*
X200478584Y-98375557D01*
X200478587Y-98375560D01*
X200488049Y-98382820D01*
X200587030Y-98458771D01*
X200720946Y-98514240D01*
X200864655Y-98533160D01*
X201008364Y-98514240D01*
X201142280Y-98458771D01*
X201257276Y-98370531D01*
X201345516Y-98255535D01*
X201400985Y-98121619D01*
X201419905Y-97977910D01*
X201400985Y-97834201D01*
X201345516Y-97700285D01*
X201257276Y-97585289D01*
X201142280Y-97497049D01*
X201008364Y-97441580D01*
X200946901Y-97433488D01*
X200925135Y-97426918D01*
X200924676Y-97428369D01*
X200868726Y-97410674D01*
X200864995Y-97409429D01*
X200818508Y-97393104D01*
X200818506Y-97393104D01*
X200809614Y-97389981D01*
X200802426Y-97389699D01*
X200802367Y-97389688D01*
X200795515Y-97387520D01*
X200788908Y-97387000D01*
X200736229Y-97387000D01*
X200731282Y-97386903D01*
X200674251Y-97384662D01*
X200667145Y-97386546D01*
X200658898Y-97387000D01*
X198611207Y-97387000D01*
X198544941Y-97367543D01*
X198544913Y-97367592D01*
X198544710Y-97367475D01*
X198543086Y-97366998D01*
X198539424Y-97364423D01*
X198537765Y-97363465D01*
X198531211Y-97358436D01*
X198397295Y-97302967D01*
X198253586Y-97284047D01*
X198109877Y-97302967D01*
X197975961Y-97358436D01*
X197969408Y-97363464D01*
X197962259Y-97367592D01*
X197961029Y-97365462D01*
X197906448Y-97386563D01*
X197895965Y-97387000D01*
X196022463Y-97387000D01*
X195954342Y-97366998D01*
X195947139Y-97361933D01*
X195946675Y-97361665D01*
X195940125Y-97356639D01*
X195806209Y-97301170D01*
X195662500Y-97282250D01*
X195518791Y-97301170D01*
X195384875Y-97356639D01*
X195378322Y-97361667D01*
X195371173Y-97365795D01*
X195370365Y-97364395D01*
X195313019Y-97386563D01*
X195302537Y-97387000D01*
X193547909Y-97387000D01*
X193479788Y-97366998D01*
X193459628Y-97350752D01*
X193455121Y-97344879D01*
X193340125Y-97256639D01*
X193206209Y-97201170D01*
X193062500Y-97182250D01*
X192918791Y-97201170D01*
X192784875Y-97256639D01*
X192778322Y-97261667D01*
X192771173Y-97265795D01*
X192770365Y-97264395D01*
X192713019Y-97286563D01*
X192702537Y-97287000D01*
X187096719Y-97287000D01*
X187081910Y-97286127D01*
X187078522Y-97285726D01*
X187048189Y-97282136D01*
X187038926Y-97283828D01*
X187038919Y-97283828D01*
X186990482Y-97292675D01*
X186986583Y-97293325D01*
X186963853Y-97296742D01*
X186937856Y-97300650D01*
X186937855Y-97300650D01*
X186928538Y-97302051D01*
X186922025Y-97305179D01*
X186914927Y-97306475D01*
X186862847Y-97333528D01*
X186859345Y-97335277D01*
X186816479Y-97355861D01*
X186806421Y-97360691D01*
X186801136Y-97365577D01*
X186801089Y-97365608D01*
X186794711Y-97368921D01*
X186789672Y-97373225D01*
X186752445Y-97410452D01*
X186748880Y-97413881D01*
X186706944Y-97452646D01*
X186703251Y-97459005D01*
X186697734Y-97465163D01*
X185198481Y-98964416D01*
X185136169Y-98998442D01*
X185127503Y-98999952D01*
X185126982Y-99000092D01*
X185118791Y-99001170D01*
X184984875Y-99056639D01*
X184869879Y-99144879D01*
X184781639Y-99259875D01*
X184726170Y-99393791D01*
X184707250Y-99537500D01*
X180348990Y-99537500D01*
X180316379Y-99477779D01*
X180313500Y-99450996D01*
X180313500Y-98038310D01*
X180333502Y-97970189D01*
X180338567Y-97962986D01*
X180338835Y-97962522D01*
X180343861Y-97955972D01*
X180399330Y-97822056D01*
X180418250Y-97678347D01*
X180399330Y-97534638D01*
X180343861Y-97400722D01*
X180255621Y-97285726D01*
X180140625Y-97197486D01*
X180006709Y-97142017D01*
X179863000Y-97123097D01*
X179719291Y-97142017D01*
X179585375Y-97197486D01*
X179470379Y-97285726D01*
X179429114Y-97339503D01*
X179371779Y-97381368D01*
X179329154Y-97388797D01*
X178113549Y-97388797D01*
X178045428Y-97368795D01*
X178038225Y-97363730D01*
X178037761Y-97363462D01*
X178031211Y-97358436D01*
X177897295Y-97302967D01*
X177753586Y-97284047D01*
X177609877Y-97302967D01*
X177475961Y-97358436D01*
X177469408Y-97363464D01*
X177462259Y-97367592D01*
X177461451Y-97366192D01*
X177404105Y-97388360D01*
X177393623Y-97388797D01*
X175441948Y-97388797D01*
X175393730Y-97379206D01*
X175383532Y-97374982D01*
X175353323Y-97362469D01*
X175209614Y-97343549D01*
X175065905Y-97362469D01*
X175035696Y-97374982D01*
X175025498Y-97379206D01*
X174977280Y-97388797D01*
X173013549Y-97388797D01*
X172945428Y-97368795D01*
X172938225Y-97363730D01*
X172937761Y-97363462D01*
X172931211Y-97358436D01*
X172797295Y-97302967D01*
X172653586Y-97284047D01*
X172509877Y-97302967D01*
X172375961Y-97358436D01*
X172369408Y-97363464D01*
X172362259Y-97367592D01*
X172361451Y-97366192D01*
X172304105Y-97388360D01*
X172293623Y-97388797D01*
X170540056Y-97388797D01*
X170471935Y-97368795D01*
X170425442Y-97315139D01*
X170414929Y-97247988D01*
X170416757Y-97232542D01*
X170417864Y-97223189D01*
X170414088Y-97202515D01*
X170407326Y-97165488D01*
X170406676Y-97161584D01*
X170399349Y-97112848D01*
X170399348Y-97112846D01*
X170397949Y-97103538D01*
X170394822Y-97097025D01*
X170393525Y-97089926D01*
X170383522Y-97070669D01*
X170366482Y-97037863D01*
X170364714Y-97034325D01*
X170343387Y-96989913D01*
X170343387Y-96989912D01*
X170339309Y-96981421D01*
X170334424Y-96976136D01*
X170334392Y-96976089D01*
X170331079Y-96969711D01*
X170326775Y-96964672D01*
X170289548Y-96927445D01*
X170286118Y-96923879D01*
X170253746Y-96888859D01*
X170247354Y-96881944D01*
X170240995Y-96878251D01*
X170237366Y-96875000D01*
X182044750Y-96875000D01*
X182063670Y-97018709D01*
X182119139Y-97152625D01*
X182207379Y-97267621D01*
X182322375Y-97355861D01*
X182330004Y-97359021D01*
X182334036Y-97360691D01*
X182456291Y-97411330D01*
X182600000Y-97430250D01*
X182743709Y-97411330D01*
X182865964Y-97360691D01*
X182869996Y-97359021D01*
X182877625Y-97355861D01*
X182992621Y-97267621D01*
X183080861Y-97152625D01*
X183082174Y-97149456D01*
X183131935Y-97102007D01*
X183189673Y-97088000D01*
X185102537Y-97088000D01*
X185170658Y-97108002D01*
X185177861Y-97113067D01*
X185178325Y-97113335D01*
X185184875Y-97118361D01*
X185318791Y-97173830D01*
X185462500Y-97192750D01*
X185606209Y-97173830D01*
X185740125Y-97118361D01*
X185855121Y-97030121D01*
X185943361Y-96915125D01*
X185998830Y-96781209D01*
X186017750Y-96637500D01*
X185998830Y-96493791D01*
X185943361Y-96359875D01*
X185855121Y-96244879D01*
X185740125Y-96156639D01*
X185606209Y-96101170D01*
X185462500Y-96082250D01*
X185318791Y-96101170D01*
X185184875Y-96156639D01*
X185178322Y-96161667D01*
X185171173Y-96165795D01*
X185170365Y-96164395D01*
X185113019Y-96186563D01*
X185102537Y-96187000D01*
X182871720Y-96187000D01*
X182856911Y-96186127D01*
X182832543Y-96183243D01*
X182823190Y-96182136D01*
X182813926Y-96183828D01*
X182813922Y-96183828D01*
X182765489Y-96192673D01*
X182761588Y-96193322D01*
X182712855Y-96200649D01*
X182712847Y-96200651D01*
X182703538Y-96202051D01*
X182697028Y-96205177D01*
X182689927Y-96206474D01*
X182681572Y-96210814D01*
X182637863Y-96233518D01*
X182634325Y-96235286D01*
X182589911Y-96256614D01*
X182581421Y-96260691D01*
X182576135Y-96265578D01*
X182576095Y-96265605D01*
X182569712Y-96268920D01*
X182564672Y-96273225D01*
X182535981Y-96301916D01*
X182473669Y-96335942D01*
X182465000Y-96337453D01*
X182464483Y-96337592D01*
X182456291Y-96338670D01*
X182448664Y-96341829D01*
X182448661Y-96341830D01*
X182341638Y-96386160D01*
X182322375Y-96394139D01*
X182207379Y-96482379D01*
X182119139Y-96597375D01*
X182063670Y-96731291D01*
X182044750Y-96875000D01*
X170237366Y-96875000D01*
X170234837Y-96872734D01*
X169835584Y-96473481D01*
X169801558Y-96411169D01*
X169800048Y-96402503D01*
X169799908Y-96401980D01*
X169798830Y-96393791D01*
X169743361Y-96259875D01*
X169655121Y-96144879D01*
X169540125Y-96056639D01*
X169406209Y-96001170D01*
X169262500Y-95982250D01*
X169118791Y-96001170D01*
X168984875Y-96056639D01*
X168869879Y-96144879D01*
X168781639Y-96259875D01*
X168726170Y-96393791D01*
X168707250Y-96537500D01*
X129773118Y-96537500D01*
X129815711Y-96488929D01*
X129845530Y-96454926D01*
X129851165Y-96448909D01*
X130673788Y-95626242D01*
X130679806Y-95620605D01*
X130867191Y-95456266D01*
X130880267Y-95446232D01*
X131084063Y-95310054D01*
X131098337Y-95301813D01*
X131318162Y-95193403D01*
X131333379Y-95187099D01*
X131565488Y-95108306D01*
X131581400Y-95104042D01*
X131702564Y-95079940D01*
X131821800Y-95056222D01*
X131838141Y-95054071D01*
X132086839Y-95037770D01*
X132095080Y-95037500D01*
X137262500Y-95037500D01*
X137547130Y-95017143D01*
X137551534Y-95016185D01*
X137821558Y-94957445D01*
X137821562Y-94957444D01*
X137825965Y-94956486D01*
X138093330Y-94856764D01*
X138343782Y-94720007D01*
X138572221Y-94548999D01*
X138773999Y-94347221D01*
X138945007Y-94118782D01*
X139081764Y-93868330D01*
X139181486Y-93600965D01*
X139242143Y-93322130D01*
X139262500Y-93037500D01*
X139262500Y-91737500D01*
X139842319Y-91737500D01*
X139861008Y-91951119D01*
X139916508Y-92158247D01*
X139918830Y-92163227D01*
X139918831Y-92163229D01*
X140004806Y-92347603D01*
X140004809Y-92347608D01*
X140007132Y-92352590D01*
X140010288Y-92357097D01*
X140010289Y-92357099D01*
X140033491Y-92390234D01*
X140130127Y-92528245D01*
X140281755Y-92679873D01*
X140457409Y-92802868D01*
X140462391Y-92805191D01*
X140462396Y-92805194D01*
X140646771Y-92891169D01*
X140651753Y-92893492D01*
X140657061Y-92894914D01*
X140657063Y-92894915D01*
X140721173Y-92912093D01*
X140858881Y-92948992D01*
X141072500Y-92967681D01*
X141286119Y-92948992D01*
X141423827Y-92912093D01*
X141487937Y-92894915D01*
X141487939Y-92894914D01*
X141493247Y-92893492D01*
X141498229Y-92891169D01*
X141682604Y-92805194D01*
X141682609Y-92805191D01*
X141687591Y-92802868D01*
X141863245Y-92679873D01*
X142014873Y-92528245D01*
X142111510Y-92390234D01*
X142134711Y-92357099D01*
X142134712Y-92357097D01*
X142137868Y-92352590D01*
X142140191Y-92347608D01*
X142140194Y-92347603D01*
X142228305Y-92158648D01*
X142275222Y-92105363D01*
X142343500Y-92085902D01*
X142411460Y-92106444D01*
X142456695Y-92158648D01*
X142544806Y-92347603D01*
X142544809Y-92347608D01*
X142547132Y-92352590D01*
X142550288Y-92357097D01*
X142550289Y-92357099D01*
X142573491Y-92390234D01*
X142670127Y-92528245D01*
X142821755Y-92679873D01*
X142997409Y-92802868D01*
X143002391Y-92805191D01*
X143002396Y-92805194D01*
X143186771Y-92891169D01*
X143191753Y-92893492D01*
X143197061Y-92894914D01*
X143197063Y-92894915D01*
X143261173Y-92912093D01*
X143398881Y-92948992D01*
X143612500Y-92967681D01*
X143826119Y-92948992D01*
X143963827Y-92912093D01*
X144027937Y-92894915D01*
X144027939Y-92894914D01*
X144033247Y-92893492D01*
X144038229Y-92891169D01*
X144222604Y-92805194D01*
X144222609Y-92805191D01*
X144227591Y-92802868D01*
X144403245Y-92679873D01*
X144554873Y-92528245D01*
X144651510Y-92390234D01*
X144674711Y-92357099D01*
X144674712Y-92357097D01*
X144677868Y-92352590D01*
X144680191Y-92347608D01*
X144680194Y-92347603D01*
X144766169Y-92163229D01*
X144766170Y-92163227D01*
X144768492Y-92158247D01*
X144823992Y-91951119D01*
X144842681Y-91737500D01*
X144823992Y-91523881D01*
X144768492Y-91316753D01*
X144747400Y-91271521D01*
X144680194Y-91127397D01*
X144680191Y-91127392D01*
X144677868Y-91122410D01*
X144554873Y-90946755D01*
X144403245Y-90795127D01*
X144227591Y-90672132D01*
X144222609Y-90669809D01*
X144222604Y-90669806D01*
X144038229Y-90583831D01*
X144038228Y-90583830D01*
X144033247Y-90581508D01*
X144027939Y-90580086D01*
X144027937Y-90580085D01*
X143963827Y-90562907D01*
X143826119Y-90526008D01*
X143612500Y-90507319D01*
X143398881Y-90526008D01*
X143261173Y-90562907D01*
X143197063Y-90580085D01*
X143197061Y-90580086D01*
X143191753Y-90581508D01*
X143186773Y-90583830D01*
X143186771Y-90583831D01*
X143002397Y-90669806D01*
X143002392Y-90669809D01*
X142997410Y-90672132D01*
X142992903Y-90675288D01*
X142992901Y-90675289D01*
X142826266Y-90791968D01*
X142826263Y-90791970D01*
X142821755Y-90795127D01*
X142670127Y-90946755D01*
X142547132Y-91122410D01*
X142544809Y-91127392D01*
X142544806Y-91127397D01*
X142456695Y-91316352D01*
X142409778Y-91369637D01*
X142341500Y-91389098D01*
X142273540Y-91368556D01*
X142228305Y-91316352D01*
X142140194Y-91127397D01*
X142140191Y-91127392D01*
X142137868Y-91122410D01*
X142014873Y-90946755D01*
X141863245Y-90795127D01*
X141687591Y-90672132D01*
X141682609Y-90669809D01*
X141682604Y-90669806D01*
X141498229Y-90583831D01*
X141498228Y-90583830D01*
X141493247Y-90581508D01*
X141487939Y-90580086D01*
X141487937Y-90580085D01*
X141423827Y-90562907D01*
X141286119Y-90526008D01*
X141072500Y-90507319D01*
X140858881Y-90526008D01*
X140721173Y-90562907D01*
X140657063Y-90580085D01*
X140657061Y-90580086D01*
X140651753Y-90581508D01*
X140646773Y-90583830D01*
X140646771Y-90583831D01*
X140462397Y-90669806D01*
X140462392Y-90669809D01*
X140457410Y-90672132D01*
X140452903Y-90675288D01*
X140452901Y-90675289D01*
X140286266Y-90791968D01*
X140286263Y-90791970D01*
X140281755Y-90795127D01*
X140130127Y-90946755D01*
X140007132Y-91122410D01*
X140004809Y-91127392D01*
X140004806Y-91127397D01*
X139937600Y-91271521D01*
X139916508Y-91316753D01*
X139861008Y-91523881D01*
X139842319Y-91737500D01*
X139262500Y-91737500D01*
X139262500Y-89849777D01*
X139238734Y-89542371D01*
X139168001Y-89242271D01*
X139051983Y-88956608D01*
X138893436Y-88692172D01*
X138696128Y-88455248D01*
X135722690Y-85398442D01*
X135717855Y-85393471D01*
X136452985Y-85393471D01*
X136471905Y-85537180D01*
X136527374Y-85671096D01*
X136615614Y-85786092D01*
X136730610Y-85874332D01*
X136864526Y-85929801D01*
X137008235Y-85948721D01*
X137151944Y-85929801D01*
X137285860Y-85874332D01*
X137400856Y-85786092D01*
X137489096Y-85671096D01*
X137544565Y-85537180D01*
X137545643Y-85528990D01*
X137547780Y-85521016D01*
X137549343Y-85521435D01*
X137574215Y-85465212D01*
X137581319Y-85457490D01*
X137801309Y-85237500D01*
X153507250Y-85237500D01*
X153526170Y-85381209D01*
X153581639Y-85515125D01*
X153586667Y-85521678D01*
X153590795Y-85528827D01*
X153589395Y-85529635D01*
X153611563Y-85586981D01*
X153612000Y-85597463D01*
X153612000Y-85948670D01*
X153611127Y-85963479D01*
X153607136Y-85997200D01*
X153608828Y-86006464D01*
X153608828Y-86006465D01*
X153617672Y-86054891D01*
X153618322Y-86058794D01*
X153618887Y-86062548D01*
X153627051Y-86116852D01*
X153630179Y-86123365D01*
X153631475Y-86130463D01*
X153658525Y-86182537D01*
X153660268Y-86186027D01*
X153685691Y-86238969D01*
X153690577Y-86244255D01*
X153690610Y-86244303D01*
X153693921Y-86250678D01*
X153698225Y-86255718D01*
X153735452Y-86292945D01*
X153738881Y-86296510D01*
X153777646Y-86338446D01*
X153784005Y-86342139D01*
X153790163Y-86347656D01*
X153966721Y-86524214D01*
X154000747Y-86586526D01*
X154002257Y-86595192D01*
X154002397Y-86595713D01*
X154003475Y-86603904D01*
X154058944Y-86737820D01*
X154147184Y-86852816D01*
X154262180Y-86941056D01*
X154396096Y-86996525D01*
X154539805Y-87015445D01*
X154683514Y-86996525D01*
X154817430Y-86941056D01*
X154932426Y-86852816D01*
X155020666Y-86737820D01*
X155076135Y-86603904D01*
X155095055Y-86460195D01*
X155076135Y-86316486D01*
X155020666Y-86182570D01*
X154932426Y-86067574D01*
X154817430Y-85979334D01*
X154716432Y-85937500D01*
X170607250Y-85937500D01*
X170626170Y-86081209D01*
X170681639Y-86215125D01*
X170769879Y-86330121D01*
X170884875Y-86418361D01*
X171018791Y-86473830D01*
X171026981Y-86474908D01*
X171034955Y-86477045D01*
X171034536Y-86478608D01*
X171090758Y-86503478D01*
X171098481Y-86510584D01*
X173025095Y-88437198D01*
X173059121Y-88499510D01*
X173062000Y-88526293D01*
X173062000Y-90427537D01*
X173041998Y-90495658D01*
X173036933Y-90502861D01*
X173036665Y-90503325D01*
X173031639Y-90509875D01*
X172976170Y-90643791D01*
X172957250Y-90787500D01*
X172976170Y-90931209D01*
X173031639Y-91065125D01*
X173119879Y-91180121D01*
X173234875Y-91268361D01*
X173368791Y-91323830D01*
X173512500Y-91342750D01*
X173656209Y-91323830D01*
X173790125Y-91268361D01*
X173905121Y-91180121D01*
X173912538Y-91170455D01*
X173915225Y-91168493D01*
X173915988Y-91167730D01*
X173916107Y-91167849D01*
X173969876Y-91128588D01*
X174040747Y-91124366D01*
X174102649Y-91159130D01*
X174112462Y-91170455D01*
X174119879Y-91180121D01*
X174234875Y-91268361D01*
X174368791Y-91323830D01*
X174512500Y-91342750D01*
X174656209Y-91323830D01*
X174790125Y-91268361D01*
X174905121Y-91180121D01*
X174912538Y-91170455D01*
X174915225Y-91168493D01*
X174915988Y-91167730D01*
X174916107Y-91167849D01*
X174969876Y-91128588D01*
X175040747Y-91124366D01*
X175102649Y-91159130D01*
X175112462Y-91170455D01*
X175119879Y-91180121D01*
X175234875Y-91268361D01*
X175368791Y-91323830D01*
X175512500Y-91342750D01*
X175656209Y-91323830D01*
X175790125Y-91268361D01*
X175905121Y-91180121D01*
X175993361Y-91065125D01*
X176048830Y-90931209D01*
X176067750Y-90787500D01*
X176048830Y-90643791D01*
X175993361Y-90509875D01*
X175988333Y-90503322D01*
X175984205Y-90496173D01*
X175985605Y-90495365D01*
X175963437Y-90438019D01*
X175963000Y-90427537D01*
X175963000Y-88571720D01*
X175963873Y-88556911D01*
X175966757Y-88532543D01*
X175967864Y-88523190D01*
X175963539Y-88499510D01*
X175957328Y-88465499D01*
X175956678Y-88461596D01*
X175949350Y-88412855D01*
X175949350Y-88412854D01*
X175947949Y-88403538D01*
X175944821Y-88397025D01*
X175943525Y-88389927D01*
X175916475Y-88337853D01*
X175914725Y-88334350D01*
X175893385Y-88289910D01*
X175889309Y-88281421D01*
X175884423Y-88276135D01*
X175884390Y-88276087D01*
X175881079Y-88269712D01*
X175876775Y-88264672D01*
X175860584Y-88248481D01*
X175826558Y-88186169D01*
X175825047Y-88177500D01*
X175824908Y-88176983D01*
X175823830Y-88168791D01*
X175768361Y-88034875D01*
X175680121Y-87919879D01*
X175565125Y-87831639D01*
X175431209Y-87776170D01*
X175287500Y-87757250D01*
X175143791Y-87776170D01*
X175136157Y-87779332D01*
X175036191Y-87820738D01*
X174965601Y-87828327D01*
X174902115Y-87796547D01*
X174889460Y-87781736D01*
X174889309Y-87781421D01*
X174887750Y-87779734D01*
X174884015Y-87775363D01*
X174881079Y-87769711D01*
X174876775Y-87764672D01*
X174839548Y-87727445D01*
X174836122Y-87723882D01*
X174832108Y-87719540D01*
X174803927Y-87659451D01*
X174802045Y-87659955D01*
X174799908Y-87651978D01*
X174798830Y-87643791D01*
X174777689Y-87592750D01*
X174746521Y-87517504D01*
X174743361Y-87509875D01*
X174655121Y-87394879D01*
X174540125Y-87306639D01*
X174406209Y-87251170D01*
X174262500Y-87232250D01*
X174118791Y-87251170D01*
X173984875Y-87306639D01*
X173869879Y-87394879D01*
X173781639Y-87509875D01*
X173778480Y-87517502D01*
X173778477Y-87517507D01*
X173733816Y-87625331D01*
X173689268Y-87680613D01*
X173621905Y-87703034D01*
X173553114Y-87685476D01*
X173528312Y-87666209D01*
X171799603Y-85937500D01*
X190407250Y-85937500D01*
X190426170Y-86081209D01*
X190481639Y-86215125D01*
X190569879Y-86330121D01*
X190684875Y-86418361D01*
X190818791Y-86473830D01*
X190962500Y-86492750D01*
X191106209Y-86473830D01*
X191240125Y-86418361D01*
X191355121Y-86330121D01*
X191443361Y-86215125D01*
X191498830Y-86081209D01*
X191499908Y-86073019D01*
X191502045Y-86065045D01*
X191503608Y-86065464D01*
X191528478Y-86009242D01*
X191535584Y-86001519D01*
X191912198Y-85624905D01*
X191974510Y-85590879D01*
X192001293Y-85588000D01*
X194602537Y-85588000D01*
X194670658Y-85608002D01*
X194677861Y-85613067D01*
X194678325Y-85613335D01*
X194684875Y-85618361D01*
X194818791Y-85673830D01*
X194962500Y-85692750D01*
X195106209Y-85673830D01*
X195240125Y-85618361D01*
X195355121Y-85530121D01*
X195443361Y-85415125D01*
X195498830Y-85281209D01*
X195517750Y-85137500D01*
X195498830Y-84993791D01*
X195443361Y-84859875D01*
X195355121Y-84744879D01*
X195240125Y-84656639D01*
X195106209Y-84601170D01*
X194962500Y-84582250D01*
X194818791Y-84601170D01*
X194684875Y-84656639D01*
X194678322Y-84661667D01*
X194671173Y-84665795D01*
X194670365Y-84664395D01*
X194613019Y-84686563D01*
X194602537Y-84687000D01*
X191796720Y-84687000D01*
X191781911Y-84686127D01*
X191757543Y-84683243D01*
X191748190Y-84682136D01*
X191738926Y-84683828D01*
X191738922Y-84683828D01*
X191690489Y-84692673D01*
X191686588Y-84693322D01*
X191637855Y-84700649D01*
X191637847Y-84700651D01*
X191628538Y-84702051D01*
X191622028Y-84705177D01*
X191614927Y-84706474D01*
X191606572Y-84710814D01*
X191562863Y-84733518D01*
X191559325Y-84735286D01*
X191514911Y-84756614D01*
X191506421Y-84760691D01*
X191501135Y-84765578D01*
X191501095Y-84765605D01*
X191494712Y-84768920D01*
X191489672Y-84773225D01*
X191452445Y-84810452D01*
X191448880Y-84813881D01*
X191406944Y-84852646D01*
X191403251Y-84859005D01*
X191397734Y-84865163D01*
X190898481Y-85364416D01*
X190836169Y-85398442D01*
X190827503Y-85399952D01*
X190826982Y-85400092D01*
X190818791Y-85401170D01*
X190684875Y-85456639D01*
X190569879Y-85544879D01*
X190481639Y-85659875D01*
X190426170Y-85793791D01*
X190407250Y-85937500D01*
X171799603Y-85937500D01*
X171735584Y-85873481D01*
X171701558Y-85811169D01*
X171700048Y-85802503D01*
X171699908Y-85801980D01*
X171698830Y-85793791D01*
X171643361Y-85659875D01*
X171555121Y-85544879D01*
X171440125Y-85456639D01*
X171306209Y-85401170D01*
X171162500Y-85382250D01*
X171018791Y-85401170D01*
X170884875Y-85456639D01*
X170769879Y-85544879D01*
X170681639Y-85659875D01*
X170626170Y-85793791D01*
X170607250Y-85937500D01*
X154716432Y-85937500D01*
X154683514Y-85923865D01*
X154675324Y-85922787D01*
X154667350Y-85920650D01*
X154667769Y-85919087D01*
X154611547Y-85894217D01*
X154603824Y-85887111D01*
X154549905Y-85833192D01*
X154515879Y-85770880D01*
X154513000Y-85744097D01*
X154513000Y-85597463D01*
X154533002Y-85529342D01*
X154538067Y-85522139D01*
X154538335Y-85521675D01*
X154543361Y-85515125D01*
X154598830Y-85381209D01*
X154617750Y-85237500D01*
X154598830Y-85093791D01*
X154543361Y-84959875D01*
X154455121Y-84844879D01*
X154340125Y-84756639D01*
X154206209Y-84701170D01*
X154062500Y-84682250D01*
X153918791Y-84701170D01*
X153784875Y-84756639D01*
X153669879Y-84844879D01*
X153581639Y-84959875D01*
X153526170Y-85093791D01*
X153507250Y-85237500D01*
X137801309Y-85237500D01*
X138140069Y-84898741D01*
X138202381Y-84864716D01*
X138245610Y-84862915D01*
X138299807Y-84870050D01*
X138299808Y-84870050D01*
X138307996Y-84871128D01*
X138451705Y-84852208D01*
X138583564Y-84797591D01*
X138631782Y-84788000D01*
X140502537Y-84788000D01*
X140570658Y-84808002D01*
X140577861Y-84813067D01*
X140578325Y-84813335D01*
X140584875Y-84818361D01*
X140718791Y-84873830D01*
X140862500Y-84892750D01*
X141006209Y-84873830D01*
X141140125Y-84818361D01*
X141146678Y-84813333D01*
X141153827Y-84809205D01*
X141154635Y-84810605D01*
X141211981Y-84788437D01*
X141222463Y-84788000D01*
X143102537Y-84788000D01*
X143170658Y-84808002D01*
X143177861Y-84813067D01*
X143178325Y-84813335D01*
X143184875Y-84818361D01*
X143318791Y-84873830D01*
X143462500Y-84892750D01*
X143606209Y-84873830D01*
X143740125Y-84818361D01*
X143746678Y-84813333D01*
X143753827Y-84809205D01*
X143754635Y-84810605D01*
X143811981Y-84788437D01*
X143822463Y-84788000D01*
X150028280Y-84788000D01*
X150043089Y-84788873D01*
X150046477Y-84789274D01*
X150076810Y-84792864D01*
X150086074Y-84791172D01*
X150086075Y-84791172D01*
X150134501Y-84782328D01*
X150138404Y-84781678D01*
X150187145Y-84774350D01*
X150187146Y-84774350D01*
X150196462Y-84772949D01*
X150202975Y-84769821D01*
X150210073Y-84768525D01*
X150262147Y-84741475D01*
X150265637Y-84739732D01*
X150318579Y-84714309D01*
X150323865Y-84709423D01*
X150323913Y-84709390D01*
X150330288Y-84706079D01*
X150335328Y-84701775D01*
X150372555Y-84664548D01*
X150376121Y-84661118D01*
X150399512Y-84639496D01*
X150418056Y-84622354D01*
X150421749Y-84615995D01*
X150427266Y-84609837D01*
X151526519Y-83510584D01*
X151588831Y-83476558D01*
X151597497Y-83475048D01*
X151598018Y-83474908D01*
X151606209Y-83473830D01*
X151740125Y-83418361D01*
X151855121Y-83330121D01*
X151943361Y-83215125D01*
X151998830Y-83081209D01*
X152017750Y-82937500D01*
X151998830Y-82793791D01*
X151943361Y-82659875D01*
X151855121Y-82544879D01*
X151740125Y-82456639D01*
X151606209Y-82401170D01*
X151462500Y-82382250D01*
X151318791Y-82401170D01*
X151184875Y-82456639D01*
X151069879Y-82544879D01*
X150981639Y-82659875D01*
X150926170Y-82793791D01*
X150925092Y-82801980D01*
X150922955Y-82809955D01*
X150921392Y-82809536D01*
X150896522Y-82865758D01*
X150889416Y-82873481D01*
X149912802Y-83850095D01*
X149850490Y-83884121D01*
X149823707Y-83887000D01*
X143822463Y-83887000D01*
X143754342Y-83866998D01*
X143747139Y-83861933D01*
X143746675Y-83861665D01*
X143740125Y-83856639D01*
X143606209Y-83801170D01*
X143462500Y-83782250D01*
X143318791Y-83801170D01*
X143184875Y-83856639D01*
X143178322Y-83861667D01*
X143171173Y-83865795D01*
X143170365Y-83864395D01*
X143113019Y-83886563D01*
X143102537Y-83887000D01*
X141222463Y-83887000D01*
X141154342Y-83866998D01*
X141147139Y-83861933D01*
X141146675Y-83861665D01*
X141140125Y-83856639D01*
X141006209Y-83801170D01*
X140862500Y-83782250D01*
X140718791Y-83801170D01*
X140584875Y-83856639D01*
X140578322Y-83861667D01*
X140571173Y-83865795D01*
X140570365Y-83864395D01*
X140513019Y-83886563D01*
X140502537Y-83887000D01*
X138696137Y-83887000D01*
X138628016Y-83866998D01*
X138619433Y-83860962D01*
X138609681Y-83853479D01*
X138585621Y-83835017D01*
X138451705Y-83779548D01*
X138307996Y-83760628D01*
X138164287Y-83779548D01*
X138030371Y-83835017D01*
X138023820Y-83840044D01*
X138023818Y-83840045D01*
X137966743Y-83883841D01*
X137933769Y-83901521D01*
X137930244Y-83902051D01*
X137923734Y-83905177D01*
X137916633Y-83906474D01*
X137908278Y-83910814D01*
X137864569Y-83933518D01*
X137861031Y-83935286D01*
X137816617Y-83956614D01*
X137808127Y-83960691D01*
X137802846Y-83965574D01*
X137802794Y-83965609D01*
X137796418Y-83968920D01*
X137791378Y-83973224D01*
X137754139Y-84010463D01*
X137750573Y-84013893D01*
X137715563Y-84046255D01*
X137715561Y-84046258D01*
X137708650Y-84052646D01*
X137704959Y-84059001D01*
X137699451Y-84065151D01*
X137309337Y-84455266D01*
X136944216Y-84820387D01*
X136881903Y-84854412D01*
X136873239Y-84855923D01*
X136872719Y-84856062D01*
X136864526Y-84857141D01*
X136730610Y-84912610D01*
X136615614Y-85000850D01*
X136527374Y-85115846D01*
X136471905Y-85249762D01*
X136452985Y-85393471D01*
X135717855Y-85393471D01*
X134457910Y-84098201D01*
X134451650Y-84091268D01*
X134352680Y-83973149D01*
X134270332Y-83874868D01*
X134259446Y-83859726D01*
X134114529Y-83622882D01*
X134105994Y-83606282D01*
X133997676Y-83350646D01*
X133991685Y-83332962D01*
X133922330Y-83064112D01*
X133919020Y-83045743D01*
X133918826Y-83043880D01*
X133889670Y-82764949D01*
X133889044Y-82755628D01*
X133832265Y-80863000D01*
X154575902Y-80863000D01*
X154594822Y-81006709D01*
X154650291Y-81140625D01*
X154655319Y-81147178D01*
X154659447Y-81154327D01*
X154658047Y-81155135D01*
X154680215Y-81212481D01*
X154680652Y-81222963D01*
X154680652Y-82831585D01*
X154679779Y-82846394D01*
X154675788Y-82880115D01*
X154677480Y-82889379D01*
X154677480Y-82889380D01*
X154686324Y-82937806D01*
X154686974Y-82941709D01*
X154695703Y-82999767D01*
X154698831Y-83006280D01*
X154700127Y-83013378D01*
X154727177Y-83065452D01*
X154728920Y-83068942D01*
X154754343Y-83121884D01*
X154759229Y-83127170D01*
X154759262Y-83127218D01*
X154762573Y-83133593D01*
X154766877Y-83138633D01*
X154804104Y-83175860D01*
X154807533Y-83179425D01*
X154846298Y-83221361D01*
X154852657Y-83225054D01*
X154858815Y-83230571D01*
X156088916Y-84460672D01*
X156122942Y-84522984D01*
X156124452Y-84531650D01*
X156124592Y-84532171D01*
X156125670Y-84540362D01*
X156181139Y-84674278D01*
X156269379Y-84789274D01*
X156384375Y-84877514D01*
X156518291Y-84932983D01*
X156662000Y-84951903D01*
X156805709Y-84932983D01*
X156939625Y-84877514D01*
X157022348Y-84814038D01*
X157088568Y-84788437D01*
X157099052Y-84788000D01*
X158455571Y-84788000D01*
X158523692Y-84808002D01*
X158532274Y-84814037D01*
X158534659Y-84815867D01*
X158534663Y-84815869D01*
X158541214Y-84820896D01*
X158675130Y-84876365D01*
X158818839Y-84895285D01*
X158962548Y-84876365D01*
X159096464Y-84820896D01*
X159103015Y-84815869D01*
X159103019Y-84815867D01*
X159105404Y-84814037D01*
X159107779Y-84813119D01*
X159110169Y-84811739D01*
X159110384Y-84812112D01*
X159171625Y-84788437D01*
X159182107Y-84788000D01*
X161002537Y-84788000D01*
X161070658Y-84808002D01*
X161077861Y-84813067D01*
X161078325Y-84813335D01*
X161084875Y-84818361D01*
X161218791Y-84873830D01*
X161362500Y-84892750D01*
X161506209Y-84873830D01*
X161640125Y-84818361D01*
X161646678Y-84813333D01*
X161653827Y-84809205D01*
X161654635Y-84810605D01*
X161711981Y-84788437D01*
X161722463Y-84788000D01*
X163584210Y-84788000D01*
X163632428Y-84797591D01*
X163764287Y-84852208D01*
X163907996Y-84871128D01*
X164051705Y-84852208D01*
X164185621Y-84796739D01*
X164192174Y-84791711D01*
X164199323Y-84787583D01*
X164200131Y-84788983D01*
X164257477Y-84766815D01*
X164267959Y-84766378D01*
X166449902Y-84766378D01*
X166464711Y-84767251D01*
X166498432Y-84771242D01*
X166507696Y-84769550D01*
X166507697Y-84769550D01*
X166556123Y-84760706D01*
X166560026Y-84760056D01*
X166608767Y-84752728D01*
X166608768Y-84752728D01*
X166618084Y-84751327D01*
X166624597Y-84748199D01*
X166631695Y-84746903D01*
X166683769Y-84719853D01*
X166687259Y-84718110D01*
X166740201Y-84692687D01*
X166745487Y-84687801D01*
X166745535Y-84687768D01*
X166751910Y-84684457D01*
X166756950Y-84680153D01*
X166794177Y-84642926D01*
X166797744Y-84639496D01*
X166833171Y-84606748D01*
X166890766Y-84579737D01*
X166890045Y-84577045D01*
X166898019Y-84574908D01*
X166906209Y-84573830D01*
X167040125Y-84518361D01*
X167155121Y-84430121D01*
X167243361Y-84315125D01*
X167276258Y-84235703D01*
X176216164Y-84235703D01*
X176235084Y-84379412D01*
X176290553Y-84513328D01*
X176378793Y-84628324D01*
X176493789Y-84716564D01*
X176627705Y-84772033D01*
X176771414Y-84790953D01*
X176915123Y-84772033D01*
X177049039Y-84716564D01*
X177055593Y-84711535D01*
X177062741Y-84707408D01*
X177063549Y-84708808D01*
X177120895Y-84686640D01*
X177131377Y-84686203D01*
X178911451Y-84686203D01*
X178979572Y-84706205D01*
X178986775Y-84711270D01*
X178987239Y-84711538D01*
X178993789Y-84716564D01*
X179127705Y-84772033D01*
X179271414Y-84790953D01*
X179415123Y-84772033D01*
X179549039Y-84716564D01*
X179555593Y-84711535D01*
X179562741Y-84707408D01*
X179563549Y-84708808D01*
X179620895Y-84686640D01*
X179631377Y-84686203D01*
X181511451Y-84686203D01*
X181579572Y-84706205D01*
X181586775Y-84711270D01*
X181587239Y-84711538D01*
X181593789Y-84716564D01*
X181727705Y-84772033D01*
X181871414Y-84790953D01*
X182015123Y-84772033D01*
X182149039Y-84716564D01*
X182155593Y-84711535D01*
X182162741Y-84707408D01*
X182163549Y-84708808D01*
X182220895Y-84686640D01*
X182231377Y-84686203D01*
X183943548Y-84686203D01*
X184011669Y-84706205D01*
X184020248Y-84712238D01*
X184050284Y-84735286D01*
X184122831Y-84790953D01*
X184130371Y-84796739D01*
X184264287Y-84852208D01*
X184407996Y-84871128D01*
X184551705Y-84852208D01*
X184685621Y-84796739D01*
X184692174Y-84791711D01*
X184699323Y-84787583D01*
X184700131Y-84788983D01*
X184757477Y-84766815D01*
X184767959Y-84766378D01*
X190149902Y-84766378D01*
X190164711Y-84767251D01*
X190198432Y-84771242D01*
X190207696Y-84769550D01*
X190207697Y-84769550D01*
X190256123Y-84760706D01*
X190260026Y-84760056D01*
X190308767Y-84752728D01*
X190308768Y-84752728D01*
X190318084Y-84751327D01*
X190324597Y-84748199D01*
X190331695Y-84746903D01*
X190383769Y-84719853D01*
X190387259Y-84718110D01*
X190440201Y-84692687D01*
X190445487Y-84687801D01*
X190445535Y-84687768D01*
X190451910Y-84684457D01*
X190456950Y-84680153D01*
X190494177Y-84642926D01*
X190497743Y-84639496D01*
X190532763Y-84607124D01*
X190539678Y-84600732D01*
X190543371Y-84594373D01*
X190548888Y-84588215D01*
X191826519Y-83310584D01*
X191888831Y-83276558D01*
X191897497Y-83275048D01*
X191898018Y-83274908D01*
X191906209Y-83273830D01*
X192040125Y-83218361D01*
X192155121Y-83130121D01*
X192243361Y-83015125D01*
X192298830Y-82881209D01*
X192317750Y-82737500D01*
X192298830Y-82593791D01*
X192243361Y-82459875D01*
X192155121Y-82344879D01*
X192040125Y-82256639D01*
X191906209Y-82201170D01*
X191762500Y-82182250D01*
X191618791Y-82201170D01*
X191484875Y-82256639D01*
X191369879Y-82344879D01*
X191281639Y-82459875D01*
X191226170Y-82593791D01*
X191225092Y-82601980D01*
X191222955Y-82609955D01*
X191221392Y-82609536D01*
X191196520Y-82665759D01*
X191189416Y-82673480D01*
X190610188Y-83252709D01*
X190034424Y-83828473D01*
X189972112Y-83862498D01*
X189945329Y-83865378D01*
X184767959Y-83865378D01*
X184699838Y-83845376D01*
X184692635Y-83840311D01*
X184692171Y-83840043D01*
X184685621Y-83835017D01*
X184551705Y-83779548D01*
X184407996Y-83760628D01*
X184264287Y-83779548D01*
X184259896Y-83781367D01*
X184230757Y-83785203D01*
X182231377Y-83785203D01*
X182163256Y-83765201D01*
X182156053Y-83760136D01*
X182155589Y-83759868D01*
X182149039Y-83754842D01*
X182015123Y-83699373D01*
X181871414Y-83680453D01*
X181727705Y-83699373D01*
X181593789Y-83754842D01*
X181587236Y-83759870D01*
X181580087Y-83763998D01*
X181579279Y-83762598D01*
X181521933Y-83784766D01*
X181511451Y-83785203D01*
X179631377Y-83785203D01*
X179563256Y-83765201D01*
X179556053Y-83760136D01*
X179555589Y-83759868D01*
X179549039Y-83754842D01*
X179415123Y-83699373D01*
X179271414Y-83680453D01*
X179127705Y-83699373D01*
X178993789Y-83754842D01*
X178987236Y-83759870D01*
X178980087Y-83763998D01*
X178979279Y-83762598D01*
X178921933Y-83784766D01*
X178911451Y-83785203D01*
X177131377Y-83785203D01*
X177063256Y-83765201D01*
X177056053Y-83760136D01*
X177055589Y-83759868D01*
X177049039Y-83754842D01*
X176915123Y-83699373D01*
X176771414Y-83680453D01*
X176627705Y-83699373D01*
X176493789Y-83754842D01*
X176378793Y-83843082D01*
X176290553Y-83958078D01*
X176235084Y-84091994D01*
X176216164Y-84235703D01*
X167276258Y-84235703D01*
X167298830Y-84181209D01*
X167317750Y-84037500D01*
X167298830Y-83893791D01*
X167243361Y-83759875D01*
X167155121Y-83644879D01*
X167040125Y-83556639D01*
X166906209Y-83501170D01*
X166762500Y-83482250D01*
X166618791Y-83501170D01*
X166484875Y-83556639D01*
X166369879Y-83644879D01*
X166364853Y-83651429D01*
X166287926Y-83751682D01*
X166281639Y-83759875D01*
X166273937Y-83778471D01*
X166270157Y-83787596D01*
X166225609Y-83842877D01*
X166153748Y-83865378D01*
X164267959Y-83865378D01*
X164199838Y-83845376D01*
X164192635Y-83840311D01*
X164192171Y-83840043D01*
X164185621Y-83835017D01*
X164051705Y-83779548D01*
X163907996Y-83760628D01*
X163764287Y-83779548D01*
X163630371Y-83835017D01*
X163606311Y-83853479D01*
X163596559Y-83860962D01*
X163530339Y-83886563D01*
X163519855Y-83887000D01*
X161722463Y-83887000D01*
X161654342Y-83866998D01*
X161647139Y-83861933D01*
X161646675Y-83861665D01*
X161640125Y-83856639D01*
X161506209Y-83801170D01*
X161362500Y-83782250D01*
X161218791Y-83801170D01*
X161084875Y-83856639D01*
X161078322Y-83861667D01*
X161071173Y-83865795D01*
X161070365Y-83864395D01*
X161013019Y-83886563D01*
X161002537Y-83887000D01*
X159175499Y-83887000D01*
X159110422Y-83867892D01*
X159110169Y-83868331D01*
X159108359Y-83867286D01*
X159107378Y-83866998D01*
X159105167Y-83865443D01*
X159103014Y-83864200D01*
X159096464Y-83859174D01*
X158962548Y-83803705D01*
X158818839Y-83784785D01*
X158675130Y-83803705D01*
X158541214Y-83859174D01*
X158534663Y-83864201D01*
X158527509Y-83868331D01*
X158526106Y-83865901D01*
X158472667Y-83886563D01*
X158462179Y-83887000D01*
X156895176Y-83887000D01*
X156846959Y-83877409D01*
X156813337Y-83863482D01*
X156813333Y-83863481D01*
X156805709Y-83860323D01*
X156797526Y-83859246D01*
X156789544Y-83857107D01*
X156789963Y-83855545D01*
X156733742Y-83830675D01*
X156726019Y-83823569D01*
X155618557Y-82716107D01*
X155584531Y-82653795D01*
X155581652Y-82627012D01*
X155581652Y-81222963D01*
X155601654Y-81154842D01*
X155606719Y-81147639D01*
X155606987Y-81147175D01*
X155612013Y-81140625D01*
X155667482Y-81006709D01*
X155686402Y-80863000D01*
X195607250Y-80863000D01*
X195626170Y-81006709D01*
X195681639Y-81140625D01*
X195686667Y-81147178D01*
X195690795Y-81154327D01*
X195689395Y-81155135D01*
X195711563Y-81212481D01*
X195712000Y-81222963D01*
X195712000Y-82862933D01*
X195711127Y-82877742D01*
X195707136Y-82911463D01*
X195708828Y-82920727D01*
X195708828Y-82920728D01*
X195717672Y-82969154D01*
X195718322Y-82973057D01*
X195724753Y-83015827D01*
X195727051Y-83031115D01*
X195730179Y-83037628D01*
X195731475Y-83044726D01*
X195758525Y-83096800D01*
X195760268Y-83100290D01*
X195785691Y-83153232D01*
X195790577Y-83158518D01*
X195790610Y-83158566D01*
X195793921Y-83164941D01*
X195798225Y-83169981D01*
X195835452Y-83207208D01*
X195838881Y-83210773D01*
X195877646Y-83252709D01*
X195884005Y-83256402D01*
X195890163Y-83261919D01*
X197088916Y-84460672D01*
X197122942Y-84522984D01*
X197124452Y-84531650D01*
X197124592Y-84532171D01*
X197125670Y-84540362D01*
X197181139Y-84674278D01*
X197269379Y-84789274D01*
X197384375Y-84877514D01*
X197518291Y-84932983D01*
X197662000Y-84951903D01*
X197805709Y-84932983D01*
X197939625Y-84877514D01*
X198054621Y-84789274D01*
X198095886Y-84735497D01*
X198153221Y-84693632D01*
X198195846Y-84686203D01*
X199411451Y-84686203D01*
X199479572Y-84706205D01*
X199486775Y-84711270D01*
X199487239Y-84711538D01*
X199493789Y-84716564D01*
X199627705Y-84772033D01*
X199771414Y-84790953D01*
X199915123Y-84772033D01*
X200049039Y-84716564D01*
X200055593Y-84711535D01*
X200062741Y-84707408D01*
X200063549Y-84708808D01*
X200120895Y-84686640D01*
X200131377Y-84686203D01*
X201686000Y-84686203D01*
X201754121Y-84706205D01*
X201800614Y-84759861D01*
X201812000Y-84812203D01*
X201812000Y-85577537D01*
X201791998Y-85645658D01*
X201786933Y-85652861D01*
X201786667Y-85653322D01*
X201781639Y-85659875D01*
X201726170Y-85793791D01*
X201707250Y-85937500D01*
X201726170Y-86081209D01*
X201781639Y-86215125D01*
X201869879Y-86330121D01*
X201984875Y-86418361D01*
X202118791Y-86473830D01*
X202262500Y-86492750D01*
X202406209Y-86473830D01*
X202540125Y-86418361D01*
X202655121Y-86330121D01*
X202743361Y-86215125D01*
X202798830Y-86081209D01*
X202817750Y-85937500D01*
X202798830Y-85793791D01*
X202743361Y-85659875D01*
X202738333Y-85653322D01*
X202734205Y-85646173D01*
X202735605Y-85645365D01*
X202713437Y-85588019D01*
X202713000Y-85577537D01*
X202713000Y-84608074D01*
X202733002Y-84539953D01*
X202739038Y-84531370D01*
X202758736Y-84505699D01*
X202797435Y-84455266D01*
X202852904Y-84321350D01*
X202871824Y-84177641D01*
X202852904Y-84033932D01*
X202797435Y-83900016D01*
X202709195Y-83785020D01*
X202594199Y-83696780D01*
X202460283Y-83641311D01*
X202316574Y-83622391D01*
X202172865Y-83641311D01*
X202038949Y-83696780D01*
X201965263Y-83753322D01*
X201957648Y-83759165D01*
X201891428Y-83784766D01*
X201880944Y-83785203D01*
X200131377Y-83785203D01*
X200063256Y-83765201D01*
X200056053Y-83760136D01*
X200055589Y-83759868D01*
X200049039Y-83754842D01*
X199915123Y-83699373D01*
X199771414Y-83680453D01*
X199627705Y-83699373D01*
X199493789Y-83754842D01*
X199487236Y-83759870D01*
X199480087Y-83763998D01*
X199479279Y-83762598D01*
X199421933Y-83784766D01*
X199411451Y-83785203D01*
X197857170Y-83785203D01*
X197842361Y-83784330D01*
X197817993Y-83781446D01*
X197808640Y-83780339D01*
X197767228Y-83787902D01*
X197696623Y-83780464D01*
X197655497Y-83753047D01*
X196649905Y-82747455D01*
X196615879Y-82685143D01*
X196613000Y-82658360D01*
X196613000Y-81222963D01*
X196633002Y-81154842D01*
X196638067Y-81147639D01*
X196638335Y-81147175D01*
X196643361Y-81140625D01*
X196686076Y-81037500D01*
X203207250Y-81037500D01*
X203226170Y-81181209D01*
X203281639Y-81315125D01*
X203286667Y-81321678D01*
X203290795Y-81328827D01*
X203289395Y-81329635D01*
X203311563Y-81386981D01*
X203312000Y-81397463D01*
X203312000Y-85503280D01*
X203311127Y-85518089D01*
X203307136Y-85551810D01*
X203308828Y-85561074D01*
X203308828Y-85561075D01*
X203317672Y-85609501D01*
X203318322Y-85613404D01*
X203324324Y-85653322D01*
X203327051Y-85671462D01*
X203330179Y-85677975D01*
X203331475Y-85685073D01*
X203358525Y-85737147D01*
X203360268Y-85740637D01*
X203385691Y-85793579D01*
X203390577Y-85798865D01*
X203390610Y-85798913D01*
X203393921Y-85805288D01*
X203398225Y-85810328D01*
X203435452Y-85847555D01*
X203438881Y-85851120D01*
X203477646Y-85893056D01*
X203484005Y-85896749D01*
X203490163Y-85902266D01*
X204689416Y-87101519D01*
X204723442Y-87163831D01*
X204724952Y-87172497D01*
X204725092Y-87173018D01*
X204726170Y-87181209D01*
X204781639Y-87315125D01*
X204869879Y-87430121D01*
X204984875Y-87518361D01*
X205118791Y-87573830D01*
X205262500Y-87592750D01*
X205406209Y-87573830D01*
X205540125Y-87518361D01*
X205655121Y-87430121D01*
X205743361Y-87315125D01*
X205798830Y-87181209D01*
X205799908Y-87173020D01*
X205801813Y-87165911D01*
X205838763Y-87105287D01*
X205890911Y-87076813D01*
X205898020Y-87074908D01*
X205906209Y-87073830D01*
X206040125Y-87018361D01*
X206155121Y-86930121D01*
X206243361Y-86815125D01*
X206298830Y-86681209D01*
X206317750Y-86537500D01*
X206298830Y-86393791D01*
X206243361Y-86259875D01*
X206155121Y-86144879D01*
X206040125Y-86056639D01*
X205906209Y-86001170D01*
X205898019Y-86000092D01*
X205890045Y-85997955D01*
X205890464Y-85996392D01*
X205834242Y-85971522D01*
X205826519Y-85964416D01*
X204949408Y-85087305D01*
X204915382Y-85024993D01*
X204912503Y-84998210D01*
X204912503Y-81397463D01*
X204932505Y-81329342D01*
X204937570Y-81322139D01*
X204937838Y-81321675D01*
X204942864Y-81315125D01*
X204998333Y-81181209D01*
X205017253Y-81037500D01*
X204998333Y-80893791D01*
X204942864Y-80759875D01*
X204854624Y-80644879D01*
X204739628Y-80556639D01*
X204605712Y-80501170D01*
X204462003Y-80482250D01*
X204318294Y-80501170D01*
X204184378Y-80556639D01*
X204177827Y-80561666D01*
X204175251Y-80563153D01*
X204106256Y-80579890D01*
X204049255Y-80563154D01*
X204046673Y-80561664D01*
X204040125Y-80556639D01*
X203906209Y-80501170D01*
X203762500Y-80482250D01*
X203618791Y-80501170D01*
X203484875Y-80556639D01*
X203369879Y-80644879D01*
X203281639Y-80759875D01*
X203226170Y-80893791D01*
X203207250Y-81037500D01*
X196686076Y-81037500D01*
X196698830Y-81006709D01*
X196717750Y-80863000D01*
X196698830Y-80719291D01*
X196643361Y-80585375D01*
X196555121Y-80470379D01*
X196440125Y-80382139D01*
X196306209Y-80326670D01*
X196162500Y-80307750D01*
X196018791Y-80326670D01*
X195884875Y-80382139D01*
X195769879Y-80470379D01*
X195681639Y-80585375D01*
X195626170Y-80719291D01*
X195607250Y-80863000D01*
X155686402Y-80863000D01*
X155667482Y-80719291D01*
X155612013Y-80585375D01*
X155523773Y-80470379D01*
X155408777Y-80382139D01*
X155274861Y-80326670D01*
X155131152Y-80307750D01*
X154987443Y-80326670D01*
X154853527Y-80382139D01*
X154738531Y-80470379D01*
X154650291Y-80585375D01*
X154594822Y-80719291D01*
X154575902Y-80863000D01*
X133832265Y-80863000D01*
X133824437Y-80602065D01*
X133824495Y-80592900D01*
X133831763Y-80423071D01*
X133836340Y-80316117D01*
X133838452Y-80297921D01*
X133848716Y-80244060D01*
X133888173Y-80037000D01*
X149158721Y-80037000D01*
X149177641Y-80180709D01*
X149233110Y-80314625D01*
X149321350Y-80429621D01*
X149436346Y-80517861D01*
X149570262Y-80573330D01*
X149713971Y-80592250D01*
X149857680Y-80573330D01*
X149991596Y-80517861D01*
X150106592Y-80429621D01*
X150194832Y-80314625D01*
X150250301Y-80180709D01*
X150269221Y-80037000D01*
X150250301Y-79893291D01*
X150198680Y-79768664D01*
X150189089Y-79720447D01*
X150189089Y-79173552D01*
X150209091Y-79105431D01*
X150214156Y-79098228D01*
X150214424Y-79097764D01*
X150219450Y-79091214D01*
X150274919Y-78957298D01*
X150293839Y-78813589D01*
X150274919Y-78669880D01*
X150219450Y-78535964D01*
X150131210Y-78420968D01*
X150016214Y-78332728D01*
X149882298Y-78277259D01*
X149738589Y-78258339D01*
X149594880Y-78277259D01*
X149460964Y-78332728D01*
X149345968Y-78420968D01*
X149257728Y-78535964D01*
X149202259Y-78669880D01*
X149183339Y-78813589D01*
X149202259Y-78957298D01*
X149257728Y-79091214D01*
X149262756Y-79097767D01*
X149266884Y-79104916D01*
X149265484Y-79105724D01*
X149287652Y-79163070D01*
X149288089Y-79173552D01*
X149288089Y-79644953D01*
X149268087Y-79713074D01*
X149262052Y-79721657D01*
X149233110Y-79759375D01*
X149177641Y-79893291D01*
X149158721Y-80037000D01*
X133888173Y-80037000D01*
X133889450Y-80030299D01*
X133894175Y-80012614D01*
X133957574Y-79829805D01*
X133983438Y-79755226D01*
X133990683Y-79738399D01*
X134116327Y-79496676D01*
X134125935Y-79481079D01*
X134285310Y-79260122D01*
X134297080Y-79246082D01*
X134486796Y-79050589D01*
X134500476Y-79038404D01*
X134554675Y-78996784D01*
X134716554Y-78872475D01*
X134731849Y-78862409D01*
X134870610Y-78784911D01*
X134969696Y-78729572D01*
X134986298Y-78721825D01*
X135240897Y-78624883D01*
X135258447Y-78619626D01*
X135524405Y-78560631D01*
X135542531Y-78557974D01*
X135818832Y-78537833D01*
X135827992Y-78537500D01*
X145934073Y-78537500D01*
X145936113Y-78537366D01*
X145936122Y-78537366D01*
X146191010Y-78520660D01*
X146191014Y-78520659D01*
X146195125Y-78520390D01*
X146199165Y-78519586D01*
X146199168Y-78519586D01*
X146447661Y-78470158D01*
X146447667Y-78470156D01*
X146451711Y-78469352D01*
X146455617Y-78468026D01*
X146455621Y-78468025D01*
X146695540Y-78386583D01*
X146695542Y-78386582D01*
X146699440Y-78385259D01*
X146795765Y-78337757D01*
X146930369Y-78271378D01*
X146930374Y-78271375D01*
X146934073Y-78269551D01*
X146986496Y-78234523D01*
X147148165Y-78126500D01*
X147148170Y-78126496D01*
X147151596Y-78124207D01*
X147154690Y-78121493D01*
X147154696Y-78121489D01*
X147346727Y-77953081D01*
X147348286Y-77951714D01*
X148173786Y-77126214D01*
X148179803Y-77120577D01*
X148367198Y-76956236D01*
X148380274Y-76946203D01*
X148584061Y-76810037D01*
X148598335Y-76801796D01*
X148818153Y-76693394D01*
X148833379Y-76687087D01*
X149065468Y-76608303D01*
X149081389Y-76604037D01*
X149321777Y-76556221D01*
X149338117Y-76554070D01*
X149586808Y-76537770D01*
X149595049Y-76537500D01*
X152429951Y-76537500D01*
X152438192Y-76537770D01*
G37*
G04 #@! TD.AperFunction*
M02*
