%TF.GenerationSoftware,KiCad,Pcbnew,6.0.10+dfsg-1~bpo11+1*%
%TF.ProjectId,project,70726f6a-6563-4742-9e6b-696361645f70,rev?*%
%TF.SameCoordinates,Original*%
%TF.FileFunction,Drillmap*%
%TF.FilePolarity,Positive*%
%FSLAX45Y45*%
G04 Gerber Fmt 4.5, Leading zero omitted, Abs format (unit mm)*
%MOMM*%
%LPD*%
G01*
G04 APERTURE LIST*
%ADD10C,0.100000*%
%ADD11C,0.200000*%
%ADD12C,0.030000*%
%ADD13C,0.085000*%
%ADD14C,0.120000*%
G04 APERTURE END LIST*
D10*
X12551250Y-13303750D02*
G75*
G03*
X12651250Y-13403750I100000J0D01*
G01*
X21101250Y-4903750D02*
X21101250Y-13303750D01*
X21001250Y-13403750D02*
X12651250Y-13403750D01*
X12651250Y-4803750D02*
X21001250Y-4803750D01*
X21001250Y-13403750D02*
G75*
G03*
X21101250Y-13303750I0J100000D01*
G01*
X21101250Y-4903750D02*
G75*
G03*
X21001250Y-4803750I-100000J0D01*
G01*
X12651250Y-4803750D02*
G75*
G03*
X12551250Y-4903750I0J-100000D01*
G01*
X12551250Y-13303750D02*
X12551250Y-4903750D01*
D11*
D12*
X12635000Y-8857500D02*
X12665000Y-8887500D01*
X12665000Y-8857500D02*
X12635000Y-8887500D01*
X12685000Y-8782500D02*
X12715000Y-8812500D01*
X12715000Y-8782500D02*
X12685000Y-8812500D01*
X12735000Y-8857500D02*
X12765000Y-8887500D01*
X12765000Y-8857500D02*
X12735000Y-8887500D01*
X12861250Y-10557500D02*
X12891250Y-10587500D01*
X12891250Y-10557500D02*
X12861250Y-10587500D01*
X12861250Y-10688750D02*
X12891250Y-10718750D01*
X12891250Y-10688750D02*
X12861250Y-10718750D01*
X12861250Y-10863750D02*
X12891250Y-10893750D01*
X12891250Y-10863750D02*
X12861250Y-10893750D01*
X12861250Y-10963750D02*
X12891250Y-10993750D01*
X12891250Y-10963750D02*
X12861250Y-10993750D01*
X12865000Y-9938750D02*
X12895000Y-9968750D01*
X12895000Y-9938750D02*
X12865000Y-9968750D01*
X12911250Y-10813750D02*
X12941250Y-10843750D01*
X12941250Y-10813750D02*
X12911250Y-10843750D01*
X12911250Y-10913750D02*
X12941250Y-10943750D01*
X12941250Y-10913750D02*
X12911250Y-10943750D01*
X12911250Y-11013750D02*
X12941250Y-11043750D01*
X12941250Y-11013750D02*
X12911250Y-11043750D01*
X13011250Y-6363750D02*
X13041250Y-6393750D01*
X13041250Y-6363750D02*
X13011250Y-6393750D01*
X13041750Y-11253000D02*
X13071750Y-11283000D01*
X13071750Y-11253000D02*
X13041750Y-11283000D01*
X13061250Y-9891250D02*
X13091250Y-9921250D01*
X13091250Y-9891250D02*
X13061250Y-9921250D01*
X13061250Y-10085000D02*
X13091250Y-10115000D01*
X13091250Y-10085000D02*
X13061250Y-10115000D01*
X13141250Y-6373750D02*
X13171250Y-6403750D01*
X13171250Y-6373750D02*
X13141250Y-6403750D01*
X13141250Y-7003750D02*
X13171250Y-7033750D01*
X13171250Y-7003750D02*
X13141250Y-7033750D01*
X13185000Y-7885000D02*
X13215000Y-7915000D01*
X13215000Y-7885000D02*
X13185000Y-7915000D01*
X13185000Y-7985000D02*
X13215000Y-8015000D01*
X13215000Y-7985000D02*
X13185000Y-8015000D01*
X13232500Y-7238750D02*
X13262500Y-7268750D01*
X13262500Y-7238750D02*
X13232500Y-7268750D01*
X13261250Y-10638750D02*
X13291250Y-10668750D01*
X13291250Y-10638750D02*
X13261250Y-10668750D01*
X13285000Y-8085000D02*
X13315000Y-8115000D01*
X13315000Y-8085000D02*
X13285000Y-8115000D01*
X13361250Y-10638750D02*
X13391250Y-10668750D01*
X13391250Y-10638750D02*
X13361250Y-10668750D01*
X13385000Y-8085000D02*
X13415000Y-8115000D01*
X13415000Y-8085000D02*
X13385000Y-8115000D01*
X13395250Y-6373750D02*
X13425250Y-6403750D01*
X13425250Y-6373750D02*
X13395250Y-6403750D01*
X13395250Y-7003750D02*
X13425250Y-7033750D01*
X13425250Y-7003750D02*
X13395250Y-7033750D01*
X13400916Y-9585305D02*
X13430916Y-9615305D01*
X13430916Y-9585305D02*
X13400916Y-9615305D01*
X13416300Y-9688750D02*
X13446300Y-9718750D01*
X13446300Y-9688750D02*
X13416300Y-9718750D01*
X13436250Y-10363750D02*
X13466250Y-10393750D01*
X13466250Y-10363750D02*
X13436250Y-10393750D01*
X13485000Y-8085000D02*
X13515000Y-8115000D01*
X13515000Y-8085000D02*
X13485000Y-8115000D01*
X13486250Y-9613750D02*
X13516250Y-9643750D01*
X13516250Y-9613750D02*
X13486250Y-9643750D01*
X13491750Y-11253000D02*
X13521750Y-11283000D01*
X13521750Y-11253000D02*
X13491750Y-11283000D01*
X13585000Y-8085000D02*
X13615000Y-8115000D01*
X13615000Y-8085000D02*
X13585000Y-8115000D01*
X13632500Y-7238750D02*
X13662500Y-7268750D01*
X13662500Y-7238750D02*
X13632500Y-7268750D01*
X13650250Y-6373750D02*
X13680250Y-6403750D01*
X13680250Y-6373750D02*
X13650250Y-6403750D01*
X13650250Y-7003750D02*
X13680250Y-7033750D01*
X13680250Y-7003750D02*
X13650250Y-7033750D01*
X13685000Y-8085000D02*
X13715000Y-8115000D01*
X13715000Y-8085000D02*
X13685000Y-8115000D01*
X13696337Y-9486163D02*
X13726337Y-9516163D01*
X13726337Y-9486163D02*
X13696337Y-9516163D01*
X13761250Y-8963750D02*
X13791250Y-8993750D01*
X13791250Y-8963750D02*
X13761250Y-8993750D01*
X13761250Y-9038750D02*
X13791250Y-9068750D01*
X13791250Y-9038750D02*
X13761250Y-9068750D01*
X13761250Y-9113750D02*
X13791250Y-9143750D01*
X13791250Y-9113750D02*
X13761250Y-9143750D01*
X13785000Y-8085000D02*
X13815000Y-8115000D01*
X13815000Y-8085000D02*
X13785000Y-8115000D01*
X13786250Y-9488750D02*
X13816250Y-9518750D01*
X13816250Y-9488750D02*
X13786250Y-9518750D01*
X13836250Y-7438750D02*
X13866250Y-7468750D01*
X13866250Y-7438750D02*
X13836250Y-7468750D01*
X13836250Y-8963750D02*
X13866250Y-8993750D01*
X13866250Y-8963750D02*
X13836250Y-8993750D01*
X13836250Y-9038750D02*
X13866250Y-9068750D01*
X13866250Y-9038750D02*
X13836250Y-9068750D01*
X13836250Y-9113750D02*
X13866250Y-9143750D01*
X13866250Y-9113750D02*
X13836250Y-9143750D01*
X13840000Y-7738750D02*
X13870000Y-7768750D01*
X13870000Y-7738750D02*
X13840000Y-7768750D01*
X13861250Y-9563750D02*
X13891250Y-9593750D01*
X13891250Y-9563750D02*
X13861250Y-9593750D01*
X13885000Y-8085000D02*
X13915000Y-8115000D01*
X13915000Y-8085000D02*
X13885000Y-8115000D01*
X13903250Y-6373750D02*
X13933250Y-6403750D01*
X13933250Y-6373750D02*
X13903250Y-6403750D01*
X13903250Y-7003750D02*
X13933250Y-7033750D01*
X13933250Y-7003750D02*
X13903250Y-7033750D01*
X13936250Y-10663750D02*
X13966250Y-10693750D01*
X13966250Y-10663750D02*
X13936250Y-10693750D01*
X13941750Y-11253000D02*
X13971750Y-11283000D01*
X13971750Y-11253000D02*
X13941750Y-11283000D01*
X14060000Y-7710000D02*
X14090000Y-7740000D01*
X14090000Y-7710000D02*
X14060000Y-7740000D01*
X14163772Y-10716272D02*
X14193772Y-10746272D01*
X14193772Y-10716272D02*
X14163772Y-10746272D01*
X14210000Y-7408700D02*
X14240000Y-7438700D01*
X14240000Y-7408700D02*
X14210000Y-7438700D01*
X14236250Y-7035000D02*
X14266250Y-7065000D01*
X14266250Y-7035000D02*
X14236250Y-7065000D01*
X14360000Y-7910000D02*
X14390000Y-7940000D01*
X14390000Y-7910000D02*
X14360000Y-7940000D01*
X14360000Y-8435000D02*
X14390000Y-8465000D01*
X14390000Y-8435000D02*
X14360000Y-8465000D01*
X14391750Y-11253000D02*
X14421750Y-11283000D01*
X14421750Y-11253000D02*
X14391750Y-11283000D01*
X14510000Y-8585000D02*
X14540000Y-8615000D01*
X14540000Y-8585000D02*
X14510000Y-8615000D01*
X14560000Y-9788750D02*
X14590000Y-9818750D01*
X14590000Y-9788750D02*
X14560000Y-9818750D01*
X14585000Y-7510000D02*
X14615000Y-7540000D01*
X14615000Y-7510000D02*
X14585000Y-7540000D01*
X14610000Y-8081250D02*
X14640000Y-8111250D01*
X14640000Y-8081250D02*
X14610000Y-8111250D01*
X14610000Y-8288750D02*
X14640000Y-8318750D01*
X14640000Y-8288750D02*
X14610000Y-8318750D01*
X14635000Y-7310000D02*
X14665000Y-7340000D01*
X14665000Y-7310000D02*
X14635000Y-7340000D01*
X14663750Y-7735000D02*
X14693750Y-7765000D01*
X14693750Y-7735000D02*
X14663750Y-7765000D01*
X14761250Y-9188750D02*
X14791250Y-9218750D01*
X14791250Y-9188750D02*
X14761250Y-9218750D01*
X14785000Y-7135000D02*
X14815000Y-7165000D01*
X14815000Y-7135000D02*
X14785000Y-7165000D01*
X14785000Y-8485000D02*
X14815000Y-8515000D01*
X14815000Y-8485000D02*
X14785000Y-8515000D01*
X14810000Y-6960000D02*
X14840000Y-6990000D01*
X14840000Y-6960000D02*
X14810000Y-6990000D01*
X14885000Y-8585000D02*
X14915000Y-8615000D01*
X14915000Y-8585000D02*
X14885000Y-8615000D01*
X14910000Y-7485000D02*
X14940000Y-7515000D01*
X14940000Y-7485000D02*
X14910000Y-7515000D01*
X14910000Y-8335000D02*
X14940000Y-8365000D01*
X14940000Y-8335000D02*
X14910000Y-8365000D01*
X14935000Y-7110000D02*
X14965000Y-7140000D01*
X14965000Y-7110000D02*
X14935000Y-7140000D01*
X14960000Y-7760000D02*
X14990000Y-7790000D01*
X14990000Y-7760000D02*
X14960000Y-7790000D01*
X15063063Y-7836987D02*
X15093063Y-7866987D01*
X15093063Y-7836987D02*
X15063063Y-7866987D01*
X15091750Y-11256250D02*
X15121750Y-11286250D01*
X15121750Y-11256250D02*
X15091750Y-11286250D01*
X15110000Y-7610000D02*
X15140000Y-7640000D01*
X15140000Y-7610000D02*
X15110000Y-7640000D01*
X15158800Y-7010000D02*
X15188800Y-7040000D01*
X15188800Y-7010000D02*
X15158800Y-7040000D01*
X15160000Y-7110000D02*
X15190000Y-7140000D01*
X15190000Y-7110000D02*
X15160000Y-7140000D01*
X15160000Y-8060000D02*
X15190000Y-8090000D01*
X15190000Y-8060000D02*
X15160000Y-8090000D01*
X15260000Y-7960000D02*
X15290000Y-7990000D01*
X15290000Y-7960000D02*
X15260000Y-7990000D01*
X15260000Y-8160000D02*
X15290000Y-8190000D01*
X15290000Y-8160000D02*
X15260000Y-8190000D01*
X15261741Y-8061741D02*
X15291741Y-8091741D01*
X15291741Y-8061741D02*
X15261741Y-8091741D01*
X15285000Y-8335000D02*
X15315000Y-8365000D01*
X15315000Y-8335000D02*
X15285000Y-8365000D01*
X15286250Y-7035000D02*
X15316250Y-7065000D01*
X15316250Y-7035000D02*
X15286250Y-7065000D01*
X15337329Y-7431468D02*
X15367329Y-7461468D01*
X15367329Y-7431468D02*
X15337329Y-7461468D01*
X15360000Y-8060000D02*
X15390000Y-8090000D01*
X15390000Y-8060000D02*
X15360000Y-8090000D01*
X15385000Y-7885000D02*
X15415000Y-7915000D01*
X15415000Y-7885000D02*
X15385000Y-7915000D01*
X15385000Y-8985000D02*
X15415000Y-9015000D01*
X15415000Y-8985000D02*
X15385000Y-9015000D01*
X15385000Y-9085000D02*
X15415000Y-9115000D01*
X15415000Y-9085000D02*
X15385000Y-9115000D01*
X15385000Y-9185000D02*
X15415000Y-9215000D01*
X15415000Y-9185000D02*
X15385000Y-9215000D01*
X15385000Y-9285000D02*
X15415000Y-9315000D01*
X15415000Y-9285000D02*
X15385000Y-9315000D01*
X15385000Y-9385000D02*
X15415000Y-9415000D01*
X15415000Y-9385000D02*
X15385000Y-9415000D01*
X15410000Y-8660000D02*
X15440000Y-8690000D01*
X15440000Y-8660000D02*
X15410000Y-8690000D01*
X15485000Y-7985000D02*
X15515000Y-8015000D01*
X15515000Y-7985000D02*
X15485000Y-8015000D01*
X15485000Y-9485000D02*
X15515000Y-9515000D01*
X15515000Y-9485000D02*
X15485000Y-9515000D01*
X15491250Y-6373750D02*
X15521250Y-6403750D01*
X15521250Y-6373750D02*
X15491250Y-6403750D01*
X15491250Y-7003750D02*
X15521250Y-7033750D01*
X15521250Y-7003750D02*
X15491250Y-7033750D01*
X15541750Y-11256250D02*
X15571750Y-11286250D01*
X15571750Y-11256250D02*
X15541750Y-11286250D01*
X15560000Y-8710000D02*
X15590000Y-8740000D01*
X15590000Y-8710000D02*
X15560000Y-8740000D01*
X15585000Y-8085000D02*
X15615000Y-8115000D01*
X15615000Y-8085000D02*
X15585000Y-8115000D01*
X15585000Y-9485000D02*
X15615000Y-9515000D01*
X15615000Y-9485000D02*
X15585000Y-9515000D01*
X15622500Y-8772500D02*
X15652500Y-8802500D01*
X15652500Y-8772500D02*
X15622500Y-8802500D01*
X15685000Y-8185000D02*
X15715000Y-8215000D01*
X15715000Y-8185000D02*
X15685000Y-8215000D01*
X15685000Y-9485000D02*
X15715000Y-9515000D01*
X15715000Y-9485000D02*
X15685000Y-9515000D01*
X15686250Y-7438750D02*
X15716250Y-7468750D01*
X15716250Y-7438750D02*
X15686250Y-7468750D01*
X15697500Y-8847500D02*
X15727500Y-8877500D01*
X15727500Y-8847500D02*
X15697500Y-8877500D01*
X15707500Y-7713750D02*
X15737500Y-7743750D01*
X15737500Y-7713750D02*
X15707500Y-7743750D01*
X15745250Y-6373750D02*
X15775250Y-6403750D01*
X15775250Y-6373750D02*
X15745250Y-6403750D01*
X15745250Y-7003750D02*
X15775250Y-7033750D01*
X15775250Y-7003750D02*
X15745250Y-7033750D01*
X15772500Y-8922500D02*
X15802500Y-8952500D01*
X15802500Y-8922500D02*
X15772500Y-8952500D01*
X15785000Y-8285000D02*
X15815000Y-8315000D01*
X15815000Y-8285000D02*
X15785000Y-8315000D01*
X15785000Y-9485000D02*
X15815000Y-9515000D01*
X15815000Y-9485000D02*
X15785000Y-9515000D01*
X15835000Y-8985000D02*
X15865000Y-9015000D01*
X15865000Y-8985000D02*
X15835000Y-9015000D01*
X15885000Y-8385000D02*
X15915000Y-8415000D01*
X15915000Y-8385000D02*
X15885000Y-8415000D01*
X15885000Y-9485000D02*
X15915000Y-9515000D01*
X15915000Y-9485000D02*
X15885000Y-9515000D01*
X15890000Y-7238750D02*
X15920000Y-7268750D01*
X15920000Y-7238750D02*
X15890000Y-7268750D01*
X15960000Y-7985000D02*
X15990000Y-8015000D01*
X15990000Y-7985000D02*
X15960000Y-8015000D01*
X15985000Y-8485000D02*
X16015000Y-8515000D01*
X16015000Y-8485000D02*
X15985000Y-8515000D01*
X15985000Y-9485000D02*
X16015000Y-9515000D01*
X16015000Y-9485000D02*
X15985000Y-9515000D01*
X15991750Y-11256250D02*
X16021750Y-11286250D01*
X16021750Y-11256250D02*
X15991750Y-11286250D01*
X16000250Y-6373750D02*
X16030250Y-6403750D01*
X16030250Y-6373750D02*
X16000250Y-6403750D01*
X16000250Y-7003750D02*
X16030250Y-7033750D01*
X16030250Y-7003750D02*
X16000250Y-7033750D01*
X16060000Y-7585000D02*
X16090000Y-7615000D01*
X16090000Y-7585000D02*
X16060000Y-7615000D01*
X16085000Y-8585000D02*
X16115000Y-8615000D01*
X16115000Y-8585000D02*
X16085000Y-8615000D01*
X16085000Y-9485000D02*
X16115000Y-9515000D01*
X16115000Y-9485000D02*
X16085000Y-9515000D01*
X16135000Y-9285000D02*
X16165000Y-9315000D01*
X16165000Y-9285000D02*
X16135000Y-9315000D01*
X16185000Y-8685000D02*
X16215000Y-8715000D01*
X16215000Y-8685000D02*
X16185000Y-8715000D01*
X16197500Y-9347500D02*
X16227500Y-9377500D01*
X16227500Y-9347500D02*
X16197500Y-9377500D01*
X16210000Y-9110000D02*
X16240000Y-9140000D01*
X16240000Y-9110000D02*
X16210000Y-9140000D01*
X16253250Y-6373750D02*
X16283250Y-6403750D01*
X16283250Y-6373750D02*
X16253250Y-6403750D01*
X16253250Y-7003750D02*
X16283250Y-7033750D01*
X16283250Y-7003750D02*
X16253250Y-7033750D01*
X16260000Y-9410000D02*
X16290000Y-9440000D01*
X16290000Y-9410000D02*
X16260000Y-9440000D01*
X16285000Y-8285000D02*
X16315000Y-8315000D01*
X16315000Y-8285000D02*
X16285000Y-8315000D01*
X16285000Y-8785000D02*
X16315000Y-8815000D01*
X16315000Y-8785000D02*
X16285000Y-8815000D01*
X16286250Y-7713750D02*
X16316250Y-7743750D01*
X16316250Y-7713750D02*
X16286250Y-7743750D01*
X16290000Y-7238750D02*
X16320000Y-7268750D01*
X16320000Y-7238750D02*
X16290000Y-7268750D01*
X16308259Y-9108259D02*
X16338259Y-9138259D01*
X16338259Y-9108259D02*
X16308259Y-9138259D01*
X16310000Y-9010000D02*
X16340000Y-9040000D01*
X16340000Y-9010000D02*
X16310000Y-9040000D01*
X16310000Y-9210000D02*
X16340000Y-9240000D01*
X16340000Y-9210000D02*
X16310000Y-9240000D01*
X16312500Y-8110000D02*
X16342500Y-8140000D01*
X16342500Y-8110000D02*
X16312500Y-8140000D01*
X16385000Y-8885000D02*
X16415000Y-8915000D01*
X16415000Y-8885000D02*
X16385000Y-8915000D01*
X16385000Y-9285000D02*
X16415000Y-9315000D01*
X16415000Y-9285000D02*
X16385000Y-9315000D01*
X16410000Y-9110000D02*
X16440000Y-9140000D01*
X16440000Y-9110000D02*
X16410000Y-9140000D01*
X16441750Y-11256250D02*
X16471750Y-11286250D01*
X16471750Y-11256250D02*
X16441750Y-11286250D01*
X16485000Y-8985000D02*
X16515000Y-9015000D01*
X16515000Y-8985000D02*
X16485000Y-9015000D01*
X16485000Y-9185000D02*
X16515000Y-9215000D01*
X16515000Y-9185000D02*
X16485000Y-9215000D01*
X16485000Y-9385000D02*
X16515000Y-9415000D01*
X16515000Y-9385000D02*
X16485000Y-9415000D01*
X16485000Y-9685000D02*
X16515000Y-9715000D01*
X16515000Y-9685000D02*
X16485000Y-9715000D01*
X16585000Y-9085000D02*
X16615000Y-9115000D01*
X16615000Y-9085000D02*
X16585000Y-9115000D01*
X16585000Y-9285000D02*
X16615000Y-9315000D01*
X16615000Y-9285000D02*
X16585000Y-9315000D01*
X16685000Y-8585000D02*
X16715000Y-8615000D01*
X16715000Y-8585000D02*
X16685000Y-8615000D01*
X16685000Y-9185000D02*
X16715000Y-9215000D01*
X16715000Y-9185000D02*
X16685000Y-9215000D01*
X16685000Y-9385000D02*
X16715000Y-9415000D01*
X16715000Y-9385000D02*
X16685000Y-9415000D01*
X16685000Y-9685000D02*
X16715000Y-9715000D01*
X16715000Y-9685000D02*
X16685000Y-9715000D01*
X16785000Y-8585000D02*
X16815000Y-8615000D01*
X16815000Y-8585000D02*
X16785000Y-8615000D01*
X16785000Y-10185000D02*
X16815000Y-10215000D01*
X16815000Y-10185000D02*
X16785000Y-10215000D01*
X16885000Y-8585000D02*
X16915000Y-8615000D01*
X16915000Y-8585000D02*
X16885000Y-8615000D01*
X16885000Y-9385000D02*
X16915000Y-9415000D01*
X16915000Y-9385000D02*
X16885000Y-9415000D01*
X16885000Y-9685000D02*
X16915000Y-9715000D01*
X16915000Y-9685000D02*
X16885000Y-9715000D01*
X16885000Y-10185000D02*
X16915000Y-10215000D01*
X16915000Y-10185000D02*
X16885000Y-10215000D01*
X16985000Y-8585000D02*
X17015000Y-8615000D01*
X17015000Y-8585000D02*
X16985000Y-8615000D01*
X16985000Y-10185000D02*
X17015000Y-10215000D01*
X17015000Y-10185000D02*
X16985000Y-10215000D01*
X17007500Y-8912500D02*
X17037500Y-8942500D01*
X17037500Y-8912500D02*
X17007500Y-8942500D01*
X17011250Y-9113750D02*
X17041250Y-9143750D01*
X17041250Y-9113750D02*
X17011250Y-9143750D01*
X17085000Y-8585000D02*
X17115000Y-8615000D01*
X17115000Y-8585000D02*
X17085000Y-8615000D01*
X17085000Y-9685000D02*
X17115000Y-9715000D01*
X17115000Y-9685000D02*
X17085000Y-9715000D01*
X17141750Y-11256250D02*
X17171750Y-11286250D01*
X17171750Y-11256250D02*
X17141750Y-11286250D01*
X17185000Y-8585000D02*
X17215000Y-8615000D01*
X17215000Y-8585000D02*
X17185000Y-8615000D01*
X17186250Y-7388750D02*
X17216250Y-7418750D01*
X17216250Y-7388750D02*
X17186250Y-7418750D01*
X17210000Y-10106250D02*
X17240000Y-10136250D01*
X17240000Y-10106250D02*
X17210000Y-10136250D01*
X17211250Y-6178750D02*
X17241250Y-6208750D01*
X17241250Y-6178750D02*
X17211250Y-6208750D01*
X17285000Y-9685000D02*
X17315000Y-9715000D01*
X17315000Y-9685000D02*
X17285000Y-9715000D01*
X17316250Y-8678750D02*
X17346250Y-8708750D01*
X17346250Y-8678750D02*
X17316250Y-8708750D01*
X17336250Y-7038750D02*
X17366250Y-7068750D01*
X17366250Y-7038750D02*
X17336250Y-7068750D01*
X17336250Y-7688750D02*
X17366250Y-7718750D01*
X17366250Y-7688750D02*
X17336250Y-7718750D01*
X17360000Y-9785000D02*
X17390000Y-9815000D01*
X17390000Y-9785000D02*
X17360000Y-9815000D01*
X17360000Y-9860000D02*
X17390000Y-9890000D01*
X17390000Y-9860000D02*
X17360000Y-9890000D01*
X17360000Y-9935000D02*
X17390000Y-9965000D01*
X17390000Y-9935000D02*
X17360000Y-9965000D01*
X17385000Y-10185000D02*
X17415000Y-10215000D01*
X17415000Y-10185000D02*
X17385000Y-10215000D01*
X17407500Y-8913750D02*
X17437500Y-8943750D01*
X17437500Y-8913750D02*
X17407500Y-8943750D01*
X17411250Y-9113750D02*
X17441250Y-9143750D01*
X17441250Y-9113750D02*
X17411250Y-9143750D01*
X17444250Y-8048750D02*
X17474250Y-8078750D01*
X17474250Y-8048750D02*
X17444250Y-8078750D01*
X17485000Y-10185000D02*
X17515000Y-10215000D01*
X17515000Y-10185000D02*
X17485000Y-10215000D01*
X17570250Y-8678750D02*
X17600250Y-8708750D01*
X17600250Y-8678750D02*
X17570250Y-8708750D01*
X17585000Y-10185000D02*
X17615000Y-10215000D01*
X17615000Y-10185000D02*
X17585000Y-10215000D01*
X17591750Y-11256250D02*
X17621750Y-11286250D01*
X17621750Y-11256250D02*
X17591750Y-11286250D01*
X17685000Y-10185000D02*
X17715000Y-10215000D01*
X17715000Y-10185000D02*
X17685000Y-10215000D01*
X17686250Y-7388750D02*
X17716250Y-7418750D01*
X17716250Y-7388750D02*
X17686250Y-7418750D01*
X17697250Y-8048750D02*
X17727250Y-8078750D01*
X17727250Y-8048750D02*
X17697250Y-8078750D01*
X17710000Y-9785000D02*
X17740000Y-9815000D01*
X17740000Y-9785000D02*
X17710000Y-9815000D01*
X17710000Y-9860000D02*
X17740000Y-9890000D01*
X17740000Y-9860000D02*
X17710000Y-9890000D01*
X17710000Y-9935000D02*
X17740000Y-9965000D01*
X17740000Y-9935000D02*
X17710000Y-9965000D01*
X17711250Y-6178750D02*
X17741250Y-6208750D01*
X17741250Y-6178750D02*
X17711250Y-6208750D01*
X17785000Y-10185000D02*
X17815000Y-10215000D01*
X17815000Y-10185000D02*
X17785000Y-10215000D01*
X17807500Y-8913750D02*
X17837500Y-8943750D01*
X17837500Y-8913750D02*
X17807500Y-8943750D01*
X17825250Y-8678750D02*
X17855250Y-8708750D01*
X17855250Y-8678750D02*
X17825250Y-8708750D01*
X17836250Y-7038750D02*
X17866250Y-7068750D01*
X17866250Y-7038750D02*
X17836250Y-7068750D01*
X17836250Y-7688750D02*
X17866250Y-7718750D01*
X17866250Y-7688750D02*
X17836250Y-7718750D01*
X17885000Y-10185000D02*
X17915000Y-10215000D01*
X17915000Y-10185000D02*
X17885000Y-10215000D01*
X17952250Y-8048750D02*
X17982250Y-8078750D01*
X17982250Y-8048750D02*
X17952250Y-8078750D01*
X18011250Y-9113750D02*
X18041250Y-9143750D01*
X18041250Y-9113750D02*
X18011250Y-9143750D01*
X18041750Y-11256250D02*
X18071750Y-11286250D01*
X18071750Y-11256250D02*
X18041750Y-11286250D01*
X18078250Y-8678750D02*
X18108250Y-8708750D01*
X18108250Y-8678750D02*
X18078250Y-8708750D01*
X18185000Y-10285000D02*
X18215000Y-10315000D01*
X18215000Y-10285000D02*
X18185000Y-10315000D01*
X18186250Y-7388750D02*
X18216250Y-7418750D01*
X18216250Y-7388750D02*
X18186250Y-7418750D01*
X18206250Y-8048750D02*
X18236250Y-8078750D01*
X18236250Y-8048750D02*
X18206250Y-8078750D01*
X18211250Y-6178750D02*
X18241250Y-6208750D01*
X18241250Y-6178750D02*
X18211250Y-6208750D01*
X18211250Y-9113750D02*
X18241250Y-9143750D01*
X18241250Y-9113750D02*
X18211250Y-9143750D01*
X18285000Y-10285000D02*
X18315000Y-10315000D01*
X18315000Y-10285000D02*
X18285000Y-10315000D01*
X18336250Y-7038750D02*
X18366250Y-7068750D01*
X18366250Y-7038750D02*
X18336250Y-7068750D01*
X18336250Y-7688750D02*
X18366250Y-7718750D01*
X18366250Y-7688750D02*
X18336250Y-7718750D01*
X18385000Y-10285000D02*
X18415000Y-10315000D01*
X18415000Y-10285000D02*
X18385000Y-10315000D01*
X18411250Y-8685000D02*
X18441250Y-8715000D01*
X18441250Y-8685000D02*
X18411250Y-8715000D01*
X18485000Y-10285000D02*
X18515000Y-10315000D01*
X18515000Y-10285000D02*
X18485000Y-10315000D01*
X18491750Y-11256250D02*
X18521750Y-11286250D01*
X18521750Y-11256250D02*
X18491750Y-11286250D01*
X18535000Y-9210000D02*
X18565000Y-9240000D01*
X18565000Y-9210000D02*
X18535000Y-9240000D01*
X18631250Y-8610000D02*
X18661250Y-8640000D01*
X18661250Y-8610000D02*
X18631250Y-8640000D01*
X18632500Y-10285000D02*
X18662500Y-10315000D01*
X18662500Y-10285000D02*
X18632500Y-10315000D01*
X18661250Y-7388750D02*
X18691250Y-7418750D01*
X18691250Y-7388750D02*
X18661250Y-7418750D01*
X18711250Y-6178750D02*
X18741250Y-6208750D01*
X18741250Y-6178750D02*
X18711250Y-6208750D01*
X18760000Y-9210000D02*
X18790000Y-9240000D01*
X18790000Y-9210000D02*
X18760000Y-9240000D01*
X18785000Y-9010000D02*
X18815000Y-9040000D01*
X18815000Y-9010000D02*
X18785000Y-9040000D01*
X18860000Y-8760000D02*
X18890000Y-8790000D01*
X18890000Y-8760000D02*
X18860000Y-8790000D01*
X18861250Y-7038750D02*
X18891250Y-7068750D01*
X18891250Y-7038750D02*
X18861250Y-7068750D01*
X18861250Y-7688750D02*
X18891250Y-7718750D01*
X18891250Y-7688750D02*
X18861250Y-7718750D01*
X19031250Y-8610000D02*
X19061250Y-8640000D01*
X19061250Y-8610000D02*
X19031250Y-8640000D01*
X19060000Y-8985000D02*
X19090000Y-9015000D01*
X19090000Y-8985000D02*
X19060000Y-9015000D01*
X19060000Y-9385000D02*
X19090000Y-9415000D01*
X19090000Y-9385000D02*
X19060000Y-9415000D01*
X19191750Y-11256250D02*
X19221750Y-11286250D01*
X19221750Y-11256250D02*
X19191750Y-11286250D01*
X19236250Y-7388750D02*
X19266250Y-7418750D01*
X19266250Y-7388750D02*
X19236250Y-7418750D01*
X19261250Y-6178750D02*
X19291250Y-6208750D01*
X19291250Y-6178750D02*
X19261250Y-6208750D01*
X19335000Y-8821300D02*
X19365000Y-8851300D01*
X19365000Y-8821300D02*
X19335000Y-8851300D01*
X19385000Y-9485000D02*
X19415000Y-9515000D01*
X19415000Y-9485000D02*
X19385000Y-9515000D01*
X19385000Y-9585000D02*
X19415000Y-9615000D01*
X19415000Y-9585000D02*
X19385000Y-9615000D01*
X19385000Y-10285000D02*
X19415000Y-10315000D01*
X19415000Y-10285000D02*
X19385000Y-10315000D01*
X19386250Y-7038750D02*
X19416250Y-7068750D01*
X19416250Y-7038750D02*
X19386250Y-7068750D01*
X19386250Y-7688750D02*
X19416250Y-7718750D01*
X19416250Y-7688750D02*
X19386250Y-7718750D01*
X19449653Y-9078948D02*
X19479653Y-9108948D01*
X19479653Y-9078948D02*
X19449653Y-9108948D01*
X19461250Y-8685000D02*
X19491250Y-8715000D01*
X19491250Y-8685000D02*
X19461250Y-8715000D01*
X19485000Y-9485000D02*
X19515000Y-9515000D01*
X19515000Y-9485000D02*
X19485000Y-9515000D01*
X19485000Y-9585000D02*
X19515000Y-9615000D01*
X19515000Y-9585000D02*
X19485000Y-9615000D01*
X19485000Y-10285000D02*
X19515000Y-10315000D01*
X19515000Y-10285000D02*
X19485000Y-10315000D01*
X19585000Y-10285000D02*
X19615000Y-10315000D01*
X19615000Y-10285000D02*
X19585000Y-10315000D01*
X19641750Y-11256250D02*
X19671750Y-11286250D01*
X19671750Y-11256250D02*
X19641750Y-11286250D01*
X19660000Y-9288700D02*
X19690000Y-9318700D01*
X19690000Y-9288700D02*
X19660000Y-9318700D01*
X19661250Y-9113750D02*
X19691250Y-9143750D01*
X19691250Y-9113750D02*
X19661250Y-9143750D01*
X19666250Y-8678750D02*
X19696250Y-8708750D01*
X19696250Y-8678750D02*
X19666250Y-8708750D01*
X19685000Y-10285000D02*
X19715000Y-10315000D01*
X19715000Y-10285000D02*
X19685000Y-10315000D01*
X19736250Y-7388750D02*
X19766250Y-7418750D01*
X19766250Y-7388750D02*
X19736250Y-7418750D01*
X19761250Y-6178750D02*
X19791250Y-6208750D01*
X19791250Y-6178750D02*
X19761250Y-6208750D01*
X19785000Y-10285000D02*
X19815000Y-10315000D01*
X19815000Y-10285000D02*
X19785000Y-10315000D01*
X19794250Y-8048750D02*
X19824250Y-8078750D01*
X19824250Y-8048750D02*
X19794250Y-8078750D01*
X19885000Y-10285000D02*
X19915000Y-10315000D01*
X19915000Y-10285000D02*
X19885000Y-10315000D01*
X19886250Y-7038750D02*
X19916250Y-7068750D01*
X19916250Y-7038750D02*
X19886250Y-7068750D01*
X19886250Y-7688750D02*
X19916250Y-7718750D01*
X19916250Y-7688750D02*
X19886250Y-7718750D01*
X19920250Y-8678750D02*
X19950250Y-8708750D01*
X19950250Y-8678750D02*
X19920250Y-8708750D01*
X19985000Y-10285000D02*
X20015000Y-10315000D01*
X20015000Y-10285000D02*
X19985000Y-10315000D01*
X20047250Y-8048750D02*
X20077250Y-8078750D01*
X20077250Y-8048750D02*
X20047250Y-8078750D01*
X20065000Y-8913750D02*
X20095000Y-8943750D01*
X20095000Y-8913750D02*
X20065000Y-8943750D01*
X20085000Y-10285000D02*
X20115000Y-10315000D01*
X20115000Y-10285000D02*
X20085000Y-10315000D01*
X20091750Y-11256250D02*
X20121750Y-11286250D01*
X20121750Y-11256250D02*
X20091750Y-11286250D01*
X20160000Y-9785000D02*
X20190000Y-9815000D01*
X20190000Y-9785000D02*
X20160000Y-9815000D01*
X20160000Y-9860000D02*
X20190000Y-9890000D01*
X20190000Y-9860000D02*
X20160000Y-9890000D01*
X20160000Y-9935000D02*
X20190000Y-9965000D01*
X20190000Y-9935000D02*
X20160000Y-9965000D01*
X20175250Y-8678750D02*
X20205250Y-8708750D01*
X20205250Y-8678750D02*
X20175250Y-8708750D01*
X20185000Y-10285000D02*
X20215000Y-10315000D01*
X20215000Y-10285000D02*
X20185000Y-10315000D01*
X20236250Y-6763750D02*
X20266250Y-6793750D01*
X20266250Y-6763750D02*
X20236250Y-6793750D01*
X20236250Y-7388750D02*
X20266250Y-7418750D01*
X20266250Y-7388750D02*
X20236250Y-7418750D01*
X20257500Y-8913750D02*
X20287500Y-8943750D01*
X20287500Y-8913750D02*
X20257500Y-8943750D01*
X20261250Y-6178750D02*
X20291250Y-6208750D01*
X20291250Y-6178750D02*
X20261250Y-6208750D01*
X20285000Y-10285000D02*
X20315000Y-10315000D01*
X20315000Y-10285000D02*
X20285000Y-10315000D01*
X20286250Y-7763750D02*
X20316250Y-7793750D01*
X20316250Y-7763750D02*
X20286250Y-7793750D01*
X20302250Y-8048750D02*
X20332250Y-8078750D01*
X20332250Y-8048750D02*
X20302250Y-8078750D01*
X20385000Y-10285000D02*
X20415000Y-10315000D01*
X20415000Y-10285000D02*
X20385000Y-10315000D01*
X20428250Y-8678750D02*
X20458250Y-8708750D01*
X20458250Y-8678750D02*
X20428250Y-8708750D01*
X20485000Y-9485000D02*
X20515000Y-9515000D01*
X20515000Y-9485000D02*
X20485000Y-9515000D01*
X20485000Y-9585000D02*
X20515000Y-9615000D01*
X20515000Y-9585000D02*
X20485000Y-9615000D01*
X20485000Y-9685000D02*
X20515000Y-9715000D01*
X20515000Y-9685000D02*
X20485000Y-9715000D01*
X20485000Y-10085000D02*
X20515000Y-10115000D01*
X20515000Y-10085000D02*
X20485000Y-10115000D01*
X20485000Y-10185000D02*
X20515000Y-10215000D01*
X20515000Y-10185000D02*
X20485000Y-10215000D01*
X20486250Y-7013750D02*
X20516250Y-7043750D01*
X20516250Y-7013750D02*
X20486250Y-7043750D01*
X20486250Y-7763750D02*
X20516250Y-7793750D01*
X20516250Y-7763750D02*
X20486250Y-7793750D01*
X20510000Y-9785000D02*
X20540000Y-9815000D01*
X20540000Y-9785000D02*
X20510000Y-9815000D01*
X20510000Y-9860000D02*
X20540000Y-9890000D01*
X20540000Y-9860000D02*
X20510000Y-9890000D01*
X20510000Y-9935000D02*
X20540000Y-9965000D01*
X20540000Y-9935000D02*
X20510000Y-9965000D01*
X20536250Y-6188750D02*
X20566250Y-6218750D01*
X20566250Y-6188750D02*
X20536250Y-6218750D01*
X20541750Y-11256250D02*
X20571750Y-11286250D01*
X20571750Y-11256250D02*
X20541750Y-11286250D01*
X20556250Y-8048750D02*
X20586250Y-8078750D01*
X20586250Y-8048750D02*
X20556250Y-8078750D01*
X20736250Y-7388750D02*
X20766250Y-7418750D01*
X20766250Y-7388750D02*
X20736250Y-7418750D01*
D13*
X15053500Y-10015000D02*
G75*
G03*
X15053500Y-10015000I-42500J0D01*
G01*
X15307500Y-10015000D02*
G75*
G03*
X15307500Y-10015000I-42500J0D01*
G01*
X15561500Y-10015000D02*
G75*
G03*
X15561500Y-10015000I-42500J0D01*
G01*
X15815500Y-10015000D02*
G75*
G03*
X15815500Y-10015000I-42500J0D01*
G01*
X16323500Y-10015000D02*
G75*
G03*
X16323500Y-10015000I-42500J0D01*
G01*
X16577500Y-10015000D02*
G75*
G03*
X16577500Y-10015000I-42500J0D01*
G01*
X16831500Y-10015000D02*
G75*
G03*
X16831500Y-10015000I-42500J0D01*
G01*
D14*
X13051250Y-5393750D02*
X13051250Y-5513750D01*
X12991250Y-5453750D02*
X13111250Y-5453750D01*
X13051250Y-12693750D02*
X13051250Y-12813750D01*
X12991250Y-12753750D02*
X13111250Y-12753750D01*
X13401250Y-5393750D02*
X13401250Y-5513750D01*
X13341250Y-5453750D02*
X13461250Y-5453750D01*
X13401250Y-12693750D02*
X13401250Y-12813750D01*
X13341250Y-12753750D02*
X13461250Y-12753750D01*
X13751250Y-5393750D02*
X13751250Y-5513750D01*
X13691250Y-5453750D02*
X13811250Y-5453750D01*
X13751250Y-12693750D02*
X13751250Y-12813750D01*
X13691250Y-12753750D02*
X13811250Y-12753750D01*
X14101250Y-5393750D02*
X14101250Y-5513750D01*
X14041250Y-5453750D02*
X14161250Y-5453750D01*
X14101250Y-12693750D02*
X14101250Y-12813750D01*
X14041250Y-12753750D02*
X14161250Y-12753750D01*
X14451250Y-5393750D02*
X14451250Y-5513750D01*
X14391250Y-5453750D02*
X14511250Y-5453750D01*
X14451250Y-12693750D02*
X14451250Y-12813750D01*
X14391250Y-12753750D02*
X14511250Y-12753750D01*
X15101250Y-5393750D02*
X15101250Y-5513750D01*
X15041250Y-5453750D02*
X15161250Y-5453750D01*
X15101250Y-12697000D02*
X15101250Y-12817000D01*
X15041250Y-12757000D02*
X15161250Y-12757000D01*
X15451250Y-5393750D02*
X15451250Y-5513750D01*
X15391250Y-5453750D02*
X15511250Y-5453750D01*
X15451250Y-12697000D02*
X15451250Y-12817000D01*
X15391250Y-12757000D02*
X15511250Y-12757000D01*
X15801250Y-5393750D02*
X15801250Y-5513750D01*
X15741250Y-5453750D02*
X15861250Y-5453750D01*
X15801250Y-12697000D02*
X15801250Y-12817000D01*
X15741250Y-12757000D02*
X15861250Y-12757000D01*
X16151250Y-5393750D02*
X16151250Y-5513750D01*
X16091250Y-5453750D02*
X16211250Y-5453750D01*
X16151250Y-12697000D02*
X16151250Y-12817000D01*
X16091250Y-12757000D02*
X16211250Y-12757000D01*
X16501250Y-5393750D02*
X16501250Y-5513750D01*
X16441250Y-5453750D02*
X16561250Y-5453750D01*
X16501250Y-12697000D02*
X16501250Y-12817000D01*
X16441250Y-12757000D02*
X16561250Y-12757000D01*
X17151250Y-5393750D02*
X17151250Y-5513750D01*
X17091250Y-5453750D02*
X17211250Y-5453750D01*
X17151250Y-12697000D02*
X17151250Y-12817000D01*
X17091250Y-12757000D02*
X17211250Y-12757000D01*
X17501250Y-5393750D02*
X17501250Y-5513750D01*
X17441250Y-5453750D02*
X17561250Y-5453750D01*
X17501250Y-12697000D02*
X17501250Y-12817000D01*
X17441250Y-12757000D02*
X17561250Y-12757000D01*
X17851250Y-5393750D02*
X17851250Y-5513750D01*
X17791250Y-5453750D02*
X17911250Y-5453750D01*
X17851250Y-12697000D02*
X17851250Y-12817000D01*
X17791250Y-12757000D02*
X17911250Y-12757000D01*
X18201250Y-5393750D02*
X18201250Y-5513750D01*
X18141250Y-5453750D02*
X18261250Y-5453750D01*
X18201250Y-12697000D02*
X18201250Y-12817000D01*
X18141250Y-12757000D02*
X18261250Y-12757000D01*
X18551250Y-5393750D02*
X18551250Y-5513750D01*
X18491250Y-5453750D02*
X18611250Y-5453750D01*
X18551250Y-12697000D02*
X18551250Y-12817000D01*
X18491250Y-12757000D02*
X18611250Y-12757000D01*
X19201250Y-5393750D02*
X19201250Y-5513750D01*
X19141250Y-5453750D02*
X19261250Y-5453750D01*
X19201250Y-12697000D02*
X19201250Y-12817000D01*
X19141250Y-12757000D02*
X19261250Y-12757000D01*
X19551250Y-5393750D02*
X19551250Y-5513750D01*
X19491250Y-5453750D02*
X19611250Y-5453750D01*
X19551250Y-12697000D02*
X19551250Y-12817000D01*
X19491250Y-12757000D02*
X19611250Y-12757000D01*
X19901250Y-5393750D02*
X19901250Y-5513750D01*
X19841250Y-5453750D02*
X19961250Y-5453750D01*
X19901250Y-12697000D02*
X19901250Y-12817000D01*
X19841250Y-12757000D02*
X19961250Y-12757000D01*
X20251250Y-5393750D02*
X20251250Y-5513750D01*
X20191250Y-5453750D02*
X20311250Y-5453750D01*
X20251250Y-12697000D02*
X20251250Y-12817000D01*
X20191250Y-12757000D02*
X20311250Y-12757000D01*
X20601250Y-5393750D02*
X20601250Y-5513750D01*
X20541250Y-5453750D02*
X20661250Y-5453750D01*
X20601250Y-12697000D02*
X20601250Y-12817000D01*
X20541250Y-12757000D02*
X20661250Y-12757000D01*
D11*
X12803869Y-13719226D02*
X12803869Y-13519226D01*
X12851488Y-13519226D01*
X12880059Y-13528750D01*
X12899107Y-13547798D01*
X12908631Y-13566845D01*
X12918155Y-13604940D01*
X12918155Y-13633512D01*
X12908631Y-13671607D01*
X12899107Y-13690655D01*
X12880059Y-13709702D01*
X12851488Y-13719226D01*
X12803869Y-13719226D01*
X13003869Y-13719226D02*
X13003869Y-13585893D01*
X13003869Y-13623988D02*
X13013393Y-13604940D01*
X13022917Y-13595417D01*
X13041964Y-13585893D01*
X13061012Y-13585893D01*
X13127678Y-13719226D02*
X13127678Y-13585893D01*
X13127678Y-13519226D02*
X13118155Y-13528750D01*
X13127678Y-13538274D01*
X13137202Y-13528750D01*
X13127678Y-13519226D01*
X13127678Y-13538274D01*
X13251488Y-13719226D02*
X13232440Y-13709702D01*
X13222917Y-13690655D01*
X13222917Y-13519226D01*
X13356250Y-13719226D02*
X13337202Y-13709702D01*
X13327678Y-13690655D01*
X13327678Y-13519226D01*
X13584821Y-13719226D02*
X13584821Y-13519226D01*
X13651488Y-13662083D01*
X13718155Y-13519226D01*
X13718155Y-13719226D01*
X13899107Y-13719226D02*
X13899107Y-13614464D01*
X13889583Y-13595417D01*
X13870536Y-13585893D01*
X13832440Y-13585893D01*
X13813393Y-13595417D01*
X13899107Y-13709702D02*
X13880059Y-13719226D01*
X13832440Y-13719226D01*
X13813393Y-13709702D01*
X13803869Y-13690655D01*
X13803869Y-13671607D01*
X13813393Y-13652559D01*
X13832440Y-13643036D01*
X13880059Y-13643036D01*
X13899107Y-13633512D01*
X13994345Y-13585893D02*
X13994345Y-13785893D01*
X13994345Y-13595417D02*
X14013393Y-13585893D01*
X14051488Y-13585893D01*
X14070536Y-13595417D01*
X14080059Y-13604940D01*
X14089583Y-13623988D01*
X14089583Y-13681131D01*
X14080059Y-13700178D01*
X14070536Y-13709702D01*
X14051488Y-13719226D01*
X14013393Y-13719226D01*
X13994345Y-13709702D01*
X14175298Y-13700178D02*
X14184821Y-13709702D01*
X14175298Y-13719226D01*
X14165774Y-13709702D01*
X14175298Y-13700178D01*
X14175298Y-13719226D01*
X14175298Y-13595417D02*
X14184821Y-13604940D01*
X14175298Y-13614464D01*
X14165774Y-13604940D01*
X14175298Y-13595417D01*
X14175298Y-13614464D01*
D12*
X12516250Y-14033750D02*
X12546250Y-14063750D01*
X12546250Y-14033750D02*
X12516250Y-14063750D01*
D11*
X12841964Y-13939226D02*
X12861012Y-13939226D01*
X12880059Y-13948750D01*
X12889583Y-13958274D01*
X12899107Y-13977321D01*
X12908631Y-14015417D01*
X12908631Y-14063036D01*
X12899107Y-14101131D01*
X12889583Y-14120178D01*
X12880059Y-14129702D01*
X12861012Y-14139226D01*
X12841964Y-14139226D01*
X12822917Y-14129702D01*
X12813393Y-14120178D01*
X12803869Y-14101131D01*
X12794345Y-14063036D01*
X12794345Y-14015417D01*
X12803869Y-13977321D01*
X12813393Y-13958274D01*
X12822917Y-13948750D01*
X12841964Y-13939226D01*
X12994345Y-14120178D02*
X13003869Y-14129702D01*
X12994345Y-14139226D01*
X12984821Y-14129702D01*
X12994345Y-14120178D01*
X12994345Y-14139226D01*
X13070536Y-13939226D02*
X13194345Y-13939226D01*
X13127678Y-14015417D01*
X13156250Y-14015417D01*
X13175298Y-14024940D01*
X13184821Y-14034464D01*
X13194345Y-14053512D01*
X13194345Y-14101131D01*
X13184821Y-14120178D01*
X13175298Y-14129702D01*
X13156250Y-14139226D01*
X13099107Y-14139226D01*
X13080059Y-14129702D01*
X13070536Y-14120178D01*
X13318155Y-13939226D02*
X13337202Y-13939226D01*
X13356250Y-13948750D01*
X13365774Y-13958274D01*
X13375298Y-13977321D01*
X13384821Y-14015417D01*
X13384821Y-14063036D01*
X13375298Y-14101131D01*
X13365774Y-14120178D01*
X13356250Y-14129702D01*
X13337202Y-14139226D01*
X13318155Y-14139226D01*
X13299107Y-14129702D01*
X13289583Y-14120178D01*
X13280059Y-14101131D01*
X13270536Y-14063036D01*
X13270536Y-14015417D01*
X13280059Y-13977321D01*
X13289583Y-13958274D01*
X13299107Y-13948750D01*
X13318155Y-13939226D01*
X13508631Y-13939226D02*
X13527678Y-13939226D01*
X13546726Y-13948750D01*
X13556250Y-13958274D01*
X13565774Y-13977321D01*
X13575298Y-14015417D01*
X13575298Y-14063036D01*
X13565774Y-14101131D01*
X13556250Y-14120178D01*
X13546726Y-14129702D01*
X13527678Y-14139226D01*
X13508631Y-14139226D01*
X13489583Y-14129702D01*
X13480059Y-14120178D01*
X13470536Y-14101131D01*
X13461012Y-14063036D01*
X13461012Y-14015417D01*
X13470536Y-13977321D01*
X13480059Y-13958274D01*
X13489583Y-13948750D01*
X13508631Y-13939226D01*
X13661012Y-14139226D02*
X13661012Y-14005893D01*
X13661012Y-14024940D02*
X13670536Y-14015417D01*
X13689583Y-14005893D01*
X13718155Y-14005893D01*
X13737202Y-14015417D01*
X13746726Y-14034464D01*
X13746726Y-14139226D01*
X13746726Y-14034464D02*
X13756250Y-14015417D01*
X13775298Y-14005893D01*
X13803869Y-14005893D01*
X13822917Y-14015417D01*
X13832440Y-14034464D01*
X13832440Y-14139226D01*
X13927678Y-14139226D02*
X13927678Y-14005893D01*
X13927678Y-14024940D02*
X13937202Y-14015417D01*
X13956250Y-14005893D01*
X13984821Y-14005893D01*
X14003869Y-14015417D01*
X14013393Y-14034464D01*
X14013393Y-14139226D01*
X14013393Y-14034464D02*
X14022917Y-14015417D01*
X14041964Y-14005893D01*
X14070536Y-14005893D01*
X14089583Y-14015417D01*
X14099107Y-14034464D01*
X14099107Y-14139226D01*
X14489583Y-13929702D02*
X14318155Y-14186845D01*
X14746726Y-13939226D02*
X14765774Y-13939226D01*
X14784821Y-13948750D01*
X14794345Y-13958274D01*
X14803869Y-13977321D01*
X14813393Y-14015417D01*
X14813393Y-14063036D01*
X14803869Y-14101131D01*
X14794345Y-14120178D01*
X14784821Y-14129702D01*
X14765774Y-14139226D01*
X14746726Y-14139226D01*
X14727678Y-14129702D01*
X14718155Y-14120178D01*
X14708631Y-14101131D01*
X14699107Y-14063036D01*
X14699107Y-14015417D01*
X14708631Y-13977321D01*
X14718155Y-13958274D01*
X14727678Y-13948750D01*
X14746726Y-13939226D01*
X14899107Y-14120178D02*
X14908631Y-14129702D01*
X14899107Y-14139226D01*
X14889583Y-14129702D01*
X14899107Y-14120178D01*
X14899107Y-14139226D01*
X15032440Y-13939226D02*
X15051488Y-13939226D01*
X15070536Y-13948750D01*
X15080059Y-13958274D01*
X15089583Y-13977321D01*
X15099107Y-14015417D01*
X15099107Y-14063036D01*
X15089583Y-14101131D01*
X15080059Y-14120178D01*
X15070536Y-14129702D01*
X15051488Y-14139226D01*
X15032440Y-14139226D01*
X15013393Y-14129702D01*
X15003869Y-14120178D01*
X14994345Y-14101131D01*
X14984821Y-14063036D01*
X14984821Y-14015417D01*
X14994345Y-13977321D01*
X15003869Y-13958274D01*
X15013393Y-13948750D01*
X15032440Y-13939226D01*
X15289583Y-14139226D02*
X15175298Y-14139226D01*
X15232440Y-14139226D02*
X15232440Y-13939226D01*
X15213393Y-13967798D01*
X15194345Y-13986845D01*
X15175298Y-13996369D01*
X15480059Y-14139226D02*
X15365774Y-14139226D01*
X15422917Y-14139226D02*
X15422917Y-13939226D01*
X15403869Y-13967798D01*
X15384821Y-13986845D01*
X15365774Y-13996369D01*
X15594345Y-14024940D02*
X15575298Y-14015417D01*
X15565774Y-14005893D01*
X15556250Y-13986845D01*
X15556250Y-13977321D01*
X15565774Y-13958274D01*
X15575298Y-13948750D01*
X15594345Y-13939226D01*
X15632440Y-13939226D01*
X15651488Y-13948750D01*
X15661012Y-13958274D01*
X15670536Y-13977321D01*
X15670536Y-13986845D01*
X15661012Y-14005893D01*
X15651488Y-14015417D01*
X15632440Y-14024940D01*
X15594345Y-14024940D01*
X15575298Y-14034464D01*
X15565774Y-14043988D01*
X15556250Y-14063036D01*
X15556250Y-14101131D01*
X15565774Y-14120178D01*
X15575298Y-14129702D01*
X15594345Y-14139226D01*
X15632440Y-14139226D01*
X15651488Y-14129702D01*
X15661012Y-14120178D01*
X15670536Y-14101131D01*
X15670536Y-14063036D01*
X15661012Y-14043988D01*
X15651488Y-14034464D01*
X15632440Y-14024940D01*
X15746726Y-13939226D02*
X15746726Y-13977321D01*
X15822917Y-13939226D02*
X15822917Y-13977321D01*
X16118155Y-14215417D02*
X16108631Y-14205893D01*
X16089583Y-14177321D01*
X16080059Y-14158274D01*
X16070536Y-14129702D01*
X16061012Y-14082083D01*
X16061012Y-14043988D01*
X16070536Y-13996369D01*
X16080059Y-13967798D01*
X16089583Y-13948750D01*
X16108631Y-13920178D01*
X16118155Y-13910655D01*
X16184821Y-13958274D02*
X16194345Y-13948750D01*
X16213393Y-13939226D01*
X16261012Y-13939226D01*
X16280059Y-13948750D01*
X16289583Y-13958274D01*
X16299107Y-13977321D01*
X16299107Y-13996369D01*
X16289583Y-14024940D01*
X16175298Y-14139226D01*
X16299107Y-14139226D01*
X16394345Y-14139226D02*
X16432440Y-14139226D01*
X16451488Y-14129702D01*
X16461012Y-14120178D01*
X16480059Y-14091607D01*
X16489583Y-14053512D01*
X16489583Y-13977321D01*
X16480059Y-13958274D01*
X16470536Y-13948750D01*
X16451488Y-13939226D01*
X16413393Y-13939226D01*
X16394345Y-13948750D01*
X16384821Y-13958274D01*
X16375298Y-13977321D01*
X16375298Y-14024940D01*
X16384821Y-14043988D01*
X16394345Y-14053512D01*
X16413393Y-14063036D01*
X16451488Y-14063036D01*
X16470536Y-14053512D01*
X16480059Y-14043988D01*
X16489583Y-14024940D01*
X16556250Y-13939226D02*
X16680059Y-13939226D01*
X16613393Y-14015417D01*
X16641964Y-14015417D01*
X16661012Y-14024940D01*
X16670536Y-14034464D01*
X16680059Y-14053512D01*
X16680059Y-14101131D01*
X16670536Y-14120178D01*
X16661012Y-14129702D01*
X16641964Y-14139226D01*
X16584821Y-14139226D01*
X16565774Y-14129702D01*
X16556250Y-14120178D01*
X16918155Y-14139226D02*
X16918155Y-13939226D01*
X17003869Y-14139226D02*
X17003869Y-14034464D01*
X16994345Y-14015417D01*
X16975298Y-14005893D01*
X16946726Y-14005893D01*
X16927679Y-14015417D01*
X16918155Y-14024940D01*
X17127679Y-14139226D02*
X17108631Y-14129702D01*
X17099107Y-14120178D01*
X17089583Y-14101131D01*
X17089583Y-14043988D01*
X17099107Y-14024940D01*
X17108631Y-14015417D01*
X17127679Y-14005893D01*
X17156250Y-14005893D01*
X17175298Y-14015417D01*
X17184821Y-14024940D01*
X17194345Y-14043988D01*
X17194345Y-14101131D01*
X17184821Y-14120178D01*
X17175298Y-14129702D01*
X17156250Y-14139226D01*
X17127679Y-14139226D01*
X17308631Y-14139226D02*
X17289583Y-14129702D01*
X17280060Y-14110655D01*
X17280060Y-13939226D01*
X17461012Y-14129702D02*
X17441964Y-14139226D01*
X17403869Y-14139226D01*
X17384821Y-14129702D01*
X17375298Y-14110655D01*
X17375298Y-14034464D01*
X17384821Y-14015417D01*
X17403869Y-14005893D01*
X17441964Y-14005893D01*
X17461012Y-14015417D01*
X17470536Y-14034464D01*
X17470536Y-14053512D01*
X17375298Y-14072559D01*
X17546726Y-14129702D02*
X17565774Y-14139226D01*
X17603869Y-14139226D01*
X17622917Y-14129702D01*
X17632440Y-14110655D01*
X17632440Y-14101131D01*
X17622917Y-14082083D01*
X17603869Y-14072559D01*
X17575298Y-14072559D01*
X17556250Y-14063036D01*
X17546726Y-14043988D01*
X17546726Y-14034464D01*
X17556250Y-14015417D01*
X17575298Y-14005893D01*
X17603869Y-14005893D01*
X17622917Y-14015417D01*
X17699107Y-14215417D02*
X17708631Y-14205893D01*
X17727679Y-14177321D01*
X17737202Y-14158274D01*
X17746726Y-14129702D01*
X17756250Y-14082083D01*
X17756250Y-14043988D01*
X17746726Y-13996369D01*
X17737202Y-13967798D01*
X17727679Y-13948750D01*
X17708631Y-13920178D01*
X17699107Y-13910655D01*
D13*
X12546250Y-14312750D02*
G75*
G03*
X12546250Y-14312750I-42500J0D01*
G01*
D11*
X12841964Y-14203226D02*
X12861012Y-14203226D01*
X12880059Y-14212750D01*
X12889583Y-14222274D01*
X12899107Y-14241321D01*
X12908631Y-14279417D01*
X12908631Y-14327036D01*
X12899107Y-14365131D01*
X12889583Y-14384178D01*
X12880059Y-14393702D01*
X12861012Y-14403226D01*
X12841964Y-14403226D01*
X12822917Y-14393702D01*
X12813393Y-14384178D01*
X12803869Y-14365131D01*
X12794345Y-14327036D01*
X12794345Y-14279417D01*
X12803869Y-14241321D01*
X12813393Y-14222274D01*
X12822917Y-14212750D01*
X12841964Y-14203226D01*
X12994345Y-14384178D02*
X13003869Y-14393702D01*
X12994345Y-14403226D01*
X12984821Y-14393702D01*
X12994345Y-14384178D01*
X12994345Y-14403226D01*
X13118155Y-14288940D02*
X13099107Y-14279417D01*
X13089583Y-14269893D01*
X13080059Y-14250845D01*
X13080059Y-14241321D01*
X13089583Y-14222274D01*
X13099107Y-14212750D01*
X13118155Y-14203226D01*
X13156250Y-14203226D01*
X13175298Y-14212750D01*
X13184821Y-14222274D01*
X13194345Y-14241321D01*
X13194345Y-14250845D01*
X13184821Y-14269893D01*
X13175298Y-14279417D01*
X13156250Y-14288940D01*
X13118155Y-14288940D01*
X13099107Y-14298464D01*
X13089583Y-14307988D01*
X13080059Y-14327036D01*
X13080059Y-14365131D01*
X13089583Y-14384178D01*
X13099107Y-14393702D01*
X13118155Y-14403226D01*
X13156250Y-14403226D01*
X13175298Y-14393702D01*
X13184821Y-14384178D01*
X13194345Y-14365131D01*
X13194345Y-14327036D01*
X13184821Y-14307988D01*
X13175298Y-14298464D01*
X13156250Y-14288940D01*
X13375298Y-14203226D02*
X13280059Y-14203226D01*
X13270536Y-14298464D01*
X13280059Y-14288940D01*
X13299107Y-14279417D01*
X13346726Y-14279417D01*
X13365774Y-14288940D01*
X13375298Y-14298464D01*
X13384821Y-14317512D01*
X13384821Y-14365131D01*
X13375298Y-14384178D01*
X13365774Y-14393702D01*
X13346726Y-14403226D01*
X13299107Y-14403226D01*
X13280059Y-14393702D01*
X13270536Y-14384178D01*
X13508631Y-14203226D02*
X13527678Y-14203226D01*
X13546726Y-14212750D01*
X13556250Y-14222274D01*
X13565774Y-14241321D01*
X13575298Y-14279417D01*
X13575298Y-14327036D01*
X13565774Y-14365131D01*
X13556250Y-14384178D01*
X13546726Y-14393702D01*
X13527678Y-14403226D01*
X13508631Y-14403226D01*
X13489583Y-14393702D01*
X13480059Y-14384178D01*
X13470536Y-14365131D01*
X13461012Y-14327036D01*
X13461012Y-14279417D01*
X13470536Y-14241321D01*
X13480059Y-14222274D01*
X13489583Y-14212750D01*
X13508631Y-14203226D01*
X13661012Y-14403226D02*
X13661012Y-14269893D01*
X13661012Y-14288940D02*
X13670536Y-14279417D01*
X13689583Y-14269893D01*
X13718155Y-14269893D01*
X13737202Y-14279417D01*
X13746726Y-14298464D01*
X13746726Y-14403226D01*
X13746726Y-14298464D02*
X13756250Y-14279417D01*
X13775298Y-14269893D01*
X13803869Y-14269893D01*
X13822917Y-14279417D01*
X13832440Y-14298464D01*
X13832440Y-14403226D01*
X13927678Y-14403226D02*
X13927678Y-14269893D01*
X13927678Y-14288940D02*
X13937202Y-14279417D01*
X13956250Y-14269893D01*
X13984821Y-14269893D01*
X14003869Y-14279417D01*
X14013393Y-14298464D01*
X14013393Y-14403226D01*
X14013393Y-14298464D02*
X14022917Y-14279417D01*
X14041964Y-14269893D01*
X14070536Y-14269893D01*
X14089583Y-14279417D01*
X14099107Y-14298464D01*
X14099107Y-14403226D01*
X14489583Y-14193702D02*
X14318155Y-14450845D01*
X14746726Y-14203226D02*
X14765774Y-14203226D01*
X14784821Y-14212750D01*
X14794345Y-14222274D01*
X14803869Y-14241321D01*
X14813393Y-14279417D01*
X14813393Y-14327036D01*
X14803869Y-14365131D01*
X14794345Y-14384178D01*
X14784821Y-14393702D01*
X14765774Y-14403226D01*
X14746726Y-14403226D01*
X14727678Y-14393702D01*
X14718155Y-14384178D01*
X14708631Y-14365131D01*
X14699107Y-14327036D01*
X14699107Y-14279417D01*
X14708631Y-14241321D01*
X14718155Y-14222274D01*
X14727678Y-14212750D01*
X14746726Y-14203226D01*
X14899107Y-14384178D02*
X14908631Y-14393702D01*
X14899107Y-14403226D01*
X14889583Y-14393702D01*
X14899107Y-14384178D01*
X14899107Y-14403226D01*
X15032440Y-14203226D02*
X15051488Y-14203226D01*
X15070536Y-14212750D01*
X15080059Y-14222274D01*
X15089583Y-14241321D01*
X15099107Y-14279417D01*
X15099107Y-14327036D01*
X15089583Y-14365131D01*
X15080059Y-14384178D01*
X15070536Y-14393702D01*
X15051488Y-14403226D01*
X15032440Y-14403226D01*
X15013393Y-14393702D01*
X15003869Y-14384178D01*
X14994345Y-14365131D01*
X14984821Y-14327036D01*
X14984821Y-14279417D01*
X14994345Y-14241321D01*
X15003869Y-14222274D01*
X15013393Y-14212750D01*
X15032440Y-14203226D01*
X15165774Y-14203226D02*
X15289583Y-14203226D01*
X15222917Y-14279417D01*
X15251488Y-14279417D01*
X15270536Y-14288940D01*
X15280059Y-14298464D01*
X15289583Y-14317512D01*
X15289583Y-14365131D01*
X15280059Y-14384178D01*
X15270536Y-14393702D01*
X15251488Y-14403226D01*
X15194345Y-14403226D01*
X15175298Y-14393702D01*
X15165774Y-14384178D01*
X15356250Y-14203226D02*
X15480059Y-14203226D01*
X15413393Y-14279417D01*
X15441964Y-14279417D01*
X15461012Y-14288940D01*
X15470536Y-14298464D01*
X15480059Y-14317512D01*
X15480059Y-14365131D01*
X15470536Y-14384178D01*
X15461012Y-14393702D01*
X15441964Y-14403226D01*
X15384821Y-14403226D01*
X15365774Y-14393702D01*
X15356250Y-14384178D01*
X15661012Y-14203226D02*
X15565774Y-14203226D01*
X15556250Y-14298464D01*
X15565774Y-14288940D01*
X15584821Y-14279417D01*
X15632440Y-14279417D01*
X15651488Y-14288940D01*
X15661012Y-14298464D01*
X15670536Y-14317512D01*
X15670536Y-14365131D01*
X15661012Y-14384178D01*
X15651488Y-14393702D01*
X15632440Y-14403226D01*
X15584821Y-14403226D01*
X15565774Y-14393702D01*
X15556250Y-14384178D01*
X15746726Y-14203226D02*
X15746726Y-14241321D01*
X15822917Y-14203226D02*
X15822917Y-14241321D01*
X16118155Y-14479417D02*
X16108631Y-14469893D01*
X16089583Y-14441321D01*
X16080059Y-14422274D01*
X16070536Y-14393702D01*
X16061012Y-14346083D01*
X16061012Y-14307988D01*
X16070536Y-14260369D01*
X16080059Y-14231798D01*
X16089583Y-14212750D01*
X16108631Y-14184178D01*
X16118155Y-14174655D01*
X16175298Y-14203226D02*
X16308631Y-14203226D01*
X16222917Y-14403226D01*
X16537202Y-14403226D02*
X16537202Y-14203226D01*
X16622917Y-14403226D02*
X16622917Y-14298464D01*
X16613393Y-14279417D01*
X16594345Y-14269893D01*
X16565774Y-14269893D01*
X16546726Y-14279417D01*
X16537202Y-14288940D01*
X16746726Y-14403226D02*
X16727678Y-14393702D01*
X16718155Y-14384178D01*
X16708631Y-14365131D01*
X16708631Y-14307988D01*
X16718155Y-14288940D01*
X16727678Y-14279417D01*
X16746726Y-14269893D01*
X16775298Y-14269893D01*
X16794345Y-14279417D01*
X16803869Y-14288940D01*
X16813393Y-14307988D01*
X16813393Y-14365131D01*
X16803869Y-14384178D01*
X16794345Y-14393702D01*
X16775298Y-14403226D01*
X16746726Y-14403226D01*
X16927679Y-14403226D02*
X16908631Y-14393702D01*
X16899107Y-14374655D01*
X16899107Y-14203226D01*
X17080060Y-14393702D02*
X17061012Y-14403226D01*
X17022917Y-14403226D01*
X17003869Y-14393702D01*
X16994345Y-14374655D01*
X16994345Y-14298464D01*
X17003869Y-14279417D01*
X17022917Y-14269893D01*
X17061012Y-14269893D01*
X17080060Y-14279417D01*
X17089583Y-14298464D01*
X17089583Y-14317512D01*
X16994345Y-14336559D01*
X17165774Y-14393702D02*
X17184821Y-14403226D01*
X17222917Y-14403226D01*
X17241964Y-14393702D01*
X17251488Y-14374655D01*
X17251488Y-14365131D01*
X17241964Y-14346083D01*
X17222917Y-14336559D01*
X17194345Y-14336559D01*
X17175298Y-14327036D01*
X17165774Y-14307988D01*
X17165774Y-14298464D01*
X17175298Y-14279417D01*
X17194345Y-14269893D01*
X17222917Y-14269893D01*
X17241964Y-14279417D01*
X17318155Y-14479417D02*
X17327679Y-14469893D01*
X17346726Y-14441321D01*
X17356250Y-14422274D01*
X17365774Y-14393702D01*
X17375298Y-14346083D01*
X17375298Y-14307988D01*
X17365774Y-14260369D01*
X17356250Y-14231798D01*
X17346726Y-14212750D01*
X17327679Y-14184178D01*
X17318155Y-14174655D01*
D14*
X12486250Y-14516750D02*
X12486250Y-14636750D01*
X12426250Y-14576750D02*
X12546250Y-14576750D01*
D11*
X12908631Y-14667226D02*
X12794345Y-14667226D01*
X12851488Y-14667226D02*
X12851488Y-14467226D01*
X12832440Y-14495798D01*
X12813393Y-14514845D01*
X12794345Y-14524369D01*
X12994345Y-14648178D02*
X13003869Y-14657702D01*
X12994345Y-14667226D01*
X12984821Y-14657702D01*
X12994345Y-14648178D01*
X12994345Y-14667226D01*
X13080059Y-14486274D02*
X13089583Y-14476750D01*
X13108631Y-14467226D01*
X13156250Y-14467226D01*
X13175298Y-14476750D01*
X13184821Y-14486274D01*
X13194345Y-14505321D01*
X13194345Y-14524369D01*
X13184821Y-14552940D01*
X13070536Y-14667226D01*
X13194345Y-14667226D01*
X13318155Y-14467226D02*
X13337202Y-14467226D01*
X13356250Y-14476750D01*
X13365774Y-14486274D01*
X13375298Y-14505321D01*
X13384821Y-14543417D01*
X13384821Y-14591036D01*
X13375298Y-14629131D01*
X13365774Y-14648178D01*
X13356250Y-14657702D01*
X13337202Y-14667226D01*
X13318155Y-14667226D01*
X13299107Y-14657702D01*
X13289583Y-14648178D01*
X13280059Y-14629131D01*
X13270536Y-14591036D01*
X13270536Y-14543417D01*
X13280059Y-14505321D01*
X13289583Y-14486274D01*
X13299107Y-14476750D01*
X13318155Y-14467226D01*
X13508631Y-14467226D02*
X13527678Y-14467226D01*
X13546726Y-14476750D01*
X13556250Y-14486274D01*
X13565774Y-14505321D01*
X13575298Y-14543417D01*
X13575298Y-14591036D01*
X13565774Y-14629131D01*
X13556250Y-14648178D01*
X13546726Y-14657702D01*
X13527678Y-14667226D01*
X13508631Y-14667226D01*
X13489583Y-14657702D01*
X13480059Y-14648178D01*
X13470536Y-14629131D01*
X13461012Y-14591036D01*
X13461012Y-14543417D01*
X13470536Y-14505321D01*
X13480059Y-14486274D01*
X13489583Y-14476750D01*
X13508631Y-14467226D01*
X13661012Y-14667226D02*
X13661012Y-14533893D01*
X13661012Y-14552940D02*
X13670536Y-14543417D01*
X13689583Y-14533893D01*
X13718155Y-14533893D01*
X13737202Y-14543417D01*
X13746726Y-14562464D01*
X13746726Y-14667226D01*
X13746726Y-14562464D02*
X13756250Y-14543417D01*
X13775298Y-14533893D01*
X13803869Y-14533893D01*
X13822917Y-14543417D01*
X13832440Y-14562464D01*
X13832440Y-14667226D01*
X13927678Y-14667226D02*
X13927678Y-14533893D01*
X13927678Y-14552940D02*
X13937202Y-14543417D01*
X13956250Y-14533893D01*
X13984821Y-14533893D01*
X14003869Y-14543417D01*
X14013393Y-14562464D01*
X14013393Y-14667226D01*
X14013393Y-14562464D02*
X14022917Y-14543417D01*
X14041964Y-14533893D01*
X14070536Y-14533893D01*
X14089583Y-14543417D01*
X14099107Y-14562464D01*
X14099107Y-14667226D01*
X14489583Y-14457702D02*
X14318155Y-14714845D01*
X14746726Y-14467226D02*
X14765774Y-14467226D01*
X14784821Y-14476750D01*
X14794345Y-14486274D01*
X14803869Y-14505321D01*
X14813393Y-14543417D01*
X14813393Y-14591036D01*
X14803869Y-14629131D01*
X14794345Y-14648178D01*
X14784821Y-14657702D01*
X14765774Y-14667226D01*
X14746726Y-14667226D01*
X14727678Y-14657702D01*
X14718155Y-14648178D01*
X14708631Y-14629131D01*
X14699107Y-14591036D01*
X14699107Y-14543417D01*
X14708631Y-14505321D01*
X14718155Y-14486274D01*
X14727678Y-14476750D01*
X14746726Y-14467226D01*
X14899107Y-14648178D02*
X14908631Y-14657702D01*
X14899107Y-14667226D01*
X14889583Y-14657702D01*
X14899107Y-14648178D01*
X14899107Y-14667226D01*
X15032440Y-14467226D02*
X15051488Y-14467226D01*
X15070536Y-14476750D01*
X15080059Y-14486274D01*
X15089583Y-14505321D01*
X15099107Y-14543417D01*
X15099107Y-14591036D01*
X15089583Y-14629131D01*
X15080059Y-14648178D01*
X15070536Y-14657702D01*
X15051488Y-14667226D01*
X15032440Y-14667226D01*
X15013393Y-14657702D01*
X15003869Y-14648178D01*
X14994345Y-14629131D01*
X14984821Y-14591036D01*
X14984821Y-14543417D01*
X14994345Y-14505321D01*
X15003869Y-14486274D01*
X15013393Y-14476750D01*
X15032440Y-14467226D01*
X15270536Y-14533893D02*
X15270536Y-14667226D01*
X15222917Y-14457702D02*
X15175298Y-14600559D01*
X15299107Y-14600559D01*
X15356250Y-14467226D02*
X15489583Y-14467226D01*
X15403869Y-14667226D01*
X15556250Y-14486274D02*
X15565774Y-14476750D01*
X15584821Y-14467226D01*
X15632440Y-14467226D01*
X15651488Y-14476750D01*
X15661012Y-14486274D01*
X15670536Y-14505321D01*
X15670536Y-14524369D01*
X15661012Y-14552940D01*
X15546726Y-14667226D01*
X15670536Y-14667226D01*
X15746726Y-14467226D02*
X15746726Y-14505321D01*
X15822917Y-14467226D02*
X15822917Y-14505321D01*
X16118155Y-14743417D02*
X16108631Y-14733893D01*
X16089583Y-14705321D01*
X16080059Y-14686274D01*
X16070536Y-14657702D01*
X16061012Y-14610083D01*
X16061012Y-14571988D01*
X16070536Y-14524369D01*
X16080059Y-14495798D01*
X16089583Y-14476750D01*
X16108631Y-14448178D01*
X16118155Y-14438655D01*
X16280059Y-14533893D02*
X16280059Y-14667226D01*
X16232440Y-14457702D02*
X16184821Y-14600559D01*
X16308631Y-14600559D01*
X16422917Y-14467226D02*
X16441964Y-14467226D01*
X16461012Y-14476750D01*
X16470536Y-14486274D01*
X16480059Y-14505321D01*
X16489583Y-14543417D01*
X16489583Y-14591036D01*
X16480059Y-14629131D01*
X16470536Y-14648178D01*
X16461012Y-14657702D01*
X16441964Y-14667226D01*
X16422917Y-14667226D01*
X16403869Y-14657702D01*
X16394345Y-14648178D01*
X16384821Y-14629131D01*
X16375298Y-14591036D01*
X16375298Y-14543417D01*
X16384821Y-14505321D01*
X16394345Y-14486274D01*
X16403869Y-14476750D01*
X16422917Y-14467226D01*
X16727678Y-14667226D02*
X16727678Y-14467226D01*
X16813393Y-14667226D02*
X16813393Y-14562464D01*
X16803869Y-14543417D01*
X16784821Y-14533893D01*
X16756250Y-14533893D01*
X16737202Y-14543417D01*
X16727678Y-14552940D01*
X16937202Y-14667226D02*
X16918155Y-14657702D01*
X16908631Y-14648178D01*
X16899107Y-14629131D01*
X16899107Y-14571988D01*
X16908631Y-14552940D01*
X16918155Y-14543417D01*
X16937202Y-14533893D01*
X16965774Y-14533893D01*
X16984821Y-14543417D01*
X16994345Y-14552940D01*
X17003869Y-14571988D01*
X17003869Y-14629131D01*
X16994345Y-14648178D01*
X16984821Y-14657702D01*
X16965774Y-14667226D01*
X16937202Y-14667226D01*
X17118155Y-14667226D02*
X17099107Y-14657702D01*
X17089583Y-14638655D01*
X17089583Y-14467226D01*
X17270536Y-14657702D02*
X17251488Y-14667226D01*
X17213393Y-14667226D01*
X17194345Y-14657702D01*
X17184821Y-14638655D01*
X17184821Y-14562464D01*
X17194345Y-14543417D01*
X17213393Y-14533893D01*
X17251488Y-14533893D01*
X17270536Y-14543417D01*
X17280060Y-14562464D01*
X17280060Y-14581512D01*
X17184821Y-14600559D01*
X17356250Y-14657702D02*
X17375298Y-14667226D01*
X17413393Y-14667226D01*
X17432440Y-14657702D01*
X17441964Y-14638655D01*
X17441964Y-14629131D01*
X17432440Y-14610083D01*
X17413393Y-14600559D01*
X17384821Y-14600559D01*
X17365774Y-14591036D01*
X17356250Y-14571988D01*
X17356250Y-14562464D01*
X17365774Y-14543417D01*
X17384821Y-14533893D01*
X17413393Y-14533893D01*
X17432440Y-14543417D01*
X17508631Y-14743417D02*
X17518155Y-14733893D01*
X17537202Y-14705321D01*
X17546726Y-14686274D01*
X17556250Y-14657702D01*
X17565774Y-14610083D01*
X17565774Y-14571988D01*
X17556250Y-14524369D01*
X17546726Y-14495798D01*
X17537202Y-14476750D01*
X17518155Y-14448178D01*
X17508631Y-14438655D01*
M02*
