G04 #@! TF.GenerationSoftware,KiCad,Pcbnew,6.0.10+dfsg-1~bpo11+1*
G04 #@! TF.ProjectId,project,70726f6a-6563-4742-9e6b-696361645f70,rev?*
G04 #@! TF.SameCoordinates,Original*
G04 #@! TF.FileFunction,Legend,Bot*
G04 #@! TF.FilePolarity,Positive*
%FSLAX46Y46*%
G04 Gerber Fmt 4.6, Leading zero omitted, Abs format (unit mm)*
%MOMM*%
%LPD*%
G01*
G04 APERTURE LIST*
%ADD10C,0.150000*%
G04 #@! TA.AperFunction,Profile*
%ADD11C,0.100000*%
G04 #@! TD*
%ADD12C,0.120000*%
%ADD13O,1.800000X3.600000*%
%ADD14C,1.552000*%
%ADD15R,1.850000X1.850000*%
%ADD16C,1.850000*%
G04 APERTURE END LIST*
D10*
X141262500Y-88037500D02*
X141262500Y-83287500D01*
X166762500Y-67037500D02*
X166762500Y-83787500D01*
X207762500Y-83787500D02*
X207762500Y-105787500D01*
X166762500Y-83787500D02*
X207762500Y-83787500D01*
X160012500Y-97537500D02*
X151762500Y-97537500D01*
X129512500Y-83287500D02*
X129512500Y-67037500D01*
X207762500Y-105787500D02*
X160012500Y-105787500D01*
X151762500Y-88037500D02*
X141262500Y-88037500D01*
X141262500Y-83287500D02*
X129512500Y-83287500D01*
X160012500Y-105787500D02*
X160012500Y-97537500D01*
X129512500Y-67037500D02*
X166762500Y-67037500D01*
X151762500Y-97537500D02*
X151762500Y-88037500D01*
D11*
X125512500Y-133037500D02*
G75*
G03*
X126512500Y-134037500I1000000J0D01*
G01*
X211012500Y-49037500D02*
X211012500Y-133037500D01*
X210012500Y-134037500D02*
X126512500Y-134037500D01*
X126512500Y-48037500D02*
X210012500Y-48037500D01*
X210012500Y-134037500D02*
G75*
G03*
X211012500Y-133037500I0J1000000D01*
G01*
X211012500Y-49037500D02*
G75*
G03*
X210012500Y-48037500I-1000000J0D01*
G01*
X126512500Y-48037500D02*
G75*
G03*
X125512500Y-49037500I0J-1000000D01*
G01*
X125512500Y-133037500D02*
X125512500Y-49037500D01*
G36*
X139642845Y-130100828D02*
G01*
X142757707Y-130100828D01*
X143382155Y-131037500D01*
X142757707Y-131974172D01*
X139642845Y-131974172D01*
X139642845Y-130451070D01*
X139965946Y-130451070D01*
X139991875Y-130574172D01*
X140023135Y-130710844D01*
X140059484Y-130857936D01*
X140100680Y-131012298D01*
X140130728Y-131118275D01*
X140162715Y-131225545D01*
X140196641Y-131334107D01*
X140231967Y-131442131D01*
X140268154Y-131547785D01*
X140305203Y-131651070D01*
X140551407Y-131651070D01*
X140985656Y-131651070D01*
X141768854Y-131651070D01*
X141960777Y-131651070D01*
X142689694Y-131651070D01*
X142689694Y-131453332D01*
X142437675Y-131453332D01*
X142437675Y-130782573D01*
X142561746Y-130851393D01*
X142680001Y-130898889D01*
X142757546Y-130701151D01*
X142656738Y-130656563D01*
X142548176Y-130596466D01*
X142445429Y-130526676D01*
X142362069Y-130451070D01*
X142199226Y-130451070D01*
X142199226Y-131453332D01*
X141960777Y-131453332D01*
X141960777Y-131651070D01*
X141768854Y-131651070D01*
X141773701Y-131602605D01*
X141772732Y-131561894D01*
X141763765Y-131468841D01*
X141736867Y-131383542D01*
X141696156Y-131305271D01*
X141645753Y-131233300D01*
X141588564Y-131166902D01*
X141527497Y-131105351D01*
X141466431Y-131047435D01*
X141409242Y-130991943D01*
X141318127Y-130887258D01*
X141282263Y-130784511D01*
X141326851Y-130671103D01*
X141439291Y-130631361D01*
X141557546Y-130658502D01*
X141679678Y-130749616D01*
X141797933Y-130582896D01*
X141714331Y-130512137D01*
X141618612Y-130462702D01*
X141517077Y-130433623D01*
X141416027Y-130423930D01*
X141274509Y-130445254D01*
X141154315Y-130509229D01*
X141070954Y-130616821D01*
X141039937Y-130767064D01*
X141063200Y-130886288D01*
X141125236Y-130997758D01*
X141212473Y-131102443D01*
X141311342Y-131199374D01*
X141369501Y-131254624D01*
X141431536Y-131320537D01*
X141480971Y-131389358D01*
X141501326Y-131453332D01*
X140985656Y-131453332D01*
X140985656Y-131651070D01*
X140551407Y-131651070D01*
X140599387Y-131508582D01*
X140650276Y-131348647D01*
X140684525Y-131236315D01*
X140717481Y-131124199D01*
X140749145Y-131012298D01*
X140779086Y-130902551D01*
X140806873Y-130796897D01*
X140832505Y-130695335D01*
X140864492Y-130559632D01*
X140886786Y-130451070D01*
X140634767Y-130451070D01*
X140620228Y-130551636D01*
X140599872Y-130667225D01*
X140575397Y-130792266D01*
X140548499Y-130921183D01*
X140519420Y-131051070D01*
X140488402Y-131179019D01*
X140456657Y-131299455D01*
X140425397Y-131406805D01*
X140394379Y-131300909D01*
X140363362Y-131180957D01*
X140333313Y-131053009D01*
X140305203Y-130923122D01*
X140279032Y-130793962D01*
X140254799Y-130668195D01*
X140233475Y-130551878D01*
X140216027Y-130451070D01*
X139965946Y-130451070D01*
X139642845Y-130451070D01*
X139642845Y-130100828D01*
G37*
D12*
X205012500Y-132370000D02*
X207012500Y-132370000D01*
X205012500Y-129570000D02*
X205012500Y-132370000D01*
X207012500Y-132370000D02*
X207012500Y-129570000D01*
X207012500Y-129570000D02*
X205012500Y-129570000D01*
X152012500Y-49737500D02*
X150012500Y-49737500D01*
X150012500Y-49737500D02*
X150012500Y-52537500D01*
X152012500Y-52537500D02*
X152012500Y-49737500D01*
X150012500Y-52537500D02*
X152012500Y-52537500D01*
G36*
X162844826Y-103614398D02*
G01*
X165680174Y-103614398D01*
X165126313Y-105460602D01*
X163398687Y-105460602D01*
X163301756Y-105137500D01*
X163398849Y-105137500D01*
X163590771Y-105137500D01*
X163646668Y-105004490D01*
X163705796Y-104871695D01*
X163768154Y-104739116D01*
X163833744Y-104606536D01*
X163902565Y-104473741D01*
X163974616Y-104340731D01*
X163974616Y-105137500D01*
X164189802Y-105137500D01*
X164356523Y-105137500D01*
X165126151Y-105137500D01*
X165126151Y-103937500D01*
X164399172Y-103937500D01*
X164399172Y-104135238D01*
X164887702Y-104135238D01*
X164887702Y-104404705D01*
X164463146Y-104404705D01*
X164463146Y-104602443D01*
X164887702Y-104602443D01*
X164887702Y-104939762D01*
X164356523Y-104939762D01*
X164356523Y-105137500D01*
X164189802Y-105137500D01*
X164189802Y-103937500D01*
X163997880Y-103937500D01*
X163943599Y-104026434D01*
X163889317Y-104122637D01*
X163835763Y-104222233D01*
X163783663Y-104321345D01*
X163734229Y-104418760D01*
X163688671Y-104513267D01*
X163648203Y-104600505D01*
X163614035Y-104676111D01*
X163614035Y-103937500D01*
X163398849Y-103937500D01*
X163398849Y-105137500D01*
X163301756Y-105137500D01*
X162844826Y-103614398D01*
G37*
G36*
X166642845Y-50350828D02*
G01*
X169757707Y-50350828D01*
X170382155Y-51287500D01*
X169757707Y-52224172D01*
X166642845Y-52224172D01*
X166642845Y-50701070D01*
X166965946Y-50701070D01*
X166991875Y-50824172D01*
X167023135Y-50960844D01*
X167059484Y-51107936D01*
X167100680Y-51262298D01*
X167130728Y-51368275D01*
X167162715Y-51475545D01*
X167196641Y-51584107D01*
X167231967Y-51692131D01*
X167268154Y-51797785D01*
X167305203Y-51901070D01*
X167551407Y-51901070D01*
X167985656Y-51901070D01*
X168768854Y-51901070D01*
X168960777Y-51901070D01*
X169689694Y-51901070D01*
X169689694Y-51703332D01*
X169437675Y-51703332D01*
X169437675Y-51032573D01*
X169561746Y-51101393D01*
X169680001Y-51148889D01*
X169757546Y-50951151D01*
X169656738Y-50906563D01*
X169548176Y-50846466D01*
X169445429Y-50776676D01*
X169362069Y-50701070D01*
X169199226Y-50701070D01*
X169199226Y-51703332D01*
X168960777Y-51703332D01*
X168960777Y-51901070D01*
X168768854Y-51901070D01*
X168773701Y-51852605D01*
X168772732Y-51811894D01*
X168763765Y-51718841D01*
X168736867Y-51633542D01*
X168696156Y-51555271D01*
X168645753Y-51483300D01*
X168588564Y-51416902D01*
X168527497Y-51355351D01*
X168466431Y-51297435D01*
X168409242Y-51241943D01*
X168318127Y-51137258D01*
X168282263Y-51034511D01*
X168326851Y-50921103D01*
X168439291Y-50881361D01*
X168557546Y-50908502D01*
X168679678Y-50999616D01*
X168797933Y-50832896D01*
X168714331Y-50762137D01*
X168618612Y-50712702D01*
X168517077Y-50683623D01*
X168416027Y-50673930D01*
X168274509Y-50695254D01*
X168154315Y-50759229D01*
X168070954Y-50866821D01*
X168039937Y-51017064D01*
X168063200Y-51136288D01*
X168125236Y-51247758D01*
X168212473Y-51352443D01*
X168311342Y-51449374D01*
X168369501Y-51504624D01*
X168431536Y-51570537D01*
X168480971Y-51639358D01*
X168501326Y-51703332D01*
X167985656Y-51703332D01*
X167985656Y-51901070D01*
X167551407Y-51901070D01*
X167599387Y-51758582D01*
X167650276Y-51598647D01*
X167684525Y-51486315D01*
X167717481Y-51374199D01*
X167749145Y-51262298D01*
X167779086Y-51152551D01*
X167806873Y-51046897D01*
X167832505Y-50945335D01*
X167864492Y-50809632D01*
X167886786Y-50701070D01*
X167634767Y-50701070D01*
X167620228Y-50801636D01*
X167599872Y-50917225D01*
X167575397Y-51042266D01*
X167548499Y-51171183D01*
X167519420Y-51301070D01*
X167488402Y-51429019D01*
X167456657Y-51549455D01*
X167425397Y-51656805D01*
X167394379Y-51550909D01*
X167363362Y-51430957D01*
X167333313Y-51303009D01*
X167305203Y-51173122D01*
X167279032Y-51043962D01*
X167254799Y-50918195D01*
X167233475Y-50801878D01*
X167216027Y-50701070D01*
X166965946Y-50701070D01*
X166642845Y-50701070D01*
X166642845Y-50350828D01*
G37*
X184512500Y-129570000D02*
X184512500Y-132370000D01*
X186512500Y-129570000D02*
X184512500Y-129570000D01*
X186512500Y-132370000D02*
X186512500Y-129570000D01*
X184512500Y-132370000D02*
X186512500Y-132370000D01*
X170512500Y-52462500D02*
X172512500Y-52462500D01*
X170512500Y-49662500D02*
X170512500Y-52462500D01*
X172512500Y-52462500D02*
X172512500Y-49662500D01*
X172512500Y-49662500D02*
X170512500Y-49662500D01*
G36*
X160142845Y-130100828D02*
G01*
X163257707Y-130100828D01*
X163882155Y-131037500D01*
X163257707Y-131974172D01*
X160142845Y-131974172D01*
X160142845Y-130451070D01*
X160465946Y-130451070D01*
X160491875Y-130574172D01*
X160523135Y-130710844D01*
X160559484Y-130857936D01*
X160600680Y-131012298D01*
X160630728Y-131118275D01*
X160662715Y-131225545D01*
X160696641Y-131334107D01*
X160731967Y-131442131D01*
X160768154Y-131547785D01*
X160805203Y-131651070D01*
X161051407Y-131651070D01*
X161485656Y-131651070D01*
X162268854Y-131651070D01*
X162460777Y-131651070D01*
X163189694Y-131651070D01*
X163189694Y-131453332D01*
X162937675Y-131453332D01*
X162937675Y-130782573D01*
X163061746Y-130851393D01*
X163180001Y-130898889D01*
X163257546Y-130701151D01*
X163156738Y-130656563D01*
X163048176Y-130596466D01*
X162945429Y-130526676D01*
X162862069Y-130451070D01*
X162699226Y-130451070D01*
X162699226Y-131453332D01*
X162460777Y-131453332D01*
X162460777Y-131651070D01*
X162268854Y-131651070D01*
X162273701Y-131602605D01*
X162272732Y-131561894D01*
X162263765Y-131468841D01*
X162236867Y-131383542D01*
X162196156Y-131305271D01*
X162145753Y-131233300D01*
X162088564Y-131166902D01*
X162027497Y-131105351D01*
X161966431Y-131047435D01*
X161909242Y-130991943D01*
X161818127Y-130887258D01*
X161782263Y-130784511D01*
X161826851Y-130671103D01*
X161939291Y-130631361D01*
X162057546Y-130658502D01*
X162179678Y-130749616D01*
X162297933Y-130582896D01*
X162214331Y-130512137D01*
X162118612Y-130462702D01*
X162017077Y-130433623D01*
X161916027Y-130423930D01*
X161774509Y-130445254D01*
X161654315Y-130509229D01*
X161570954Y-130616821D01*
X161539937Y-130767064D01*
X161563200Y-130886288D01*
X161625236Y-130997758D01*
X161712473Y-131102443D01*
X161811342Y-131199374D01*
X161869501Y-131254624D01*
X161931536Y-131320537D01*
X161980971Y-131389358D01*
X162001326Y-131453332D01*
X161485656Y-131453332D01*
X161485656Y-131651070D01*
X161051407Y-131651070D01*
X161099387Y-131508582D01*
X161150276Y-131348647D01*
X161184525Y-131236315D01*
X161217481Y-131124199D01*
X161249145Y-131012298D01*
X161279086Y-130902551D01*
X161306873Y-130796897D01*
X161332505Y-130695335D01*
X161364492Y-130559632D01*
X161386786Y-130451070D01*
X161134767Y-130451070D01*
X161120228Y-130551636D01*
X161099872Y-130667225D01*
X161075397Y-130792266D01*
X161048499Y-130921183D01*
X161019420Y-131051070D01*
X160988402Y-131179019D01*
X160956657Y-131299455D01*
X160925397Y-131406805D01*
X160894379Y-131300909D01*
X160863362Y-131180957D01*
X160833313Y-131053009D01*
X160805203Y-130923122D01*
X160779032Y-130793962D01*
X160754799Y-130668195D01*
X160733475Y-130551878D01*
X160716027Y-130451070D01*
X160465946Y-130451070D01*
X160142845Y-130451070D01*
X160142845Y-130100828D01*
G37*
G36*
X180642845Y-130100828D02*
G01*
X183757707Y-130100828D01*
X184382155Y-131037500D01*
X183757707Y-131974172D01*
X180642845Y-131974172D01*
X180642845Y-130451070D01*
X180965946Y-130451070D01*
X180991875Y-130574172D01*
X181023135Y-130710844D01*
X181059484Y-130857936D01*
X181100680Y-131012298D01*
X181130728Y-131118275D01*
X181162715Y-131225545D01*
X181196641Y-131334107D01*
X181231967Y-131442131D01*
X181268154Y-131547785D01*
X181305203Y-131651070D01*
X181551407Y-131651070D01*
X181985656Y-131651070D01*
X182768854Y-131651070D01*
X182960777Y-131651070D01*
X183689694Y-131651070D01*
X183689694Y-131453332D01*
X183437675Y-131453332D01*
X183437675Y-130782573D01*
X183561746Y-130851393D01*
X183680001Y-130898889D01*
X183757546Y-130701151D01*
X183656738Y-130656563D01*
X183548176Y-130596466D01*
X183445429Y-130526676D01*
X183362069Y-130451070D01*
X183199226Y-130451070D01*
X183199226Y-131453332D01*
X182960777Y-131453332D01*
X182960777Y-131651070D01*
X182768854Y-131651070D01*
X182773701Y-131602605D01*
X182772732Y-131561894D01*
X182763765Y-131468841D01*
X182736867Y-131383542D01*
X182696156Y-131305271D01*
X182645753Y-131233300D01*
X182588564Y-131166902D01*
X182527497Y-131105351D01*
X182466431Y-131047435D01*
X182409242Y-130991943D01*
X182318127Y-130887258D01*
X182282263Y-130784511D01*
X182326851Y-130671103D01*
X182439291Y-130631361D01*
X182557546Y-130658502D01*
X182679678Y-130749616D01*
X182797933Y-130582896D01*
X182714331Y-130512137D01*
X182618612Y-130462702D01*
X182517077Y-130433623D01*
X182416027Y-130423930D01*
X182274509Y-130445254D01*
X182154315Y-130509229D01*
X182070954Y-130616821D01*
X182039937Y-130767064D01*
X182063200Y-130886288D01*
X182125236Y-130997758D01*
X182212473Y-131102443D01*
X182311342Y-131199374D01*
X182369501Y-131254624D01*
X182431536Y-131320537D01*
X182480971Y-131389358D01*
X182501326Y-131453332D01*
X181985656Y-131453332D01*
X181985656Y-131651070D01*
X181551407Y-131651070D01*
X181599387Y-131508582D01*
X181650276Y-131348647D01*
X181684525Y-131236315D01*
X181717481Y-131124199D01*
X181749145Y-131012298D01*
X181779086Y-130902551D01*
X181806873Y-130796897D01*
X181832505Y-130695335D01*
X181864492Y-130559632D01*
X181886786Y-130451070D01*
X181634767Y-130451070D01*
X181620228Y-130551636D01*
X181599872Y-130667225D01*
X181575397Y-130792266D01*
X181548499Y-130921183D01*
X181519420Y-131051070D01*
X181488402Y-131179019D01*
X181456657Y-131299455D01*
X181425397Y-131406805D01*
X181394379Y-131300909D01*
X181363362Y-131180957D01*
X181333313Y-131053009D01*
X181305203Y-130923122D01*
X181279032Y-130793962D01*
X181254799Y-130668195D01*
X181233475Y-130551878D01*
X181216027Y-130451070D01*
X180965946Y-130451070D01*
X180642845Y-130451070D01*
X180642845Y-130100828D01*
G37*
X145512500Y-129637500D02*
X143512500Y-129637500D01*
X143512500Y-129637500D02*
X143512500Y-132437500D01*
X143512500Y-132437500D02*
X145512500Y-132437500D01*
X145512500Y-132437500D02*
X145512500Y-129637500D01*
X165650000Y-103500000D02*
X165650000Y-101500000D01*
X162850000Y-101500000D02*
X162850000Y-103500000D01*
X162850000Y-103500000D02*
X165650000Y-103500000D01*
X165650000Y-101500000D02*
X162850000Y-101500000D01*
G36*
X187142845Y-50350828D02*
G01*
X190257707Y-50350828D01*
X190882155Y-51287500D01*
X190257707Y-52224172D01*
X187142845Y-52224172D01*
X187142845Y-50701070D01*
X187465946Y-50701070D01*
X187491875Y-50824172D01*
X187523135Y-50960844D01*
X187559484Y-51107936D01*
X187600680Y-51262298D01*
X187630728Y-51368275D01*
X187662715Y-51475545D01*
X187696641Y-51584107D01*
X187731967Y-51692131D01*
X187768154Y-51797785D01*
X187805203Y-51901070D01*
X188051407Y-51901070D01*
X188485656Y-51901070D01*
X189268854Y-51901070D01*
X189460777Y-51901070D01*
X190189694Y-51901070D01*
X190189694Y-51703332D01*
X189937675Y-51703332D01*
X189937675Y-51032573D01*
X190061746Y-51101393D01*
X190180001Y-51148889D01*
X190257546Y-50951151D01*
X190156738Y-50906563D01*
X190048176Y-50846466D01*
X189945429Y-50776676D01*
X189862069Y-50701070D01*
X189699226Y-50701070D01*
X189699226Y-51703332D01*
X189460777Y-51703332D01*
X189460777Y-51901070D01*
X189268854Y-51901070D01*
X189273701Y-51852605D01*
X189272732Y-51811894D01*
X189263765Y-51718841D01*
X189236867Y-51633542D01*
X189196156Y-51555271D01*
X189145753Y-51483300D01*
X189088564Y-51416902D01*
X189027497Y-51355351D01*
X188966431Y-51297435D01*
X188909242Y-51241943D01*
X188818127Y-51137258D01*
X188782263Y-51034511D01*
X188826851Y-50921103D01*
X188939291Y-50881361D01*
X189057546Y-50908502D01*
X189179678Y-50999616D01*
X189297933Y-50832896D01*
X189214331Y-50762137D01*
X189118612Y-50712702D01*
X189017077Y-50683623D01*
X188916027Y-50673930D01*
X188774509Y-50695254D01*
X188654315Y-50759229D01*
X188570954Y-50866821D01*
X188539937Y-51017064D01*
X188563200Y-51136288D01*
X188625236Y-51247758D01*
X188712473Y-51352443D01*
X188811342Y-51449374D01*
X188869501Y-51504624D01*
X188931536Y-51570537D01*
X188980971Y-51639358D01*
X189001326Y-51703332D01*
X188485656Y-51703332D01*
X188485656Y-51901070D01*
X188051407Y-51901070D01*
X188099387Y-51758582D01*
X188150276Y-51598647D01*
X188184525Y-51486315D01*
X188217481Y-51374199D01*
X188249145Y-51262298D01*
X188279086Y-51152551D01*
X188306873Y-51046897D01*
X188332505Y-50945335D01*
X188364492Y-50809632D01*
X188386786Y-50701070D01*
X188134767Y-50701070D01*
X188120228Y-50801636D01*
X188099872Y-50917225D01*
X188075397Y-51042266D01*
X188048499Y-51171183D01*
X188019420Y-51301070D01*
X187988402Y-51429019D01*
X187956657Y-51549455D01*
X187925397Y-51656805D01*
X187894379Y-51550909D01*
X187863362Y-51430957D01*
X187833313Y-51303009D01*
X187805203Y-51173122D01*
X187779032Y-51043962D01*
X187754799Y-50918195D01*
X187733475Y-50801878D01*
X187716027Y-50701070D01*
X187465946Y-50701070D01*
X187142845Y-50701070D01*
X187142845Y-50350828D01*
G37*
G36*
X125642845Y-50100828D02*
G01*
X128757707Y-50100828D01*
X129382155Y-51037500D01*
X128757707Y-51974172D01*
X125642845Y-51974172D01*
X125642845Y-50451070D01*
X125965946Y-50451070D01*
X125991875Y-50574172D01*
X126023135Y-50710844D01*
X126059484Y-50857936D01*
X126100680Y-51012298D01*
X126130728Y-51118275D01*
X126162715Y-51225545D01*
X126196641Y-51334107D01*
X126231967Y-51442131D01*
X126268154Y-51547785D01*
X126305203Y-51651070D01*
X126551407Y-51651070D01*
X126985656Y-51651070D01*
X127768854Y-51651070D01*
X127960777Y-51651070D01*
X128689694Y-51651070D01*
X128689694Y-51453332D01*
X128437675Y-51453332D01*
X128437675Y-50782573D01*
X128561746Y-50851393D01*
X128680001Y-50898889D01*
X128757546Y-50701151D01*
X128656738Y-50656563D01*
X128548176Y-50596466D01*
X128445429Y-50526676D01*
X128362069Y-50451070D01*
X128199226Y-50451070D01*
X128199226Y-51453332D01*
X127960777Y-51453332D01*
X127960777Y-51651070D01*
X127768854Y-51651070D01*
X127773701Y-51602605D01*
X127772732Y-51561894D01*
X127763765Y-51468841D01*
X127736867Y-51383542D01*
X127696156Y-51305271D01*
X127645753Y-51233300D01*
X127588564Y-51166902D01*
X127527497Y-51105351D01*
X127466431Y-51047435D01*
X127409242Y-50991943D01*
X127318127Y-50887258D01*
X127282263Y-50784511D01*
X127326851Y-50671103D01*
X127439291Y-50631361D01*
X127557546Y-50658502D01*
X127679678Y-50749616D01*
X127797933Y-50582896D01*
X127714331Y-50512137D01*
X127618612Y-50462702D01*
X127517077Y-50433623D01*
X127416027Y-50423930D01*
X127274509Y-50445254D01*
X127154315Y-50509229D01*
X127070954Y-50616821D01*
X127039937Y-50767064D01*
X127063200Y-50886288D01*
X127125236Y-50997758D01*
X127212473Y-51102443D01*
X127311342Y-51199374D01*
X127369501Y-51254624D01*
X127431536Y-51320537D01*
X127480971Y-51389358D01*
X127501326Y-51453332D01*
X126985656Y-51453332D01*
X126985656Y-51651070D01*
X126551407Y-51651070D01*
X126599387Y-51508582D01*
X126650276Y-51348647D01*
X126684525Y-51236315D01*
X126717481Y-51124199D01*
X126749145Y-51012298D01*
X126779086Y-50902551D01*
X126806873Y-50796897D01*
X126832505Y-50695335D01*
X126864492Y-50559632D01*
X126886786Y-50451070D01*
X126634767Y-50451070D01*
X126620228Y-50551636D01*
X126599872Y-50667225D01*
X126575397Y-50792266D01*
X126548499Y-50921183D01*
X126519420Y-51051070D01*
X126488402Y-51179019D01*
X126456657Y-51299455D01*
X126425397Y-51406805D01*
X126394379Y-51300909D01*
X126363362Y-51180957D01*
X126333313Y-51053009D01*
X126305203Y-50923122D01*
X126279032Y-50793962D01*
X126254799Y-50668195D01*
X126233475Y-50551878D01*
X126216027Y-50451070D01*
X125965946Y-50451070D01*
X125642845Y-50451070D01*
X125642845Y-50100828D01*
G37*
G36*
X200975926Y-117338419D02*
G01*
X201251994Y-117349841D01*
X201397028Y-117385801D01*
X201453154Y-117460339D01*
X201462500Y-117587500D01*
X201467237Y-117687830D01*
X201517716Y-117788029D01*
X201665756Y-117829394D01*
X201962500Y-117837500D01*
X202163162Y-117839868D01*
X202363559Y-117865107D01*
X202446289Y-117939127D01*
X202462500Y-118087500D01*
X202463556Y-118133571D01*
X202522199Y-118296197D01*
X202712500Y-118337500D01*
X202758572Y-118338555D01*
X202921198Y-118397198D01*
X202962500Y-118587500D01*
X202959743Y-118675308D01*
X202925475Y-118767331D01*
X202817597Y-118815675D01*
X202593982Y-118834384D01*
X202212500Y-118837500D01*
X201949075Y-118836580D01*
X201673007Y-118825158D01*
X201527973Y-118789198D01*
X201471847Y-118714660D01*
X201462500Y-118587500D01*
X201461445Y-118541428D01*
X201402802Y-118378802D01*
X201212500Y-118337500D01*
X201166429Y-118336444D01*
X201003803Y-118277801D01*
X200962500Y-118087500D01*
X200961445Y-118041428D01*
X200902802Y-117878802D01*
X200712500Y-117837500D01*
X200666429Y-117838555D01*
X200503803Y-117897198D01*
X200462500Y-118087500D01*
X200461445Y-118133571D01*
X200402802Y-118296197D01*
X200212500Y-118337500D01*
X200112170Y-118332763D01*
X200011971Y-118282284D01*
X199970606Y-118134244D01*
X199962500Y-117837500D01*
X199962500Y-117337500D01*
X200712500Y-117337500D01*
X200975926Y-117338419D01*
G37*
G36*
X202962500Y-122837500D02*
G01*
X202962500Y-122337500D01*
X203462500Y-122337500D01*
X204962500Y-122337500D01*
X204962500Y-120837500D01*
X203462500Y-120837500D01*
X203462500Y-122337500D01*
X202962500Y-122337500D01*
X202962500Y-120337500D01*
X205462500Y-120337500D01*
X205462500Y-122837500D01*
X202962500Y-122837500D01*
G37*
G36*
X188962500Y-123837500D02*
G01*
X188962500Y-123087500D01*
X189462500Y-123087500D01*
X189463556Y-123133571D01*
X189522199Y-123296197D01*
X189712500Y-123337500D01*
X189758572Y-123336444D01*
X189921198Y-123277801D01*
X189962500Y-123087500D01*
X189961445Y-123041428D01*
X189902802Y-122878802D01*
X189712500Y-122837500D01*
X189666429Y-122838555D01*
X189503803Y-122897198D01*
X189462500Y-123087500D01*
X188962500Y-123087500D01*
X188962500Y-122337500D01*
X189462500Y-122337500D01*
X190462500Y-122337500D01*
X190462500Y-120337500D01*
X190212500Y-120337500D01*
X190112170Y-120332763D01*
X190011971Y-120282284D01*
X189970606Y-120134244D01*
X189962500Y-119837500D01*
X189964869Y-119636838D01*
X189990108Y-119436441D01*
X190064128Y-119353711D01*
X190212500Y-119337500D01*
X190258572Y-119338555D01*
X190421198Y-119397198D01*
X190462500Y-119587500D01*
X190467237Y-119687830D01*
X190517716Y-119788029D01*
X190665756Y-119829394D01*
X190962500Y-119837500D01*
X191163162Y-119839868D01*
X191363559Y-119865107D01*
X191446289Y-119939127D01*
X191462500Y-120087500D01*
X191461445Y-120133571D01*
X191402802Y-120296197D01*
X191212500Y-120337500D01*
X191166429Y-120338555D01*
X191003803Y-120397198D01*
X190962500Y-120587500D01*
X190963556Y-120633571D01*
X191022199Y-120796197D01*
X191212500Y-120837500D01*
X191258572Y-120838555D01*
X191421198Y-120897198D01*
X191462500Y-121087500D01*
X191465258Y-121175308D01*
X191499526Y-121267331D01*
X191607404Y-121315675D01*
X191831019Y-121334384D01*
X192212500Y-121337500D01*
X192475926Y-121338419D01*
X192751994Y-121349841D01*
X192897028Y-121385801D01*
X192953154Y-121460339D01*
X192962500Y-121587500D01*
X192961445Y-121633571D01*
X192902802Y-121796197D01*
X192712500Y-121837500D01*
X192666429Y-121838555D01*
X192503803Y-121897198D01*
X192462500Y-122087500D01*
X192461445Y-122133571D01*
X192402802Y-122296197D01*
X192212500Y-122337500D01*
X192166429Y-122336444D01*
X192003803Y-122277801D01*
X191962500Y-122087500D01*
X191957764Y-121987169D01*
X191907285Y-121886970D01*
X191759245Y-121845605D01*
X191462500Y-121837500D01*
X190962500Y-121837500D01*
X190962500Y-122587500D01*
X190963420Y-122850925D01*
X190973208Y-123087500D01*
X190974842Y-123126993D01*
X191010802Y-123272027D01*
X191085340Y-123328153D01*
X191212500Y-123337500D01*
X191312831Y-123332763D01*
X191413030Y-123282284D01*
X191454395Y-123134244D01*
X191462500Y-122837500D01*
X191464869Y-122636838D01*
X191490108Y-122436441D01*
X191564128Y-122353711D01*
X191712500Y-122337500D01*
X191758572Y-122338555D01*
X191921198Y-122397198D01*
X191962500Y-122587500D01*
X191963556Y-122633571D01*
X192022199Y-122796197D01*
X192212500Y-122837500D01*
X192258572Y-122838555D01*
X192421198Y-122897198D01*
X192462500Y-123087500D01*
X192463556Y-123133571D01*
X192522199Y-123296197D01*
X192712500Y-123337500D01*
X192812831Y-123332763D01*
X192913030Y-123282284D01*
X192954395Y-123134244D01*
X192962500Y-122837500D01*
X192964869Y-122636838D01*
X192990108Y-122436441D01*
X193064128Y-122353711D01*
X193212500Y-122337500D01*
X193312831Y-122342236D01*
X193413030Y-122392715D01*
X193454395Y-122540755D01*
X193462500Y-122837500D01*
X193464869Y-123038161D01*
X193490108Y-123238558D01*
X193564128Y-123321288D01*
X193712500Y-123337500D01*
X193812831Y-123332763D01*
X193913030Y-123282284D01*
X193954395Y-123134244D01*
X193962500Y-122837500D01*
X193960132Y-122636838D01*
X193934893Y-122436441D01*
X193860873Y-122353711D01*
X193712500Y-122337500D01*
X193666429Y-122336444D01*
X193503803Y-122277801D01*
X193462500Y-122087500D01*
X193463556Y-122041428D01*
X193522199Y-121878802D01*
X193712500Y-121837500D01*
X193758572Y-121836444D01*
X193921198Y-121777801D01*
X193962500Y-121587500D01*
X193963556Y-121541428D01*
X194022199Y-121378802D01*
X194212500Y-121337500D01*
X194258572Y-121336444D01*
X194421198Y-121277801D01*
X194462500Y-121087500D01*
X194463556Y-121041428D01*
X194522199Y-120878802D01*
X194712500Y-120837500D01*
X194758572Y-120836444D01*
X194921198Y-120777801D01*
X194962500Y-120587500D01*
X194957764Y-120487169D01*
X194907285Y-120386970D01*
X194759245Y-120345605D01*
X194462500Y-120337500D01*
X194261839Y-120335131D01*
X194061442Y-120309892D01*
X193978712Y-120235872D01*
X193962500Y-120087500D01*
X193963556Y-120041428D01*
X194022199Y-119878802D01*
X194212500Y-119837500D01*
X194312831Y-119832763D01*
X194413030Y-119782284D01*
X194454395Y-119634244D01*
X194462500Y-119337500D01*
X194462500Y-118837500D01*
X193962500Y-118837500D01*
X193761839Y-118835131D01*
X193561442Y-118809892D01*
X193478712Y-118735872D01*
X193462500Y-118587500D01*
X193465258Y-118499691D01*
X193499526Y-118407668D01*
X193607404Y-118359324D01*
X193831019Y-118340615D01*
X194212500Y-118337500D01*
X194475926Y-118336580D01*
X194751994Y-118325158D01*
X194897028Y-118289198D01*
X194953154Y-118214660D01*
X194962500Y-118087500D01*
X194961445Y-118041428D01*
X194902802Y-117878802D01*
X194712500Y-117837500D01*
X194612170Y-117832763D01*
X194511971Y-117782284D01*
X194470606Y-117634244D01*
X194462500Y-117337500D01*
X194460132Y-117136838D01*
X194434893Y-116936441D01*
X194360873Y-116853711D01*
X194212500Y-116837500D01*
X194166429Y-116836444D01*
X194003803Y-116777801D01*
X193962500Y-116587500D01*
X193963556Y-116541428D01*
X194022199Y-116378802D01*
X194212500Y-116337500D01*
X194258572Y-116336444D01*
X194421198Y-116277801D01*
X194462500Y-116087500D01*
X194463556Y-116041428D01*
X194522199Y-115878802D01*
X194712500Y-115837500D01*
X194758572Y-115838555D01*
X194921198Y-115897198D01*
X194962500Y-116087500D01*
X194963556Y-116133571D01*
X195022199Y-116296197D01*
X195212500Y-116337500D01*
X195258572Y-116338555D01*
X195421198Y-116397198D01*
X195462500Y-116587500D01*
X195461445Y-116633571D01*
X195402802Y-116796197D01*
X195212500Y-116837500D01*
X195166429Y-116838555D01*
X195003803Y-116897198D01*
X194962500Y-117087500D01*
X194963556Y-117133571D01*
X195022199Y-117296197D01*
X195212500Y-117337500D01*
X195462500Y-117337500D01*
X195462500Y-119337500D01*
X195212500Y-119337500D01*
X195166429Y-119338555D01*
X195003803Y-119397198D01*
X194962500Y-119587500D01*
X194963556Y-119633571D01*
X195022199Y-119796197D01*
X195212500Y-119837500D01*
X195462500Y-119837500D01*
X195462500Y-121837500D01*
X194462500Y-121837500D01*
X194462500Y-122337500D01*
X194464869Y-122538161D01*
X194490108Y-122738558D01*
X194564128Y-122821288D01*
X194712500Y-122837500D01*
X194758572Y-122836444D01*
X194921198Y-122777801D01*
X194962500Y-122587500D01*
X194967237Y-122487169D01*
X195017716Y-122386970D01*
X195165756Y-122345605D01*
X195462500Y-122337500D01*
X195962500Y-122337500D01*
X195962500Y-123337500D01*
X196462500Y-123337500D01*
X196663162Y-123335131D01*
X196863559Y-123309892D01*
X196946289Y-123235872D01*
X196962500Y-123087500D01*
X196961445Y-123041428D01*
X196902802Y-122878802D01*
X196712500Y-122837500D01*
X196612170Y-122832763D01*
X196511971Y-122782284D01*
X196470606Y-122634244D01*
X196462500Y-122337500D01*
X196464869Y-122136838D01*
X196490108Y-121936441D01*
X196564128Y-121853711D01*
X196712500Y-121837500D01*
X196758572Y-121838555D01*
X196921198Y-121897198D01*
X196962500Y-122087500D01*
X196963556Y-122133571D01*
X197022199Y-122296197D01*
X197212500Y-122337500D01*
X197312831Y-122342236D01*
X197413030Y-122392715D01*
X197454395Y-122540755D01*
X197462500Y-122837500D01*
X197464869Y-123038161D01*
X197490108Y-123238558D01*
X197564128Y-123321288D01*
X197712500Y-123337500D01*
X197758572Y-123336444D01*
X197921198Y-123277801D01*
X197962500Y-123087500D01*
X197963556Y-123041428D01*
X198022199Y-122878802D01*
X198212500Y-122837500D01*
X198258572Y-122838555D01*
X198421198Y-122897198D01*
X198462500Y-123087500D01*
X198467237Y-123187830D01*
X198517716Y-123288029D01*
X198665756Y-123329394D01*
X198962500Y-123337500D01*
X199163162Y-123335131D01*
X199363559Y-123309892D01*
X199446289Y-123235872D01*
X199462500Y-123087500D01*
X199462500Y-122837500D01*
X201462500Y-122837500D01*
X201462500Y-123087500D01*
X201463556Y-123133571D01*
X201522199Y-123296197D01*
X201712500Y-123337500D01*
X202462500Y-123337500D01*
X205962500Y-123337500D01*
X205962500Y-119837500D01*
X202462500Y-119837500D01*
X202462500Y-123337500D01*
X201712500Y-123337500D01*
X201800309Y-123334742D01*
X201892332Y-123300474D01*
X201940676Y-123192596D01*
X201959385Y-122968981D01*
X201962500Y-122587500D01*
X201962500Y-121837500D01*
X201462500Y-121837500D01*
X201261839Y-121835131D01*
X201061442Y-121809892D01*
X200978712Y-121735872D01*
X200962500Y-121587500D01*
X200963556Y-121541428D01*
X201022199Y-121378802D01*
X201212500Y-121337500D01*
X201258572Y-121336444D01*
X201421198Y-121277801D01*
X201462500Y-121087500D01*
X201463556Y-121041428D01*
X201522199Y-120878802D01*
X201712500Y-120837500D01*
X201758572Y-120836444D01*
X201921198Y-120777801D01*
X201962500Y-120587500D01*
X201957764Y-120487169D01*
X201907285Y-120386970D01*
X201759245Y-120345605D01*
X201462500Y-120337500D01*
X201261839Y-120335131D01*
X201061442Y-120309892D01*
X200978712Y-120235872D01*
X200962500Y-120087500D01*
X200967237Y-119987169D01*
X201017716Y-119886970D01*
X201165756Y-119845605D01*
X201462500Y-119837500D01*
X201663162Y-119835131D01*
X201863559Y-119809892D01*
X201946289Y-119735872D01*
X201962500Y-119587500D01*
X201967237Y-119487169D01*
X202017716Y-119386970D01*
X202165756Y-119345605D01*
X202462500Y-119337500D01*
X202663162Y-119335131D01*
X202863559Y-119309892D01*
X202946289Y-119235872D01*
X202962500Y-119087500D01*
X202967237Y-118987169D01*
X203017716Y-118886970D01*
X203165756Y-118845605D01*
X203462500Y-118837500D01*
X203962500Y-118837500D01*
X203962500Y-118337500D01*
X203964869Y-118136838D01*
X203990108Y-117936441D01*
X204064128Y-117853711D01*
X204212500Y-117837500D01*
X204312831Y-117842236D01*
X204413030Y-117892715D01*
X204454395Y-118040755D01*
X204462500Y-118337500D01*
X204464869Y-118538161D01*
X204490108Y-118738558D01*
X204564128Y-118821288D01*
X204712500Y-118837500D01*
X204758572Y-118838555D01*
X204921198Y-118897198D01*
X204962500Y-119087500D01*
X204967237Y-119187830D01*
X205017716Y-119288029D01*
X205165756Y-119329394D01*
X205462500Y-119337500D01*
X205663162Y-119335131D01*
X205863559Y-119309892D01*
X205946289Y-119235872D01*
X205962500Y-119087500D01*
X205957764Y-118987169D01*
X205907285Y-118886970D01*
X205759245Y-118845605D01*
X205462500Y-118837500D01*
X205261839Y-118835131D01*
X205061442Y-118809892D01*
X204978712Y-118735872D01*
X204962500Y-118587500D01*
X204967237Y-118487169D01*
X205017716Y-118386970D01*
X205165756Y-118345605D01*
X205462500Y-118337500D01*
X205663162Y-118335131D01*
X205863559Y-118309892D01*
X205946289Y-118235872D01*
X205962500Y-118087500D01*
X205961445Y-118041428D01*
X205902802Y-117878802D01*
X205712500Y-117837500D01*
X205624692Y-117834742D01*
X205532669Y-117800474D01*
X205484325Y-117692596D01*
X205465616Y-117468981D01*
X205462500Y-117087500D01*
X205463420Y-116824074D01*
X205474842Y-116548006D01*
X205510802Y-116402972D01*
X205585340Y-116346846D01*
X205712500Y-116337500D01*
X205812831Y-116332763D01*
X205913030Y-116282284D01*
X205954395Y-116134244D01*
X205962500Y-115837500D01*
X205962500Y-115337500D01*
X205462500Y-115337500D01*
X205261839Y-115339868D01*
X205061442Y-115365107D01*
X204978712Y-115439127D01*
X204962500Y-115587500D01*
X204963556Y-115633571D01*
X205022199Y-115796197D01*
X205212500Y-115837500D01*
X205258572Y-115838555D01*
X205421198Y-115897198D01*
X205462500Y-116087500D01*
X205461445Y-116133571D01*
X205402802Y-116296197D01*
X205212500Y-116337500D01*
X205112170Y-116342236D01*
X205011971Y-116392715D01*
X204970606Y-116540755D01*
X204962500Y-116837500D01*
X204962500Y-117337500D01*
X204462500Y-117337500D01*
X204261839Y-117339868D01*
X204061442Y-117365107D01*
X203978712Y-117439127D01*
X203962500Y-117587500D01*
X203961445Y-117633571D01*
X203902802Y-117796197D01*
X203712500Y-117837500D01*
X203666429Y-117838555D01*
X203503803Y-117897198D01*
X203462500Y-118087500D01*
X203461445Y-118133571D01*
X203402802Y-118296197D01*
X203212500Y-118337500D01*
X203166429Y-118336444D01*
X203003803Y-118277801D01*
X202962500Y-118087500D01*
X202961445Y-118041428D01*
X202902802Y-117878802D01*
X202712500Y-117837500D01*
X202666429Y-117836444D01*
X202503803Y-117777801D01*
X202462500Y-117587500D01*
X202467237Y-117487169D01*
X202517716Y-117386970D01*
X202665756Y-117345605D01*
X202962500Y-117337500D01*
X203163162Y-117335131D01*
X203363559Y-117309892D01*
X203446289Y-117235872D01*
X203462500Y-117087500D01*
X203463556Y-117041428D01*
X203522199Y-116878802D01*
X203712500Y-116837500D01*
X203758572Y-116836444D01*
X203921198Y-116777801D01*
X203962500Y-116587500D01*
X203963556Y-116541428D01*
X204022199Y-116378802D01*
X204212500Y-116337500D01*
X204258572Y-116336444D01*
X204421198Y-116277801D01*
X204462500Y-116087500D01*
X204461445Y-116041428D01*
X204402802Y-115878802D01*
X204212500Y-115837500D01*
X204166429Y-115836444D01*
X204003803Y-115777801D01*
X203962500Y-115587500D01*
X203963556Y-115541428D01*
X204022199Y-115378802D01*
X204212500Y-115337500D01*
X204258572Y-115336444D01*
X204421198Y-115277801D01*
X204462500Y-115087500D01*
X204465258Y-114999691D01*
X204499526Y-114907668D01*
X204607404Y-114859324D01*
X204831019Y-114840615D01*
X205212500Y-114837500D01*
X205962500Y-114837500D01*
X205962500Y-112837500D01*
X205462500Y-112837500D01*
X205261839Y-112839868D01*
X205061442Y-112865107D01*
X204978712Y-112939127D01*
X204962500Y-113087500D01*
X204961445Y-113133571D01*
X204902802Y-113296197D01*
X204712500Y-113337500D01*
X204666429Y-113338555D01*
X204503803Y-113397198D01*
X204462500Y-113587500D01*
X204461445Y-113633571D01*
X204402802Y-113796197D01*
X204212500Y-113837500D01*
X204166429Y-113838555D01*
X204003803Y-113897198D01*
X203962500Y-114087500D01*
X203961445Y-114133571D01*
X203902802Y-114296197D01*
X203712500Y-114337500D01*
X203666429Y-114336444D01*
X203503803Y-114277801D01*
X203462500Y-114087500D01*
X203457764Y-113987169D01*
X203407285Y-113886970D01*
X203259245Y-113845605D01*
X202962500Y-113837500D01*
X202761839Y-113835131D01*
X202561442Y-113809892D01*
X202478712Y-113735872D01*
X202462500Y-113587500D01*
X202463556Y-113541428D01*
X202522199Y-113378802D01*
X202712500Y-113337500D01*
X202758572Y-113336444D01*
X202921198Y-113277801D01*
X202962500Y-113087500D01*
X202961445Y-113041428D01*
X202902802Y-112878802D01*
X202712500Y-112837500D01*
X202666429Y-112838555D01*
X202503803Y-112897198D01*
X202462500Y-113087500D01*
X202457764Y-113187830D01*
X202407285Y-113288029D01*
X202259245Y-113329394D01*
X201962500Y-113337500D01*
X201761839Y-113335131D01*
X201561442Y-113309892D01*
X201478712Y-113235872D01*
X201462500Y-113087500D01*
X201463556Y-113041428D01*
X201522199Y-112878802D01*
X201712500Y-112837500D01*
X201812831Y-112832763D01*
X201913030Y-112782284D01*
X201954395Y-112634244D01*
X201962500Y-112337500D01*
X201960132Y-112136838D01*
X201953918Y-112087500D01*
X202462500Y-112087500D01*
X202467237Y-112187830D01*
X202517716Y-112288029D01*
X202665756Y-112329394D01*
X202962500Y-112337500D01*
X203163162Y-112335131D01*
X203363559Y-112309892D01*
X203446289Y-112235872D01*
X203462500Y-112087500D01*
X203463556Y-112041428D01*
X203522199Y-111878802D01*
X203712500Y-111837500D01*
X203758572Y-111838555D01*
X203921198Y-111897198D01*
X203962500Y-112087500D01*
X203963556Y-112133571D01*
X204022199Y-112296197D01*
X204212500Y-112337500D01*
X204312831Y-112332763D01*
X204413030Y-112282284D01*
X204454395Y-112134244D01*
X204455672Y-112087500D01*
X204962500Y-112087500D01*
X204963556Y-112133571D01*
X205022199Y-112296197D01*
X205212500Y-112337500D01*
X205258572Y-112336444D01*
X205421198Y-112277801D01*
X205462500Y-112087500D01*
X205461445Y-112041428D01*
X205402802Y-111878802D01*
X205212500Y-111837500D01*
X205166429Y-111838555D01*
X205003803Y-111897198D01*
X204962500Y-112087500D01*
X204455672Y-112087500D01*
X204462500Y-111837500D01*
X204462500Y-111337500D01*
X205212500Y-111337500D01*
X205475926Y-111336580D01*
X205751994Y-111325158D01*
X205897028Y-111289198D01*
X205953154Y-111214660D01*
X205962500Y-111087500D01*
X205959743Y-110999691D01*
X205925475Y-110907668D01*
X205817597Y-110859324D01*
X205593982Y-110840615D01*
X205212500Y-110837500D01*
X204949075Y-110838419D01*
X204673007Y-110849841D01*
X204527973Y-110885801D01*
X204471847Y-110960339D01*
X204462500Y-111087500D01*
X204457764Y-111187830D01*
X204407285Y-111288029D01*
X204259245Y-111329394D01*
X203962500Y-111337500D01*
X203761839Y-111335131D01*
X203561442Y-111309892D01*
X203478712Y-111235872D01*
X203462500Y-111087500D01*
X203457764Y-110987169D01*
X203407285Y-110886970D01*
X203259245Y-110845605D01*
X202962500Y-110837500D01*
X202761839Y-110839868D01*
X202561442Y-110865107D01*
X202478712Y-110939127D01*
X202462500Y-111087500D01*
X202467237Y-111187830D01*
X202517716Y-111288029D01*
X202665756Y-111329394D01*
X202962500Y-111337500D01*
X203163162Y-111339868D01*
X203363559Y-111365107D01*
X203446289Y-111439127D01*
X203462500Y-111587500D01*
X203457764Y-111687830D01*
X203407285Y-111788029D01*
X203259245Y-111829394D01*
X202962500Y-111837500D01*
X202761839Y-111839868D01*
X202561442Y-111865107D01*
X202478712Y-111939127D01*
X202462500Y-112087500D01*
X201953918Y-112087500D01*
X201934893Y-111936441D01*
X201860873Y-111853711D01*
X201712500Y-111837500D01*
X201666429Y-111836444D01*
X201503803Y-111777801D01*
X201462500Y-111587500D01*
X201463556Y-111541428D01*
X201522199Y-111378802D01*
X201712500Y-111337500D01*
X201962500Y-111337500D01*
X201962500Y-110337500D01*
X202462500Y-110337500D01*
X205962500Y-110337500D01*
X205962500Y-106837500D01*
X202462500Y-106837500D01*
X202462500Y-110337500D01*
X201962500Y-110337500D01*
X201962500Y-108837500D01*
X200962500Y-108837500D01*
X200962500Y-107837500D01*
X201962500Y-107837500D01*
X201962500Y-107337500D01*
X201960132Y-107136838D01*
X201934893Y-106936441D01*
X201860873Y-106853711D01*
X201712500Y-106837500D01*
X201666429Y-106838555D01*
X201503803Y-106897198D01*
X201462500Y-107087500D01*
X201457764Y-107187830D01*
X201407285Y-107288029D01*
X201259245Y-107329394D01*
X200962500Y-107337500D01*
X200761839Y-107335131D01*
X200561442Y-107309892D01*
X200478712Y-107235872D01*
X200462500Y-107087500D01*
X200457764Y-106987169D01*
X200407285Y-106886970D01*
X200259245Y-106845605D01*
X199962500Y-106837500D01*
X199761839Y-106839868D01*
X199561442Y-106865107D01*
X199478712Y-106939127D01*
X199462500Y-107087500D01*
X199457764Y-107187830D01*
X199407285Y-107288029D01*
X199259245Y-107329394D01*
X198962500Y-107337500D01*
X198761839Y-107335131D01*
X198561442Y-107309892D01*
X198478712Y-107235872D01*
X198462500Y-107087500D01*
X198459743Y-106999691D01*
X198425475Y-106907668D01*
X198317597Y-106859324D01*
X198093982Y-106840615D01*
X197712500Y-106837500D01*
X196962500Y-106837500D01*
X196962500Y-107587500D01*
X196961581Y-107850925D01*
X196950159Y-108126993D01*
X196914199Y-108272027D01*
X196839661Y-108328153D01*
X196712500Y-108337500D01*
X196666429Y-108338555D01*
X196503803Y-108397198D01*
X196462500Y-108587500D01*
X196463556Y-108633571D01*
X196522199Y-108796197D01*
X196712500Y-108837500D01*
X196758572Y-108838555D01*
X196921198Y-108897198D01*
X196962500Y-109087500D01*
X196963556Y-109133571D01*
X197022199Y-109296197D01*
X197212500Y-109337500D01*
X197312831Y-109332763D01*
X197413030Y-109282284D01*
X197454395Y-109134244D01*
X197462500Y-108837500D01*
X197462500Y-108337500D01*
X197962500Y-108337500D01*
X198163162Y-108339868D01*
X198363559Y-108365107D01*
X198446289Y-108439127D01*
X198462500Y-108587500D01*
X198461445Y-108633571D01*
X198402802Y-108796197D01*
X198212500Y-108837500D01*
X198112170Y-108842236D01*
X198011971Y-108892715D01*
X197970606Y-109040755D01*
X197962500Y-109337500D01*
X197960132Y-109538161D01*
X197934893Y-109738558D01*
X197860873Y-109821288D01*
X197712500Y-109837500D01*
X197624692Y-109840257D01*
X197532669Y-109874525D01*
X197484325Y-109982403D01*
X197475532Y-110087500D01*
X197465616Y-110206018D01*
X197462500Y-110587500D01*
X197463420Y-110850925D01*
X197474842Y-111126993D01*
X197510802Y-111272027D01*
X197585340Y-111328153D01*
X197712500Y-111337500D01*
X197758572Y-111336444D01*
X197921198Y-111277801D01*
X197962500Y-111087500D01*
X197963556Y-111041428D01*
X198022199Y-110878802D01*
X198212500Y-110837500D01*
X198312831Y-110842236D01*
X198413030Y-110892715D01*
X198454395Y-111040755D01*
X198462500Y-111337500D01*
X198462500Y-111837500D01*
X196462500Y-111837500D01*
X196462500Y-111337500D01*
X196460132Y-111136838D01*
X196434893Y-110936441D01*
X196360873Y-110853711D01*
X196212500Y-110837500D01*
X196124692Y-110834742D01*
X196032669Y-110800474D01*
X195984325Y-110692596D01*
X195965616Y-110468981D01*
X195962500Y-110087500D01*
X196462500Y-110087500D01*
X196463556Y-110133571D01*
X196522199Y-110296197D01*
X196712500Y-110337500D01*
X196758572Y-110336444D01*
X196921198Y-110277801D01*
X196962500Y-110087500D01*
X196961445Y-110041428D01*
X196902802Y-109878802D01*
X196712500Y-109837500D01*
X196666429Y-109838555D01*
X196503803Y-109897198D01*
X196462500Y-110087500D01*
X195962500Y-110087500D01*
X195962500Y-109337500D01*
X195462500Y-109337500D01*
X195261839Y-109335131D01*
X195061442Y-109309892D01*
X194978712Y-109235872D01*
X194962500Y-109087500D01*
X194967237Y-108987169D01*
X195017716Y-108886970D01*
X195165756Y-108845605D01*
X195462500Y-108837500D01*
X195962500Y-108837500D01*
X195962500Y-107837500D01*
X195462500Y-107837500D01*
X195261839Y-107839868D01*
X195061442Y-107865107D01*
X194978712Y-107939127D01*
X194962500Y-108087500D01*
X194961445Y-108133571D01*
X194902802Y-108296197D01*
X194712500Y-108337500D01*
X194666429Y-108336444D01*
X194503803Y-108277801D01*
X194462500Y-108087500D01*
X194461445Y-108041428D01*
X194402802Y-107878802D01*
X194212500Y-107837500D01*
X194166429Y-107836444D01*
X194003803Y-107777801D01*
X193962500Y-107587500D01*
X193967237Y-107487169D01*
X194017716Y-107386970D01*
X194165756Y-107345605D01*
X194462500Y-107337500D01*
X194663162Y-107335131D01*
X194863559Y-107309892D01*
X194946289Y-107235872D01*
X194962500Y-107087500D01*
X194957764Y-106987169D01*
X194907285Y-106886970D01*
X194759245Y-106845605D01*
X194462500Y-106837500D01*
X194261839Y-106839868D01*
X194061442Y-106865107D01*
X193978712Y-106939127D01*
X193962500Y-107087500D01*
X193961445Y-107133571D01*
X193902802Y-107296197D01*
X193712500Y-107337500D01*
X193666429Y-107338555D01*
X193503803Y-107397198D01*
X193462500Y-107587500D01*
X193463556Y-107633571D01*
X193522199Y-107796197D01*
X193712500Y-107837500D01*
X193812831Y-107842236D01*
X193913030Y-107892715D01*
X193954395Y-108040755D01*
X193962500Y-108337500D01*
X193960132Y-108538161D01*
X193934893Y-108738558D01*
X193860873Y-108821288D01*
X193712500Y-108837500D01*
X193666429Y-108838555D01*
X193503803Y-108897198D01*
X193462500Y-109087500D01*
X193463556Y-109133571D01*
X193522199Y-109296197D01*
X193712500Y-109337500D01*
X193758572Y-109336444D01*
X193921198Y-109277801D01*
X193962500Y-109087500D01*
X193963556Y-109041428D01*
X194022199Y-108878802D01*
X194212500Y-108837500D01*
X194300309Y-108840257D01*
X194392332Y-108874525D01*
X194440676Y-108982403D01*
X194459385Y-109206018D01*
X194462500Y-109587500D01*
X194461581Y-109850925D01*
X194450159Y-110126993D01*
X194414199Y-110272027D01*
X194339661Y-110328153D01*
X194212500Y-110337500D01*
X194166429Y-110336444D01*
X194003803Y-110277801D01*
X193962500Y-110087500D01*
X193961445Y-110041428D01*
X193902802Y-109878802D01*
X193712500Y-109837500D01*
X193666429Y-109838555D01*
X193503803Y-109897198D01*
X193462500Y-110087500D01*
X193463556Y-110133571D01*
X193522199Y-110296197D01*
X193712500Y-110337500D01*
X193962500Y-110337500D01*
X193962500Y-113837500D01*
X193712500Y-113837500D01*
X193666429Y-113838555D01*
X193503803Y-113897198D01*
X193462500Y-114087500D01*
X193457764Y-114187830D01*
X193407285Y-114288029D01*
X193259245Y-114329394D01*
X192962500Y-114337500D01*
X192761839Y-114335131D01*
X192561442Y-114309892D01*
X192478712Y-114235872D01*
X192462500Y-114087500D01*
X192463556Y-114041428D01*
X192522199Y-113878802D01*
X192712500Y-113837500D01*
X192800309Y-113834742D01*
X192892332Y-113800474D01*
X192940676Y-113692596D01*
X192959385Y-113468981D01*
X192962500Y-113087500D01*
X192963420Y-112824074D01*
X192974842Y-112548006D01*
X193010802Y-112402972D01*
X193085340Y-112346846D01*
X193212500Y-112337500D01*
X193300309Y-112334742D01*
X193392332Y-112300474D01*
X193440676Y-112192596D01*
X193459385Y-111968981D01*
X193462500Y-111587500D01*
X193462500Y-110837500D01*
X191462500Y-110837500D01*
X191462500Y-111087500D01*
X191463556Y-111133571D01*
X191522199Y-111296197D01*
X191712500Y-111337500D01*
X191758572Y-111338555D01*
X191921198Y-111397198D01*
X191962500Y-111587500D01*
X191957764Y-111687830D01*
X191907285Y-111788029D01*
X191759245Y-111829394D01*
X191462500Y-111837500D01*
X191261839Y-111835131D01*
X191061442Y-111809892D01*
X190978712Y-111735872D01*
X190962500Y-111587500D01*
X190961445Y-111541428D01*
X190902802Y-111378802D01*
X190712500Y-111337500D01*
X190666429Y-111336444D01*
X190503803Y-111277801D01*
X190462500Y-111087500D01*
X190457764Y-110987169D01*
X190407285Y-110886970D01*
X190259245Y-110845605D01*
X189962500Y-110837500D01*
X189462500Y-110837500D01*
X189462500Y-112337500D01*
X189962500Y-112337500D01*
X190163162Y-112335131D01*
X190363559Y-112309892D01*
X190446289Y-112235872D01*
X190462500Y-112087500D01*
X190463556Y-112041428D01*
X190522199Y-111878802D01*
X190712500Y-111837500D01*
X190758572Y-111838555D01*
X190921198Y-111897198D01*
X190962500Y-112087500D01*
X190967237Y-112187830D01*
X191017716Y-112288029D01*
X191165756Y-112329394D01*
X191462500Y-112337500D01*
X191663162Y-112339868D01*
X191863559Y-112365107D01*
X191946289Y-112439127D01*
X191962500Y-112587500D01*
X191963556Y-112633571D01*
X192022199Y-112796197D01*
X192212500Y-112837500D01*
X192258572Y-112838555D01*
X192421198Y-112897198D01*
X192462500Y-113087500D01*
X192461445Y-113133571D01*
X192402802Y-113296197D01*
X192212500Y-113337500D01*
X192112170Y-113342236D01*
X192011971Y-113392715D01*
X191970606Y-113540755D01*
X191962500Y-113837500D01*
X191960132Y-114038161D01*
X191934893Y-114238558D01*
X191860873Y-114321288D01*
X191712500Y-114337500D01*
X191666429Y-114338555D01*
X191503803Y-114397198D01*
X191462500Y-114587500D01*
X191461445Y-114633571D01*
X191402802Y-114796197D01*
X191212500Y-114837500D01*
X191166429Y-114838555D01*
X191003803Y-114897198D01*
X190962500Y-115087500D01*
X190957764Y-115187830D01*
X190907285Y-115288029D01*
X190759245Y-115329394D01*
X190462500Y-115337500D01*
X190261839Y-115335131D01*
X190061442Y-115309892D01*
X189978712Y-115235872D01*
X189962500Y-115087500D01*
X189961445Y-115041428D01*
X189902802Y-114878802D01*
X189712500Y-114837500D01*
X189624692Y-114840257D01*
X189532669Y-114874525D01*
X189484325Y-114982403D01*
X189465616Y-115206018D01*
X189462500Y-115587500D01*
X189463420Y-115850925D01*
X189474842Y-116126993D01*
X189510802Y-116272027D01*
X189585340Y-116328153D01*
X189712500Y-116337500D01*
X189758572Y-116336444D01*
X189921198Y-116277801D01*
X189962500Y-116087500D01*
X189965258Y-115999691D01*
X189999526Y-115907668D01*
X190107404Y-115859324D01*
X190331019Y-115840615D01*
X190712500Y-115837500D01*
X191462500Y-115837500D01*
X191462500Y-115337500D01*
X191464869Y-115136838D01*
X191490108Y-114936441D01*
X191564128Y-114853711D01*
X191712500Y-114837500D01*
X191812831Y-114842236D01*
X191913030Y-114892715D01*
X191954395Y-115040755D01*
X191962500Y-115337500D01*
X191962500Y-115837500D01*
X192962500Y-115837500D01*
X192962500Y-114837500D01*
X193462500Y-114837500D01*
X193663162Y-114839868D01*
X193863559Y-114865107D01*
X193946289Y-114939127D01*
X193962500Y-115087500D01*
X193961445Y-115133571D01*
X193902802Y-115296197D01*
X193712500Y-115337500D01*
X193666429Y-115338555D01*
X193503803Y-115397198D01*
X193462500Y-115587500D01*
X193463556Y-115633571D01*
X193522199Y-115796197D01*
X193712500Y-115837500D01*
X193758572Y-115838555D01*
X193921198Y-115897198D01*
X193962500Y-116087500D01*
X193961445Y-116133571D01*
X193902802Y-116296197D01*
X193712500Y-116337500D01*
X193666429Y-116338555D01*
X193503803Y-116397198D01*
X193462500Y-116587500D01*
X193457764Y-116687830D01*
X193407285Y-116788029D01*
X193259245Y-116829394D01*
X192962500Y-116837500D01*
X192761839Y-116835131D01*
X192561442Y-116809892D01*
X192478712Y-116735872D01*
X192462500Y-116587500D01*
X192459743Y-116499691D01*
X192425475Y-116407668D01*
X192317597Y-116359324D01*
X192093982Y-116340615D01*
X191712500Y-116337500D01*
X191449075Y-116338419D01*
X191173007Y-116349841D01*
X191027973Y-116385801D01*
X190971847Y-116460339D01*
X190962500Y-116587500D01*
X190961445Y-116633571D01*
X190902802Y-116796197D01*
X190712500Y-116837500D01*
X190666429Y-116838555D01*
X190503803Y-116897198D01*
X190462500Y-117087500D01*
X190461445Y-117133571D01*
X190402802Y-117296197D01*
X190212500Y-117337500D01*
X190166429Y-117336444D01*
X190003803Y-117277801D01*
X189962500Y-117087500D01*
X189961445Y-117041428D01*
X189902802Y-116878802D01*
X189712500Y-116837500D01*
X189624692Y-116840257D01*
X189532669Y-116874525D01*
X189484325Y-116982403D01*
X189465616Y-117206018D01*
X189462500Y-117587500D01*
X189463420Y-117850925D01*
X189474842Y-118126993D01*
X189510802Y-118272027D01*
X189585340Y-118328153D01*
X189712500Y-118337500D01*
X189758572Y-118336444D01*
X189921198Y-118277801D01*
X189962500Y-118087500D01*
X189963556Y-118041428D01*
X190022199Y-117878802D01*
X190212500Y-117837500D01*
X190258572Y-117836444D01*
X190421198Y-117777801D01*
X190462500Y-117587500D01*
X190463556Y-117541428D01*
X190522199Y-117378802D01*
X190712500Y-117337500D01*
X190758572Y-117338555D01*
X190921198Y-117397198D01*
X190962500Y-117587500D01*
X190963556Y-117633571D01*
X191022199Y-117796197D01*
X191212500Y-117837500D01*
X191258572Y-117836444D01*
X191421198Y-117777801D01*
X191462500Y-117587500D01*
X191461445Y-117541428D01*
X191402802Y-117378802D01*
X191212500Y-117337500D01*
X191166429Y-117336444D01*
X191003803Y-117277801D01*
X190962500Y-117087500D01*
X190967237Y-116987169D01*
X191017716Y-116886970D01*
X191165756Y-116845605D01*
X191462500Y-116837500D01*
X191962500Y-116837500D01*
X191962500Y-117837500D01*
X192462500Y-117837500D01*
X192663162Y-117835131D01*
X192863559Y-117809892D01*
X192946289Y-117735872D01*
X192962500Y-117587500D01*
X192963556Y-117541428D01*
X193022199Y-117378802D01*
X193212500Y-117337500D01*
X193312831Y-117342236D01*
X193413030Y-117392715D01*
X193454395Y-117540755D01*
X193462500Y-117837500D01*
X193460132Y-118038161D01*
X193434893Y-118238558D01*
X193360873Y-118321288D01*
X193212500Y-118337500D01*
X193166429Y-118338555D01*
X193003803Y-118397198D01*
X192962500Y-118587500D01*
X192959743Y-118675308D01*
X192925475Y-118767331D01*
X192817597Y-118815675D01*
X192593982Y-118834384D01*
X192212500Y-118837500D01*
X191949075Y-118836580D01*
X191673007Y-118825158D01*
X191527973Y-118789198D01*
X191471847Y-118714660D01*
X191462500Y-118587500D01*
X191461445Y-118541428D01*
X191402802Y-118378802D01*
X191212500Y-118337500D01*
X191112170Y-118342236D01*
X191011971Y-118392715D01*
X190970606Y-118540755D01*
X190962500Y-118837500D01*
X190960132Y-119038161D01*
X190934893Y-119238558D01*
X190860873Y-119321288D01*
X190712500Y-119337500D01*
X190666429Y-119336444D01*
X190503803Y-119277801D01*
X190462500Y-119087500D01*
X190461445Y-119041428D01*
X190402802Y-118878802D01*
X190212500Y-118837500D01*
X190166429Y-118838555D01*
X190003803Y-118897198D01*
X189962500Y-119087500D01*
X189961445Y-119133571D01*
X189902802Y-119296197D01*
X189712500Y-119337500D01*
X189612170Y-119342236D01*
X189511971Y-119392715D01*
X189470606Y-119540755D01*
X189462500Y-119837500D01*
X189464869Y-120038161D01*
X189490108Y-120238558D01*
X189564128Y-120321288D01*
X189712500Y-120337500D01*
X189812831Y-120342236D01*
X189913030Y-120392715D01*
X189954395Y-120540755D01*
X189962500Y-120837500D01*
X189960132Y-121038161D01*
X189934893Y-121238558D01*
X189860873Y-121321288D01*
X189712500Y-121337500D01*
X189612170Y-121342236D01*
X189511971Y-121392715D01*
X189470606Y-121540755D01*
X189462500Y-121837500D01*
X189462500Y-122337500D01*
X188962500Y-122337500D01*
X188962500Y-113587500D01*
X189462500Y-113587500D01*
X189463420Y-113850925D01*
X189474842Y-114126993D01*
X189510802Y-114272027D01*
X189585340Y-114328153D01*
X189712500Y-114337500D01*
X189758572Y-114336444D01*
X189921198Y-114277801D01*
X189962500Y-114087500D01*
X189965258Y-113999691D01*
X189999526Y-113907668D01*
X190107404Y-113859324D01*
X190331019Y-113840615D01*
X190712500Y-113837500D01*
X191462500Y-113837500D01*
X191462500Y-113337500D01*
X191460132Y-113136838D01*
X191434893Y-112936441D01*
X191360873Y-112853711D01*
X191212500Y-112837500D01*
X191166429Y-112838555D01*
X191003803Y-112897198D01*
X190962500Y-113087500D01*
X190961445Y-113133571D01*
X190902802Y-113296197D01*
X190712500Y-113337500D01*
X190666429Y-113336444D01*
X190503803Y-113277801D01*
X190462500Y-113087500D01*
X190457764Y-112987169D01*
X190407285Y-112886970D01*
X190259245Y-112845605D01*
X189962500Y-112837500D01*
X189462500Y-112837500D01*
X189462500Y-113587500D01*
X188962500Y-113587500D01*
X188962500Y-110337500D01*
X189462500Y-110337500D01*
X192962500Y-110337500D01*
X192962500Y-106837500D01*
X189462500Y-106837500D01*
X189462500Y-110337500D01*
X188962500Y-110337500D01*
X188962500Y-106337500D01*
X206462500Y-106337500D01*
X206462500Y-123837500D01*
X188962500Y-123837500D01*
G37*
G36*
X198258572Y-107338555D02*
G01*
X198421198Y-107397198D01*
X198462500Y-107587500D01*
X198461445Y-107633571D01*
X198402802Y-107796197D01*
X198212500Y-107837500D01*
X198166429Y-107836444D01*
X198003803Y-107777801D01*
X197962500Y-107587500D01*
X197963556Y-107541428D01*
X198022199Y-107378802D01*
X198212500Y-107337500D01*
X198258572Y-107338555D01*
G37*
G36*
X199258572Y-114338555D02*
G01*
X199421198Y-114397198D01*
X199462500Y-114587500D01*
X199461445Y-114633571D01*
X199402802Y-114796197D01*
X199212500Y-114837500D01*
X199166429Y-114836444D01*
X199003803Y-114777801D01*
X198962500Y-114587500D01*
X198963556Y-114541428D01*
X199022199Y-114378802D01*
X199212500Y-114337500D01*
X199258572Y-114338555D01*
G37*
G36*
X193758572Y-116838555D02*
G01*
X193921198Y-116897198D01*
X193962500Y-117087500D01*
X193961445Y-117133571D01*
X193902802Y-117296197D01*
X193712500Y-117337500D01*
X193666429Y-117336444D01*
X193503803Y-117277801D01*
X193462500Y-117087500D01*
X193463556Y-117041428D01*
X193522199Y-116878802D01*
X193712500Y-116837500D01*
X193758572Y-116838555D01*
G37*
G36*
X189962500Y-109837500D02*
G01*
X189962500Y-109337500D01*
X190462500Y-109337500D01*
X191962500Y-109337500D01*
X191962500Y-107837500D01*
X190462500Y-107837500D01*
X190462500Y-109337500D01*
X189962500Y-109337500D01*
X189962500Y-107337500D01*
X192462500Y-107337500D01*
X192462500Y-109837500D01*
X189962500Y-109837500D01*
G37*
G36*
X202962500Y-109837500D02*
G01*
X202962500Y-109337500D01*
X203462500Y-109337500D01*
X204962500Y-109337500D01*
X204962500Y-107837500D01*
X203462500Y-107837500D01*
X203462500Y-109337500D01*
X202962500Y-109337500D01*
X202962500Y-107337500D01*
X205462500Y-107337500D01*
X205462500Y-109837500D01*
X202962500Y-109837500D01*
G37*
G36*
X203902802Y-115296197D02*
G01*
X203712500Y-115337500D01*
X203612170Y-115342236D01*
X203511971Y-115392715D01*
X203470606Y-115540755D01*
X203462500Y-115837500D01*
X203460132Y-116038161D01*
X203434893Y-116238558D01*
X203360873Y-116321288D01*
X203212500Y-116337500D01*
X203166429Y-116338555D01*
X203003803Y-116397198D01*
X202962500Y-116587500D01*
X202961445Y-116633571D01*
X202902802Y-116796197D01*
X202712500Y-116837500D01*
X202666429Y-116836444D01*
X202503803Y-116777801D01*
X202462500Y-116587500D01*
X202463556Y-116541428D01*
X202522199Y-116378802D01*
X202712500Y-116337500D01*
X202758572Y-116336444D01*
X202921198Y-116277801D01*
X202962500Y-116087500D01*
X202957764Y-115987169D01*
X202907285Y-115886970D01*
X202759245Y-115845605D01*
X202462500Y-115837500D01*
X201962500Y-115837500D01*
X201962500Y-116837500D01*
X201462500Y-116837500D01*
X201261839Y-116835131D01*
X201061442Y-116809892D01*
X200978712Y-116735872D01*
X200962500Y-116587500D01*
X200961445Y-116541428D01*
X200902802Y-116378802D01*
X200712500Y-116337500D01*
X200666429Y-116338555D01*
X200503803Y-116397198D01*
X200462500Y-116587500D01*
X200457764Y-116687830D01*
X200407285Y-116788029D01*
X200259245Y-116829394D01*
X199962500Y-116837500D01*
X199761839Y-116835131D01*
X199561442Y-116809892D01*
X199478712Y-116735872D01*
X199462500Y-116587500D01*
X199461445Y-116541428D01*
X199402802Y-116378802D01*
X199212500Y-116337500D01*
X199112170Y-116342236D01*
X199011971Y-116392715D01*
X198970606Y-116540755D01*
X198962500Y-116837500D01*
X198964869Y-117038161D01*
X198990108Y-117238558D01*
X199064128Y-117321288D01*
X199212500Y-117337500D01*
X199258572Y-117338555D01*
X199421198Y-117397198D01*
X199462500Y-117587500D01*
X199457764Y-117687830D01*
X199407285Y-117788029D01*
X199259245Y-117829394D01*
X198962500Y-117837500D01*
X198761839Y-117835131D01*
X198561442Y-117809892D01*
X198478712Y-117735872D01*
X198462500Y-117587500D01*
X198461445Y-117541428D01*
X198402802Y-117378802D01*
X198212500Y-117337500D01*
X198166429Y-117338555D01*
X198003803Y-117397198D01*
X197962500Y-117587500D01*
X197961445Y-117633571D01*
X197902802Y-117796197D01*
X197712500Y-117837500D01*
X197666429Y-117838555D01*
X197503803Y-117897198D01*
X197462500Y-118087500D01*
X197467237Y-118187830D01*
X197517716Y-118288029D01*
X197665756Y-118329394D01*
X197962500Y-118337500D01*
X198163162Y-118339868D01*
X198363559Y-118365107D01*
X198446289Y-118439127D01*
X198462500Y-118587500D01*
X198461445Y-118633571D01*
X198402802Y-118796197D01*
X198212500Y-118837500D01*
X198112170Y-118842236D01*
X198011971Y-118892715D01*
X197970606Y-119040755D01*
X197962500Y-119337500D01*
X197960132Y-119538161D01*
X197934893Y-119738558D01*
X197860873Y-119821288D01*
X197712500Y-119837500D01*
X197666429Y-119836444D01*
X197503803Y-119777801D01*
X197462500Y-119587500D01*
X197461445Y-119541428D01*
X197402802Y-119378802D01*
X197212500Y-119337500D01*
X197112170Y-119342236D01*
X197011971Y-119392715D01*
X196970606Y-119540755D01*
X196962500Y-119837500D01*
X196964869Y-120038161D01*
X196990108Y-120238558D01*
X197064128Y-120321288D01*
X197212500Y-120337500D01*
X197258572Y-120338555D01*
X197421198Y-120397198D01*
X197462500Y-120587500D01*
X197463556Y-120633571D01*
X197522199Y-120796197D01*
X197712500Y-120837500D01*
X197758572Y-120838555D01*
X197921198Y-120897198D01*
X197962500Y-121087500D01*
X197961445Y-121133571D01*
X197902802Y-121296197D01*
X197712500Y-121337500D01*
X197666429Y-121338555D01*
X197503803Y-121397198D01*
X197462500Y-121587500D01*
X197463556Y-121633571D01*
X197522199Y-121796197D01*
X197712500Y-121837500D01*
X197758572Y-121838555D01*
X197921198Y-121897198D01*
X197962500Y-122087500D01*
X197961445Y-122133571D01*
X197902802Y-122296197D01*
X197712500Y-122337500D01*
X197666429Y-122336444D01*
X197503803Y-122277801D01*
X197462500Y-122087500D01*
X197461445Y-122041428D01*
X197402802Y-121878802D01*
X197212500Y-121837500D01*
X197166429Y-121836444D01*
X197003803Y-121777801D01*
X196962500Y-121587500D01*
X196961445Y-121541428D01*
X196902802Y-121378802D01*
X196712500Y-121337500D01*
X196666429Y-121336444D01*
X196503803Y-121277801D01*
X196462500Y-121087500D01*
X196461445Y-121041428D01*
X196402802Y-120878802D01*
X196212500Y-120837500D01*
X196166429Y-120836444D01*
X196003803Y-120777801D01*
X195962500Y-120587500D01*
X195963556Y-120541428D01*
X196022199Y-120378802D01*
X196212500Y-120337500D01*
X196312831Y-120332763D01*
X196413030Y-120282284D01*
X196454395Y-120134244D01*
X196462500Y-119837500D01*
X196460132Y-119636838D01*
X196434893Y-119436441D01*
X196360873Y-119353711D01*
X196212500Y-119337500D01*
X196166429Y-119338555D01*
X196003803Y-119397198D01*
X195962500Y-119587500D01*
X195961445Y-119633571D01*
X195902802Y-119796197D01*
X195712500Y-119837500D01*
X195666429Y-119836444D01*
X195503803Y-119777801D01*
X195462500Y-119587500D01*
X195463556Y-119541428D01*
X195522199Y-119378802D01*
X195712500Y-119337500D01*
X195758572Y-119336444D01*
X195921198Y-119277801D01*
X195962500Y-119087500D01*
X195963556Y-119041428D01*
X196022199Y-118878802D01*
X196212500Y-118837500D01*
X196300309Y-118834742D01*
X196392332Y-118800474D01*
X196440676Y-118692596D01*
X196459385Y-118468981D01*
X196462500Y-118087500D01*
X196461581Y-117824074D01*
X196450159Y-117548006D01*
X196414199Y-117402972D01*
X196339661Y-117346846D01*
X196212500Y-117337500D01*
X196112170Y-117332763D01*
X196011971Y-117282284D01*
X195970606Y-117134244D01*
X195962500Y-116837500D01*
X195960132Y-116636838D01*
X195934893Y-116436441D01*
X195860873Y-116353711D01*
X195712500Y-116337500D01*
X195666429Y-116336444D01*
X195503803Y-116277801D01*
X195462500Y-116087500D01*
X195461445Y-116041428D01*
X195402802Y-115878802D01*
X195212500Y-115837500D01*
X195166429Y-115836444D01*
X195003803Y-115777801D01*
X194962500Y-115587500D01*
X194961445Y-115541428D01*
X194902802Y-115378802D01*
X194712500Y-115337500D01*
X194666429Y-115336444D01*
X194503803Y-115277801D01*
X194462500Y-115087500D01*
X194461445Y-115041428D01*
X194402802Y-114878802D01*
X194212500Y-114837500D01*
X194166429Y-114836444D01*
X194003803Y-114777801D01*
X193962500Y-114587500D01*
X194462500Y-114587500D01*
X194463556Y-114633571D01*
X194522199Y-114796197D01*
X194712500Y-114837500D01*
X194758572Y-114836444D01*
X194921198Y-114777801D01*
X194962500Y-114587500D01*
X194963556Y-114541428D01*
X195022199Y-114378802D01*
X195212500Y-114337500D01*
X195258572Y-114336444D01*
X195421198Y-114277801D01*
X195462500Y-114087500D01*
X195463556Y-114041428D01*
X195522199Y-113878802D01*
X195712500Y-113837500D01*
X195758572Y-113838555D01*
X195921198Y-113897198D01*
X195962500Y-114087500D01*
X195963556Y-114133571D01*
X196022199Y-114296197D01*
X196212500Y-114337500D01*
X196258572Y-114338555D01*
X196421198Y-114397198D01*
X196462500Y-114587500D01*
X196457764Y-114687830D01*
X196407285Y-114788029D01*
X196259245Y-114829394D01*
X195962500Y-114837500D01*
X195462500Y-114837500D01*
X195462500Y-115337500D01*
X195464869Y-115538161D01*
X195490108Y-115738558D01*
X195564128Y-115821288D01*
X195712500Y-115837500D01*
X195758572Y-115838555D01*
X195921198Y-115897198D01*
X195962500Y-116087500D01*
X195963556Y-116133571D01*
X196022199Y-116296197D01*
X196212500Y-116337500D01*
X196312831Y-116342236D01*
X196413030Y-116392715D01*
X196454395Y-116540755D01*
X196462500Y-116837500D01*
X196464869Y-117038161D01*
X196490108Y-117238558D01*
X196564128Y-117321288D01*
X196712500Y-117337500D01*
X196758572Y-117338555D01*
X196921198Y-117397198D01*
X196962500Y-117587500D01*
X196963556Y-117633571D01*
X197022199Y-117796197D01*
X197212500Y-117837500D01*
X197258572Y-117836444D01*
X197421198Y-117777801D01*
X197462500Y-117587500D01*
X197463556Y-117541428D01*
X197522199Y-117378802D01*
X197712500Y-117337500D01*
X197758572Y-117336444D01*
X197921198Y-117277801D01*
X197962500Y-117087500D01*
X197963556Y-117041428D01*
X198022199Y-116878802D01*
X198212500Y-116837500D01*
X198312831Y-116832763D01*
X198413030Y-116782284D01*
X198454395Y-116634244D01*
X198462500Y-116337500D01*
X198462500Y-116087500D01*
X199962500Y-116087500D01*
X199963556Y-116133571D01*
X200022199Y-116296197D01*
X200212500Y-116337500D01*
X200258572Y-116336444D01*
X200421198Y-116277801D01*
X200462500Y-116087500D01*
X200463556Y-116041428D01*
X200522199Y-115878802D01*
X200712500Y-115837500D01*
X200758572Y-115838555D01*
X200921198Y-115897198D01*
X200962500Y-116087500D01*
X200963556Y-116133571D01*
X201022199Y-116296197D01*
X201212500Y-116337500D01*
X201312831Y-116332763D01*
X201413030Y-116282284D01*
X201454395Y-116134244D01*
X201462500Y-115837500D01*
X201464869Y-115636838D01*
X201490108Y-115436441D01*
X201564128Y-115353711D01*
X201712500Y-115337500D01*
X201758572Y-115336444D01*
X201921198Y-115277801D01*
X201962500Y-115087500D01*
X202462500Y-115087500D01*
X202463556Y-115133571D01*
X202522199Y-115296197D01*
X202712500Y-115337500D01*
X202758572Y-115336444D01*
X202921198Y-115277801D01*
X202962500Y-115087500D01*
X202961445Y-115041428D01*
X202902802Y-114878802D01*
X202712500Y-114837500D01*
X202666429Y-114838555D01*
X202503803Y-114897198D01*
X202462500Y-115087500D01*
X201962500Y-115087500D01*
X201961445Y-115041428D01*
X201902802Y-114878802D01*
X201712500Y-114837500D01*
X201666429Y-114836444D01*
X201503803Y-114777801D01*
X201462500Y-114587500D01*
X201461445Y-114541428D01*
X201402802Y-114378802D01*
X201212500Y-114337500D01*
X201166429Y-114338555D01*
X201003803Y-114397198D01*
X200962500Y-114587500D01*
X200963556Y-114633571D01*
X201022199Y-114796197D01*
X201212500Y-114837500D01*
X201258572Y-114838555D01*
X201421198Y-114897198D01*
X201462500Y-115087500D01*
X201457764Y-115187830D01*
X201407285Y-115288029D01*
X201259245Y-115329394D01*
X200962500Y-115337500D01*
X200761839Y-115339868D01*
X200561442Y-115365107D01*
X200478712Y-115439127D01*
X200462500Y-115587500D01*
X200461445Y-115633571D01*
X200402802Y-115796197D01*
X200212500Y-115837500D01*
X200166429Y-115838555D01*
X200003803Y-115897198D01*
X199962500Y-116087500D01*
X198462500Y-116087500D01*
X198462500Y-115837500D01*
X199462500Y-115837500D01*
X199462500Y-114837500D01*
X199962500Y-114837500D01*
X200163162Y-114835131D01*
X200363559Y-114809892D01*
X200446289Y-114735872D01*
X200462500Y-114587500D01*
X200461445Y-114541428D01*
X200402802Y-114378802D01*
X200212500Y-114337500D01*
X200112170Y-114332763D01*
X200011971Y-114282284D01*
X199970606Y-114134244D01*
X199962500Y-113837500D01*
X199964869Y-113636838D01*
X199990108Y-113436441D01*
X200064128Y-113353711D01*
X200212500Y-113337500D01*
X200258572Y-113336444D01*
X200421198Y-113277801D01*
X200462500Y-113087500D01*
X200457764Y-112987169D01*
X200407285Y-112886970D01*
X200259245Y-112845605D01*
X199962500Y-112837500D01*
X199761839Y-112835131D01*
X199561442Y-112809892D01*
X199478712Y-112735872D01*
X199462500Y-112587500D01*
X199461445Y-112541428D01*
X199402802Y-112378802D01*
X199212500Y-112337500D01*
X199112170Y-112342236D01*
X199011971Y-112392715D01*
X198970606Y-112540755D01*
X198962500Y-112837500D01*
X198964869Y-113038161D01*
X198971083Y-113087500D01*
X198990108Y-113238558D01*
X199064128Y-113321288D01*
X199212500Y-113337500D01*
X199258572Y-113338555D01*
X199421198Y-113397198D01*
X199462500Y-113587500D01*
X199459743Y-113675308D01*
X199425475Y-113767331D01*
X199317597Y-113815675D01*
X199093982Y-113834384D01*
X198712500Y-113837500D01*
X198449075Y-113838419D01*
X198173007Y-113849841D01*
X198027973Y-113885801D01*
X197971847Y-113960339D01*
X197962500Y-114087500D01*
X197963556Y-114133571D01*
X198022199Y-114296197D01*
X198212500Y-114337500D01*
X198258572Y-114338555D01*
X198421198Y-114397198D01*
X198462500Y-114587500D01*
X198461445Y-114633571D01*
X198402802Y-114796197D01*
X198212500Y-114837500D01*
X198112170Y-114842236D01*
X198011971Y-114892715D01*
X197970606Y-115040755D01*
X197962500Y-115337500D01*
X197962500Y-115837500D01*
X197462500Y-115837500D01*
X197261839Y-115839868D01*
X197061442Y-115865107D01*
X196978712Y-115939127D01*
X196962500Y-116087500D01*
X196961445Y-116133571D01*
X196902802Y-116296197D01*
X196712500Y-116337500D01*
X196624692Y-116334742D01*
X196532669Y-116300474D01*
X196484325Y-116192596D01*
X196465616Y-115968981D01*
X196462500Y-115587500D01*
X196463420Y-115324074D01*
X196474842Y-115048006D01*
X196510802Y-114902972D01*
X196585340Y-114846846D01*
X196712500Y-114837500D01*
X196812831Y-114832763D01*
X196913030Y-114782284D01*
X196954395Y-114634244D01*
X196962500Y-114337500D01*
X196960132Y-114136838D01*
X196934893Y-113936441D01*
X196860873Y-113853711D01*
X196712500Y-113837500D01*
X196666429Y-113836444D01*
X196503803Y-113777801D01*
X196462500Y-113587500D01*
X196461445Y-113541428D01*
X196402802Y-113378802D01*
X196212500Y-113337500D01*
X196166429Y-113336444D01*
X196003803Y-113277801D01*
X195962500Y-113087500D01*
X197462500Y-113087500D01*
X197463556Y-113133571D01*
X197522199Y-113296197D01*
X197712500Y-113337500D01*
X197758572Y-113336444D01*
X197921198Y-113277801D01*
X197962500Y-113087500D01*
X197961445Y-113041428D01*
X197902802Y-112878802D01*
X197712500Y-112837500D01*
X197666429Y-112838555D01*
X197503803Y-112897198D01*
X197462500Y-113087500D01*
X195962500Y-113087500D01*
X195961445Y-113041428D01*
X195902802Y-112878802D01*
X195712500Y-112837500D01*
X195612170Y-112842236D01*
X195511971Y-112892715D01*
X195470606Y-113040755D01*
X195462500Y-113337500D01*
X195460132Y-113538161D01*
X195434893Y-113738558D01*
X195360873Y-113821288D01*
X195212500Y-113837500D01*
X195166429Y-113838555D01*
X195003803Y-113897198D01*
X194962500Y-114087500D01*
X194961445Y-114133571D01*
X194902802Y-114296197D01*
X194712500Y-114337500D01*
X194666429Y-114338555D01*
X194503803Y-114397198D01*
X194462500Y-114587500D01*
X193962500Y-114587500D01*
X193963556Y-114541428D01*
X194022199Y-114378802D01*
X194212500Y-114337500D01*
X194258572Y-114336444D01*
X194421198Y-114277801D01*
X194462500Y-114087500D01*
X194463556Y-114041428D01*
X194522199Y-113878802D01*
X194712500Y-113837500D01*
X194758572Y-113836444D01*
X194921198Y-113777801D01*
X194962500Y-113587500D01*
X194961445Y-113541428D01*
X194902802Y-113378802D01*
X194712500Y-113337500D01*
X194612170Y-113332763D01*
X194511971Y-113282284D01*
X194470606Y-113134244D01*
X194462500Y-112837500D01*
X194462500Y-112337500D01*
X194962500Y-112337500D01*
X195163162Y-112335131D01*
X195363559Y-112309892D01*
X195446289Y-112235872D01*
X195462500Y-112087500D01*
X195461445Y-112041428D01*
X195402802Y-111878802D01*
X195212500Y-111837500D01*
X195166429Y-111836444D01*
X195003803Y-111777801D01*
X194962500Y-111587500D01*
X194961445Y-111541428D01*
X194902802Y-111378802D01*
X194712500Y-111337500D01*
X194612170Y-111332763D01*
X194511971Y-111282284D01*
X194470606Y-111134244D01*
X194462500Y-110837500D01*
X194464869Y-110636838D01*
X194490108Y-110436441D01*
X194564128Y-110353711D01*
X194712500Y-110337500D01*
X194758572Y-110336444D01*
X194921198Y-110277801D01*
X194962500Y-110087500D01*
X194963556Y-110041428D01*
X195022199Y-109878802D01*
X195212500Y-109837500D01*
X195462500Y-109837500D01*
X195462500Y-111837500D01*
X195712500Y-111837500D01*
X195812831Y-111842236D01*
X195913030Y-111892715D01*
X195954395Y-112040755D01*
X195962500Y-112337500D01*
X195962500Y-112837500D01*
X196462500Y-112837500D01*
X196663162Y-112835131D01*
X196863559Y-112809892D01*
X196946289Y-112735872D01*
X196962500Y-112587500D01*
X196967237Y-112487169D01*
X197017716Y-112386970D01*
X197165756Y-112345605D01*
X197462500Y-112337500D01*
X197663162Y-112339868D01*
X197863559Y-112365107D01*
X197946289Y-112439127D01*
X197962500Y-112587500D01*
X197963556Y-112633571D01*
X198022199Y-112796197D01*
X198212500Y-112837500D01*
X198312831Y-112832763D01*
X198413030Y-112782284D01*
X198454395Y-112634244D01*
X198462500Y-112337500D01*
X198462500Y-112087500D01*
X199962500Y-112087500D01*
X199963556Y-112133571D01*
X200022199Y-112296197D01*
X200212500Y-112337500D01*
X200258572Y-112336444D01*
X200421198Y-112277801D01*
X200462500Y-112087500D01*
X200461445Y-112041428D01*
X200402802Y-111878802D01*
X200212500Y-111837500D01*
X200166429Y-111838555D01*
X200003803Y-111897198D01*
X199962500Y-112087500D01*
X198462500Y-112087500D01*
X198462500Y-111837500D01*
X199462500Y-111837500D01*
X199462500Y-111337500D01*
X199460132Y-111136838D01*
X199434893Y-110936441D01*
X199360873Y-110853711D01*
X199212500Y-110837500D01*
X199112170Y-110832763D01*
X199011971Y-110782284D01*
X198970606Y-110634244D01*
X198962500Y-110337500D01*
X198960132Y-110136838D01*
X198934893Y-109936441D01*
X198860873Y-109853711D01*
X198712500Y-109837500D01*
X198666429Y-109838555D01*
X198503803Y-109897198D01*
X198462500Y-110087500D01*
X198461445Y-110133571D01*
X198402802Y-110296197D01*
X198212500Y-110337500D01*
X198166429Y-110336444D01*
X198003803Y-110277801D01*
X197962500Y-110087500D01*
X197963556Y-110041428D01*
X198022199Y-109878802D01*
X198212500Y-109837500D01*
X198258572Y-109836444D01*
X198421198Y-109777801D01*
X198462500Y-109587500D01*
X198467237Y-109487169D01*
X198517716Y-109386970D01*
X198665756Y-109345605D01*
X198962500Y-109337500D01*
X199163162Y-109335131D01*
X199363559Y-109309892D01*
X199446289Y-109235872D01*
X199462500Y-109087500D01*
X199461445Y-109041428D01*
X199402802Y-108878802D01*
X199212500Y-108837500D01*
X199112170Y-108832763D01*
X199011971Y-108782284D01*
X198970606Y-108634244D01*
X198962500Y-108337500D01*
X198964869Y-108136838D01*
X198990108Y-107936441D01*
X199064128Y-107853711D01*
X199212500Y-107837500D01*
X199258572Y-107838555D01*
X199421198Y-107897198D01*
X199462500Y-108087500D01*
X199467237Y-108187830D01*
X199517716Y-108288029D01*
X199665756Y-108329394D01*
X199962500Y-108337500D01*
X200163162Y-108339868D01*
X200363559Y-108365107D01*
X200446289Y-108439127D01*
X200462500Y-108587500D01*
X200461445Y-108633571D01*
X200402802Y-108796197D01*
X200212500Y-108837500D01*
X200112170Y-108842236D01*
X200011971Y-108892715D01*
X199970606Y-109040755D01*
X199962500Y-109337500D01*
X199964869Y-109538161D01*
X199990108Y-109738558D01*
X200064128Y-109821288D01*
X200212500Y-109837500D01*
X200258572Y-109836444D01*
X200421198Y-109777801D01*
X200462500Y-109587500D01*
X200467237Y-109487169D01*
X200517716Y-109386970D01*
X200665756Y-109345605D01*
X200962500Y-109337500D01*
X201462500Y-109337500D01*
X201462500Y-110087500D01*
X201461581Y-110350925D01*
X201450159Y-110626993D01*
X201414199Y-110772027D01*
X201339661Y-110828153D01*
X201212500Y-110837500D01*
X201112170Y-110832763D01*
X201011971Y-110782284D01*
X200970606Y-110634244D01*
X200962500Y-110337500D01*
X200960132Y-110136838D01*
X200934893Y-109936441D01*
X200860873Y-109853711D01*
X200712500Y-109837500D01*
X200666429Y-109838555D01*
X200503803Y-109897198D01*
X200462500Y-110087500D01*
X200461445Y-110133571D01*
X200402802Y-110296197D01*
X200212500Y-110337500D01*
X200166429Y-110336444D01*
X200003803Y-110277801D01*
X199962500Y-110087500D01*
X199961445Y-110041428D01*
X199902802Y-109878802D01*
X199712500Y-109837500D01*
X199612170Y-109842236D01*
X199511971Y-109892715D01*
X199470606Y-110040755D01*
X199462500Y-110337500D01*
X199462500Y-110837500D01*
X200462500Y-110837500D01*
X200462500Y-111837500D01*
X200962500Y-111837500D01*
X201163162Y-111839868D01*
X201363559Y-111865107D01*
X201446289Y-111939127D01*
X201462500Y-112087500D01*
X201461445Y-112133571D01*
X201402802Y-112296197D01*
X201212500Y-112337500D01*
X201124692Y-112340257D01*
X201032669Y-112374525D01*
X200984325Y-112482403D01*
X200965616Y-112706018D01*
X200962500Y-113087500D01*
X200963420Y-113350925D01*
X200974842Y-113626993D01*
X201010802Y-113772027D01*
X201085340Y-113828153D01*
X201212500Y-113837500D01*
X201258572Y-113838555D01*
X201421198Y-113897198D01*
X201462500Y-114087500D01*
X201463556Y-114133571D01*
X201522199Y-114296197D01*
X201712500Y-114337500D01*
X201758572Y-114336444D01*
X201921198Y-114277801D01*
X201962500Y-114087500D01*
X201963556Y-114041428D01*
X202022199Y-113878802D01*
X202212500Y-113837500D01*
X202258572Y-113838555D01*
X202421198Y-113897198D01*
X202462500Y-114087500D01*
X202467237Y-114187830D01*
X202517716Y-114288029D01*
X202665756Y-114329394D01*
X202962500Y-114337500D01*
X203163162Y-114339868D01*
X203363559Y-114365107D01*
X203446289Y-114439127D01*
X203462500Y-114587500D01*
X203463556Y-114633571D01*
X203522199Y-114796197D01*
X203712500Y-114837500D01*
X203758572Y-114836444D01*
X203921198Y-114777801D01*
X203962500Y-114587500D01*
X203963556Y-114541428D01*
X204022199Y-114378802D01*
X204212500Y-114337500D01*
X204258572Y-114338555D01*
X204421198Y-114397198D01*
X204462500Y-114587500D01*
X204461445Y-114633571D01*
X204402802Y-114796197D01*
X204212500Y-114837500D01*
X204166429Y-114838555D01*
X204003803Y-114897198D01*
X203962500Y-115087500D01*
X203961445Y-115133571D01*
X203902802Y-115296197D01*
G37*
G36*
X199258572Y-122338555D02*
G01*
X199421198Y-122397198D01*
X199462500Y-122587500D01*
X199461445Y-122633571D01*
X199402802Y-122796197D01*
X199212500Y-122837500D01*
X199166429Y-122836444D01*
X199003803Y-122777801D01*
X198962500Y-122587500D01*
X198963556Y-122541428D01*
X199022199Y-122378802D01*
X199212500Y-122337500D01*
X199258572Y-122338555D01*
G37*
G36*
X197312831Y-116342236D02*
G01*
X197413030Y-116392715D01*
X197454395Y-116540755D01*
X197462500Y-116837500D01*
X197460132Y-117038161D01*
X197434893Y-117238558D01*
X197360873Y-117321288D01*
X197212500Y-117337500D01*
X197112170Y-117332763D01*
X197011971Y-117282284D01*
X196970606Y-117134244D01*
X196962500Y-116837500D01*
X196964869Y-116636838D01*
X196990108Y-116436441D01*
X197064128Y-116353711D01*
X197212500Y-116337500D01*
X197312831Y-116342236D01*
G37*
G36*
X191962500Y-120837500D02*
G01*
X191962500Y-120087500D01*
X192462500Y-120087500D01*
X192463556Y-120133571D01*
X192522199Y-120296197D01*
X192712500Y-120337500D01*
X192758572Y-120336444D01*
X192921198Y-120277801D01*
X192962500Y-120087500D01*
X192961445Y-120041428D01*
X192902802Y-119878802D01*
X192712500Y-119837500D01*
X192666429Y-119838555D01*
X192503803Y-119897198D01*
X192462500Y-120087500D01*
X191962500Y-120087500D01*
X191962500Y-119337500D01*
X193462500Y-119337500D01*
X193462500Y-120837500D01*
X191962500Y-120837500D01*
G37*
G36*
X200258572Y-107338555D02*
G01*
X200421198Y-107397198D01*
X200462500Y-107587500D01*
X200461445Y-107633571D01*
X200402802Y-107796197D01*
X200212500Y-107837500D01*
X200166429Y-107836444D01*
X200003803Y-107777801D01*
X199962500Y-107587500D01*
X199963556Y-107541428D01*
X200022199Y-107378802D01*
X200212500Y-107337500D01*
X200258572Y-107338555D01*
G37*
G36*
X200258572Y-121338555D02*
G01*
X200421198Y-121397198D01*
X200462500Y-121587500D01*
X200463556Y-121633571D01*
X200522199Y-121796197D01*
X200712500Y-121837500D01*
X200758572Y-121838555D01*
X200921198Y-121897198D01*
X200962500Y-122087500D01*
X200957764Y-122187830D01*
X200907285Y-122288029D01*
X200759245Y-122329394D01*
X200462500Y-122337500D01*
X199962500Y-122337500D01*
X199962500Y-121837500D01*
X199964869Y-121636838D01*
X199990108Y-121436441D01*
X200064128Y-121353711D01*
X200212500Y-121337500D01*
X200258572Y-121338555D01*
G37*
G36*
X199258572Y-118338555D02*
G01*
X199421198Y-118397198D01*
X199462500Y-118587500D01*
X199467237Y-118687830D01*
X199517716Y-118788029D01*
X199665756Y-118829394D01*
X199962500Y-118837500D01*
X200462500Y-118837500D01*
X200462500Y-119337500D01*
X200460132Y-119538161D01*
X200434893Y-119738558D01*
X200360873Y-119821288D01*
X200212500Y-119837500D01*
X200166429Y-119838555D01*
X200003803Y-119897198D01*
X199962500Y-120087500D01*
X199967237Y-120187830D01*
X200017716Y-120288029D01*
X200165756Y-120329394D01*
X200462500Y-120337500D01*
X200663162Y-120339868D01*
X200863559Y-120365107D01*
X200946289Y-120439127D01*
X200962500Y-120587500D01*
X200959743Y-120675308D01*
X200925475Y-120767331D01*
X200817597Y-120815675D01*
X200593982Y-120834384D01*
X200212500Y-120837500D01*
X199949075Y-120836580D01*
X199673007Y-120825158D01*
X199527973Y-120789198D01*
X199471847Y-120714660D01*
X199462500Y-120587500D01*
X199461445Y-120541428D01*
X199402802Y-120378802D01*
X199212500Y-120337500D01*
X199112170Y-120342236D01*
X199011971Y-120392715D01*
X198970606Y-120540755D01*
X198962500Y-120837500D01*
X198964869Y-121038161D01*
X198990108Y-121238558D01*
X199064128Y-121321288D01*
X199212500Y-121337500D01*
X199258572Y-121338555D01*
X199421198Y-121397198D01*
X199462500Y-121587500D01*
X199457764Y-121687830D01*
X199407285Y-121788029D01*
X199259245Y-121829394D01*
X198962500Y-121837500D01*
X198462500Y-121837500D01*
X198462500Y-119837500D01*
X199462500Y-119837500D01*
X199462500Y-119337500D01*
X199460132Y-119136838D01*
X199434893Y-118936441D01*
X199360873Y-118853711D01*
X199212500Y-118837500D01*
X199166429Y-118836444D01*
X199003803Y-118777801D01*
X198962500Y-118587500D01*
X198963556Y-118541428D01*
X199022199Y-118378802D01*
X199212500Y-118337500D01*
X199258572Y-118338555D01*
G37*
G36*
X205312831Y-113342236D02*
G01*
X205413030Y-113392715D01*
X205454395Y-113540755D01*
X205462500Y-113837500D01*
X205460132Y-114038161D01*
X205434893Y-114238558D01*
X205360873Y-114321288D01*
X205212500Y-114337500D01*
X205112170Y-114332763D01*
X205011971Y-114282284D01*
X204970606Y-114134244D01*
X204962500Y-113837500D01*
X204964869Y-113636838D01*
X204990108Y-113436441D01*
X205064128Y-113353711D01*
X205212500Y-113337500D01*
X205312831Y-113342236D01*
G37*
G36*
X201142845Y-130100828D02*
G01*
X204257707Y-130100828D01*
X204882155Y-131037500D01*
X204257707Y-131974172D01*
X201142845Y-131974172D01*
X201142845Y-130451070D01*
X201465946Y-130451070D01*
X201491875Y-130574172D01*
X201523135Y-130710844D01*
X201559484Y-130857936D01*
X201600680Y-131012298D01*
X201630728Y-131118275D01*
X201662715Y-131225545D01*
X201696641Y-131334107D01*
X201731967Y-131442131D01*
X201768154Y-131547785D01*
X201805203Y-131651070D01*
X202051407Y-131651070D01*
X202485656Y-131651070D01*
X203268854Y-131651070D01*
X203460777Y-131651070D01*
X204189694Y-131651070D01*
X204189694Y-131453332D01*
X203937675Y-131453332D01*
X203937675Y-130782573D01*
X204061746Y-130851393D01*
X204180001Y-130898889D01*
X204257546Y-130701151D01*
X204156738Y-130656563D01*
X204048176Y-130596466D01*
X203945429Y-130526676D01*
X203862069Y-130451070D01*
X203699226Y-130451070D01*
X203699226Y-131453332D01*
X203460777Y-131453332D01*
X203460777Y-131651070D01*
X203268854Y-131651070D01*
X203273701Y-131602605D01*
X203272732Y-131561894D01*
X203263765Y-131468841D01*
X203236867Y-131383542D01*
X203196156Y-131305271D01*
X203145753Y-131233300D01*
X203088564Y-131166902D01*
X203027497Y-131105351D01*
X202966431Y-131047435D01*
X202909242Y-130991943D01*
X202818127Y-130887258D01*
X202782263Y-130784511D01*
X202826851Y-130671103D01*
X202939291Y-130631361D01*
X203057546Y-130658502D01*
X203179678Y-130749616D01*
X203297933Y-130582896D01*
X203214331Y-130512137D01*
X203118612Y-130462702D01*
X203017077Y-130433623D01*
X202916027Y-130423930D01*
X202774509Y-130445254D01*
X202654315Y-130509229D01*
X202570954Y-130616821D01*
X202539937Y-130767064D01*
X202563200Y-130886288D01*
X202625236Y-130997758D01*
X202712473Y-131102443D01*
X202811342Y-131199374D01*
X202869501Y-131254624D01*
X202931536Y-131320537D01*
X202980971Y-131389358D01*
X203001326Y-131453332D01*
X202485656Y-131453332D01*
X202485656Y-131651070D01*
X202051407Y-131651070D01*
X202099387Y-131508582D01*
X202150276Y-131348647D01*
X202184525Y-131236315D01*
X202217481Y-131124199D01*
X202249145Y-131012298D01*
X202279086Y-130902551D01*
X202306873Y-130796897D01*
X202332505Y-130695335D01*
X202364492Y-130559632D01*
X202386786Y-130451070D01*
X202134767Y-130451070D01*
X202120228Y-130551636D01*
X202099872Y-130667225D01*
X202075397Y-130792266D01*
X202048499Y-130921183D01*
X202019420Y-131051070D01*
X201988402Y-131179019D01*
X201956657Y-131299455D01*
X201925397Y-131406805D01*
X201894379Y-131300909D01*
X201863362Y-131180957D01*
X201833313Y-131053009D01*
X201805203Y-130923122D01*
X201779032Y-130793962D01*
X201754799Y-130668195D01*
X201733475Y-130551878D01*
X201716027Y-130451070D01*
X201465946Y-130451070D01*
X201142845Y-130451070D01*
X201142845Y-130100828D01*
G37*
X166012500Y-129637500D02*
X164012500Y-129637500D01*
X164012500Y-132437500D02*
X166012500Y-132437500D01*
X166012500Y-132437500D02*
X166012500Y-129637500D01*
X164012500Y-129637500D02*
X164012500Y-132437500D01*
G36*
X146142845Y-50350828D02*
G01*
X149257707Y-50350828D01*
X149882155Y-51287500D01*
X149257707Y-52224172D01*
X146142845Y-52224172D01*
X146142845Y-50701070D01*
X146465946Y-50701070D01*
X146491875Y-50824172D01*
X146523135Y-50960844D01*
X146559484Y-51107936D01*
X146600680Y-51262298D01*
X146630728Y-51368275D01*
X146662715Y-51475545D01*
X146696641Y-51584107D01*
X146731967Y-51692131D01*
X146768154Y-51797785D01*
X146805203Y-51901070D01*
X147051407Y-51901070D01*
X147485656Y-51901070D01*
X148268854Y-51901070D01*
X148460777Y-51901070D01*
X149189694Y-51901070D01*
X149189694Y-51703332D01*
X148937675Y-51703332D01*
X148937675Y-51032573D01*
X149061746Y-51101393D01*
X149180001Y-51148889D01*
X149257546Y-50951151D01*
X149156738Y-50906563D01*
X149048176Y-50846466D01*
X148945429Y-50776676D01*
X148862069Y-50701070D01*
X148699226Y-50701070D01*
X148699226Y-51703332D01*
X148460777Y-51703332D01*
X148460777Y-51901070D01*
X148268854Y-51901070D01*
X148273701Y-51852605D01*
X148272732Y-51811894D01*
X148263765Y-51718841D01*
X148236867Y-51633542D01*
X148196156Y-51555271D01*
X148145753Y-51483300D01*
X148088564Y-51416902D01*
X148027497Y-51355351D01*
X147966431Y-51297435D01*
X147909242Y-51241943D01*
X147818127Y-51137258D01*
X147782263Y-51034511D01*
X147826851Y-50921103D01*
X147939291Y-50881361D01*
X148057546Y-50908502D01*
X148179678Y-50999616D01*
X148297933Y-50832896D01*
X148214331Y-50762137D01*
X148118612Y-50712702D01*
X148017077Y-50683623D01*
X147916027Y-50673930D01*
X147774509Y-50695254D01*
X147654315Y-50759229D01*
X147570954Y-50866821D01*
X147539937Y-51017064D01*
X147563200Y-51136288D01*
X147625236Y-51247758D01*
X147712473Y-51352443D01*
X147811342Y-51449374D01*
X147869501Y-51504624D01*
X147931536Y-51570537D01*
X147980971Y-51639358D01*
X148001326Y-51703332D01*
X147485656Y-51703332D01*
X147485656Y-51901070D01*
X147051407Y-51901070D01*
X147099387Y-51758582D01*
X147150276Y-51598647D01*
X147184525Y-51486315D01*
X147217481Y-51374199D01*
X147249145Y-51262298D01*
X147279086Y-51152551D01*
X147306873Y-51046897D01*
X147332505Y-50945335D01*
X147364492Y-50809632D01*
X147386786Y-50701070D01*
X147134767Y-50701070D01*
X147120228Y-50801636D01*
X147099872Y-50917225D01*
X147075397Y-51042266D01*
X147048499Y-51171183D01*
X147019420Y-51301070D01*
X146988402Y-51429019D01*
X146956657Y-51549455D01*
X146925397Y-51656805D01*
X146894379Y-51550909D01*
X146863362Y-51430957D01*
X146833313Y-51303009D01*
X146805203Y-51173122D01*
X146779032Y-51043962D01*
X146754799Y-50918195D01*
X146733475Y-50801878D01*
X146716027Y-50701070D01*
X146465946Y-50701070D01*
X146142845Y-50701070D01*
X146142845Y-50350828D01*
G37*
X131512500Y-52537500D02*
X131512500Y-49737500D01*
X129512500Y-49737500D02*
X129512500Y-52537500D01*
X129512500Y-52537500D02*
X131512500Y-52537500D01*
X131512500Y-49737500D02*
X129512500Y-49737500D01*
X191012500Y-52437500D02*
X193012500Y-52437500D01*
X193012500Y-52437500D02*
X193012500Y-49637500D01*
X191012500Y-49637500D02*
X191012500Y-52437500D01*
X193012500Y-49637500D02*
X191012500Y-49637500D01*
%LPC*%
G36*
G01*
X186412500Y-126020000D02*
X186412500Y-129120000D01*
G75*
G02*
X186162500Y-129370000I-250000J0D01*
G01*
X184862500Y-129370000D01*
G75*
G02*
X184612500Y-129120000I0J250000D01*
G01*
X184612500Y-126020000D01*
G75*
G02*
X184862500Y-125770000I250000J0D01*
G01*
X186162500Y-125770000D01*
G75*
G02*
X186412500Y-126020000I0J-250000D01*
G01*
G37*
D13*
X182012500Y-127570000D03*
X178512500Y-127570000D03*
X175012500Y-127570000D03*
X171512500Y-127570000D03*
D14*
X145762500Y-123537500D03*
G36*
G01*
X165912500Y-126020000D02*
X165912500Y-129120000D01*
G75*
G02*
X165662500Y-129370000I-250000J0D01*
G01*
X164362500Y-129370000D01*
G75*
G02*
X164112500Y-129120000I0J250000D01*
G01*
X164112500Y-126020000D01*
G75*
G02*
X164362500Y-125770000I250000J0D01*
G01*
X165662500Y-125770000D01*
G75*
G02*
X165912500Y-126020000I0J-250000D01*
G01*
G37*
D13*
X161512500Y-127570000D03*
X158012500Y-127570000D03*
X154512500Y-127570000D03*
X151012500Y-127570000D03*
G36*
G01*
X129612500Y-56087500D02*
X129612500Y-52987500D01*
G75*
G02*
X129862500Y-52737500I250000J0D01*
G01*
X131162500Y-52737500D01*
G75*
G02*
X131412500Y-52987500I0J-250000D01*
G01*
X131412500Y-56087500D01*
G75*
G02*
X131162500Y-56337500I-250000J0D01*
G01*
X129862500Y-56337500D01*
G75*
G02*
X129612500Y-56087500I0J250000D01*
G01*
G37*
X134012500Y-54537500D03*
X137512500Y-54537500D03*
X141012500Y-54537500D03*
X144512500Y-54537500D03*
G36*
G01*
X150112500Y-56087500D02*
X150112500Y-52987500D01*
G75*
G02*
X150362500Y-52737500I250000J0D01*
G01*
X151662500Y-52737500D01*
G75*
G02*
X151912500Y-52987500I0J-250000D01*
G01*
X151912500Y-56087500D01*
G75*
G02*
X151662500Y-56337500I-250000J0D01*
G01*
X150362500Y-56337500D01*
G75*
G02*
X150112500Y-56087500I0J250000D01*
G01*
G37*
X154512500Y-54537500D03*
X158012500Y-54537500D03*
X161512500Y-54537500D03*
X165012500Y-54537500D03*
D14*
X148262500Y-61037500D03*
G36*
G01*
X206912500Y-126020000D02*
X206912500Y-129120000D01*
G75*
G02*
X206662500Y-129370000I-250000J0D01*
G01*
X205362500Y-129370000D01*
G75*
G02*
X205112500Y-129120000I0J250000D01*
G01*
X205112500Y-126020000D01*
G75*
G02*
X205362500Y-125770000I250000J0D01*
G01*
X206662500Y-125770000D01*
G75*
G02*
X206912500Y-126020000I0J-250000D01*
G01*
G37*
D13*
X202512500Y-127570000D03*
X199012500Y-127570000D03*
X195512500Y-127570000D03*
X192012500Y-127570000D03*
D15*
X167890000Y-100150000D03*
D16*
X165350000Y-100150000D03*
X162810000Y-100150000D03*
X157730000Y-100150000D03*
X155190000Y-100150000D03*
X152650000Y-100150000D03*
X150110000Y-100150000D03*
D14*
X193262500Y-81037500D03*
G36*
G01*
X191112500Y-56087500D02*
X191112500Y-52987500D01*
G75*
G02*
X191362500Y-52737500I250000J0D01*
G01*
X192662500Y-52737500D01*
G75*
G02*
X192912500Y-52987500I0J-250000D01*
G01*
X192912500Y-56087500D01*
G75*
G02*
X192662500Y-56337500I-250000J0D01*
G01*
X191362500Y-56337500D01*
G75*
G02*
X191112500Y-56087500I0J250000D01*
G01*
G37*
D13*
X195512500Y-54537500D03*
X199012500Y-54537500D03*
X202512500Y-54537500D03*
X206012500Y-54537500D03*
G36*
G01*
X145412500Y-125987500D02*
X145412500Y-129087500D01*
G75*
G02*
X145162500Y-129337500I-250000J0D01*
G01*
X143862500Y-129337500D01*
G75*
G02*
X143612500Y-129087500I0J250000D01*
G01*
X143612500Y-125987500D01*
G75*
G02*
X143862500Y-125737500I250000J0D01*
G01*
X145162500Y-125737500D01*
G75*
G02*
X145412500Y-125987500I0J-250000D01*
G01*
G37*
X141012500Y-127537500D03*
X137512500Y-127537500D03*
X134012500Y-127537500D03*
X130512500Y-127537500D03*
G36*
G01*
X170612500Y-56087500D02*
X170612500Y-52987500D01*
G75*
G02*
X170862500Y-52737500I250000J0D01*
G01*
X172162500Y-52737500D01*
G75*
G02*
X172412500Y-52987500I0J-250000D01*
G01*
X172412500Y-56087500D01*
G75*
G02*
X172162500Y-56337500I-250000J0D01*
G01*
X170862500Y-56337500D01*
G75*
G02*
X170612500Y-56087500I0J250000D01*
G01*
G37*
X175012500Y-54537500D03*
X178512500Y-54537500D03*
X182012500Y-54537500D03*
X185512500Y-54537500D03*
G36*
X206012500Y-130695000D02*
G01*
X206762500Y-131195000D01*
X206762500Y-132195000D01*
X205262500Y-132195000D01*
X205262500Y-131195000D01*
X206012500Y-130695000D01*
G37*
G36*
X206762500Y-129745000D02*
G01*
X206762500Y-130895000D01*
X206012500Y-130395000D01*
X205262500Y-130895000D01*
X205262500Y-129745000D01*
X206762500Y-129745000D01*
G37*
G36*
X151012500Y-51412500D02*
G01*
X150262500Y-50912500D01*
X150262500Y-49912500D01*
X151762500Y-49912500D01*
X151762500Y-50912500D01*
X151012500Y-51412500D01*
G37*
G36*
X150262500Y-52362500D02*
G01*
X150262500Y-51212500D01*
X151012500Y-51712500D01*
X151762500Y-51212500D01*
X151762500Y-52362500D01*
X150262500Y-52362500D01*
G37*
G36*
X185512500Y-130695000D02*
G01*
X186262500Y-131195000D01*
X186262500Y-132195000D01*
X184762500Y-132195000D01*
X184762500Y-131195000D01*
X185512500Y-130695000D01*
G37*
G36*
X186262500Y-129745000D02*
G01*
X186262500Y-130895000D01*
X185512500Y-130395000D01*
X184762500Y-130895000D01*
X184762500Y-129745000D01*
X186262500Y-129745000D01*
G37*
G36*
X171512500Y-51337500D02*
G01*
X170762500Y-50837500D01*
X170762500Y-49837500D01*
X172262500Y-49837500D01*
X172262500Y-50837500D01*
X171512500Y-51337500D01*
G37*
G36*
X170762500Y-52287500D02*
G01*
X170762500Y-51137500D01*
X171512500Y-51637500D01*
X172262500Y-51137500D01*
X172262500Y-52287500D01*
X170762500Y-52287500D01*
G37*
G36*
X144512500Y-130762500D02*
G01*
X145262500Y-131262500D01*
X145262500Y-132262500D01*
X143762500Y-132262500D01*
X143762500Y-131262500D01*
X144512500Y-130762500D01*
G37*
G36*
X145262500Y-129812500D02*
G01*
X145262500Y-130962500D01*
X144512500Y-130462500D01*
X143762500Y-130962500D01*
X143762500Y-129812500D01*
X145262500Y-129812500D01*
G37*
G36*
X163975000Y-102500000D02*
G01*
X164475000Y-101750000D01*
X165475000Y-101750000D01*
X165475000Y-103250000D01*
X164475000Y-103250000D01*
X163975000Y-102500000D01*
G37*
G36*
X163025000Y-101750000D02*
G01*
X164175000Y-101750000D01*
X163675000Y-102500000D01*
X164175000Y-103250000D01*
X163025000Y-103250000D01*
X163025000Y-101750000D01*
G37*
G36*
X165012500Y-130762500D02*
G01*
X165762500Y-131262500D01*
X165762500Y-132262500D01*
X164262500Y-132262500D01*
X164262500Y-131262500D01*
X165012500Y-130762500D01*
G37*
G36*
X165762500Y-129812500D02*
G01*
X165762500Y-130962500D01*
X165012500Y-130462500D01*
X164262500Y-130962500D01*
X164262500Y-129812500D01*
X165762500Y-129812500D01*
G37*
G36*
X130512500Y-51412500D02*
G01*
X129762500Y-50912500D01*
X129762500Y-49912500D01*
X131262500Y-49912500D01*
X131262500Y-50912500D01*
X130512500Y-51412500D01*
G37*
G36*
X129762500Y-52362500D02*
G01*
X129762500Y-51212500D01*
X130512500Y-51712500D01*
X131262500Y-51212500D01*
X131262500Y-52362500D01*
X129762500Y-52362500D01*
G37*
G36*
X192012500Y-51312500D02*
G01*
X191262500Y-50812500D01*
X191262500Y-49812500D01*
X192762500Y-49812500D01*
X192762500Y-50812500D01*
X192012500Y-51312500D01*
G37*
G36*
X191262500Y-52262500D02*
G01*
X191262500Y-51112500D01*
X192012500Y-51612500D01*
X192762500Y-51112500D01*
X192762500Y-52262500D01*
X191262500Y-52262500D01*
G37*
M02*
