G04 #@! TF.GenerationSoftware,KiCad,Pcbnew,6.0.11+dfsg-1*
G04 #@! TF.ProjectId,project,70726f6a-6563-4742-9e6b-696361645f70,rev?*
G04 #@! TF.SameCoordinates,Original*
G04 #@! TF.FileFunction,Legend,Bot*
G04 #@! TF.FilePolarity,Positive*
%FSLAX46Y46*%
G04 Gerber Fmt 4.6, Leading zero omitted, Abs format (unit mm)*
%MOMM*%
%LPD*%
G01*
G04 APERTURE LIST*
G04 #@! TA.AperFunction,Profile*
%ADD10C,0.100000*%
G04 #@! TD*
%ADD11C,1.552000*%
%ADD12R,1.850000X1.850000*%
%ADD13C,1.850000*%
%ADD14O,1.800000X3.600000*%
G04 APERTURE END LIST*
D10*
X125512500Y-133037500D02*
G75*
G03*
X126512500Y-134037500I1000000J0D01*
G01*
X211012500Y-49037500D02*
X211012500Y-133037500D01*
X210012500Y-134037500D02*
X126512500Y-134037500D01*
X126512500Y-48037500D02*
X210012500Y-48037500D01*
X210012500Y-134037500D02*
G75*
G03*
X211012500Y-133037500I0J1000000D01*
G01*
X211012500Y-49037500D02*
G75*
G03*
X210012500Y-48037500I-1000000J0D01*
G01*
X126512500Y-48037500D02*
G75*
G03*
X125512500Y-49037500I0J-1000000D01*
G01*
X125512500Y-133037500D02*
X125512500Y-49037500D01*
G36*
X188112500Y-86137500D02*
G01*
X188066429Y-86138555D01*
X187903803Y-86197198D01*
X187862500Y-86387500D01*
X187867237Y-86487830D01*
X187917716Y-86588029D01*
X188065756Y-86629394D01*
X188362500Y-86637500D01*
X188862500Y-86637500D01*
X188862500Y-85887500D01*
X188863420Y-85624074D01*
X188874842Y-85348006D01*
X188910802Y-85202972D01*
X188985340Y-85146846D01*
X189112500Y-85137500D01*
X189200309Y-85140257D01*
X189292332Y-85174525D01*
X189340676Y-85282403D01*
X189359385Y-85506018D01*
X189362500Y-85887500D01*
X189363420Y-86150925D01*
X189374842Y-86426993D01*
X189410802Y-86572027D01*
X189485340Y-86628153D01*
X189612500Y-86637500D01*
X189658572Y-86638555D01*
X189821198Y-86697198D01*
X189862500Y-86887500D01*
X189862500Y-87137500D01*
X187862500Y-87137500D01*
X187862500Y-86887500D01*
X187861445Y-86841428D01*
X187802802Y-86678802D01*
X187612500Y-86637500D01*
X187566429Y-86638555D01*
X187403803Y-86697198D01*
X187362500Y-86887500D01*
X187357764Y-86987830D01*
X187307285Y-87088029D01*
X187159245Y-87129394D01*
X186862500Y-87137500D01*
X186661839Y-87135131D01*
X186461442Y-87109892D01*
X186378712Y-87035872D01*
X186362500Y-86887500D01*
X186367237Y-86787169D01*
X186417716Y-86686970D01*
X186565756Y-86645605D01*
X186862500Y-86637500D01*
X187063162Y-86635131D01*
X187263559Y-86609892D01*
X187346289Y-86535872D01*
X187362500Y-86387500D01*
X187361445Y-86341428D01*
X187302802Y-86178802D01*
X187112500Y-86137500D01*
X187012170Y-86132763D01*
X186911971Y-86082284D01*
X186870606Y-85934244D01*
X186862500Y-85637500D01*
X187362500Y-85637500D01*
X187364869Y-85838161D01*
X187390108Y-86038558D01*
X187464128Y-86121288D01*
X187612500Y-86137500D01*
X187712831Y-86132763D01*
X187813030Y-86082284D01*
X187854395Y-85934244D01*
X187862500Y-85637500D01*
X187860132Y-85436838D01*
X187834893Y-85236441D01*
X187760873Y-85153711D01*
X187612500Y-85137500D01*
X187512170Y-85142236D01*
X187411971Y-85192715D01*
X187370606Y-85340755D01*
X187362500Y-85637500D01*
X186862500Y-85637500D01*
X186864869Y-85436838D01*
X186890108Y-85236441D01*
X186964128Y-85153711D01*
X187112500Y-85137500D01*
X187158572Y-85136444D01*
X187321198Y-85077801D01*
X187362500Y-84887500D01*
X187363556Y-84841428D01*
X187422199Y-84678802D01*
X187612500Y-84637500D01*
X187658572Y-84636444D01*
X187821198Y-84577801D01*
X187862500Y-84387500D01*
X187863556Y-84341428D01*
X187922199Y-84178802D01*
X188112500Y-84137500D01*
X188212831Y-84132763D01*
X188313030Y-84082284D01*
X188354395Y-83934244D01*
X188362500Y-83637500D01*
X188362500Y-83137500D01*
X188862500Y-83137500D01*
X189063162Y-83139868D01*
X189263559Y-83165107D01*
X189346289Y-83239127D01*
X189362500Y-83387500D01*
X189361445Y-83433571D01*
X189302802Y-83596197D01*
X189112500Y-83637500D01*
X189066429Y-83638555D01*
X188903803Y-83697198D01*
X188862500Y-83887500D01*
X188861445Y-83933571D01*
X188802802Y-84096197D01*
X188612500Y-84137500D01*
X188362500Y-84137500D01*
X188362500Y-86137500D01*
X188112500Y-86137500D01*
G37*
G36*
X183658572Y-93638555D02*
G01*
X183821198Y-93697198D01*
X183862500Y-93887500D01*
X183861445Y-93933571D01*
X183802802Y-94096197D01*
X183612500Y-94137500D01*
X183566429Y-94136444D01*
X183403803Y-94077801D01*
X183362500Y-93887500D01*
X183363556Y-93841428D01*
X183422199Y-93678802D01*
X183612500Y-93637500D01*
X183658572Y-93638555D01*
G37*
G36*
X183563162Y-96639868D02*
G01*
X183763559Y-96665107D01*
X183846289Y-96739127D01*
X183862500Y-96887500D01*
X183857764Y-96987830D01*
X183807285Y-97088029D01*
X183659245Y-97129394D01*
X183362500Y-97137500D01*
X183161839Y-97135131D01*
X182961442Y-97109892D01*
X182878712Y-97035872D01*
X182862500Y-96887500D01*
X182867237Y-96787169D01*
X182917716Y-96686970D01*
X183065756Y-96645605D01*
X183362500Y-96637500D01*
X183563162Y-96639868D01*
G37*
G36*
X184862500Y-96637500D02*
G01*
X184862500Y-95887500D01*
X185362500Y-95887500D01*
X185363556Y-95933571D01*
X185422199Y-96096197D01*
X185612500Y-96137500D01*
X185658572Y-96136444D01*
X185821198Y-96077801D01*
X185862500Y-95887500D01*
X185861445Y-95841428D01*
X185802802Y-95678802D01*
X185612500Y-95637500D01*
X185566429Y-95638555D01*
X185403803Y-95697198D01*
X185362500Y-95887500D01*
X184862500Y-95887500D01*
X184862500Y-95137500D01*
X186362500Y-95137500D01*
X186362500Y-96637500D01*
X184862500Y-96637500D01*
G37*
G36*
X181862500Y-99637500D02*
G01*
X181862500Y-98887500D01*
X182862500Y-98887500D01*
X182863556Y-98933571D01*
X182922199Y-99096197D01*
X183112500Y-99137500D01*
X183158572Y-99136444D01*
X183321198Y-99077801D01*
X183362500Y-98887500D01*
X183367237Y-98787169D01*
X183417716Y-98686970D01*
X183565756Y-98645605D01*
X183862500Y-98637500D01*
X184063162Y-98639868D01*
X184263559Y-98665107D01*
X184346289Y-98739127D01*
X184362500Y-98887500D01*
X184363556Y-98933571D01*
X184422199Y-99096197D01*
X184612500Y-99137500D01*
X184658572Y-99136444D01*
X184821198Y-99077801D01*
X184862500Y-98887500D01*
X184861445Y-98841428D01*
X184802802Y-98678802D01*
X184612500Y-98637500D01*
X184566429Y-98636444D01*
X184403803Y-98577801D01*
X184362500Y-98387500D01*
X184357764Y-98287169D01*
X184307285Y-98186970D01*
X184159245Y-98145605D01*
X183862500Y-98137500D01*
X183661839Y-98139868D01*
X183461442Y-98165107D01*
X183378712Y-98239127D01*
X183362500Y-98387500D01*
X183361445Y-98433571D01*
X183302802Y-98596197D01*
X183112500Y-98637500D01*
X183066429Y-98638555D01*
X182903803Y-98697198D01*
X182862500Y-98887500D01*
X181862500Y-98887500D01*
X181862500Y-97637500D01*
X182362500Y-97637500D01*
X183112500Y-97637500D01*
X183375926Y-97636580D01*
X183651994Y-97625158D01*
X183797028Y-97589198D01*
X183853154Y-97514660D01*
X183862500Y-97387500D01*
X183867237Y-97287169D01*
X183917716Y-97186970D01*
X184065756Y-97145605D01*
X184362500Y-97137500D01*
X184563162Y-97139868D01*
X184763559Y-97165107D01*
X184846289Y-97239127D01*
X184862500Y-97387500D01*
X184863556Y-97433571D01*
X184922199Y-97596197D01*
X185112500Y-97637500D01*
X185158572Y-97636444D01*
X185321198Y-97577801D01*
X185362500Y-97387500D01*
X185363556Y-97341428D01*
X185422199Y-97178802D01*
X185612500Y-97137500D01*
X185658572Y-97138555D01*
X185821198Y-97197198D01*
X185862500Y-97387500D01*
X185863556Y-97433571D01*
X185922199Y-97596197D01*
X186112500Y-97637500D01*
X186158572Y-97636444D01*
X186321198Y-97577801D01*
X186362500Y-97387500D01*
X186363556Y-97341428D01*
X186422199Y-97178802D01*
X186612500Y-97137500D01*
X186658572Y-97136444D01*
X186821198Y-97077801D01*
X186862500Y-96887500D01*
X186863556Y-96841428D01*
X186922199Y-96678802D01*
X187112500Y-96637500D01*
X187158572Y-96638555D01*
X187321198Y-96697198D01*
X187362500Y-96887500D01*
X187363556Y-96933571D01*
X187422199Y-97096197D01*
X187612500Y-97137500D01*
X187712831Y-97142236D01*
X187813030Y-97192715D01*
X187854395Y-97340755D01*
X187862500Y-97637500D01*
X187860132Y-97838161D01*
X187834893Y-98038558D01*
X187760873Y-98121288D01*
X187612500Y-98137500D01*
X187566429Y-98136444D01*
X187403803Y-98077801D01*
X187362500Y-97887500D01*
X187361445Y-97841428D01*
X187302802Y-97678802D01*
X187112500Y-97637500D01*
X187066429Y-97638555D01*
X186903803Y-97697198D01*
X186862500Y-97887500D01*
X186863556Y-97933571D01*
X186922199Y-98096197D01*
X187112500Y-98137500D01*
X187158572Y-98138555D01*
X187321198Y-98197198D01*
X187362500Y-98387500D01*
X187359743Y-98475308D01*
X187325475Y-98567331D01*
X187217597Y-98615675D01*
X186993982Y-98634384D01*
X186612500Y-98637500D01*
X186349075Y-98636580D01*
X186073007Y-98625158D01*
X185927973Y-98589198D01*
X185871847Y-98514660D01*
X185862500Y-98387500D01*
X185861445Y-98341428D01*
X185802802Y-98178802D01*
X185612500Y-98137500D01*
X185566429Y-98138555D01*
X185403803Y-98197198D01*
X185362500Y-98387500D01*
X185363556Y-98433571D01*
X185422199Y-98596197D01*
X185612500Y-98637500D01*
X185658572Y-98638555D01*
X185821198Y-98697198D01*
X185862500Y-98887500D01*
X185862500Y-99137500D01*
X187862500Y-99137500D01*
X187862500Y-98887500D01*
X187863556Y-98841428D01*
X187922199Y-98678802D01*
X188112500Y-98637500D01*
X188158572Y-98638555D01*
X188321198Y-98697198D01*
X188362500Y-98887500D01*
X188363556Y-98933571D01*
X188422199Y-99096197D01*
X188612500Y-99137500D01*
X188658572Y-99136444D01*
X188821198Y-99077801D01*
X188862500Y-98887500D01*
X188863556Y-98841428D01*
X188922199Y-98678802D01*
X189112500Y-98637500D01*
X189158572Y-98638555D01*
X189321198Y-98697198D01*
X189362500Y-98887500D01*
X189367237Y-98987830D01*
X189417716Y-99088029D01*
X189565756Y-99129394D01*
X189862500Y-99137500D01*
X190063162Y-99135131D01*
X190263559Y-99109892D01*
X190346289Y-99035872D01*
X190362500Y-98887500D01*
X190363556Y-98841428D01*
X190422199Y-98678802D01*
X190612500Y-98637500D01*
X190658572Y-98636444D01*
X190821198Y-98577801D01*
X190862500Y-98387500D01*
X190863556Y-98341428D01*
X190922199Y-98178802D01*
X191112500Y-98137500D01*
X191158572Y-98138555D01*
X191321198Y-98197198D01*
X191362500Y-98387500D01*
X191363556Y-98433571D01*
X191422199Y-98596197D01*
X191612500Y-98637500D01*
X191658572Y-98636444D01*
X191821198Y-98577801D01*
X191862500Y-98387500D01*
X191861445Y-98341428D01*
X191802802Y-98178802D01*
X191612500Y-98137500D01*
X191566429Y-98136444D01*
X191403803Y-98077801D01*
X191362500Y-97887500D01*
X192362500Y-97887500D01*
X192363556Y-97933571D01*
X192422199Y-98096197D01*
X192612500Y-98137500D01*
X192712831Y-98142236D01*
X192813030Y-98192715D01*
X192854395Y-98340755D01*
X192862500Y-98637500D01*
X192864869Y-98838161D01*
X192890108Y-99038558D01*
X192964128Y-99121288D01*
X193112500Y-99137500D01*
X193158572Y-99136444D01*
X193321198Y-99077801D01*
X193362500Y-98887500D01*
X193367237Y-98787169D01*
X193417716Y-98686970D01*
X193565756Y-98645605D01*
X193862500Y-98637500D01*
X194063162Y-98639868D01*
X194263559Y-98665107D01*
X194346289Y-98739127D01*
X194362500Y-98887500D01*
X194363556Y-98933571D01*
X194422199Y-99096197D01*
X194612500Y-99137500D01*
X194862500Y-99137500D01*
X195362500Y-99137500D01*
X198862500Y-99137500D01*
X198862500Y-95637500D01*
X195362500Y-95637500D01*
X195362500Y-99137500D01*
X194862500Y-99137500D01*
X194862500Y-96637500D01*
X194112500Y-96637500D01*
X193849075Y-96638419D01*
X193573007Y-96649841D01*
X193427973Y-96685801D01*
X193371847Y-96760339D01*
X193362500Y-96887500D01*
X193363556Y-96933571D01*
X193422199Y-97096197D01*
X193612500Y-97137500D01*
X193712831Y-97142236D01*
X193813030Y-97192715D01*
X193854395Y-97340755D01*
X193862500Y-97637500D01*
X193860132Y-97838161D01*
X193834893Y-98038558D01*
X193760873Y-98121288D01*
X193612500Y-98137500D01*
X193566429Y-98136444D01*
X193403803Y-98077801D01*
X193362500Y-97887500D01*
X193357764Y-97787169D01*
X193307285Y-97686970D01*
X193159245Y-97645605D01*
X192862500Y-97637500D01*
X192661839Y-97639868D01*
X192461442Y-97665107D01*
X192378712Y-97739127D01*
X192362500Y-97887500D01*
X191362500Y-97887500D01*
X191361445Y-97841428D01*
X191302802Y-97678802D01*
X191112500Y-97637500D01*
X191066429Y-97636444D01*
X190903803Y-97577801D01*
X190862500Y-97387500D01*
X190867237Y-97287169D01*
X190917716Y-97186970D01*
X191065756Y-97145605D01*
X191362500Y-97137500D01*
X191563162Y-97135131D01*
X191763559Y-97109892D01*
X191846289Y-97035872D01*
X191862500Y-96887500D01*
X191863556Y-96841428D01*
X191922199Y-96678802D01*
X192112500Y-96637500D01*
X192158572Y-96638555D01*
X192321198Y-96697198D01*
X192362500Y-96887500D01*
X192363556Y-96933571D01*
X192422199Y-97096197D01*
X192612500Y-97137500D01*
X192712831Y-97132763D01*
X192813030Y-97082284D01*
X192854395Y-96934244D01*
X192862500Y-96637500D01*
X192860132Y-96436838D01*
X192834893Y-96236441D01*
X192760873Y-96153711D01*
X192612500Y-96137500D01*
X192566429Y-96136444D01*
X192403803Y-96077801D01*
X192362500Y-95887500D01*
X192363556Y-95841428D01*
X192422199Y-95678802D01*
X192612500Y-95637500D01*
X192658572Y-95636444D01*
X192821198Y-95577801D01*
X192862500Y-95387500D01*
X192863556Y-95341428D01*
X192922199Y-95178802D01*
X193112500Y-95137500D01*
X193158572Y-95138555D01*
X193321198Y-95197198D01*
X193362500Y-95387500D01*
X193367237Y-95487830D01*
X193417716Y-95588029D01*
X193565756Y-95629394D01*
X193862500Y-95637500D01*
X194063162Y-95639868D01*
X194263559Y-95665107D01*
X194346289Y-95739127D01*
X194362500Y-95887500D01*
X194363556Y-95933571D01*
X194422199Y-96096197D01*
X194612500Y-96137500D01*
X194712831Y-96132763D01*
X194813030Y-96082284D01*
X194854395Y-95934244D01*
X194862500Y-95637500D01*
X194862500Y-95137500D01*
X195362500Y-95137500D01*
X195563162Y-95135131D01*
X195763559Y-95109892D01*
X195846289Y-95035872D01*
X195862500Y-94887500D01*
X196362500Y-94887500D01*
X196363556Y-94933571D01*
X196422199Y-95096197D01*
X196612500Y-95137500D01*
X196658572Y-95136444D01*
X196821198Y-95077801D01*
X196862500Y-94887500D01*
X197362500Y-94887500D01*
X197363556Y-94933571D01*
X197422199Y-95096197D01*
X197612500Y-95137500D01*
X197658572Y-95136444D01*
X197821198Y-95077801D01*
X197862500Y-94887500D01*
X197861445Y-94841428D01*
X197802802Y-94678802D01*
X197612500Y-94637500D01*
X197566429Y-94638555D01*
X197403803Y-94697198D01*
X197362500Y-94887500D01*
X196862500Y-94887500D01*
X196861445Y-94841428D01*
X196802802Y-94678802D01*
X196612500Y-94637500D01*
X196566429Y-94638555D01*
X196403803Y-94697198D01*
X196362500Y-94887500D01*
X195862500Y-94887500D01*
X195857764Y-94787169D01*
X195807285Y-94686970D01*
X195659245Y-94645605D01*
X195362500Y-94637500D01*
X195161839Y-94635131D01*
X194961442Y-94609892D01*
X194878712Y-94535872D01*
X194862500Y-94387500D01*
X194862500Y-94137500D01*
X197362500Y-94137500D01*
X197362500Y-93887500D01*
X197361445Y-93841428D01*
X197302802Y-93678802D01*
X197112500Y-93637500D01*
X197066429Y-93636444D01*
X196903803Y-93577801D01*
X196862500Y-93387500D01*
X196865258Y-93299691D01*
X196899526Y-93207668D01*
X197007404Y-93159324D01*
X197231019Y-93140615D01*
X197612500Y-93137500D01*
X198362500Y-93137500D01*
X198362500Y-95137500D01*
X198862500Y-95137500D01*
X198862500Y-93137500D01*
X198612500Y-93137500D01*
X198512170Y-93132763D01*
X198411971Y-93082284D01*
X198370606Y-92934244D01*
X198362500Y-92637500D01*
X198362500Y-92137500D01*
X197862500Y-92137500D01*
X197661839Y-92135131D01*
X197461442Y-92109892D01*
X197378712Y-92035872D01*
X197362500Y-91887500D01*
X197367237Y-91787169D01*
X197417716Y-91686970D01*
X197565756Y-91645605D01*
X197862500Y-91637500D01*
X198063162Y-91635131D01*
X198263559Y-91609892D01*
X198346289Y-91535872D01*
X198362500Y-91387500D01*
X198363556Y-91341428D01*
X198422199Y-91178802D01*
X198612500Y-91137500D01*
X198712831Y-91132763D01*
X198813030Y-91082284D01*
X198854395Y-90934244D01*
X198862500Y-90637500D01*
X198862500Y-90137500D01*
X198362500Y-90137500D01*
X198161839Y-90135131D01*
X197961442Y-90109892D01*
X197878712Y-90035872D01*
X197862500Y-89887500D01*
X197861445Y-89841428D01*
X197802802Y-89678802D01*
X197612500Y-89637500D01*
X197566429Y-89638555D01*
X197403803Y-89697198D01*
X197362500Y-89887500D01*
X197361445Y-89933571D01*
X197302802Y-90096197D01*
X197112500Y-90137500D01*
X197066429Y-90138555D01*
X196903803Y-90197198D01*
X196862500Y-90387500D01*
X196861445Y-90433571D01*
X196802802Y-90596197D01*
X196612500Y-90637500D01*
X196566429Y-90638555D01*
X196403803Y-90697198D01*
X196362500Y-90887500D01*
X196361445Y-90933571D01*
X196302802Y-91096197D01*
X196112500Y-91137500D01*
X196066429Y-91136444D01*
X195903803Y-91077801D01*
X195862500Y-90887500D01*
X195861445Y-90841428D01*
X195802802Y-90678802D01*
X195612500Y-90637500D01*
X195566429Y-90636444D01*
X195403803Y-90577801D01*
X195362500Y-90387500D01*
X195367237Y-90287169D01*
X195417716Y-90186970D01*
X195565756Y-90145605D01*
X195862500Y-90137500D01*
X196063162Y-90135131D01*
X196263559Y-90109892D01*
X196346289Y-90035872D01*
X196362500Y-89887500D01*
X196363556Y-89841428D01*
X196422199Y-89678802D01*
X196612500Y-89637500D01*
X196658572Y-89636444D01*
X196821198Y-89577801D01*
X196862500Y-89387500D01*
X196863556Y-89341428D01*
X196922199Y-89178802D01*
X197112500Y-89137500D01*
X197158572Y-89136444D01*
X197321198Y-89077801D01*
X197362500Y-88887500D01*
X197363556Y-88841428D01*
X197422199Y-88678802D01*
X197612500Y-88637500D01*
X197658572Y-88638555D01*
X197821198Y-88697198D01*
X197862500Y-88887500D01*
X197863556Y-88933571D01*
X197922199Y-89096197D01*
X198112500Y-89137500D01*
X198158572Y-89138555D01*
X198321198Y-89197198D01*
X198362500Y-89387500D01*
X198363556Y-89433571D01*
X198422199Y-89596197D01*
X198612500Y-89637500D01*
X198658572Y-89636444D01*
X198821198Y-89577801D01*
X198862500Y-89387500D01*
X198861445Y-89341428D01*
X198802802Y-89178802D01*
X198612500Y-89137500D01*
X198566429Y-89136444D01*
X198403803Y-89077801D01*
X198362500Y-88887500D01*
X198361445Y-88841428D01*
X198302802Y-88678802D01*
X198112500Y-88637500D01*
X198066429Y-88636444D01*
X197903803Y-88577801D01*
X197862500Y-88387500D01*
X197863556Y-88341428D01*
X197922199Y-88178802D01*
X198112500Y-88137500D01*
X198158572Y-88136444D01*
X198321198Y-88077801D01*
X198362500Y-87887500D01*
X198363556Y-87841428D01*
X198422199Y-87678802D01*
X198612500Y-87637500D01*
X198712831Y-87632763D01*
X198813030Y-87582284D01*
X198854395Y-87434244D01*
X198862500Y-87137500D01*
X198862500Y-86637500D01*
X196362500Y-86637500D01*
X196362500Y-86887500D01*
X196361445Y-86933571D01*
X196302802Y-87096197D01*
X196112500Y-87137500D01*
X196066429Y-87136444D01*
X195903803Y-87077801D01*
X195862500Y-86887500D01*
X195859743Y-86799691D01*
X195825475Y-86707668D01*
X195717597Y-86659324D01*
X195493982Y-86640615D01*
X195112500Y-86637500D01*
X194849075Y-86636580D01*
X194573007Y-86625158D01*
X194427973Y-86589198D01*
X194371847Y-86514660D01*
X194362500Y-86387500D01*
X194363556Y-86341428D01*
X194422199Y-86178802D01*
X194612500Y-86137500D01*
X195362500Y-86137500D01*
X198862500Y-86137500D01*
X198862500Y-82637500D01*
X195362500Y-82637500D01*
X195362500Y-86137500D01*
X194612500Y-86137500D01*
X194712831Y-86132763D01*
X194813030Y-86082284D01*
X194854395Y-85934244D01*
X194862500Y-85637500D01*
X194860132Y-85436838D01*
X194834893Y-85236441D01*
X194760873Y-85153711D01*
X194612500Y-85137500D01*
X194566429Y-85136444D01*
X194403803Y-85077801D01*
X194362500Y-84887500D01*
X194363556Y-84841428D01*
X194422199Y-84678802D01*
X194612500Y-84637500D01*
X194658572Y-84636444D01*
X194821198Y-84577801D01*
X194862500Y-84387500D01*
X194859743Y-84299691D01*
X194825475Y-84207668D01*
X194717597Y-84159324D01*
X194493982Y-84140615D01*
X194112500Y-84137500D01*
X193849075Y-84138419D01*
X193573007Y-84149841D01*
X193427973Y-84185801D01*
X193371847Y-84260339D01*
X193362500Y-84387500D01*
X193363556Y-84433571D01*
X193422199Y-84596197D01*
X193612500Y-84637500D01*
X193712831Y-84642236D01*
X193813030Y-84692715D01*
X193854395Y-84840755D01*
X193862500Y-85137500D01*
X193860132Y-85338161D01*
X193834893Y-85538558D01*
X193760873Y-85621288D01*
X193612500Y-85637500D01*
X193566429Y-85636444D01*
X193403803Y-85577801D01*
X193362500Y-85387500D01*
X193357764Y-85287169D01*
X193307285Y-85186970D01*
X193159245Y-85145605D01*
X192862500Y-85137500D01*
X192362500Y-85137500D01*
X192362500Y-85637500D01*
X192364869Y-85838161D01*
X192390108Y-86038558D01*
X192464128Y-86121288D01*
X192612500Y-86137500D01*
X192712831Y-86142236D01*
X192813030Y-86192715D01*
X192854395Y-86340755D01*
X192862500Y-86637500D01*
X192862500Y-87137500D01*
X190862500Y-87137500D01*
X190862500Y-88137500D01*
X191362500Y-88137500D01*
X191563162Y-88139868D01*
X191763559Y-88165107D01*
X191846289Y-88239127D01*
X191862500Y-88387500D01*
X191861445Y-88433571D01*
X191802802Y-88596197D01*
X191612500Y-88637500D01*
X191566429Y-88638555D01*
X191403803Y-88697198D01*
X191362500Y-88887500D01*
X191361445Y-88933571D01*
X191302802Y-89096197D01*
X191112500Y-89137500D01*
X191066429Y-89138555D01*
X190903803Y-89197198D01*
X190862500Y-89387500D01*
X190857764Y-89487830D01*
X190807285Y-89588029D01*
X190659245Y-89629394D01*
X190362500Y-89637500D01*
X190161839Y-89635131D01*
X189961442Y-89609892D01*
X189878712Y-89535872D01*
X189862500Y-89387500D01*
X189863556Y-89341428D01*
X189922199Y-89178802D01*
X190112500Y-89137500D01*
X190158572Y-89136444D01*
X190321198Y-89077801D01*
X190362500Y-88887500D01*
X190361445Y-88841428D01*
X190302802Y-88678802D01*
X190112500Y-88637500D01*
X190066429Y-88638555D01*
X189903803Y-88697198D01*
X189862500Y-88887500D01*
X189861445Y-88933571D01*
X189802802Y-89096197D01*
X189612500Y-89137500D01*
X189512170Y-89132763D01*
X189411971Y-89082284D01*
X189370606Y-88934244D01*
X189362500Y-88637500D01*
X189364869Y-88436838D01*
X189390108Y-88236441D01*
X189464128Y-88153711D01*
X189612500Y-88137500D01*
X189712831Y-88132763D01*
X189813030Y-88082284D01*
X189854395Y-87934244D01*
X189862500Y-87637500D01*
X189864869Y-87436838D01*
X189890108Y-87236441D01*
X189964128Y-87153711D01*
X190112500Y-87137500D01*
X190158572Y-87136444D01*
X190321198Y-87077801D01*
X190362500Y-86887500D01*
X190363556Y-86841428D01*
X190422199Y-86678802D01*
X190612500Y-86637500D01*
X190712831Y-86632763D01*
X190813030Y-86582284D01*
X190854395Y-86434244D01*
X190862500Y-86137500D01*
X191362500Y-86137500D01*
X191364869Y-86338161D01*
X191390108Y-86538558D01*
X191464128Y-86621288D01*
X191612500Y-86637500D01*
X191712831Y-86632763D01*
X191813030Y-86582284D01*
X191854395Y-86434244D01*
X191862500Y-86137500D01*
X191860132Y-85936838D01*
X191834893Y-85736441D01*
X191760873Y-85653711D01*
X191612500Y-85637500D01*
X191512170Y-85642236D01*
X191411971Y-85692715D01*
X191370606Y-85840755D01*
X191362500Y-86137500D01*
X190862500Y-86137500D01*
X190860132Y-85936838D01*
X190834893Y-85736441D01*
X190760873Y-85653711D01*
X190612500Y-85637500D01*
X190512170Y-85642236D01*
X190411971Y-85692715D01*
X190370606Y-85840755D01*
X190362500Y-86137500D01*
X190360132Y-86338161D01*
X190334893Y-86538558D01*
X190260873Y-86621288D01*
X190112500Y-86637500D01*
X190024692Y-86634742D01*
X189932669Y-86600474D01*
X189884325Y-86492596D01*
X189865616Y-86268981D01*
X189862500Y-85887500D01*
X189861581Y-85624074D01*
X189850159Y-85348006D01*
X189814199Y-85202972D01*
X189739661Y-85146846D01*
X189612500Y-85137500D01*
X189566429Y-85136444D01*
X189403803Y-85077801D01*
X189362500Y-84887500D01*
X189361445Y-84841428D01*
X189302802Y-84678802D01*
X189112500Y-84637500D01*
X189066429Y-84636444D01*
X188903803Y-84577801D01*
X188862500Y-84387500D01*
X188863556Y-84341428D01*
X188922199Y-84178802D01*
X189112500Y-84137500D01*
X189158572Y-84136444D01*
X189321198Y-84077801D01*
X189362500Y-83887500D01*
X189365258Y-83799691D01*
X189399526Y-83707668D01*
X189507404Y-83659324D01*
X189731019Y-83640615D01*
X190112500Y-83637500D01*
X190862500Y-83637500D01*
X190862500Y-84137500D01*
X190860132Y-84338161D01*
X190834893Y-84538558D01*
X190760873Y-84621288D01*
X190612500Y-84637500D01*
X190566429Y-84636444D01*
X190403803Y-84577801D01*
X190362500Y-84387500D01*
X190361445Y-84341428D01*
X190302802Y-84178802D01*
X190112500Y-84137500D01*
X190066429Y-84138555D01*
X189903803Y-84197198D01*
X189862500Y-84387500D01*
X189863556Y-84433571D01*
X189922199Y-84596197D01*
X190112500Y-84637500D01*
X190158572Y-84638555D01*
X190321198Y-84697198D01*
X190362500Y-84887500D01*
X190367237Y-84987830D01*
X190417716Y-85088029D01*
X190565756Y-85129394D01*
X190862500Y-85137500D01*
X191063162Y-85135131D01*
X191263559Y-85109892D01*
X191346289Y-85035872D01*
X191362500Y-84887500D01*
X191363556Y-84841428D01*
X191422199Y-84678802D01*
X191612500Y-84637500D01*
X191658572Y-84636444D01*
X191821198Y-84577801D01*
X191862500Y-84387500D01*
X191863556Y-84341428D01*
X191922199Y-84178802D01*
X192112500Y-84137500D01*
X192158572Y-84138555D01*
X192321198Y-84197198D01*
X192362500Y-84387500D01*
X192363556Y-84433571D01*
X192422199Y-84596197D01*
X192612500Y-84637500D01*
X192712831Y-84632763D01*
X192813030Y-84582284D01*
X192854395Y-84434244D01*
X192862500Y-84137500D01*
X192860132Y-83936838D01*
X192834893Y-83736441D01*
X192760873Y-83653711D01*
X192612500Y-83637500D01*
X192566429Y-83636444D01*
X192403803Y-83577801D01*
X192362500Y-83387500D01*
X192363556Y-83341428D01*
X192422199Y-83178802D01*
X192612500Y-83137500D01*
X193362500Y-83137500D01*
X193364869Y-83338161D01*
X193390108Y-83538558D01*
X193464128Y-83621288D01*
X193612500Y-83637500D01*
X193712831Y-83632763D01*
X193813030Y-83582284D01*
X193854395Y-83434244D01*
X193855672Y-83387500D01*
X194362500Y-83387500D01*
X194363556Y-83433571D01*
X194422199Y-83596197D01*
X194612500Y-83637500D01*
X194658572Y-83636444D01*
X194821198Y-83577801D01*
X194862500Y-83387500D01*
X194861445Y-83341428D01*
X194802802Y-83178802D01*
X194612500Y-83137500D01*
X194566429Y-83138555D01*
X194403803Y-83197198D01*
X194362500Y-83387500D01*
X193855672Y-83387500D01*
X193862500Y-83137500D01*
X193860132Y-82936838D01*
X193834893Y-82736441D01*
X193760873Y-82653711D01*
X193612500Y-82637500D01*
X193512170Y-82642236D01*
X193411971Y-82692715D01*
X193370606Y-82840755D01*
X193362500Y-83137500D01*
X192612500Y-83137500D01*
X192658572Y-83136444D01*
X192821198Y-83077801D01*
X192862500Y-82887500D01*
X192862500Y-82637500D01*
X190862500Y-82637500D01*
X190862500Y-82887500D01*
X190859743Y-82975308D01*
X190825475Y-83067331D01*
X190717597Y-83115675D01*
X190493982Y-83134384D01*
X190112500Y-83137500D01*
X189849075Y-83136580D01*
X189573007Y-83125158D01*
X189427973Y-83089198D01*
X189371847Y-83014660D01*
X189362500Y-82887500D01*
X189357764Y-82787169D01*
X189307285Y-82686970D01*
X189159245Y-82645605D01*
X188862500Y-82637500D01*
X188661839Y-82639868D01*
X188461442Y-82665107D01*
X188378712Y-82739127D01*
X188362500Y-82887500D01*
X188361445Y-82933571D01*
X188302802Y-83096197D01*
X188112500Y-83137500D01*
X188066429Y-83138555D01*
X187903803Y-83197198D01*
X187862500Y-83387500D01*
X187861445Y-83433571D01*
X187802802Y-83596197D01*
X187612500Y-83637500D01*
X187566429Y-83638555D01*
X187403803Y-83697198D01*
X187362500Y-83887500D01*
X187357764Y-83987830D01*
X187307285Y-84088029D01*
X187159245Y-84129394D01*
X186862500Y-84137500D01*
X186362500Y-84137500D01*
X186362500Y-86637500D01*
X186112500Y-86637500D01*
X186066429Y-86638555D01*
X185903803Y-86697198D01*
X185862500Y-86887500D01*
X185861445Y-86933571D01*
X185802802Y-87096197D01*
X185612500Y-87137500D01*
X185566429Y-87136444D01*
X185403803Y-87077801D01*
X185362500Y-86887500D01*
X185361445Y-86841428D01*
X185302802Y-86678802D01*
X185112500Y-86637500D01*
X185066429Y-86638555D01*
X184903803Y-86697198D01*
X184862500Y-86887500D01*
X184863556Y-86933571D01*
X184922199Y-87096197D01*
X185112500Y-87137500D01*
X185158572Y-87138555D01*
X185321198Y-87197198D01*
X185362500Y-87387500D01*
X185361445Y-87433571D01*
X185302802Y-87596197D01*
X185112500Y-87637500D01*
X185066429Y-87638555D01*
X184903803Y-87697198D01*
X184862500Y-87887500D01*
X184863556Y-87933571D01*
X184922199Y-88096197D01*
X185112500Y-88137500D01*
X185158572Y-88138555D01*
X185321198Y-88197198D01*
X185362500Y-88387500D01*
X185363556Y-88433571D01*
X185422199Y-88596197D01*
X185612500Y-88637500D01*
X185658572Y-88638555D01*
X185821198Y-88697198D01*
X185862500Y-88887500D01*
X185861445Y-88933571D01*
X185802802Y-89096197D01*
X185612500Y-89137500D01*
X185566429Y-89138555D01*
X185403803Y-89197198D01*
X185362500Y-89387500D01*
X185357764Y-89487830D01*
X185307285Y-89588029D01*
X185159245Y-89629394D01*
X184862500Y-89637500D01*
X184661839Y-89635131D01*
X184461442Y-89609892D01*
X184378712Y-89535872D01*
X184362500Y-89387500D01*
X184363556Y-89341428D01*
X184422199Y-89178802D01*
X184612500Y-89137500D01*
X184658572Y-89136444D01*
X184821198Y-89077801D01*
X184862500Y-88887500D01*
X184861445Y-88841428D01*
X184802802Y-88678802D01*
X184612500Y-88637500D01*
X184566429Y-88638555D01*
X184403803Y-88697198D01*
X184362500Y-88887500D01*
X184361445Y-88933571D01*
X184302802Y-89096197D01*
X184112500Y-89137500D01*
X184012170Y-89142236D01*
X183911971Y-89192715D01*
X183870606Y-89340755D01*
X183862500Y-89637500D01*
X183860132Y-89838161D01*
X183834893Y-90038558D01*
X183760873Y-90121288D01*
X183612500Y-90137500D01*
X183512170Y-90132763D01*
X183411971Y-90082284D01*
X183370606Y-89934244D01*
X183362500Y-89637500D01*
X183362500Y-89137500D01*
X182862500Y-89137500D01*
X182661839Y-89139868D01*
X182461442Y-89165107D01*
X182378712Y-89239127D01*
X182362500Y-89387500D01*
X182363556Y-89433571D01*
X182422199Y-89596197D01*
X182612500Y-89637500D01*
X182658572Y-89638555D01*
X182821198Y-89697198D01*
X182862500Y-89887500D01*
X182863556Y-89933571D01*
X182922199Y-90096197D01*
X183112500Y-90137500D01*
X183158572Y-90138555D01*
X183321198Y-90197198D01*
X183362500Y-90387500D01*
X183361445Y-90433571D01*
X183302802Y-90596197D01*
X183112500Y-90637500D01*
X183066429Y-90638555D01*
X182903803Y-90697198D01*
X182862500Y-90887500D01*
X182861445Y-90933571D01*
X182802802Y-91096197D01*
X182612500Y-91137500D01*
X182566429Y-91138555D01*
X182403803Y-91197198D01*
X182362500Y-91387500D01*
X182363556Y-91433571D01*
X182422199Y-91596197D01*
X182612500Y-91637500D01*
X182658572Y-91638555D01*
X182821198Y-91697198D01*
X182862500Y-91887500D01*
X182863556Y-91933571D01*
X182922199Y-92096197D01*
X183112500Y-92137500D01*
X183158572Y-92138555D01*
X183321198Y-92197198D01*
X183362500Y-92387500D01*
X183361445Y-92433571D01*
X183302802Y-92596197D01*
X183112500Y-92637500D01*
X183066429Y-92638555D01*
X182903803Y-92697198D01*
X182862500Y-92887500D01*
X182861445Y-92933571D01*
X182802802Y-93096197D01*
X182612500Y-93137500D01*
X182566429Y-93138555D01*
X182403803Y-93197198D01*
X182362500Y-93387500D01*
X182363556Y-93433571D01*
X182422199Y-93596197D01*
X182612500Y-93637500D01*
X182658572Y-93638555D01*
X182821198Y-93697198D01*
X182862500Y-93887500D01*
X182863556Y-93933571D01*
X182922199Y-94096197D01*
X183112500Y-94137500D01*
X183158572Y-94138555D01*
X183321198Y-94197198D01*
X183362500Y-94387500D01*
X183367237Y-94487830D01*
X183417716Y-94588029D01*
X183565756Y-94629394D01*
X183862500Y-94637500D01*
X184063162Y-94639868D01*
X184263559Y-94665107D01*
X184346289Y-94739127D01*
X184362500Y-94887500D01*
X184361445Y-94933571D01*
X184302802Y-95096197D01*
X184112500Y-95137500D01*
X184012170Y-95142236D01*
X183911971Y-95192715D01*
X183870606Y-95340755D01*
X183862500Y-95637500D01*
X183860132Y-95838161D01*
X183834893Y-96038558D01*
X183760873Y-96121288D01*
X183612500Y-96137500D01*
X183566429Y-96136444D01*
X183403803Y-96077801D01*
X183362500Y-95887500D01*
X183361445Y-95841428D01*
X183302802Y-95678802D01*
X183112500Y-95637500D01*
X183012170Y-95632763D01*
X182911971Y-95582284D01*
X182870606Y-95434244D01*
X182862500Y-95137500D01*
X182860132Y-94936838D01*
X182834893Y-94736441D01*
X182760873Y-94653711D01*
X182612500Y-94637500D01*
X182512170Y-94642236D01*
X182411971Y-94692715D01*
X182370606Y-94840755D01*
X182362500Y-95137500D01*
X182364869Y-95338161D01*
X182390108Y-95538558D01*
X182464128Y-95621288D01*
X182612500Y-95637500D01*
X182712831Y-95642236D01*
X182813030Y-95692715D01*
X182854395Y-95840755D01*
X182862500Y-96137500D01*
X182860132Y-96338161D01*
X182834893Y-96538558D01*
X182760873Y-96621288D01*
X182612500Y-96637500D01*
X182512170Y-96642236D01*
X182411971Y-96692715D01*
X182370606Y-96840755D01*
X182362500Y-97137500D01*
X182362500Y-97637500D01*
X181862500Y-97637500D01*
X181862500Y-88387500D01*
X183362500Y-88387500D01*
X183363556Y-88433571D01*
X183422199Y-88596197D01*
X183612500Y-88637500D01*
X183658572Y-88636444D01*
X183821198Y-88577801D01*
X183862500Y-88387500D01*
X183861445Y-88341428D01*
X183802802Y-88178802D01*
X183612500Y-88137500D01*
X183566429Y-88138555D01*
X183403803Y-88197198D01*
X183362500Y-88387500D01*
X181862500Y-88387500D01*
X181862500Y-87387500D01*
X182362500Y-87387500D01*
X182367237Y-87487830D01*
X182417716Y-87588029D01*
X182565756Y-87629394D01*
X182862500Y-87637500D01*
X183362500Y-87637500D01*
X183362500Y-87137500D01*
X183360132Y-86936838D01*
X183353918Y-86887500D01*
X183862500Y-86887500D01*
X183863556Y-86933571D01*
X183922199Y-87096197D01*
X184112500Y-87137500D01*
X184158572Y-87136444D01*
X184321198Y-87077801D01*
X184362500Y-86887500D01*
X184361445Y-86841428D01*
X184302802Y-86678802D01*
X184112500Y-86637500D01*
X184066429Y-86638555D01*
X183903803Y-86697198D01*
X183862500Y-86887500D01*
X183353918Y-86887500D01*
X183334893Y-86736441D01*
X183260873Y-86653711D01*
X183112500Y-86637500D01*
X183066429Y-86638555D01*
X182903803Y-86697198D01*
X182862500Y-86887500D01*
X182861445Y-86933571D01*
X182802802Y-87096197D01*
X182612500Y-87137500D01*
X182566429Y-87138555D01*
X182403803Y-87197198D01*
X182362500Y-87387500D01*
X181862500Y-87387500D01*
X181862500Y-86137500D01*
X182362500Y-86137500D01*
X185862500Y-86137500D01*
X185862500Y-82637500D01*
X182362500Y-82637500D01*
X182362500Y-86137500D01*
X181862500Y-86137500D01*
X181862500Y-82137500D01*
X199362500Y-82137500D01*
X199362500Y-99637500D01*
X181862500Y-99637500D01*
G37*
G36*
X182862500Y-85637500D02*
G01*
X182862500Y-85137500D01*
X183362500Y-85137500D01*
X184862500Y-85137500D01*
X184862500Y-83637500D01*
X183362500Y-83637500D01*
X183362500Y-85137500D01*
X182862500Y-85137500D01*
X182862500Y-83137500D01*
X185362500Y-83137500D01*
X185362500Y-85637500D01*
X182862500Y-85637500D01*
G37*
G36*
X191658572Y-83638555D02*
G01*
X191821198Y-83697198D01*
X191862500Y-83887500D01*
X191861445Y-83933571D01*
X191802802Y-84096197D01*
X191612500Y-84137500D01*
X191566429Y-84136444D01*
X191403803Y-84077801D01*
X191362500Y-83887500D01*
X191363556Y-83841428D01*
X191422199Y-83678802D01*
X191612500Y-83637500D01*
X191658572Y-83638555D01*
G37*
G36*
X195862500Y-85637500D02*
G01*
X195862500Y-85137500D01*
X196362500Y-85137500D01*
X197862500Y-85137500D01*
X197862500Y-83637500D01*
X196362500Y-83637500D01*
X196362500Y-85137500D01*
X195862500Y-85137500D01*
X195862500Y-83137500D01*
X198362500Y-83137500D01*
X198362500Y-85637500D01*
X195862500Y-85637500D01*
G37*
G36*
X195862500Y-98637500D02*
G01*
X195862500Y-98137500D01*
X196362500Y-98137500D01*
X197862500Y-98137500D01*
X197862500Y-96637500D01*
X196362500Y-96637500D01*
X196362500Y-98137500D01*
X195862500Y-98137500D01*
X195862500Y-96137500D01*
X198362500Y-96137500D01*
X198362500Y-98637500D01*
X195862500Y-98637500D01*
G37*
G36*
X193158572Y-85638555D02*
G01*
X193321198Y-85697198D01*
X193362500Y-85887500D01*
X193361445Y-85933571D01*
X193302802Y-86096197D01*
X193112500Y-86137500D01*
X193066429Y-86136444D01*
X192903803Y-86077801D01*
X192862500Y-85887500D01*
X192863556Y-85841428D01*
X192922199Y-85678802D01*
X193112500Y-85637500D01*
X193158572Y-85638555D01*
G37*
G36*
X187964128Y-88621288D02*
G01*
X188112500Y-88637500D01*
X188158572Y-88636444D01*
X188321198Y-88577801D01*
X188362500Y-88387500D01*
X188363556Y-88341428D01*
X188422199Y-88178802D01*
X188612500Y-88137500D01*
X188658572Y-88136444D01*
X188821198Y-88077801D01*
X188862500Y-87887500D01*
X188863556Y-87841428D01*
X188922199Y-87678802D01*
X189112500Y-87637500D01*
X189158572Y-87638555D01*
X189321198Y-87697198D01*
X189362500Y-87887500D01*
X189361445Y-87933571D01*
X189302802Y-88096197D01*
X189112500Y-88137500D01*
X189012170Y-88142236D01*
X188911971Y-88192715D01*
X188870606Y-88340755D01*
X188862500Y-88637500D01*
X188862500Y-89137500D01*
X188362500Y-89137500D01*
X188161839Y-89135131D01*
X187961442Y-89109892D01*
X187878712Y-89035872D01*
X187862500Y-88887500D01*
X187861445Y-88841428D01*
X187802802Y-88678802D01*
X187612500Y-88637500D01*
X187566429Y-88638555D01*
X187403803Y-88697198D01*
X187362500Y-88887500D01*
X187357764Y-88987830D01*
X187307285Y-89088029D01*
X187159245Y-89129394D01*
X186862500Y-89137500D01*
X186661839Y-89139868D01*
X186461442Y-89165107D01*
X186378712Y-89239127D01*
X186362500Y-89387500D01*
X186361445Y-89433571D01*
X186302802Y-89596197D01*
X186112500Y-89637500D01*
X186066429Y-89636444D01*
X185903803Y-89577801D01*
X185862500Y-89387500D01*
X185863556Y-89341428D01*
X185922199Y-89178802D01*
X186112500Y-89137500D01*
X186158572Y-89136444D01*
X186321198Y-89077801D01*
X186362500Y-88887500D01*
X186361445Y-88841428D01*
X186302802Y-88678802D01*
X186112500Y-88637500D01*
X186066429Y-88636444D01*
X185903803Y-88577801D01*
X185862500Y-88387500D01*
X186362500Y-88387500D01*
X186367237Y-88487830D01*
X186417716Y-88588029D01*
X186565756Y-88629394D01*
X186862500Y-88637500D01*
X187063162Y-88635131D01*
X187263559Y-88609892D01*
X187346289Y-88535872D01*
X187362500Y-88387500D01*
X187357764Y-88287169D01*
X187307285Y-88186970D01*
X187159245Y-88145605D01*
X186862500Y-88137500D01*
X186661839Y-88139868D01*
X186461442Y-88165107D01*
X186378712Y-88239127D01*
X186362500Y-88387500D01*
X185862500Y-88387500D01*
X185861445Y-88341428D01*
X185802802Y-88178802D01*
X185612500Y-88137500D01*
X185566429Y-88136444D01*
X185403803Y-88077801D01*
X185362500Y-87887500D01*
X185362500Y-87637500D01*
X187862500Y-87637500D01*
X187862500Y-88137500D01*
X187864869Y-88338161D01*
X187871083Y-88387500D01*
X187890108Y-88538558D01*
X187964128Y-88621288D01*
G37*
G36*
X195658572Y-87138555D02*
G01*
X195821198Y-87197198D01*
X195862500Y-87387500D01*
X195861445Y-87433571D01*
X195802802Y-87596197D01*
X195612500Y-87637500D01*
X195566429Y-87636444D01*
X195403803Y-87577801D01*
X195362500Y-87387500D01*
X195363556Y-87341428D01*
X195422199Y-87178802D01*
X195612500Y-87137500D01*
X195658572Y-87138555D01*
G37*
G36*
X193364869Y-93338161D02*
G01*
X193390108Y-93538558D01*
X193464128Y-93621288D01*
X193612500Y-93637500D01*
X193658572Y-93636444D01*
X193821198Y-93577801D01*
X193862500Y-93387500D01*
X193863556Y-93341428D01*
X193922199Y-93178802D01*
X194112500Y-93137500D01*
X194158572Y-93138555D01*
X194321198Y-93197198D01*
X194362500Y-93387500D01*
X194363556Y-93433571D01*
X194422199Y-93596197D01*
X194612500Y-93637500D01*
X194700309Y-93634742D01*
X194792332Y-93600474D01*
X194840676Y-93492596D01*
X194859385Y-93268981D01*
X194862500Y-92887500D01*
X195362500Y-92887500D01*
X195367237Y-92987830D01*
X195417716Y-93088029D01*
X195565756Y-93129394D01*
X195862500Y-93137500D01*
X196063162Y-93135131D01*
X196263559Y-93109892D01*
X196346289Y-93035872D01*
X196362500Y-92887500D01*
X196357764Y-92787169D01*
X196307285Y-92686970D01*
X196159245Y-92645605D01*
X195862500Y-92637500D01*
X195661839Y-92639868D01*
X195461442Y-92665107D01*
X195378712Y-92739127D01*
X195362500Y-92887500D01*
X194862500Y-92887500D01*
X194862500Y-92137500D01*
X196362500Y-92137500D01*
X196362500Y-91137500D01*
X196862500Y-91137500D01*
X197063162Y-91135131D01*
X197263559Y-91109892D01*
X197346289Y-91035872D01*
X197362500Y-90887500D01*
X197367237Y-90787169D01*
X197417716Y-90686970D01*
X197565756Y-90645605D01*
X197862500Y-90637500D01*
X198063162Y-90639868D01*
X198263559Y-90665107D01*
X198346289Y-90739127D01*
X198362500Y-90887500D01*
X198357764Y-90987830D01*
X198307285Y-91088029D01*
X198159245Y-91129394D01*
X197862500Y-91137500D01*
X197661839Y-91139868D01*
X197461442Y-91165107D01*
X197378712Y-91239127D01*
X197362500Y-91387500D01*
X197361445Y-91433571D01*
X197302802Y-91596197D01*
X197112500Y-91637500D01*
X197066429Y-91638555D01*
X196903803Y-91697198D01*
X196862500Y-91887500D01*
X196863556Y-91933571D01*
X196922199Y-92096197D01*
X197112500Y-92137500D01*
X197158572Y-92138555D01*
X197321198Y-92197198D01*
X197362500Y-92387500D01*
X197361445Y-92433571D01*
X197302802Y-92596197D01*
X197112500Y-92637500D01*
X197066429Y-92638555D01*
X196903803Y-92697198D01*
X196862500Y-92887500D01*
X196861445Y-92933571D01*
X196802802Y-93096197D01*
X196612500Y-93137500D01*
X196566429Y-93138555D01*
X196403803Y-93197198D01*
X196362500Y-93387500D01*
X196359743Y-93475308D01*
X196325475Y-93567331D01*
X196217597Y-93615675D01*
X195993982Y-93634384D01*
X195612500Y-93637500D01*
X195349075Y-93638419D01*
X195073007Y-93649841D01*
X194927973Y-93685801D01*
X194871847Y-93760339D01*
X194862500Y-93887500D01*
X194859743Y-93975308D01*
X194825475Y-94067331D01*
X194717597Y-94115675D01*
X194493982Y-94134384D01*
X194112500Y-94137500D01*
X193849075Y-94136580D01*
X193573007Y-94125158D01*
X193427973Y-94089198D01*
X193371847Y-94014660D01*
X193362500Y-93887500D01*
X193357764Y-93787169D01*
X193307285Y-93686970D01*
X193159245Y-93645605D01*
X192862500Y-93637500D01*
X192661839Y-93639868D01*
X192461442Y-93665107D01*
X192378712Y-93739127D01*
X192362500Y-93887500D01*
X192363556Y-93933571D01*
X192422199Y-94096197D01*
X192612500Y-94137500D01*
X192712831Y-94142236D01*
X192813030Y-94192715D01*
X192854395Y-94340755D01*
X192855672Y-94387500D01*
X192862500Y-94637500D01*
X192862500Y-95137500D01*
X192112500Y-95137500D01*
X191849075Y-95138419D01*
X191573007Y-95149841D01*
X191427973Y-95185801D01*
X191371847Y-95260339D01*
X191362500Y-95387500D01*
X191361445Y-95433571D01*
X191302802Y-95596197D01*
X191112500Y-95637500D01*
X191066429Y-95638555D01*
X190903803Y-95697198D01*
X190862500Y-95887500D01*
X190867237Y-95987830D01*
X190917716Y-96088029D01*
X191065756Y-96129394D01*
X191362500Y-96137500D01*
X191563162Y-96139868D01*
X191763559Y-96165107D01*
X191846289Y-96239127D01*
X191862500Y-96387500D01*
X191857764Y-96487830D01*
X191807285Y-96588029D01*
X191659245Y-96629394D01*
X191362500Y-96637500D01*
X191161839Y-96635131D01*
X190961442Y-96609892D01*
X190878712Y-96535872D01*
X190862500Y-96387500D01*
X190861445Y-96341428D01*
X190802802Y-96178802D01*
X190612500Y-96137500D01*
X190566429Y-96138555D01*
X190403803Y-96197198D01*
X190362500Y-96387500D01*
X190361445Y-96433571D01*
X190302802Y-96596197D01*
X190112500Y-96637500D01*
X190066429Y-96638555D01*
X189903803Y-96697198D01*
X189862500Y-96887500D01*
X189863556Y-96933571D01*
X189922199Y-97096197D01*
X190112500Y-97137500D01*
X190200309Y-97140257D01*
X190292332Y-97174525D01*
X190340676Y-97282403D01*
X190359385Y-97506018D01*
X190362500Y-97887500D01*
X190361581Y-98150925D01*
X190350159Y-98426993D01*
X190314199Y-98572027D01*
X190239661Y-98628153D01*
X190112500Y-98637500D01*
X190066429Y-98636444D01*
X189903803Y-98577801D01*
X189862500Y-98387500D01*
X189857764Y-98287169D01*
X189807285Y-98186970D01*
X189659245Y-98145605D01*
X189362500Y-98137500D01*
X189161839Y-98139868D01*
X188961442Y-98165107D01*
X188878712Y-98239127D01*
X188862500Y-98387500D01*
X188861445Y-98433571D01*
X188802802Y-98596197D01*
X188612500Y-98637500D01*
X188512170Y-98632763D01*
X188411971Y-98582284D01*
X188370606Y-98434244D01*
X188362500Y-98137500D01*
X188362500Y-97637500D01*
X188862500Y-97637500D01*
X189063162Y-97635131D01*
X189263559Y-97609892D01*
X189346289Y-97535872D01*
X189362500Y-97387500D01*
X189359743Y-97299691D01*
X189325475Y-97207668D01*
X189217597Y-97159324D01*
X188993982Y-97140615D01*
X188612500Y-97137500D01*
X188349075Y-97136580D01*
X188073007Y-97125158D01*
X187927973Y-97089198D01*
X187871847Y-97014660D01*
X187862500Y-96887500D01*
X187867237Y-96787169D01*
X187917716Y-96686970D01*
X188065756Y-96645605D01*
X188362500Y-96637500D01*
X188563162Y-96635131D01*
X188763559Y-96609892D01*
X188846289Y-96535872D01*
X188862500Y-96387500D01*
X189362500Y-96387500D01*
X189363556Y-96433571D01*
X189422199Y-96596197D01*
X189612500Y-96637500D01*
X189658572Y-96636444D01*
X189821198Y-96577801D01*
X189862500Y-96387500D01*
X189861445Y-96341428D01*
X189802802Y-96178802D01*
X189612500Y-96137500D01*
X189566429Y-96138555D01*
X189403803Y-96197198D01*
X189362500Y-96387500D01*
X188862500Y-96387500D01*
X188857764Y-96287169D01*
X188807285Y-96186970D01*
X188659245Y-96145605D01*
X188362500Y-96137500D01*
X188161839Y-96135131D01*
X187961442Y-96109892D01*
X187878712Y-96035872D01*
X187862500Y-95887500D01*
X187861445Y-95841428D01*
X187802802Y-95678802D01*
X187612500Y-95637500D01*
X187566429Y-95636444D01*
X187403803Y-95577801D01*
X187362500Y-95387500D01*
X187361445Y-95341428D01*
X187302802Y-95178802D01*
X187112500Y-95137500D01*
X187024692Y-95134742D01*
X186932669Y-95100474D01*
X186884325Y-94992596D01*
X186875532Y-94887500D01*
X187362500Y-94887500D01*
X187363556Y-94933571D01*
X187422199Y-95096197D01*
X187612500Y-95137500D01*
X187658572Y-95136444D01*
X187821198Y-95077801D01*
X187862500Y-94887500D01*
X187867237Y-94787169D01*
X187917716Y-94686970D01*
X188065756Y-94645605D01*
X188362500Y-94637500D01*
X188862500Y-94637500D01*
X188862500Y-95637500D01*
X189612500Y-95637500D01*
X189875926Y-95636580D01*
X190151994Y-95625158D01*
X190297028Y-95589198D01*
X190353154Y-95514660D01*
X190362500Y-95387500D01*
X190367237Y-95287169D01*
X190417716Y-95186970D01*
X190565756Y-95145605D01*
X190862500Y-95137500D01*
X191063162Y-95135131D01*
X191263559Y-95109892D01*
X191346289Y-95035872D01*
X191362500Y-94887500D01*
X191363556Y-94841428D01*
X191422199Y-94678802D01*
X191612500Y-94637500D01*
X191658572Y-94636444D01*
X191821198Y-94577801D01*
X191862500Y-94387500D01*
X191861445Y-94341428D01*
X191802802Y-94178802D01*
X191612500Y-94137500D01*
X191566429Y-94136444D01*
X191403803Y-94077801D01*
X191362500Y-93887500D01*
X191361445Y-93841428D01*
X191302802Y-93678802D01*
X191112500Y-93637500D01*
X191012170Y-93642236D01*
X190911971Y-93692715D01*
X190870606Y-93840755D01*
X190862500Y-94137500D01*
X190862500Y-94637500D01*
X190362500Y-94637500D01*
X190161839Y-94635131D01*
X189961442Y-94609892D01*
X189878712Y-94535872D01*
X189862500Y-94387500D01*
X189862500Y-94137500D01*
X187862500Y-94137500D01*
X187862500Y-94387500D01*
X187861445Y-94433571D01*
X187802802Y-94596197D01*
X187612500Y-94637500D01*
X187566429Y-94638555D01*
X187403803Y-94697198D01*
X187362500Y-94887500D01*
X186875532Y-94887500D01*
X186865616Y-94768981D01*
X186862500Y-94387500D01*
X186862500Y-93637500D01*
X186362500Y-93637500D01*
X186161839Y-93635131D01*
X185961442Y-93609892D01*
X185878712Y-93535872D01*
X185862500Y-93387500D01*
X186862500Y-93387500D01*
X186863556Y-93433571D01*
X186922199Y-93596197D01*
X187112500Y-93637500D01*
X187158572Y-93636444D01*
X187321198Y-93577801D01*
X187362500Y-93387500D01*
X187361445Y-93341428D01*
X187302802Y-93178802D01*
X187112500Y-93137500D01*
X187066429Y-93138555D01*
X186903803Y-93197198D01*
X186862500Y-93387500D01*
X185862500Y-93387500D01*
X185861445Y-93341428D01*
X185802802Y-93178802D01*
X185612500Y-93137500D01*
X185512170Y-93142236D01*
X185411971Y-93192715D01*
X185370606Y-93340755D01*
X185362500Y-93637500D01*
X185364869Y-93838161D01*
X185390108Y-94038558D01*
X185464128Y-94121288D01*
X185612500Y-94137500D01*
X185658572Y-94138555D01*
X185821198Y-94197198D01*
X185862500Y-94387500D01*
X185861445Y-94433571D01*
X185802802Y-94596197D01*
X185612500Y-94637500D01*
X185566429Y-94636444D01*
X185403803Y-94577801D01*
X185362500Y-94387500D01*
X185361445Y-94341428D01*
X185302802Y-94178802D01*
X185112500Y-94137500D01*
X185066429Y-94138555D01*
X184903803Y-94197198D01*
X184862500Y-94387500D01*
X184861445Y-94433571D01*
X184802802Y-94596197D01*
X184612500Y-94637500D01*
X184566429Y-94636444D01*
X184403803Y-94577801D01*
X184362500Y-94387500D01*
X184363556Y-94341428D01*
X184422199Y-94178802D01*
X184612500Y-94137500D01*
X184658572Y-94136444D01*
X184821198Y-94077801D01*
X184862500Y-93887500D01*
X184861445Y-93841428D01*
X184802802Y-93678802D01*
X184612500Y-93637500D01*
X184566429Y-93636444D01*
X184403803Y-93577801D01*
X184362500Y-93387500D01*
X184367237Y-93287169D01*
X184417716Y-93186970D01*
X184565756Y-93145605D01*
X184862500Y-93137500D01*
X185063162Y-93135131D01*
X185263559Y-93109892D01*
X185346289Y-93035872D01*
X185362500Y-92887500D01*
X185361445Y-92841428D01*
X185302802Y-92678802D01*
X185112500Y-92637500D01*
X185012170Y-92632763D01*
X184911971Y-92582284D01*
X184870606Y-92434244D01*
X184862500Y-92137500D01*
X185362500Y-92137500D01*
X185862500Y-92137500D01*
X186063162Y-92135131D01*
X186263559Y-92109892D01*
X186346289Y-92035872D01*
X186362500Y-91887500D01*
X186361445Y-91841428D01*
X186302802Y-91678802D01*
X186112500Y-91637500D01*
X186066429Y-91636444D01*
X185903803Y-91577801D01*
X185862500Y-91387500D01*
X185861445Y-91341428D01*
X185802802Y-91178802D01*
X185612500Y-91137500D01*
X185512170Y-91142236D01*
X185411971Y-91192715D01*
X185370606Y-91340755D01*
X185362500Y-91637500D01*
X185362500Y-92137500D01*
X184862500Y-92137500D01*
X184860132Y-91936838D01*
X184834893Y-91736441D01*
X184760873Y-91653711D01*
X184612500Y-91637500D01*
X184566429Y-91636444D01*
X184403803Y-91577801D01*
X184362500Y-91387500D01*
X184361445Y-91341428D01*
X184302802Y-91178802D01*
X184112500Y-91137500D01*
X184012170Y-91142236D01*
X183911971Y-91192715D01*
X183870606Y-91340755D01*
X183862500Y-91637500D01*
X183860132Y-91838161D01*
X183834893Y-92038558D01*
X183760873Y-92121288D01*
X183612500Y-92137500D01*
X183524692Y-92134742D01*
X183432669Y-92100474D01*
X183384325Y-91992596D01*
X183365616Y-91768981D01*
X183362500Y-91387500D01*
X183363420Y-91124074D01*
X183374842Y-90848006D01*
X183410802Y-90702972D01*
X183485340Y-90646846D01*
X183612500Y-90637500D01*
X183658572Y-90636444D01*
X183821198Y-90577801D01*
X183862500Y-90387500D01*
X183863556Y-90341428D01*
X183922199Y-90178802D01*
X184112500Y-90137500D01*
X184212831Y-90142236D01*
X184313030Y-90192715D01*
X184354395Y-90340755D01*
X184362500Y-90637500D01*
X184362500Y-91137500D01*
X184862500Y-91137500D01*
X185063162Y-91135131D01*
X185263559Y-91109892D01*
X185346289Y-91035872D01*
X185362500Y-90887500D01*
X185361445Y-90841428D01*
X185302802Y-90678802D01*
X185112500Y-90637500D01*
X185066429Y-90636444D01*
X184903803Y-90577801D01*
X184862500Y-90387500D01*
X184863556Y-90341428D01*
X184922199Y-90178802D01*
X185112500Y-90137500D01*
X185158572Y-90138555D01*
X185321198Y-90197198D01*
X185362500Y-90387500D01*
X185363556Y-90433571D01*
X185422199Y-90596197D01*
X185612500Y-90637500D01*
X185658572Y-90638555D01*
X185821198Y-90697198D01*
X185862500Y-90887500D01*
X185863556Y-90933571D01*
X185922199Y-91096197D01*
X186112500Y-91137500D01*
X186212831Y-91132763D01*
X186313030Y-91082284D01*
X186354395Y-90934244D01*
X186362500Y-90637500D01*
X186364869Y-90436838D01*
X186390108Y-90236441D01*
X186464128Y-90153711D01*
X186612500Y-90137500D01*
X186658572Y-90136444D01*
X186821198Y-90077801D01*
X186862500Y-89887500D01*
X186863556Y-89841428D01*
X186922199Y-89678802D01*
X187112500Y-89637500D01*
X187200309Y-89640257D01*
X187292332Y-89674525D01*
X187340676Y-89782403D01*
X187359385Y-90006018D01*
X187362500Y-90387500D01*
X187361581Y-90650925D01*
X187350159Y-90926993D01*
X187314199Y-91072027D01*
X187239661Y-91128153D01*
X187112500Y-91137500D01*
X187066429Y-91138555D01*
X186903803Y-91197198D01*
X186862500Y-91387500D01*
X186863556Y-91433571D01*
X186922199Y-91596197D01*
X187112500Y-91637500D01*
X187158572Y-91638555D01*
X187321198Y-91697198D01*
X187362500Y-91887500D01*
X187363556Y-91933571D01*
X187422199Y-92096197D01*
X187612500Y-92137500D01*
X187658572Y-92138555D01*
X187821198Y-92197198D01*
X187862500Y-92387500D01*
X187861445Y-92433571D01*
X187802802Y-92596197D01*
X187612500Y-92637500D01*
X187566429Y-92638555D01*
X187403803Y-92697198D01*
X187362500Y-92887500D01*
X187363556Y-92933571D01*
X187422199Y-93096197D01*
X187612500Y-93137500D01*
X187658572Y-93138555D01*
X187821198Y-93197198D01*
X187862500Y-93387500D01*
X187862500Y-93637500D01*
X189862500Y-93637500D01*
X189862500Y-93887500D01*
X189863556Y-93933571D01*
X189922199Y-94096197D01*
X190112500Y-94137500D01*
X190200309Y-94134742D01*
X190292332Y-94100474D01*
X190340676Y-93992596D01*
X190359385Y-93768981D01*
X190362500Y-93387500D01*
X190362500Y-92637500D01*
X189612500Y-92637500D01*
X189349075Y-92638419D01*
X189073007Y-92649841D01*
X188927973Y-92685801D01*
X188871847Y-92760339D01*
X188862500Y-92887500D01*
X188861445Y-92933571D01*
X188802802Y-93096197D01*
X188612500Y-93137500D01*
X188566429Y-93136444D01*
X188403803Y-93077801D01*
X188362500Y-92887500D01*
X188363556Y-92841428D01*
X188422199Y-92678802D01*
X188612500Y-92637500D01*
X188712831Y-92632763D01*
X188813030Y-92582284D01*
X188854395Y-92434244D01*
X188862500Y-92137500D01*
X188862500Y-91637500D01*
X189362500Y-91637500D01*
X189563162Y-91635131D01*
X189763559Y-91609892D01*
X189846289Y-91535872D01*
X189862500Y-91387500D01*
X189862500Y-91137500D01*
X187862500Y-91137500D01*
X187862500Y-90887500D01*
X189862500Y-90887500D01*
X189865258Y-90975308D01*
X189899526Y-91067331D01*
X190007404Y-91115675D01*
X190231019Y-91134384D01*
X190612500Y-91137500D01*
X190875926Y-91138419D01*
X191151994Y-91149841D01*
X191297028Y-91185801D01*
X191353154Y-91260339D01*
X191362500Y-91387500D01*
X191361445Y-91433571D01*
X191302802Y-91596197D01*
X191112500Y-91637500D01*
X191066429Y-91638555D01*
X190903803Y-91697198D01*
X190862500Y-91887500D01*
X190861445Y-91933571D01*
X190802802Y-92096197D01*
X190612500Y-92137500D01*
X190566429Y-92138555D01*
X190403803Y-92197198D01*
X190362500Y-92387500D01*
X190363556Y-92433571D01*
X190422199Y-92596197D01*
X190612500Y-92637500D01*
X190658572Y-92636444D01*
X190821198Y-92577801D01*
X190862500Y-92387500D01*
X190867237Y-92287169D01*
X190917716Y-92186970D01*
X191065756Y-92145605D01*
X191362500Y-92137500D01*
X191563162Y-92139868D01*
X191763559Y-92165107D01*
X191846289Y-92239127D01*
X191862500Y-92387500D01*
X191861445Y-92433571D01*
X191802802Y-92596197D01*
X191612500Y-92637500D01*
X191566429Y-92638555D01*
X191403803Y-92697198D01*
X191362500Y-92887500D01*
X191363556Y-92933571D01*
X191422199Y-93096197D01*
X191612500Y-93137500D01*
X191658572Y-93136444D01*
X191821198Y-93077801D01*
X191862500Y-92887500D01*
X191863556Y-92841428D01*
X191922199Y-92678802D01*
X192112500Y-92637500D01*
X192158572Y-92638555D01*
X192321198Y-92697198D01*
X192362500Y-92887500D01*
X192363556Y-92933571D01*
X192422199Y-93096197D01*
X192612500Y-93137500D01*
X192712831Y-93132763D01*
X192813030Y-93082284D01*
X192854395Y-92934244D01*
X192862500Y-92637500D01*
X192860132Y-92436838D01*
X192834893Y-92236441D01*
X192760873Y-92153711D01*
X192612500Y-92137500D01*
X192566429Y-92136444D01*
X192403803Y-92077801D01*
X192362500Y-91887500D01*
X192363556Y-91841428D01*
X192422199Y-91678802D01*
X192612500Y-91637500D01*
X192658572Y-91636444D01*
X192821198Y-91577801D01*
X192862500Y-91387500D01*
X192859743Y-91299691D01*
X192825475Y-91207668D01*
X192717597Y-91159324D01*
X192493982Y-91140615D01*
X192112500Y-91137500D01*
X191849075Y-91136580D01*
X191573007Y-91125158D01*
X191427973Y-91089198D01*
X191371847Y-91014660D01*
X191362500Y-90887500D01*
X191363556Y-90841428D01*
X191422199Y-90678802D01*
X191612500Y-90637500D01*
X191658572Y-90636444D01*
X191821198Y-90577801D01*
X191862500Y-90387500D01*
X191861445Y-90341428D01*
X191802802Y-90178802D01*
X191612500Y-90137500D01*
X191566429Y-90138555D01*
X191403803Y-90197198D01*
X191362500Y-90387500D01*
X191359743Y-90475308D01*
X191325475Y-90567331D01*
X191217597Y-90615675D01*
X190993982Y-90634384D01*
X190612500Y-90637500D01*
X190349075Y-90638419D01*
X190073007Y-90649841D01*
X189927973Y-90685801D01*
X189871847Y-90760339D01*
X189862500Y-90887500D01*
X187862500Y-90887500D01*
X187863556Y-90841428D01*
X187922199Y-90678802D01*
X188112500Y-90637500D01*
X188158572Y-90636444D01*
X188321198Y-90577801D01*
X188362500Y-90387500D01*
X188363556Y-90341428D01*
X188422199Y-90178802D01*
X188612500Y-90137500D01*
X188658572Y-90136444D01*
X188821198Y-90077801D01*
X188862500Y-89887500D01*
X188863556Y-89841428D01*
X188922199Y-89678802D01*
X189112500Y-89637500D01*
X189158572Y-89638555D01*
X189321198Y-89697198D01*
X189362500Y-89887500D01*
X189362500Y-90137500D01*
X191362500Y-90137500D01*
X191362500Y-89637500D01*
X191364869Y-89436838D01*
X191390108Y-89236441D01*
X191464128Y-89153711D01*
X191612500Y-89137500D01*
X191658572Y-89136444D01*
X191821198Y-89077801D01*
X191862500Y-88887500D01*
X191863556Y-88841428D01*
X191922199Y-88678802D01*
X192112500Y-88637500D01*
X192158572Y-88638555D01*
X192321198Y-88697198D01*
X192362500Y-88887500D01*
X192363556Y-88933571D01*
X192422199Y-89096197D01*
X192612500Y-89137500D01*
X192712831Y-89132763D01*
X192813030Y-89082284D01*
X192854395Y-88934244D01*
X192862500Y-88637500D01*
X192860132Y-88436838D01*
X192834893Y-88236441D01*
X192760873Y-88153711D01*
X192612500Y-88137500D01*
X192566429Y-88136444D01*
X192403803Y-88077801D01*
X192362500Y-87887500D01*
X192363556Y-87841428D01*
X192422199Y-87678802D01*
X192612500Y-87637500D01*
X193362500Y-87637500D01*
X193364869Y-87838161D01*
X193390108Y-88038558D01*
X193464128Y-88121288D01*
X193612500Y-88137500D01*
X193712831Y-88132763D01*
X193813030Y-88082284D01*
X193854395Y-87934244D01*
X193862500Y-87637500D01*
X193860132Y-87436838D01*
X193834893Y-87236441D01*
X193760873Y-87153711D01*
X193612500Y-87137500D01*
X193512170Y-87142236D01*
X193411971Y-87192715D01*
X193370606Y-87340755D01*
X193362500Y-87637500D01*
X192612500Y-87637500D01*
X192658572Y-87636444D01*
X192821198Y-87577801D01*
X192862500Y-87387500D01*
X192863556Y-87341428D01*
X192922199Y-87178802D01*
X193112500Y-87137500D01*
X193158572Y-87136444D01*
X193321198Y-87077801D01*
X193362500Y-86887500D01*
X193363556Y-86841428D01*
X193422199Y-86678802D01*
X193612500Y-86637500D01*
X193658572Y-86638555D01*
X193821198Y-86697198D01*
X193862500Y-86887500D01*
X193863556Y-86933571D01*
X193922199Y-87096197D01*
X194112500Y-87137500D01*
X194158572Y-87138555D01*
X194321198Y-87197198D01*
X194362500Y-87387500D01*
X194363556Y-87433571D01*
X194422199Y-87596197D01*
X194612500Y-87637500D01*
X194658572Y-87638555D01*
X194821198Y-87697198D01*
X194862500Y-87887500D01*
X194867237Y-87987830D01*
X194917716Y-88088029D01*
X195065756Y-88129394D01*
X195362500Y-88137500D01*
X195563162Y-88139868D01*
X195763559Y-88165107D01*
X195846289Y-88239127D01*
X195862500Y-88387500D01*
X195867237Y-88487830D01*
X195917716Y-88588029D01*
X196065756Y-88629394D01*
X196362500Y-88637500D01*
X196563162Y-88635131D01*
X196763559Y-88609892D01*
X196846289Y-88535872D01*
X196862500Y-88387500D01*
X196861445Y-88341428D01*
X196802802Y-88178802D01*
X196612500Y-88137500D01*
X196566429Y-88136444D01*
X196403803Y-88077801D01*
X196362500Y-87887500D01*
X196363556Y-87841428D01*
X196422199Y-87678802D01*
X196612500Y-87637500D01*
X196658572Y-87636444D01*
X196821198Y-87577801D01*
X196862500Y-87387500D01*
X196863556Y-87341428D01*
X196922199Y-87178802D01*
X197112500Y-87137500D01*
X197158572Y-87138555D01*
X197321198Y-87197198D01*
X197362500Y-87387500D01*
X197361445Y-87433571D01*
X197302802Y-87596197D01*
X197112500Y-87637500D01*
X197066429Y-87638555D01*
X196903803Y-87697198D01*
X196862500Y-87887500D01*
X196863556Y-87933571D01*
X196922199Y-88096197D01*
X197112500Y-88137500D01*
X197158572Y-88138555D01*
X197321198Y-88197198D01*
X197362500Y-88387500D01*
X197361445Y-88433571D01*
X197302802Y-88596197D01*
X197112500Y-88637500D01*
X197066429Y-88638555D01*
X196903803Y-88697198D01*
X196862500Y-88887500D01*
X196857764Y-88987830D01*
X196807285Y-89088029D01*
X196659245Y-89129394D01*
X196362500Y-89137500D01*
X196161839Y-89139868D01*
X195961442Y-89165107D01*
X195878712Y-89239127D01*
X195862500Y-89387500D01*
X195861445Y-89433571D01*
X195802802Y-89596197D01*
X195612500Y-89637500D01*
X195566429Y-89636444D01*
X195403803Y-89577801D01*
X195362500Y-89387500D01*
X195363556Y-89341428D01*
X195422199Y-89178802D01*
X195612500Y-89137500D01*
X195658572Y-89136444D01*
X195821198Y-89077801D01*
X195862500Y-88887500D01*
X195857764Y-88787169D01*
X195807285Y-88686970D01*
X195659245Y-88645605D01*
X195362500Y-88637500D01*
X195161839Y-88635131D01*
X194961442Y-88609892D01*
X194878712Y-88535872D01*
X194862500Y-88387500D01*
X194861445Y-88341428D01*
X194802802Y-88178802D01*
X194612500Y-88137500D01*
X194566429Y-88138555D01*
X194403803Y-88197198D01*
X194362500Y-88387500D01*
X194357764Y-88487830D01*
X194307285Y-88588029D01*
X194159245Y-88629394D01*
X193862500Y-88637500D01*
X193661839Y-88639868D01*
X193461442Y-88665107D01*
X193378712Y-88739127D01*
X193362500Y-88887500D01*
X193363556Y-88933571D01*
X193422199Y-89096197D01*
X193612500Y-89137500D01*
X193700309Y-89140257D01*
X193792332Y-89174525D01*
X193840676Y-89282403D01*
X193859385Y-89506018D01*
X193862500Y-89887500D01*
X193861581Y-90150925D01*
X193850159Y-90426993D01*
X193814199Y-90572027D01*
X193739661Y-90628153D01*
X193612500Y-90637500D01*
X193512170Y-90632763D01*
X193411971Y-90582284D01*
X193370606Y-90434244D01*
X193362500Y-90137500D01*
X193362500Y-89637500D01*
X192862500Y-89637500D01*
X192661839Y-89639868D01*
X192461442Y-89665107D01*
X192378712Y-89739127D01*
X192362500Y-89887500D01*
X192363556Y-89933571D01*
X192422199Y-90096197D01*
X192612500Y-90137500D01*
X192712831Y-90142236D01*
X192813030Y-90192715D01*
X192854395Y-90340755D01*
X192862500Y-90637500D01*
X192864869Y-90838161D01*
X192890108Y-91038558D01*
X192964128Y-91121288D01*
X193112500Y-91137500D01*
X193212831Y-91142236D01*
X193313030Y-91192715D01*
X193354395Y-91340755D01*
X193362500Y-91637500D01*
X193362500Y-92137500D01*
X193862500Y-92137500D01*
X194063162Y-92139868D01*
X194263559Y-92165107D01*
X194346289Y-92239127D01*
X194362500Y-92387500D01*
X194357764Y-92487830D01*
X194307285Y-92588029D01*
X194159245Y-92629394D01*
X193862500Y-92637500D01*
X193362500Y-92637500D01*
X193362500Y-93137500D01*
X193364869Y-93338161D01*
G37*
G36*
X194658572Y-90138555D02*
G01*
X194821198Y-90197198D01*
X194862500Y-90387500D01*
X194863556Y-90433571D01*
X194922199Y-90596197D01*
X195112500Y-90637500D01*
X195158572Y-90638555D01*
X195321198Y-90697198D01*
X195362500Y-90887500D01*
X195363556Y-90933571D01*
X195422199Y-91096197D01*
X195612500Y-91137500D01*
X195658572Y-91138555D01*
X195821198Y-91197198D01*
X195862500Y-91387500D01*
X195857764Y-91487830D01*
X195807285Y-91588029D01*
X195659245Y-91629394D01*
X195362500Y-91637500D01*
X194862500Y-91637500D01*
X194862500Y-91137500D01*
X194860132Y-90936838D01*
X194834893Y-90736441D01*
X194760873Y-90653711D01*
X194612500Y-90637500D01*
X194566429Y-90636444D01*
X194403803Y-90577801D01*
X194362500Y-90387500D01*
X194363556Y-90341428D01*
X194422199Y-90178802D01*
X194612500Y-90137500D01*
X194658572Y-90138555D01*
G37*
G36*
X189658572Y-94638555D02*
G01*
X189821198Y-94697198D01*
X189862500Y-94887500D01*
X189861445Y-94933571D01*
X189802802Y-95096197D01*
X189612500Y-95137500D01*
X189566429Y-95136444D01*
X189403803Y-95077801D01*
X189362500Y-94887500D01*
X189363556Y-94841428D01*
X189422199Y-94678802D01*
X189612500Y-94637500D01*
X189658572Y-94638555D01*
G37*
G36*
X194158572Y-85638555D02*
G01*
X194321198Y-85697198D01*
X194362500Y-85887500D01*
X194361445Y-85933571D01*
X194302802Y-86096197D01*
X194112500Y-86137500D01*
X194066429Y-86136444D01*
X193903803Y-86077801D01*
X193862500Y-85887500D01*
X193863556Y-85841428D01*
X193922199Y-85678802D01*
X194112500Y-85637500D01*
X194158572Y-85638555D01*
G37*
G36*
X194375926Y-94638419D02*
G01*
X194651994Y-94649841D01*
X194797028Y-94685801D01*
X194853154Y-94760339D01*
X194862500Y-94887500D01*
X194859743Y-94975308D01*
X194825475Y-95067331D01*
X194717597Y-95115675D01*
X194493982Y-95134384D01*
X194112500Y-95137500D01*
X193849075Y-95136580D01*
X193573007Y-95125158D01*
X193427973Y-95089198D01*
X193371847Y-95014660D01*
X193362500Y-94887500D01*
X193365258Y-94799691D01*
X193399526Y-94707668D01*
X193507404Y-94659324D01*
X193731019Y-94640615D01*
X194112500Y-94637500D01*
X194375926Y-94638419D01*
G37*
G36*
X198158572Y-87138555D02*
G01*
X198321198Y-87197198D01*
X198362500Y-87387500D01*
X198361445Y-87433571D01*
X198302802Y-87596197D01*
X198112500Y-87637500D01*
X198066429Y-87636444D01*
X197903803Y-87577801D01*
X197862500Y-87387500D01*
X197863556Y-87341428D01*
X197922199Y-87178802D01*
X198112500Y-87137500D01*
X198158572Y-87138555D01*
G37*
%LPC*%
D11*
X128262500Y-130037500D03*
D12*
X146152500Y-91737500D03*
D13*
X143612500Y-91737500D03*
X141072500Y-91737500D03*
X135992500Y-91737500D03*
X133452500Y-91737500D03*
X130912500Y-91737500D03*
X128372500Y-91737500D03*
D11*
X207262500Y-107037500D03*
X208262500Y-52037500D03*
G36*
G01*
X150112500Y-56087500D02*
X150112500Y-52987500D01*
G75*
G02*
X150362500Y-52737500I250000J0D01*
G01*
X151662500Y-52737500D01*
G75*
G02*
X151912500Y-52987500I0J-250000D01*
G01*
X151912500Y-56087500D01*
G75*
G02*
X151662500Y-56337500I-250000J0D01*
G01*
X150362500Y-56337500D01*
G75*
G02*
X150112500Y-56087500I0J250000D01*
G01*
G37*
D14*
X154512500Y-54537500D03*
X158012500Y-54537500D03*
X161512500Y-54537500D03*
X165012500Y-54537500D03*
G36*
G01*
X145412500Y-125987500D02*
X145412500Y-129087500D01*
G75*
G02*
X145162500Y-129337500I-250000J0D01*
G01*
X143862500Y-129337500D01*
G75*
G02*
X143612500Y-129087500I0J250000D01*
G01*
X143612500Y-125987500D01*
G75*
G02*
X143862500Y-125737500I250000J0D01*
G01*
X145162500Y-125737500D01*
G75*
G02*
X145412500Y-125987500I0J-250000D01*
G01*
G37*
X141012500Y-127537500D03*
X137512500Y-127537500D03*
X134012500Y-127537500D03*
X130512500Y-127537500D03*
G36*
G01*
X191112500Y-56087500D02*
X191112500Y-52987500D01*
G75*
G02*
X191362500Y-52737500I250000J0D01*
G01*
X192662500Y-52737500D01*
G75*
G02*
X192912500Y-52987500I0J-250000D01*
G01*
X192912500Y-56087500D01*
G75*
G02*
X192662500Y-56337500I-250000J0D01*
G01*
X191362500Y-56337500D01*
G75*
G02*
X191112500Y-56087500I0J250000D01*
G01*
G37*
X195512500Y-54537500D03*
X199012500Y-54537500D03*
X202512500Y-54537500D03*
X206012500Y-54537500D03*
G36*
G01*
X129612500Y-56087500D02*
X129612500Y-52987500D01*
G75*
G02*
X129862500Y-52737500I250000J0D01*
G01*
X131162500Y-52737500D01*
G75*
G02*
X131412500Y-52987500I0J-250000D01*
G01*
X131412500Y-56087500D01*
G75*
G02*
X131162500Y-56337500I-250000J0D01*
G01*
X129862500Y-56337500D01*
G75*
G02*
X129612500Y-56087500I0J250000D01*
G01*
G37*
X134012500Y-54537500D03*
X137512500Y-54537500D03*
X141012500Y-54537500D03*
X144512500Y-54537500D03*
G36*
G01*
X206912500Y-125987500D02*
X206912500Y-129087500D01*
G75*
G02*
X206662500Y-129337500I-250000J0D01*
G01*
X205362500Y-129337500D01*
G75*
G02*
X205112500Y-129087500I0J250000D01*
G01*
X205112500Y-125987500D01*
G75*
G02*
X205362500Y-125737500I250000J0D01*
G01*
X206662500Y-125737500D01*
G75*
G02*
X206912500Y-125987500I0J-250000D01*
G01*
G37*
X202512500Y-127537500D03*
X199012500Y-127537500D03*
X195512500Y-127537500D03*
X192012500Y-127537500D03*
G36*
G01*
X170612500Y-56087500D02*
X170612500Y-52987500D01*
G75*
G02*
X170862500Y-52737500I250000J0D01*
G01*
X172162500Y-52737500D01*
G75*
G02*
X172412500Y-52987500I0J-250000D01*
G01*
X172412500Y-56087500D01*
G75*
G02*
X172162500Y-56337500I-250000J0D01*
G01*
X170862500Y-56337500D01*
G75*
G02*
X170612500Y-56087500I0J250000D01*
G01*
G37*
X175012500Y-54537500D03*
X178512500Y-54537500D03*
X182012500Y-54537500D03*
X185512500Y-54537500D03*
G36*
G01*
X165912500Y-125987500D02*
X165912500Y-129087500D01*
G75*
G02*
X165662500Y-129337500I-250000J0D01*
G01*
X164362500Y-129337500D01*
G75*
G02*
X164112500Y-129087500I0J250000D01*
G01*
X164112500Y-125987500D01*
G75*
G02*
X164362500Y-125737500I250000J0D01*
G01*
X165662500Y-125737500D01*
G75*
G02*
X165912500Y-125987500I0J-250000D01*
G01*
G37*
X161512500Y-127537500D03*
X158012500Y-127537500D03*
X154512500Y-127537500D03*
X151012500Y-127537500D03*
G36*
G01*
X186412500Y-125987500D02*
X186412500Y-129087500D01*
G75*
G02*
X186162500Y-129337500I-250000J0D01*
G01*
X184862500Y-129337500D01*
G75*
G02*
X184612500Y-129087500I0J250000D01*
G01*
X184612500Y-125987500D01*
G75*
G02*
X184862500Y-125737500I250000J0D01*
G01*
X186162500Y-125737500D01*
G75*
G02*
X186412500Y-125987500I0J-250000D01*
G01*
G37*
X182012500Y-127537500D03*
X178512500Y-127537500D03*
X175012500Y-127537500D03*
X171512500Y-127537500D03*
M02*
