M48
; FORMAT={-:-/ absolute / metric / decimal}
; #@! TF.GenerationSoftware,Kicad,Pcbnew,6.0.10+dfsg-1~bpo11+1
; #@! TF.FileFunction,Plated,1,2,PTH
FMAT,2
METRIC
; #@! TA.AperFunction,Plated,PTH,ViaDrill
T1C0.300
; #@! TA.AperFunction,Plated,PTH,ComponentDrill
T2C0.850
; #@! TA.AperFunction,Plated,PTH,ComponentDrill
T3C1.200
%
G90
G05
T1
X126.5Y-88.725
X127.0Y-87.975
X127.5Y-88.725
X128.762Y-105.725
X128.762Y-107.037
X128.762Y-108.787
X128.762Y-109.787
X128.8Y-99.537
X129.262Y-108.287
X129.262Y-109.287
X129.262Y-110.287
X130.262Y-63.787
X130.567Y-112.68
X130.762Y-99.062
X130.762Y-101.0
X131.562Y-63.887
X131.562Y-70.188
X132.0Y-79.0
X132.0Y-80.0
X132.475Y-72.537
X132.762Y-106.537
X133.0Y-81.0
X133.762Y-106.537
X134.0Y-81.0
X134.102Y-63.887
X134.102Y-70.188
X134.159Y-96.003
X134.313Y-97.037
X134.512Y-103.787
X135.0Y-81.0
X135.012Y-96.287
X135.067Y-112.68
X136.0Y-81.0
X136.475Y-72.537
X136.653Y-63.887
X136.653Y-70.188
X137.0Y-81.0
X137.113Y-95.012
X137.762Y-89.787
X137.762Y-90.537
X137.762Y-91.287
X138.0Y-81.0
X138.012Y-95.037
X138.512Y-74.537
X138.512Y-89.787
X138.512Y-90.537
X138.512Y-91.287
X138.55Y-77.537
X138.762Y-95.787
X139.0Y-81.0
X139.183Y-63.887
X139.183Y-70.188
X139.512Y-106.787
X139.567Y-112.68
X140.75Y-77.25
X141.788Y-107.313
X142.25Y-74.237
X142.512Y-70.5
X143.75Y-79.25
X143.75Y-84.5
X144.067Y-112.68
X145.25Y-86.0
X145.75Y-98.037
X146.0Y-75.25
X146.25Y-80.962
X146.25Y-83.037
X146.5Y-73.25
X146.787Y-77.5
X147.762Y-92.037
X148.0Y-71.5
X148.0Y-85.0
X148.25Y-69.75
X149.0Y-86.0
X149.25Y-75.0
X149.25Y-83.5
X149.5Y-71.25
X149.75Y-77.75
X150.781Y-78.52
X151.067Y-112.712
X151.25Y-76.25
X151.738Y-70.25
X151.75Y-71.25
X151.75Y-80.75
X152.75Y-79.75
X152.75Y-81.75
X152.767Y-80.767
X153.0Y-83.5
X153.012Y-70.5
X153.523Y-74.465
X153.75Y-80.75
X154.0Y-79.0
X154.0Y-90.0
X154.0Y-91.0
X154.0Y-92.0
X154.0Y-93.0
X154.0Y-94.0
X154.25Y-86.75
X155.0Y-80.0
X155.0Y-95.0
X155.062Y-63.887
X155.062Y-70.188
X155.567Y-112.712
X155.75Y-87.25
X156.0Y-81.0
X156.0Y-95.0
X156.375Y-87.875
X157.0Y-82.0
X157.0Y-95.0
X157.012Y-74.537
X157.125Y-88.625
X157.225Y-77.287
X157.602Y-63.887
X157.602Y-70.188
X157.875Y-89.375
X158.0Y-83.0
X158.0Y-95.0
X158.5Y-90.0
X159.0Y-84.0
X159.0Y-95.0
X159.05Y-72.537
X159.75Y-80.0
X160.0Y-85.0
X160.0Y-95.0
X160.067Y-112.712
X160.153Y-63.887
X160.153Y-70.188
X160.75Y-76.0
X161.0Y-86.0
X161.0Y-95.0
X161.5Y-93.0
X162.0Y-87.0
X162.125Y-93.625
X162.25Y-91.25
X162.683Y-63.887
X162.683Y-70.188
X162.75Y-94.25
X163.0Y-83.0
X163.0Y-88.0
X163.012Y-77.287
X163.05Y-72.537
X163.233Y-91.233
X163.25Y-90.25
X163.25Y-92.25
X163.275Y-81.25
X164.0Y-89.0
X164.0Y-93.0
X164.25Y-91.25
X164.567Y-112.712
X165.0Y-90.0
X165.0Y-92.0
X165.0Y-94.0
X165.0Y-97.0
X166.0Y-91.0
X166.0Y-93.0
X167.0Y-86.0
X167.0Y-92.0
X167.0Y-94.0
X167.0Y-97.0
X168.0Y-86.0
X168.0Y-102.0
X169.0Y-86.0
X169.0Y-94.0
X169.0Y-97.0
X169.0Y-102.0
X170.0Y-86.0
X170.0Y-102.0
X170.225Y-89.275
X170.262Y-91.287
X171.0Y-86.0
X171.0Y-97.0
X171.567Y-112.712
X172.0Y-86.0
X172.012Y-74.037
X172.25Y-101.212
X172.262Y-61.938
X173.0Y-97.0
X173.312Y-86.938
X173.512Y-70.537
X173.512Y-77.037
X173.75Y-98.0
X173.75Y-98.75
X173.75Y-99.5
X174.0Y-102.0
X174.225Y-89.287
X174.262Y-91.287
X174.593Y-80.638
X175.0Y-102.0
X175.852Y-86.938
X176.0Y-102.0
X176.067Y-112.712
X177.0Y-102.0
X177.012Y-74.037
X177.123Y-80.638
X177.25Y-98.0
X177.25Y-98.75
X177.25Y-99.5
X177.262Y-61.938
X178.0Y-102.0
X178.225Y-89.287
X178.403Y-86.938
X178.512Y-70.537
X178.512Y-77.037
X179.0Y-102.0
X179.672Y-80.638
X180.262Y-91.287
X180.567Y-112.712
X180.933Y-86.938
X182.0Y-103.0
X182.012Y-74.037
X182.213Y-80.638
X182.262Y-61.938
X182.262Y-91.287
X183.0Y-103.0
X183.512Y-70.537
X183.512Y-77.037
X184.0Y-103.0
X184.262Y-87.0
X185.0Y-103.0
X185.067Y-112.712
X185.5Y-92.25
X186.463Y-86.25
X186.475Y-103.0
X186.762Y-74.037
X187.262Y-61.938
X187.75Y-92.25
X188.0Y-90.25
X188.75Y-87.75
X188.762Y-70.537
X188.762Y-77.037
X190.462Y-86.25
X190.75Y-90.0
X190.75Y-94.0
X192.067Y-112.712
X192.512Y-74.037
X192.762Y-61.938
X193.5Y-88.363
X194.0Y-95.0
X194.0Y-96.0
X194.0Y-103.0
X194.012Y-70.537
X194.012Y-77.037
X194.647Y-90.939
X194.762Y-87.0
X195.0Y-95.0
X195.0Y-96.0
X195.0Y-103.0
X196.0Y-103.0
X196.567Y-112.712
X196.75Y-93.037
X196.762Y-91.287
X196.812Y-86.938
X197.0Y-103.0
X197.512Y-74.037
X197.762Y-61.938
X198.0Y-103.0
X198.093Y-80.638
X199.0Y-103.0
X199.012Y-70.537
X199.012Y-77.037
X199.352Y-86.938
X200.0Y-103.0
X200.623Y-80.638
X200.8Y-89.287
X201.0Y-103.0
X201.067Y-112.712
X201.75Y-98.0
X201.75Y-98.75
X201.75Y-99.5
X201.903Y-86.938
X202.0Y-103.0
X202.512Y-67.787
X202.512Y-74.037
X202.725Y-89.287
X202.762Y-61.938
X203.0Y-103.0
X203.012Y-77.787
X203.172Y-80.638
X204.0Y-103.0
X204.433Y-86.938
X205.0Y-95.0
X205.0Y-96.0
X205.0Y-97.0
X205.0Y-101.0
X205.0Y-102.0
X205.012Y-70.287
X205.012Y-77.787
X205.25Y-98.0
X205.25Y-98.75
X205.25Y-99.5
X205.512Y-62.037
X205.567Y-112.712
X205.712Y-80.638
X207.512Y-74.037
T2
X150.11Y-100.15
X152.65Y-100.15
X155.19Y-100.15
X157.73Y-100.15
X162.81Y-100.15
X165.35Y-100.15
X167.89Y-100.15
T3
X130.512Y-54.537
X130.512Y-127.537
X134.012Y-54.537
X134.012Y-127.537
X137.512Y-54.537
X137.512Y-127.537
X141.012Y-54.537
X141.012Y-127.537
X144.512Y-54.537
X144.512Y-127.537
X151.012Y-54.537
X151.012Y-127.57
X154.512Y-54.537
X154.512Y-127.57
X158.012Y-54.537
X158.012Y-127.57
X161.512Y-54.537
X161.512Y-127.57
X165.012Y-54.537
X165.012Y-127.57
X171.512Y-54.537
X171.512Y-127.57
X175.012Y-54.537
X175.012Y-127.57
X178.512Y-54.537
X178.512Y-127.57
X182.012Y-54.537
X182.012Y-127.57
X185.512Y-54.537
X185.512Y-127.57
X192.012Y-54.537
X192.012Y-127.57
X195.512Y-54.537
X195.512Y-127.57
X199.012Y-54.537
X199.012Y-127.57
X202.512Y-54.537
X202.512Y-127.57
X206.012Y-54.537
X206.012Y-127.57
T0
M30
